M48
; DRILL file {KiCad (5.1.4)-1} date 02/13/22 22:58:13
; FORMAT={-:-/ absolute / inch / decimal}
; #@! TF.CreationDate,2022-02-13T22:58:13-05:00
; #@! TF.GenerationSoftware,Kicad,Pcbnew,(5.1.4)-1
; #@! TF.FileFunction,NonPlated,1,2,NPTH
FMAT,2
INCH
T1C0.0256
T2C0.0689
T3C0.1181
T4C0.1200
T5C0.1570
%
G90
G05
T1
X5.8762Y-1.5611
X6.1038Y-1.5611
T2
X6.915Y-3.365
X7.315Y-3.365
X4.665Y-2.99
X5.065Y-2.99
X4.665Y-3.74
X5.065Y-3.74
X5.415Y-4.49
X5.815Y-4.49
X6.915Y-2.24
X7.315Y-2.24
X5.04Y-5.24
X5.44Y-5.24
X6.165Y-2.24
X6.565Y-2.24
X6.165Y-3.74
X6.565Y-3.74
X6.165Y-2.99
X6.565Y-2.99
X4.665Y-2.24
X5.065Y-2.24
X4.665Y-4.49
X5.065Y-4.49
X6.915Y-4.865
X7.315Y-4.865
X5.415Y-2.99
X5.815Y-2.99
X5.415Y-3.74
X5.815Y-3.74
X6.165Y-4.49
X6.565Y-4.49
X5.415Y-2.24
X5.815Y-2.24
X6.165Y-5.24
X6.565Y-5.24
T3
X5.465Y-3.64
X5.715Y-3.54
X6.215Y-4.39
X6.465Y-4.29
X5.465Y-2.14
X5.715Y-2.04
X6.215Y-5.14
X6.465Y-5.04
X6.965Y-3.265
X7.215Y-3.165
X4.715Y-2.89
X4.965Y-2.79
X4.715Y-3.64
X4.965Y-3.54
X5.465Y-4.39
X5.715Y-4.29
X6.965Y-2.14
X7.215Y-2.04
X5.09Y-5.14
X5.34Y-5.04
X6.215Y-2.14
X6.465Y-2.04
X6.215Y-3.64
X6.465Y-3.54
X6.215Y-2.89
X6.465Y-2.79
X4.715Y-2.14
X4.965Y-2.04
X4.715Y-4.39
X4.965Y-4.29
X6.965Y-4.765
X7.215Y-4.665
X5.465Y-2.89
X5.715Y-2.79
T4
X4.77Y-4.965
X5.71Y-4.965
X6.84Y-4.395
X6.84Y-5.335
X6.84Y-2.895
X6.84Y-3.835
T5
X7.115Y-2.24
X4.77Y-5.565
X5.24Y-5.24
X5.71Y-5.565
X6.365Y-2.24
X6.365Y-3.74
X6.365Y-2.99
X4.865Y-2.24
X4.865Y-4.49
X7.115Y-4.865
X7.44Y-4.395
X7.44Y-5.335
X5.615Y-2.99
X5.615Y-3.74
X6.365Y-4.49
X5.615Y-2.24
X6.365Y-5.24
X7.115Y-3.365
X7.44Y-2.895
X7.44Y-3.835
X4.865Y-2.99
X4.865Y-3.74
X5.615Y-4.49
T0
M30
