G04 #@! TF.GenerationSoftware,KiCad,Pcbnew,(5.1.4)-1*
G04 #@! TF.CreationDate,2022-02-13T22:58:11-05:00*
G04 #@! TF.ProjectId,INT-1,494e542d-312e-46b6-9963-61645f706362,rev?*
G04 #@! TF.SameCoordinates,Original*
G04 #@! TF.FileFunction,Soldermask,Bot*
G04 #@! TF.FilePolarity,Negative*
%FSLAX46Y46*%
G04 Gerber Fmt 4.6, Leading zero omitted, Abs format (unit mm)*
G04 Created by KiCad (PCBNEW (5.1.4)-1) date 2022-02-13 22:58:11*
%MOMM*%
%LPD*%
G04 APERTURE LIST*
%ADD10C,0.100000*%
G04 APERTURE END LIST*
D10*
G36*
X190009331Y-141143211D02*
G01*
X190337092Y-141278974D01*
X190632070Y-141476072D01*
X190882928Y-141726930D01*
X191080026Y-142021908D01*
X191215789Y-142349669D01*
X191285000Y-142697616D01*
X191285000Y-143052384D01*
X191215789Y-143400331D01*
X191080026Y-143728092D01*
X190882928Y-144023070D01*
X190632070Y-144273928D01*
X190337092Y-144471026D01*
X190009331Y-144606789D01*
X189661384Y-144676000D01*
X189306616Y-144676000D01*
X188958669Y-144606789D01*
X188630908Y-144471026D01*
X188335930Y-144273928D01*
X188085072Y-144023070D01*
X187887974Y-143728092D01*
X187752211Y-143400331D01*
X187683000Y-143052384D01*
X187683000Y-142697616D01*
X187752211Y-142349669D01*
X187887974Y-142021908D01*
X188085072Y-141726930D01*
X188335930Y-141476072D01*
X188630908Y-141278974D01*
X188958669Y-141143211D01*
X189306616Y-141074000D01*
X189661384Y-141074000D01*
X190009331Y-141143211D01*
X190009331Y-141143211D01*
G37*
G36*
X115206331Y-141143211D02*
G01*
X115534092Y-141278974D01*
X115829070Y-141476072D01*
X116079928Y-141726930D01*
X116277026Y-142021908D01*
X116412789Y-142349669D01*
X116482000Y-142697616D01*
X116482000Y-143052384D01*
X116412789Y-143400331D01*
X116277026Y-143728092D01*
X116079928Y-144023070D01*
X115829070Y-144273928D01*
X115534092Y-144471026D01*
X115206331Y-144606789D01*
X114858384Y-144676000D01*
X114503616Y-144676000D01*
X114155669Y-144606789D01*
X113827908Y-144471026D01*
X113532930Y-144273928D01*
X113282072Y-144023070D01*
X113084974Y-143728092D01*
X112949211Y-143400331D01*
X112880000Y-143052384D01*
X112880000Y-142697616D01*
X112949211Y-142349669D01*
X113084974Y-142021908D01*
X113282072Y-141726930D01*
X113532930Y-141476072D01*
X113827908Y-141278974D01*
X114155669Y-141143211D01*
X114503616Y-141074000D01*
X114858384Y-141074000D01*
X115206331Y-141143211D01*
X115206331Y-141143211D01*
G37*
G36*
X121754474Y-139384684D02*
G01*
X121972474Y-139474983D01*
X122126623Y-139538833D01*
X122461548Y-139762623D01*
X122746377Y-140047452D01*
X122970167Y-140382377D01*
X122970167Y-140382378D01*
X123124316Y-140754526D01*
X123202900Y-141149594D01*
X123202900Y-141552406D01*
X123124316Y-141947474D01*
X123093484Y-142021908D01*
X122970167Y-142319623D01*
X122746377Y-142654548D01*
X122461548Y-142939377D01*
X122126623Y-143163167D01*
X121972474Y-143227017D01*
X121754474Y-143317316D01*
X121359406Y-143395900D01*
X120956594Y-143395900D01*
X120561526Y-143317316D01*
X120343526Y-143227017D01*
X120189377Y-143163167D01*
X119854452Y-142939377D01*
X119569623Y-142654548D01*
X119345833Y-142319623D01*
X119222516Y-142021908D01*
X119191684Y-141947474D01*
X119113100Y-141552406D01*
X119113100Y-141149594D01*
X119191684Y-140754526D01*
X119345833Y-140382378D01*
X119345833Y-140382377D01*
X119569623Y-140047452D01*
X119854452Y-139762623D01*
X120189377Y-139538833D01*
X120343526Y-139474983D01*
X120561526Y-139384684D01*
X120956594Y-139306100D01*
X121359406Y-139306100D01*
X121754474Y-139384684D01*
X121754474Y-139384684D01*
G37*
G36*
X145630474Y-139384684D02*
G01*
X145848474Y-139474983D01*
X146002623Y-139538833D01*
X146337548Y-139762623D01*
X146622377Y-140047452D01*
X146846167Y-140382377D01*
X146846167Y-140382378D01*
X147000316Y-140754526D01*
X147078900Y-141149594D01*
X147078900Y-141552406D01*
X147000316Y-141947474D01*
X146969484Y-142021908D01*
X146846167Y-142319623D01*
X146622377Y-142654548D01*
X146337548Y-142939377D01*
X146002623Y-143163167D01*
X145848474Y-143227017D01*
X145630474Y-143317316D01*
X145235406Y-143395900D01*
X144832594Y-143395900D01*
X144437526Y-143317316D01*
X144219526Y-143227017D01*
X144065377Y-143163167D01*
X143730452Y-142939377D01*
X143445623Y-142654548D01*
X143221833Y-142319623D01*
X143098516Y-142021908D01*
X143067684Y-141947474D01*
X142989100Y-141552406D01*
X142989100Y-141149594D01*
X143067684Y-140754526D01*
X143221833Y-140382378D01*
X143221833Y-140382377D01*
X143445623Y-140047452D01*
X143730452Y-139762623D01*
X144065377Y-139538833D01*
X144219526Y-139474983D01*
X144437526Y-139384684D01*
X144832594Y-139306100D01*
X145235406Y-139306100D01*
X145630474Y-139384684D01*
X145630474Y-139384684D01*
G37*
G36*
X138827000Y-139184000D02*
G01*
X137525000Y-139184000D01*
X137525000Y-138182000D01*
X138827000Y-138182000D01*
X138827000Y-139184000D01*
X138827000Y-139184000D01*
G37*
G36*
X167402000Y-139184000D02*
G01*
X166100000Y-139184000D01*
X166100000Y-138182000D01*
X167402000Y-138182000D01*
X167402000Y-139184000D01*
X167402000Y-139184000D01*
G37*
G36*
X189572474Y-133542684D02*
G01*
X189790474Y-133632983D01*
X189944623Y-133696833D01*
X190279548Y-133920623D01*
X190564377Y-134205452D01*
X190788167Y-134540377D01*
X190788167Y-134540378D01*
X190942316Y-134912526D01*
X191020900Y-135307594D01*
X191020900Y-135710406D01*
X190942316Y-136105474D01*
X190880363Y-136255041D01*
X190788167Y-136477623D01*
X190564377Y-136812548D01*
X190279548Y-137097377D01*
X189944623Y-137321167D01*
X189790474Y-137385017D01*
X189572474Y-137475316D01*
X189177406Y-137553900D01*
X188774594Y-137553900D01*
X188379526Y-137475316D01*
X188161526Y-137385017D01*
X188007377Y-137321167D01*
X187672452Y-137097377D01*
X187387623Y-136812548D01*
X187163833Y-136477623D01*
X187071637Y-136255041D01*
X187009684Y-136105474D01*
X186931100Y-135710406D01*
X186931100Y-135307594D01*
X187009684Y-134912526D01*
X187163833Y-134540378D01*
X187163833Y-134540377D01*
X187387623Y-134205452D01*
X187672452Y-133920623D01*
X188007377Y-133696833D01*
X188161526Y-133632983D01*
X188379526Y-133542684D01*
X188774594Y-133464100D01*
X189177406Y-133464100D01*
X189572474Y-133542684D01*
X189572474Y-133542684D01*
G37*
G36*
X174195411Y-133994526D02*
G01*
X174314137Y-134043704D01*
X174482041Y-134113252D01*
X174482042Y-134113253D01*
X174740004Y-134285617D01*
X174959383Y-134504996D01*
X174983024Y-134540378D01*
X175131748Y-134762959D01*
X175181056Y-134882000D01*
X175250474Y-135049589D01*
X175268637Y-135140900D01*
X175311000Y-135353875D01*
X175311000Y-135664125D01*
X175250474Y-135968410D01*
X175131748Y-136255041D01*
X175131747Y-136255042D01*
X174959383Y-136513004D01*
X174740004Y-136732383D01*
X174620028Y-136812548D01*
X174482041Y-136904748D01*
X174314137Y-136974296D01*
X174195411Y-137023474D01*
X174043267Y-137053737D01*
X173891125Y-137084000D01*
X173580875Y-137084000D01*
X173428733Y-137053737D01*
X173276589Y-137023474D01*
X173157863Y-136974296D01*
X172989959Y-136904748D01*
X172851972Y-136812548D01*
X172731996Y-136732383D01*
X172512617Y-136513004D01*
X172340253Y-136255042D01*
X172340252Y-136255041D01*
X172221526Y-135968410D01*
X172161000Y-135664125D01*
X172161000Y-135353875D01*
X172203363Y-135140900D01*
X172221526Y-135049589D01*
X172290944Y-134882000D01*
X172340252Y-134762959D01*
X172488976Y-134540378D01*
X172512617Y-134504996D01*
X172731996Y-134285617D01*
X172989958Y-134113253D01*
X172989959Y-134113252D01*
X173157863Y-134043704D01*
X173276589Y-133994526D01*
X173580875Y-133934000D01*
X173891125Y-133934000D01*
X174195411Y-133994526D01*
X174195411Y-133994526D01*
G37*
G36*
X138827000Y-135884000D02*
G01*
X137525000Y-135884000D01*
X137525000Y-134882000D01*
X138827000Y-134882000D01*
X138827000Y-135884000D01*
X138827000Y-135884000D01*
G37*
G36*
X167402000Y-135884000D02*
G01*
X166100000Y-135884000D01*
X166100000Y-134882000D01*
X167402000Y-134882000D01*
X167402000Y-135884000D01*
X167402000Y-135884000D01*
G37*
G36*
X133692474Y-131129684D02*
G01*
X133910474Y-131219983D01*
X134064623Y-131283833D01*
X134399548Y-131507623D01*
X134684377Y-131792452D01*
X134908167Y-132127377D01*
X134940562Y-132205586D01*
X135062316Y-132499526D01*
X135140900Y-132894594D01*
X135140900Y-133297406D01*
X135062316Y-133692474D01*
X135011451Y-133815272D01*
X134908167Y-134064623D01*
X134684377Y-134399548D01*
X134399548Y-134684377D01*
X134064623Y-134908167D01*
X133910474Y-134972017D01*
X133692474Y-135062316D01*
X133297406Y-135140900D01*
X132894594Y-135140900D01*
X132499526Y-135062316D01*
X132281526Y-134972017D01*
X132127377Y-134908167D01*
X131792452Y-134684377D01*
X131507623Y-134399548D01*
X131283833Y-134064623D01*
X131180549Y-133815272D01*
X131129684Y-133692474D01*
X131051100Y-133297406D01*
X131051100Y-132894594D01*
X131129684Y-132499526D01*
X131251438Y-132205586D01*
X131283833Y-132127377D01*
X131507623Y-131792452D01*
X131792452Y-131507623D01*
X132127377Y-131283833D01*
X132281526Y-131219983D01*
X132499526Y-131129684D01*
X132894594Y-131051100D01*
X133297406Y-131051100D01*
X133692474Y-131129684D01*
X133692474Y-131129684D01*
G37*
G36*
X162267474Y-131129684D02*
G01*
X162485474Y-131219983D01*
X162639623Y-131283833D01*
X162974548Y-131507623D01*
X163259377Y-131792452D01*
X163483167Y-132127377D01*
X163515562Y-132205586D01*
X163637316Y-132499526D01*
X163715900Y-132894594D01*
X163715900Y-133297406D01*
X163637316Y-133692474D01*
X163586451Y-133815272D01*
X163483167Y-134064623D01*
X163259377Y-134399548D01*
X162974548Y-134684377D01*
X162639623Y-134908167D01*
X162485474Y-134972017D01*
X162267474Y-135062316D01*
X161872406Y-135140900D01*
X161469594Y-135140900D01*
X161074526Y-135062316D01*
X160856526Y-134972017D01*
X160702377Y-134908167D01*
X160367452Y-134684377D01*
X160082623Y-134399548D01*
X159858833Y-134064623D01*
X159755549Y-133815272D01*
X159704684Y-133692474D01*
X159626100Y-133297406D01*
X159626100Y-132894594D01*
X159704684Y-132499526D01*
X159826438Y-132205586D01*
X159858833Y-132127377D01*
X160082623Y-131792452D01*
X160367452Y-131507623D01*
X160702377Y-131283833D01*
X160856526Y-131219983D01*
X161074526Y-131129684D01*
X161469594Y-131051100D01*
X161872406Y-131051100D01*
X162267474Y-131129684D01*
X162267474Y-131129684D01*
G37*
G36*
X156861104Y-132205585D02*
G01*
X157029626Y-132275389D01*
X157181291Y-132376728D01*
X157310272Y-132505709D01*
X157411611Y-132657374D01*
X157481415Y-132825896D01*
X157517000Y-133004797D01*
X157517000Y-133187203D01*
X157481415Y-133366104D01*
X157411611Y-133534626D01*
X157310272Y-133686291D01*
X157181291Y-133815272D01*
X157029626Y-133916611D01*
X156861104Y-133986415D01*
X156682203Y-134022000D01*
X156499797Y-134022000D01*
X156320896Y-133986415D01*
X156152374Y-133916611D01*
X156000709Y-133815272D01*
X155871728Y-133686291D01*
X155770389Y-133534626D01*
X155700585Y-133366104D01*
X155665000Y-133187203D01*
X155665000Y-133004797D01*
X155700585Y-132825896D01*
X155770389Y-132657374D01*
X155871728Y-132505709D01*
X156000709Y-132376728D01*
X156152374Y-132275389D01*
X156320896Y-132205585D01*
X156499797Y-132170000D01*
X156682203Y-132170000D01*
X156861104Y-132205585D01*
X156861104Y-132205585D01*
G37*
G36*
X167021104Y-132205585D02*
G01*
X167189626Y-132275389D01*
X167341291Y-132376728D01*
X167470272Y-132505709D01*
X167571611Y-132657374D01*
X167641415Y-132825896D01*
X167677000Y-133004797D01*
X167677000Y-133187203D01*
X167641415Y-133366104D01*
X167571611Y-133534626D01*
X167470272Y-133686291D01*
X167341291Y-133815272D01*
X167189626Y-133916611D01*
X167021104Y-133986415D01*
X166842203Y-134022000D01*
X166659797Y-134022000D01*
X166480896Y-133986415D01*
X166312374Y-133916611D01*
X166160709Y-133815272D01*
X166031728Y-133686291D01*
X165930389Y-133534626D01*
X165860585Y-133366104D01*
X165825000Y-133187203D01*
X165825000Y-133004797D01*
X165860585Y-132825896D01*
X165930389Y-132657374D01*
X166031728Y-132505709D01*
X166160709Y-132376728D01*
X166312374Y-132275389D01*
X166480896Y-132205585D01*
X166659797Y-132170000D01*
X166842203Y-132170000D01*
X167021104Y-132205585D01*
X167021104Y-132205585D01*
G37*
G36*
X138446104Y-132205585D02*
G01*
X138614626Y-132275389D01*
X138766291Y-132376728D01*
X138895272Y-132505709D01*
X138996611Y-132657374D01*
X139066415Y-132825896D01*
X139102000Y-133004797D01*
X139102000Y-133187203D01*
X139066415Y-133366104D01*
X138996611Y-133534626D01*
X138895272Y-133686291D01*
X138766291Y-133815272D01*
X138614626Y-133916611D01*
X138446104Y-133986415D01*
X138267203Y-134022000D01*
X138084797Y-134022000D01*
X137905896Y-133986415D01*
X137737374Y-133916611D01*
X137585709Y-133815272D01*
X137456728Y-133686291D01*
X137355389Y-133534626D01*
X137285585Y-133366104D01*
X137250000Y-133187203D01*
X137250000Y-133004797D01*
X137285585Y-132825896D01*
X137355389Y-132657374D01*
X137456728Y-132505709D01*
X137585709Y-132376728D01*
X137737374Y-132275389D01*
X137905896Y-132205585D01*
X138084797Y-132170000D01*
X138267203Y-132170000D01*
X138446104Y-132205585D01*
X138446104Y-132205585D01*
G37*
G36*
X128286104Y-132205585D02*
G01*
X128454626Y-132275389D01*
X128606291Y-132376728D01*
X128735272Y-132505709D01*
X128836611Y-132657374D01*
X128906415Y-132825896D01*
X128942000Y-133004797D01*
X128942000Y-133187203D01*
X128906415Y-133366104D01*
X128836611Y-133534626D01*
X128735272Y-133686291D01*
X128606291Y-133815272D01*
X128454626Y-133916611D01*
X128286104Y-133986415D01*
X128107203Y-134022000D01*
X127924797Y-134022000D01*
X127745896Y-133986415D01*
X127577374Y-133916611D01*
X127425709Y-133815272D01*
X127296728Y-133686291D01*
X127195389Y-133534626D01*
X127125585Y-133366104D01*
X127090000Y-133187203D01*
X127090000Y-133004797D01*
X127125585Y-132825896D01*
X127195389Y-132657374D01*
X127296728Y-132505709D01*
X127425709Y-132376728D01*
X127577374Y-132275389D01*
X127745896Y-132205585D01*
X127924797Y-132170000D01*
X128107203Y-132170000D01*
X128286104Y-132205585D01*
X128286104Y-132205585D01*
G37*
G36*
X129588585Y-129034802D02*
G01*
X129738410Y-129064604D01*
X130020674Y-129181521D01*
X130274705Y-129351259D01*
X130490741Y-129567295D01*
X130660479Y-129821326D01*
X130777396Y-130103590D01*
X130837000Y-130403240D01*
X130837000Y-130708760D01*
X130777396Y-131008410D01*
X130660479Y-131290674D01*
X130490741Y-131544705D01*
X130274705Y-131760741D01*
X130020674Y-131930479D01*
X129738410Y-132047396D01*
X129588585Y-132077198D01*
X129438761Y-132107000D01*
X129133239Y-132107000D01*
X128983415Y-132077198D01*
X128833590Y-132047396D01*
X128551326Y-131930479D01*
X128297295Y-131760741D01*
X128081259Y-131544705D01*
X127911521Y-131290674D01*
X127794604Y-131008410D01*
X127735000Y-130708760D01*
X127735000Y-130403240D01*
X127794604Y-130103590D01*
X127911521Y-129821326D01*
X128081259Y-129567295D01*
X128297295Y-129351259D01*
X128551326Y-129181521D01*
X128833590Y-129064604D01*
X128983415Y-129034802D01*
X129133239Y-129005000D01*
X129438761Y-129005000D01*
X129588585Y-129034802D01*
X129588585Y-129034802D01*
G37*
G36*
X158163585Y-129034802D02*
G01*
X158313410Y-129064604D01*
X158595674Y-129181521D01*
X158849705Y-129351259D01*
X159065741Y-129567295D01*
X159235479Y-129821326D01*
X159352396Y-130103590D01*
X159412000Y-130403240D01*
X159412000Y-130708760D01*
X159352396Y-131008410D01*
X159235479Y-131290674D01*
X159065741Y-131544705D01*
X158849705Y-131760741D01*
X158595674Y-131930479D01*
X158313410Y-132047396D01*
X158163585Y-132077198D01*
X158013761Y-132107000D01*
X157708239Y-132107000D01*
X157558415Y-132077198D01*
X157408590Y-132047396D01*
X157126326Y-131930479D01*
X156872295Y-131760741D01*
X156656259Y-131544705D01*
X156486521Y-131290674D01*
X156369604Y-131008410D01*
X156310000Y-130708760D01*
X156310000Y-130403240D01*
X156369604Y-130103590D01*
X156486521Y-129821326D01*
X156656259Y-129567295D01*
X156872295Y-129351259D01*
X157126326Y-129181521D01*
X157408590Y-129064604D01*
X157558415Y-129034802D01*
X157708239Y-129005000D01*
X158013761Y-129005000D01*
X158163585Y-129034802D01*
X158163585Y-129034802D01*
G37*
G36*
X155912000Y-131857000D02*
G01*
X153260000Y-131857000D01*
X153260000Y-129255000D01*
X155912000Y-129255000D01*
X155912000Y-131857000D01*
X155912000Y-131857000D01*
G37*
G36*
X127337000Y-131857000D02*
G01*
X124685000Y-131857000D01*
X124685000Y-129255000D01*
X127337000Y-129255000D01*
X127337000Y-131857000D01*
X127337000Y-131857000D01*
G37*
G36*
X186452000Y-129659000D02*
G01*
X185150000Y-129659000D01*
X185150000Y-128657000D01*
X186452000Y-128657000D01*
X186452000Y-129659000D01*
X186452000Y-129659000D01*
G37*
G36*
X135938585Y-126494802D02*
G01*
X136088410Y-126524604D01*
X136370674Y-126641521D01*
X136624705Y-126811259D01*
X136840741Y-127027295D01*
X137010479Y-127281326D01*
X137127396Y-127563590D01*
X137187000Y-127863240D01*
X137187000Y-128168760D01*
X137127396Y-128468410D01*
X137010479Y-128750674D01*
X136840741Y-129004705D01*
X136624705Y-129220741D01*
X136370674Y-129390479D01*
X136088410Y-129507396D01*
X135938585Y-129537198D01*
X135788761Y-129567000D01*
X135483239Y-129567000D01*
X135333415Y-129537198D01*
X135183590Y-129507396D01*
X134901326Y-129390479D01*
X134647295Y-129220741D01*
X134431259Y-129004705D01*
X134261521Y-128750674D01*
X134144604Y-128468410D01*
X134085000Y-128168760D01*
X134085000Y-127863240D01*
X134144604Y-127563590D01*
X134261521Y-127281326D01*
X134431259Y-127027295D01*
X134647295Y-126811259D01*
X134901326Y-126641521D01*
X135183590Y-126524604D01*
X135333415Y-126494802D01*
X135483239Y-126465000D01*
X135788761Y-126465000D01*
X135938585Y-126494802D01*
X135938585Y-126494802D01*
G37*
G36*
X164513585Y-126494802D02*
G01*
X164663410Y-126524604D01*
X164945674Y-126641521D01*
X165199705Y-126811259D01*
X165415741Y-127027295D01*
X165585479Y-127281326D01*
X165702396Y-127563590D01*
X165762000Y-127863240D01*
X165762000Y-128168760D01*
X165702396Y-128468410D01*
X165585479Y-128750674D01*
X165415741Y-129004705D01*
X165199705Y-129220741D01*
X164945674Y-129390479D01*
X164663410Y-129507396D01*
X164513585Y-129537198D01*
X164363761Y-129567000D01*
X164058239Y-129567000D01*
X163908415Y-129537198D01*
X163758590Y-129507396D01*
X163476326Y-129390479D01*
X163222295Y-129220741D01*
X163006259Y-129004705D01*
X162836521Y-128750674D01*
X162719604Y-128468410D01*
X162660000Y-128168760D01*
X162660000Y-127863240D01*
X162719604Y-127563590D01*
X162836521Y-127281326D01*
X163006259Y-127027295D01*
X163222295Y-126811259D01*
X163476326Y-126641521D01*
X163758590Y-126524604D01*
X163908415Y-126494802D01*
X164058239Y-126465000D01*
X164363761Y-126465000D01*
X164513585Y-126494802D01*
X164513585Y-126494802D01*
G37*
G36*
X140264000Y-129317000D02*
G01*
X137612000Y-129317000D01*
X137612000Y-126715000D01*
X140264000Y-126715000D01*
X140264000Y-129317000D01*
X140264000Y-129317000D01*
G37*
G36*
X168839000Y-129317000D02*
G01*
X166187000Y-129317000D01*
X166187000Y-126715000D01*
X168839000Y-126715000D01*
X168839000Y-129317000D01*
X168839000Y-129317000D01*
G37*
G36*
X145341267Y-124566263D02*
G01*
X145493411Y-124596526D01*
X145612137Y-124645704D01*
X145780041Y-124715252D01*
X145780042Y-124715253D01*
X146038004Y-124887617D01*
X146257383Y-125106996D01*
X146372553Y-125279361D01*
X146429748Y-125364959D01*
X146499296Y-125532863D01*
X146548474Y-125651589D01*
X146609000Y-125955876D01*
X146609000Y-126266124D01*
X146557586Y-126524604D01*
X146548474Y-126570410D01*
X146429748Y-126857041D01*
X146429747Y-126857042D01*
X146257383Y-127115004D01*
X146038004Y-127334383D01*
X145865639Y-127449553D01*
X145780041Y-127506748D01*
X145642809Y-127563591D01*
X145493411Y-127625474D01*
X145189125Y-127686000D01*
X144878875Y-127686000D01*
X144574589Y-127625474D01*
X144425191Y-127563591D01*
X144287959Y-127506748D01*
X144202361Y-127449553D01*
X144029996Y-127334383D01*
X143810617Y-127115004D01*
X143638253Y-126857042D01*
X143638252Y-126857041D01*
X143519526Y-126570410D01*
X143510415Y-126524604D01*
X143459000Y-126266124D01*
X143459000Y-125955876D01*
X143519526Y-125651589D01*
X143568704Y-125532863D01*
X143638252Y-125364959D01*
X143695447Y-125279361D01*
X143810617Y-125106996D01*
X144029996Y-124887617D01*
X144287958Y-124715253D01*
X144287959Y-124715252D01*
X144455863Y-124645704D01*
X144574589Y-124596526D01*
X144726733Y-124566263D01*
X144878875Y-124536000D01*
X145189125Y-124536000D01*
X145341267Y-124566263D01*
X145341267Y-124566263D01*
G37*
G36*
X121465267Y-124566263D02*
G01*
X121617411Y-124596526D01*
X121736137Y-124645704D01*
X121904041Y-124715252D01*
X121904042Y-124715253D01*
X122162004Y-124887617D01*
X122381383Y-125106996D01*
X122496553Y-125279361D01*
X122553748Y-125364959D01*
X122623296Y-125532863D01*
X122672474Y-125651589D01*
X122733000Y-125955876D01*
X122733000Y-126266124D01*
X122681586Y-126524604D01*
X122672474Y-126570410D01*
X122553748Y-126857041D01*
X122553747Y-126857042D01*
X122381383Y-127115004D01*
X122162004Y-127334383D01*
X121989639Y-127449553D01*
X121904041Y-127506748D01*
X121766809Y-127563591D01*
X121617411Y-127625474D01*
X121313125Y-127686000D01*
X121002875Y-127686000D01*
X120698589Y-127625474D01*
X120549191Y-127563591D01*
X120411959Y-127506748D01*
X120326361Y-127449553D01*
X120153996Y-127334383D01*
X119934617Y-127115004D01*
X119762253Y-126857042D01*
X119762252Y-126857041D01*
X119643526Y-126570410D01*
X119634415Y-126524604D01*
X119583000Y-126266124D01*
X119583000Y-125955876D01*
X119643526Y-125651589D01*
X119692704Y-125532863D01*
X119762252Y-125364959D01*
X119819447Y-125279361D01*
X119934617Y-125106996D01*
X120153996Y-124887617D01*
X120411958Y-124715253D01*
X120411959Y-124715252D01*
X120579863Y-124645704D01*
X120698589Y-124596526D01*
X120850733Y-124566263D01*
X121002875Y-124536000D01*
X121313125Y-124536000D01*
X121465267Y-124566263D01*
X121465267Y-124566263D01*
G37*
G36*
X186452000Y-126359000D02*
G01*
X185150000Y-126359000D01*
X185150000Y-125357000D01*
X186452000Y-125357000D01*
X186452000Y-126359000D01*
X186452000Y-126359000D01*
G37*
G36*
X181317474Y-121604684D02*
G01*
X181535474Y-121694983D01*
X181689623Y-121758833D01*
X182024548Y-121982623D01*
X182309377Y-122267452D01*
X182533167Y-122602377D01*
X182565562Y-122680586D01*
X182687316Y-122974526D01*
X182765900Y-123369594D01*
X182765900Y-123772406D01*
X182687316Y-124167474D01*
X182636451Y-124290272D01*
X182533167Y-124539623D01*
X182309377Y-124874548D01*
X182024548Y-125159377D01*
X181689623Y-125383167D01*
X181535474Y-125447017D01*
X181317474Y-125537316D01*
X180922406Y-125615900D01*
X180519594Y-125615900D01*
X180124526Y-125537316D01*
X179906526Y-125447017D01*
X179752377Y-125383167D01*
X179417452Y-125159377D01*
X179132623Y-124874548D01*
X178908833Y-124539623D01*
X178805549Y-124290272D01*
X178754684Y-124167474D01*
X178676100Y-123772406D01*
X178676100Y-123369594D01*
X178754684Y-122974526D01*
X178876438Y-122680586D01*
X178908833Y-122602377D01*
X179132623Y-122267452D01*
X179417452Y-121982623D01*
X179752377Y-121758833D01*
X179906526Y-121694983D01*
X180124526Y-121604684D01*
X180519594Y-121526100D01*
X180922406Y-121526100D01*
X181317474Y-121604684D01*
X181317474Y-121604684D01*
G37*
G36*
X175911104Y-122680585D02*
G01*
X176079626Y-122750389D01*
X176231291Y-122851728D01*
X176360272Y-122980709D01*
X176461611Y-123132374D01*
X176531415Y-123300896D01*
X176567000Y-123479797D01*
X176567000Y-123662203D01*
X176531415Y-123841104D01*
X176461611Y-124009626D01*
X176360272Y-124161291D01*
X176231291Y-124290272D01*
X176079626Y-124391611D01*
X175911104Y-124461415D01*
X175732203Y-124497000D01*
X175549797Y-124497000D01*
X175370896Y-124461415D01*
X175202374Y-124391611D01*
X175050709Y-124290272D01*
X174921728Y-124161291D01*
X174820389Y-124009626D01*
X174750585Y-123841104D01*
X174715000Y-123662203D01*
X174715000Y-123479797D01*
X174750585Y-123300896D01*
X174820389Y-123132374D01*
X174921728Y-122980709D01*
X175050709Y-122851728D01*
X175202374Y-122750389D01*
X175370896Y-122680585D01*
X175549797Y-122645000D01*
X175732203Y-122645000D01*
X175911104Y-122680585D01*
X175911104Y-122680585D01*
G37*
G36*
X186071104Y-122680585D02*
G01*
X186239626Y-122750389D01*
X186391291Y-122851728D01*
X186520272Y-122980709D01*
X186621611Y-123132374D01*
X186691415Y-123300896D01*
X186727000Y-123479797D01*
X186727000Y-123662203D01*
X186691415Y-123841104D01*
X186621611Y-124009626D01*
X186520272Y-124161291D01*
X186391291Y-124290272D01*
X186239626Y-124391611D01*
X186071104Y-124461415D01*
X185892203Y-124497000D01*
X185709797Y-124497000D01*
X185530896Y-124461415D01*
X185362374Y-124391611D01*
X185210709Y-124290272D01*
X185081728Y-124161291D01*
X184980389Y-124009626D01*
X184910585Y-123841104D01*
X184875000Y-123662203D01*
X184875000Y-123479797D01*
X184910585Y-123300896D01*
X184980389Y-123132374D01*
X185081728Y-122980709D01*
X185210709Y-122851728D01*
X185362374Y-122750389D01*
X185530896Y-122680585D01*
X185709797Y-122645000D01*
X185892203Y-122645000D01*
X186071104Y-122680585D01*
X186071104Y-122680585D01*
G37*
G36*
X177213585Y-119509802D02*
G01*
X177363410Y-119539604D01*
X177645674Y-119656521D01*
X177899705Y-119826259D01*
X178115741Y-120042295D01*
X178285479Y-120296326D01*
X178402396Y-120578590D01*
X178462000Y-120878240D01*
X178462000Y-121183760D01*
X178402396Y-121483410D01*
X178285479Y-121765674D01*
X178115741Y-122019705D01*
X177899705Y-122235741D01*
X177645674Y-122405479D01*
X177363410Y-122522396D01*
X177213585Y-122552198D01*
X177063761Y-122582000D01*
X176758239Y-122582000D01*
X176608415Y-122552198D01*
X176458590Y-122522396D01*
X176176326Y-122405479D01*
X175922295Y-122235741D01*
X175706259Y-122019705D01*
X175536521Y-121765674D01*
X175419604Y-121483410D01*
X175360000Y-121183760D01*
X175360000Y-120878240D01*
X175419604Y-120578590D01*
X175536521Y-120296326D01*
X175706259Y-120042295D01*
X175922295Y-119826259D01*
X176176326Y-119656521D01*
X176458590Y-119539604D01*
X176608415Y-119509802D01*
X176758239Y-119480000D01*
X177063761Y-119480000D01*
X177213585Y-119509802D01*
X177213585Y-119509802D01*
G37*
G36*
X174962000Y-122332000D02*
G01*
X172310000Y-122332000D01*
X172310000Y-119730000D01*
X174962000Y-119730000D01*
X174962000Y-122332000D01*
X174962000Y-122332000D01*
G37*
G36*
X167402000Y-120134000D02*
G01*
X166100000Y-120134000D01*
X166100000Y-119132000D01*
X167402000Y-119132000D01*
X167402000Y-120134000D01*
X167402000Y-120134000D01*
G37*
G36*
X129302000Y-120134000D02*
G01*
X128000000Y-120134000D01*
X128000000Y-119132000D01*
X129302000Y-119132000D01*
X129302000Y-120134000D01*
X129302000Y-120134000D01*
G37*
G36*
X148352000Y-120134000D02*
G01*
X147050000Y-120134000D01*
X147050000Y-119132000D01*
X148352000Y-119132000D01*
X148352000Y-120134000D01*
X148352000Y-120134000D01*
G37*
G36*
X183563585Y-116969802D02*
G01*
X183713410Y-116999604D01*
X183995674Y-117116521D01*
X184249705Y-117286259D01*
X184465741Y-117502295D01*
X184635479Y-117756326D01*
X184752396Y-118038590D01*
X184812000Y-118338240D01*
X184812000Y-118643760D01*
X184752396Y-118943410D01*
X184635479Y-119225674D01*
X184465741Y-119479705D01*
X184249705Y-119695741D01*
X183995674Y-119865479D01*
X183713410Y-119982396D01*
X183563585Y-120012198D01*
X183413761Y-120042000D01*
X183108239Y-120042000D01*
X182958415Y-120012198D01*
X182808590Y-119982396D01*
X182526326Y-119865479D01*
X182272295Y-119695741D01*
X182056259Y-119479705D01*
X181886521Y-119225674D01*
X181769604Y-118943410D01*
X181710000Y-118643760D01*
X181710000Y-118338240D01*
X181769604Y-118038590D01*
X181886521Y-117756326D01*
X182056259Y-117502295D01*
X182272295Y-117286259D01*
X182526326Y-117116521D01*
X182808590Y-116999604D01*
X182958415Y-116969802D01*
X183108239Y-116940000D01*
X183413761Y-116940000D01*
X183563585Y-116969802D01*
X183563585Y-116969802D01*
G37*
G36*
X187889000Y-119792000D02*
G01*
X185237000Y-119792000D01*
X185237000Y-117190000D01*
X187889000Y-117190000D01*
X187889000Y-119792000D01*
X187889000Y-119792000D01*
G37*
G36*
X129302000Y-116834000D02*
G01*
X128000000Y-116834000D01*
X128000000Y-115832000D01*
X129302000Y-115832000D01*
X129302000Y-116834000D01*
X129302000Y-116834000D01*
G37*
G36*
X167402000Y-116834000D02*
G01*
X166100000Y-116834000D01*
X166100000Y-115832000D01*
X167402000Y-115832000D01*
X167402000Y-116834000D01*
X167402000Y-116834000D01*
G37*
G36*
X148352000Y-116834000D02*
G01*
X147050000Y-116834000D01*
X147050000Y-115832000D01*
X148352000Y-115832000D01*
X148352000Y-116834000D01*
X148352000Y-116834000D01*
G37*
G36*
X162267474Y-112079684D02*
G01*
X162485474Y-112169983D01*
X162639623Y-112233833D01*
X162974548Y-112457623D01*
X163259377Y-112742452D01*
X163483167Y-113077377D01*
X163542813Y-113221377D01*
X163637316Y-113449526D01*
X163715900Y-113844594D01*
X163715900Y-114247406D01*
X163637316Y-114642474D01*
X163586451Y-114765272D01*
X163483167Y-115014623D01*
X163259377Y-115349548D01*
X162974548Y-115634377D01*
X162639623Y-115858167D01*
X162485474Y-115922017D01*
X162267474Y-116012316D01*
X161872406Y-116090900D01*
X161469594Y-116090900D01*
X161074526Y-116012316D01*
X160856526Y-115922017D01*
X160702377Y-115858167D01*
X160367452Y-115634377D01*
X160082623Y-115349548D01*
X159858833Y-115014623D01*
X159755549Y-114765272D01*
X159704684Y-114642474D01*
X159626100Y-114247406D01*
X159626100Y-113844594D01*
X159704684Y-113449526D01*
X159799187Y-113221377D01*
X159858833Y-113077377D01*
X160082623Y-112742452D01*
X160367452Y-112457623D01*
X160702377Y-112233833D01*
X160856526Y-112169983D01*
X161074526Y-112079684D01*
X161469594Y-112001100D01*
X161872406Y-112001100D01*
X162267474Y-112079684D01*
X162267474Y-112079684D01*
G37*
G36*
X143217474Y-112079684D02*
G01*
X143435474Y-112169983D01*
X143589623Y-112233833D01*
X143924548Y-112457623D01*
X144209377Y-112742452D01*
X144433167Y-113077377D01*
X144492813Y-113221377D01*
X144587316Y-113449526D01*
X144665900Y-113844594D01*
X144665900Y-114247406D01*
X144587316Y-114642474D01*
X144536451Y-114765272D01*
X144433167Y-115014623D01*
X144209377Y-115349548D01*
X143924548Y-115634377D01*
X143589623Y-115858167D01*
X143435474Y-115922017D01*
X143217474Y-116012316D01*
X142822406Y-116090900D01*
X142419594Y-116090900D01*
X142024526Y-116012316D01*
X141806526Y-115922017D01*
X141652377Y-115858167D01*
X141317452Y-115634377D01*
X141032623Y-115349548D01*
X140808833Y-115014623D01*
X140705549Y-114765272D01*
X140654684Y-114642474D01*
X140576100Y-114247406D01*
X140576100Y-113844594D01*
X140654684Y-113449526D01*
X140749187Y-113221377D01*
X140808833Y-113077377D01*
X141032623Y-112742452D01*
X141317452Y-112457623D01*
X141652377Y-112233833D01*
X141806526Y-112169983D01*
X142024526Y-112079684D01*
X142419594Y-112001100D01*
X142822406Y-112001100D01*
X143217474Y-112079684D01*
X143217474Y-112079684D01*
G37*
G36*
X124167474Y-112079684D02*
G01*
X124385474Y-112169983D01*
X124539623Y-112233833D01*
X124874548Y-112457623D01*
X125159377Y-112742452D01*
X125383167Y-113077377D01*
X125442813Y-113221377D01*
X125537316Y-113449526D01*
X125615900Y-113844594D01*
X125615900Y-114247406D01*
X125537316Y-114642474D01*
X125486451Y-114765272D01*
X125383167Y-115014623D01*
X125159377Y-115349548D01*
X124874548Y-115634377D01*
X124539623Y-115858167D01*
X124385474Y-115922017D01*
X124167474Y-116012316D01*
X123772406Y-116090900D01*
X123369594Y-116090900D01*
X122974526Y-116012316D01*
X122756526Y-115922017D01*
X122602377Y-115858167D01*
X122267452Y-115634377D01*
X121982623Y-115349548D01*
X121758833Y-115014623D01*
X121655549Y-114765272D01*
X121604684Y-114642474D01*
X121526100Y-114247406D01*
X121526100Y-113844594D01*
X121604684Y-113449526D01*
X121699187Y-113221377D01*
X121758833Y-113077377D01*
X121982623Y-112742452D01*
X122267452Y-112457623D01*
X122602377Y-112233833D01*
X122756526Y-112169983D01*
X122974526Y-112079684D01*
X123369594Y-112001100D01*
X123772406Y-112001100D01*
X124167474Y-112079684D01*
X124167474Y-112079684D01*
G37*
G36*
X167021104Y-113155585D02*
G01*
X167189626Y-113225389D01*
X167341291Y-113326728D01*
X167470272Y-113455709D01*
X167571611Y-113607374D01*
X167641415Y-113775896D01*
X167677000Y-113954797D01*
X167677000Y-114137203D01*
X167641415Y-114316104D01*
X167571611Y-114484626D01*
X167470272Y-114636291D01*
X167341291Y-114765272D01*
X167189626Y-114866611D01*
X167021104Y-114936415D01*
X166842203Y-114972000D01*
X166659797Y-114972000D01*
X166480896Y-114936415D01*
X166312374Y-114866611D01*
X166160709Y-114765272D01*
X166031728Y-114636291D01*
X165930389Y-114484626D01*
X165860585Y-114316104D01*
X165825000Y-114137203D01*
X165825000Y-113954797D01*
X165860585Y-113775896D01*
X165930389Y-113607374D01*
X166031728Y-113455709D01*
X166160709Y-113326728D01*
X166312374Y-113225389D01*
X166480896Y-113155585D01*
X166659797Y-113120000D01*
X166842203Y-113120000D01*
X167021104Y-113155585D01*
X167021104Y-113155585D01*
G37*
G36*
X137811104Y-113155585D02*
G01*
X137979626Y-113225389D01*
X138131291Y-113326728D01*
X138260272Y-113455709D01*
X138361611Y-113607374D01*
X138431415Y-113775896D01*
X138467000Y-113954797D01*
X138467000Y-114137203D01*
X138431415Y-114316104D01*
X138361611Y-114484626D01*
X138260272Y-114636291D01*
X138131291Y-114765272D01*
X137979626Y-114866611D01*
X137811104Y-114936415D01*
X137632203Y-114972000D01*
X137449797Y-114972000D01*
X137270896Y-114936415D01*
X137102374Y-114866611D01*
X136950709Y-114765272D01*
X136821728Y-114636291D01*
X136720389Y-114484626D01*
X136650585Y-114316104D01*
X136615000Y-114137203D01*
X136615000Y-113954797D01*
X136650585Y-113775896D01*
X136720389Y-113607374D01*
X136821728Y-113455709D01*
X136950709Y-113326728D01*
X137102374Y-113225389D01*
X137270896Y-113155585D01*
X137449797Y-113120000D01*
X137632203Y-113120000D01*
X137811104Y-113155585D01*
X137811104Y-113155585D01*
G37*
G36*
X118761104Y-113155585D02*
G01*
X118929626Y-113225389D01*
X119081291Y-113326728D01*
X119210272Y-113455709D01*
X119311611Y-113607374D01*
X119381415Y-113775896D01*
X119417000Y-113954797D01*
X119417000Y-114137203D01*
X119381415Y-114316104D01*
X119311611Y-114484626D01*
X119210272Y-114636291D01*
X119081291Y-114765272D01*
X118929626Y-114866611D01*
X118761104Y-114936415D01*
X118582203Y-114972000D01*
X118399797Y-114972000D01*
X118220896Y-114936415D01*
X118052374Y-114866611D01*
X117900709Y-114765272D01*
X117771728Y-114636291D01*
X117670389Y-114484626D01*
X117600585Y-114316104D01*
X117565000Y-114137203D01*
X117565000Y-113954797D01*
X117600585Y-113775896D01*
X117670389Y-113607374D01*
X117771728Y-113455709D01*
X117900709Y-113326728D01*
X118052374Y-113225389D01*
X118220896Y-113155585D01*
X118399797Y-113120000D01*
X118582203Y-113120000D01*
X118761104Y-113155585D01*
X118761104Y-113155585D01*
G37*
G36*
X147971104Y-113155585D02*
G01*
X148139626Y-113225389D01*
X148291291Y-113326728D01*
X148420272Y-113455709D01*
X148521611Y-113607374D01*
X148591415Y-113775896D01*
X148627000Y-113954797D01*
X148627000Y-114137203D01*
X148591415Y-114316104D01*
X148521611Y-114484626D01*
X148420272Y-114636291D01*
X148291291Y-114765272D01*
X148139626Y-114866611D01*
X147971104Y-114936415D01*
X147792203Y-114972000D01*
X147609797Y-114972000D01*
X147430896Y-114936415D01*
X147262374Y-114866611D01*
X147110709Y-114765272D01*
X146981728Y-114636291D01*
X146880389Y-114484626D01*
X146810585Y-114316104D01*
X146775000Y-114137203D01*
X146775000Y-113954797D01*
X146810585Y-113775896D01*
X146880389Y-113607374D01*
X146981728Y-113455709D01*
X147110709Y-113326728D01*
X147262374Y-113225389D01*
X147430896Y-113155585D01*
X147609797Y-113120000D01*
X147792203Y-113120000D01*
X147971104Y-113155585D01*
X147971104Y-113155585D01*
G37*
G36*
X128921104Y-113155585D02*
G01*
X129089626Y-113225389D01*
X129241291Y-113326728D01*
X129370272Y-113455709D01*
X129471611Y-113607374D01*
X129541415Y-113775896D01*
X129577000Y-113954797D01*
X129577000Y-114137203D01*
X129541415Y-114316104D01*
X129471611Y-114484626D01*
X129370272Y-114636291D01*
X129241291Y-114765272D01*
X129089626Y-114866611D01*
X128921104Y-114936415D01*
X128742203Y-114972000D01*
X128559797Y-114972000D01*
X128380896Y-114936415D01*
X128212374Y-114866611D01*
X128060709Y-114765272D01*
X127931728Y-114636291D01*
X127830389Y-114484626D01*
X127760585Y-114316104D01*
X127725000Y-114137203D01*
X127725000Y-113954797D01*
X127760585Y-113775896D01*
X127830389Y-113607374D01*
X127931728Y-113455709D01*
X128060709Y-113326728D01*
X128212374Y-113225389D01*
X128380896Y-113155585D01*
X128559797Y-113120000D01*
X128742203Y-113120000D01*
X128921104Y-113155585D01*
X128921104Y-113155585D01*
G37*
G36*
X156861104Y-113155585D02*
G01*
X157029626Y-113225389D01*
X157181291Y-113326728D01*
X157310272Y-113455709D01*
X157411611Y-113607374D01*
X157481415Y-113775896D01*
X157517000Y-113954797D01*
X157517000Y-114137203D01*
X157481415Y-114316104D01*
X157411611Y-114484626D01*
X157310272Y-114636291D01*
X157181291Y-114765272D01*
X157029626Y-114866611D01*
X156861104Y-114936415D01*
X156682203Y-114972000D01*
X156499797Y-114972000D01*
X156320896Y-114936415D01*
X156152374Y-114866611D01*
X156000709Y-114765272D01*
X155871728Y-114636291D01*
X155770389Y-114484626D01*
X155700585Y-114316104D01*
X155665000Y-114137203D01*
X155665000Y-113954797D01*
X155700585Y-113775896D01*
X155770389Y-113607374D01*
X155871728Y-113455709D01*
X156000709Y-113326728D01*
X156152374Y-113225389D01*
X156320896Y-113155585D01*
X156499797Y-113120000D01*
X156682203Y-113120000D01*
X156861104Y-113155585D01*
X156861104Y-113155585D01*
G37*
G36*
X189572474Y-109666684D02*
G01*
X189790474Y-109756983D01*
X189944623Y-109820833D01*
X190279548Y-110044623D01*
X190564377Y-110329452D01*
X190788167Y-110664377D01*
X190832467Y-110771328D01*
X190942316Y-111036526D01*
X191020900Y-111431594D01*
X191020900Y-111834406D01*
X190942316Y-112229474D01*
X190880363Y-112379041D01*
X190788167Y-112601623D01*
X190564377Y-112936548D01*
X190279548Y-113221377D01*
X189944623Y-113445167D01*
X189790474Y-113509017D01*
X189572474Y-113599316D01*
X189177406Y-113677900D01*
X188774594Y-113677900D01*
X188379526Y-113599316D01*
X188161526Y-113509017D01*
X188007377Y-113445167D01*
X187672452Y-113221377D01*
X187387623Y-112936548D01*
X187163833Y-112601623D01*
X187071637Y-112379041D01*
X187009684Y-112229474D01*
X186931100Y-111834406D01*
X186931100Y-111431594D01*
X187009684Y-111036526D01*
X187119533Y-110771328D01*
X187163833Y-110664377D01*
X187387623Y-110329452D01*
X187672452Y-110044623D01*
X188007377Y-109820833D01*
X188161526Y-109756983D01*
X188379526Y-109666684D01*
X188774594Y-109588100D01*
X189177406Y-109588100D01*
X189572474Y-109666684D01*
X189572474Y-109666684D01*
G37*
G36*
X174043267Y-110088263D02*
G01*
X174195411Y-110118526D01*
X174314137Y-110167704D01*
X174482041Y-110237252D01*
X174482042Y-110237253D01*
X174740004Y-110409617D01*
X174959383Y-110628996D01*
X174983024Y-110664378D01*
X175131748Y-110886959D01*
X175193700Y-111036525D01*
X175250474Y-111173589D01*
X175311000Y-111477876D01*
X175311000Y-111788124D01*
X175253006Y-112079684D01*
X175250474Y-112092410D01*
X175131748Y-112379041D01*
X175131747Y-112379042D01*
X174959383Y-112637004D01*
X174740004Y-112856383D01*
X174620028Y-112936548D01*
X174482041Y-113028748D01*
X174364637Y-113077378D01*
X174195411Y-113147474D01*
X173891125Y-113208000D01*
X173580875Y-113208000D01*
X173276589Y-113147474D01*
X173107363Y-113077378D01*
X172989959Y-113028748D01*
X172851972Y-112936548D01*
X172731996Y-112856383D01*
X172512617Y-112637004D01*
X172340253Y-112379042D01*
X172340252Y-112379041D01*
X172221526Y-112092410D01*
X172218995Y-112079684D01*
X172161000Y-111788124D01*
X172161000Y-111477876D01*
X172221526Y-111173589D01*
X172278300Y-111036525D01*
X172340252Y-110886959D01*
X172488976Y-110664378D01*
X172512617Y-110628996D01*
X172731996Y-110409617D01*
X172989958Y-110237253D01*
X172989959Y-110237252D01*
X173157863Y-110167704D01*
X173276589Y-110118526D01*
X173428733Y-110088263D01*
X173580875Y-110058000D01*
X173891125Y-110058000D01*
X174043267Y-110088263D01*
X174043267Y-110088263D01*
G37*
G36*
X120063585Y-109984802D02*
G01*
X120213410Y-110014604D01*
X120495674Y-110131521D01*
X120749705Y-110301259D01*
X120965741Y-110517295D01*
X121135479Y-110771326D01*
X121252396Y-111053590D01*
X121312000Y-111353240D01*
X121312000Y-111658760D01*
X121252396Y-111958410D01*
X121135479Y-112240674D01*
X120965741Y-112494705D01*
X120749705Y-112710741D01*
X120495674Y-112880479D01*
X120213410Y-112997396D01*
X120063585Y-113027198D01*
X119913761Y-113057000D01*
X119608239Y-113057000D01*
X119458415Y-113027198D01*
X119308590Y-112997396D01*
X119026326Y-112880479D01*
X118772295Y-112710741D01*
X118556259Y-112494705D01*
X118386521Y-112240674D01*
X118269604Y-111958410D01*
X118210000Y-111658760D01*
X118210000Y-111353240D01*
X118269604Y-111053590D01*
X118386521Y-110771326D01*
X118556259Y-110517295D01*
X118772295Y-110301259D01*
X119026326Y-110131521D01*
X119308590Y-110014604D01*
X119458415Y-109984802D01*
X119608239Y-109955000D01*
X119913761Y-109955000D01*
X120063585Y-109984802D01*
X120063585Y-109984802D01*
G37*
G36*
X139113585Y-109984802D02*
G01*
X139263410Y-110014604D01*
X139545674Y-110131521D01*
X139799705Y-110301259D01*
X140015741Y-110517295D01*
X140185479Y-110771326D01*
X140302396Y-111053590D01*
X140362000Y-111353240D01*
X140362000Y-111658760D01*
X140302396Y-111958410D01*
X140185479Y-112240674D01*
X140015741Y-112494705D01*
X139799705Y-112710741D01*
X139545674Y-112880479D01*
X139263410Y-112997396D01*
X139113585Y-113027198D01*
X138963761Y-113057000D01*
X138658239Y-113057000D01*
X138508415Y-113027198D01*
X138358590Y-112997396D01*
X138076326Y-112880479D01*
X137822295Y-112710741D01*
X137606259Y-112494705D01*
X137436521Y-112240674D01*
X137319604Y-111958410D01*
X137260000Y-111658760D01*
X137260000Y-111353240D01*
X137319604Y-111053590D01*
X137436521Y-110771326D01*
X137606259Y-110517295D01*
X137822295Y-110301259D01*
X138076326Y-110131521D01*
X138358590Y-110014604D01*
X138508415Y-109984802D01*
X138658239Y-109955000D01*
X138963761Y-109955000D01*
X139113585Y-109984802D01*
X139113585Y-109984802D01*
G37*
G36*
X158163585Y-109984802D02*
G01*
X158313410Y-110014604D01*
X158595674Y-110131521D01*
X158849705Y-110301259D01*
X159065741Y-110517295D01*
X159235479Y-110771326D01*
X159352396Y-111053590D01*
X159412000Y-111353240D01*
X159412000Y-111658760D01*
X159352396Y-111958410D01*
X159235479Y-112240674D01*
X159065741Y-112494705D01*
X158849705Y-112710741D01*
X158595674Y-112880479D01*
X158313410Y-112997396D01*
X158163585Y-113027198D01*
X158013761Y-113057000D01*
X157708239Y-113057000D01*
X157558415Y-113027198D01*
X157408590Y-112997396D01*
X157126326Y-112880479D01*
X156872295Y-112710741D01*
X156656259Y-112494705D01*
X156486521Y-112240674D01*
X156369604Y-111958410D01*
X156310000Y-111658760D01*
X156310000Y-111353240D01*
X156369604Y-111053590D01*
X156486521Y-110771326D01*
X156656259Y-110517295D01*
X156872295Y-110301259D01*
X157126326Y-110131521D01*
X157408590Y-110014604D01*
X157558415Y-109984802D01*
X157708239Y-109955000D01*
X158013761Y-109955000D01*
X158163585Y-109984802D01*
X158163585Y-109984802D01*
G37*
G36*
X136862000Y-112807000D02*
G01*
X134210000Y-112807000D01*
X134210000Y-110205000D01*
X136862000Y-110205000D01*
X136862000Y-112807000D01*
X136862000Y-112807000D01*
G37*
G36*
X117812000Y-112807000D02*
G01*
X115160000Y-112807000D01*
X115160000Y-110205000D01*
X117812000Y-110205000D01*
X117812000Y-112807000D01*
X117812000Y-112807000D01*
G37*
G36*
X155912000Y-112807000D02*
G01*
X153260000Y-112807000D01*
X153260000Y-110205000D01*
X155912000Y-110205000D01*
X155912000Y-112807000D01*
X155912000Y-112807000D01*
G37*
G36*
X126413585Y-107444802D02*
G01*
X126563410Y-107474604D01*
X126845674Y-107591521D01*
X127099705Y-107761259D01*
X127315741Y-107977295D01*
X127485479Y-108231326D01*
X127602396Y-108513590D01*
X127662000Y-108813240D01*
X127662000Y-109118760D01*
X127602396Y-109418410D01*
X127485479Y-109700674D01*
X127315741Y-109954705D01*
X127099705Y-110170741D01*
X126845674Y-110340479D01*
X126563410Y-110457396D01*
X126413585Y-110487198D01*
X126263761Y-110517000D01*
X125958239Y-110517000D01*
X125808415Y-110487198D01*
X125658590Y-110457396D01*
X125376326Y-110340479D01*
X125122295Y-110170741D01*
X124906259Y-109954705D01*
X124736521Y-109700674D01*
X124619604Y-109418410D01*
X124560000Y-109118760D01*
X124560000Y-108813240D01*
X124619604Y-108513590D01*
X124736521Y-108231326D01*
X124906259Y-107977295D01*
X125122295Y-107761259D01*
X125376326Y-107591521D01*
X125658590Y-107474604D01*
X125808415Y-107444802D01*
X125958239Y-107415000D01*
X126263761Y-107415000D01*
X126413585Y-107444802D01*
X126413585Y-107444802D01*
G37*
G36*
X164513585Y-107444802D02*
G01*
X164663410Y-107474604D01*
X164945674Y-107591521D01*
X165199705Y-107761259D01*
X165415741Y-107977295D01*
X165585479Y-108231326D01*
X165702396Y-108513590D01*
X165762000Y-108813240D01*
X165762000Y-109118760D01*
X165702396Y-109418410D01*
X165585479Y-109700674D01*
X165415741Y-109954705D01*
X165199705Y-110170741D01*
X164945674Y-110340479D01*
X164663410Y-110457396D01*
X164513585Y-110487198D01*
X164363761Y-110517000D01*
X164058239Y-110517000D01*
X163908415Y-110487198D01*
X163758590Y-110457396D01*
X163476326Y-110340479D01*
X163222295Y-110170741D01*
X163006259Y-109954705D01*
X162836521Y-109700674D01*
X162719604Y-109418410D01*
X162660000Y-109118760D01*
X162660000Y-108813240D01*
X162719604Y-108513590D01*
X162836521Y-108231326D01*
X163006259Y-107977295D01*
X163222295Y-107761259D01*
X163476326Y-107591521D01*
X163758590Y-107474604D01*
X163908415Y-107444802D01*
X164058239Y-107415000D01*
X164363761Y-107415000D01*
X164513585Y-107444802D01*
X164513585Y-107444802D01*
G37*
G36*
X145463585Y-107444802D02*
G01*
X145613410Y-107474604D01*
X145895674Y-107591521D01*
X146149705Y-107761259D01*
X146365741Y-107977295D01*
X146535479Y-108231326D01*
X146652396Y-108513590D01*
X146712000Y-108813240D01*
X146712000Y-109118760D01*
X146652396Y-109418410D01*
X146535479Y-109700674D01*
X146365741Y-109954705D01*
X146149705Y-110170741D01*
X145895674Y-110340479D01*
X145613410Y-110457396D01*
X145463585Y-110487198D01*
X145313761Y-110517000D01*
X145008239Y-110517000D01*
X144858415Y-110487198D01*
X144708590Y-110457396D01*
X144426326Y-110340479D01*
X144172295Y-110170741D01*
X143956259Y-109954705D01*
X143786521Y-109700674D01*
X143669604Y-109418410D01*
X143610000Y-109118760D01*
X143610000Y-108813240D01*
X143669604Y-108513590D01*
X143786521Y-108231326D01*
X143956259Y-107977295D01*
X144172295Y-107761259D01*
X144426326Y-107591521D01*
X144708590Y-107474604D01*
X144858415Y-107444802D01*
X145008239Y-107415000D01*
X145313761Y-107415000D01*
X145463585Y-107444802D01*
X145463585Y-107444802D01*
G37*
G36*
X168839000Y-110267000D02*
G01*
X166187000Y-110267000D01*
X166187000Y-107665000D01*
X168839000Y-107665000D01*
X168839000Y-110267000D01*
X168839000Y-110267000D01*
G37*
G36*
X149789000Y-110267000D02*
G01*
X147137000Y-110267000D01*
X147137000Y-107665000D01*
X149789000Y-107665000D01*
X149789000Y-110267000D01*
X149789000Y-110267000D01*
G37*
G36*
X130739000Y-110267000D02*
G01*
X128087000Y-110267000D01*
X128087000Y-107665000D01*
X130739000Y-107665000D01*
X130739000Y-110267000D01*
X130739000Y-110267000D01*
G37*
G36*
X129302000Y-101084000D02*
G01*
X128000000Y-101084000D01*
X128000000Y-100082000D01*
X129302000Y-100082000D01*
X129302000Y-101084000D01*
X129302000Y-101084000D01*
G37*
G36*
X148352000Y-101084000D02*
G01*
X147050000Y-101084000D01*
X147050000Y-100082000D01*
X148352000Y-100082000D01*
X148352000Y-101084000D01*
X148352000Y-101084000D01*
G37*
G36*
X167402000Y-101084000D02*
G01*
X166100000Y-101084000D01*
X166100000Y-100082000D01*
X167402000Y-100082000D01*
X167402000Y-101084000D01*
X167402000Y-101084000D01*
G37*
G36*
X189572474Y-95442684D02*
G01*
X189790474Y-95532983D01*
X189944623Y-95596833D01*
X190279548Y-95820623D01*
X190564377Y-96105452D01*
X190788167Y-96440377D01*
X190788167Y-96440378D01*
X190942316Y-96812526D01*
X191020900Y-97207594D01*
X191020900Y-97610406D01*
X190942316Y-98005474D01*
X190880363Y-98155041D01*
X190788167Y-98377623D01*
X190564377Y-98712548D01*
X190279548Y-98997377D01*
X189944623Y-99221167D01*
X189790474Y-99285017D01*
X189572474Y-99375316D01*
X189177406Y-99453900D01*
X188774594Y-99453900D01*
X188379526Y-99375316D01*
X188161526Y-99285017D01*
X188007377Y-99221167D01*
X187672452Y-98997377D01*
X187387623Y-98712548D01*
X187163833Y-98377623D01*
X187071637Y-98155041D01*
X187009684Y-98005474D01*
X186931100Y-97610406D01*
X186931100Y-97207594D01*
X187009684Y-96812526D01*
X187163833Y-96440378D01*
X187163833Y-96440377D01*
X187387623Y-96105452D01*
X187672452Y-95820623D01*
X188007377Y-95596833D01*
X188161526Y-95532983D01*
X188379526Y-95442684D01*
X188774594Y-95364100D01*
X189177406Y-95364100D01*
X189572474Y-95442684D01*
X189572474Y-95442684D01*
G37*
G36*
X174043267Y-95864263D02*
G01*
X174195411Y-95894526D01*
X174314137Y-95943704D01*
X174482041Y-96013252D01*
X174482042Y-96013253D01*
X174740004Y-96185617D01*
X174959383Y-96404996D01*
X174983024Y-96440378D01*
X175131748Y-96662959D01*
X175181056Y-96782000D01*
X175250474Y-96949589D01*
X175268637Y-97040900D01*
X175311000Y-97253875D01*
X175311000Y-97564125D01*
X175250474Y-97868410D01*
X175131748Y-98155041D01*
X175131747Y-98155042D01*
X174959383Y-98413004D01*
X174740004Y-98632383D01*
X174620028Y-98712548D01*
X174482041Y-98804748D01*
X174314137Y-98874296D01*
X174195411Y-98923474D01*
X174043267Y-98953737D01*
X173891125Y-98984000D01*
X173580875Y-98984000D01*
X173428733Y-98953737D01*
X173276589Y-98923474D01*
X173157863Y-98874296D01*
X172989959Y-98804748D01*
X172851972Y-98712548D01*
X172731996Y-98632383D01*
X172512617Y-98413004D01*
X172340253Y-98155042D01*
X172340252Y-98155041D01*
X172221526Y-97868410D01*
X172161000Y-97564125D01*
X172161000Y-97253875D01*
X172203363Y-97040900D01*
X172221526Y-96949589D01*
X172290944Y-96782000D01*
X172340252Y-96662959D01*
X172488976Y-96440378D01*
X172512617Y-96404996D01*
X172731996Y-96185617D01*
X172989958Y-96013253D01*
X172989959Y-96013252D01*
X173157863Y-95943704D01*
X173276589Y-95894526D01*
X173428733Y-95864263D01*
X173580875Y-95834000D01*
X173891125Y-95834000D01*
X174043267Y-95864263D01*
X174043267Y-95864263D01*
G37*
G36*
X167402000Y-97784000D02*
G01*
X166100000Y-97784000D01*
X166100000Y-96782000D01*
X167402000Y-96782000D01*
X167402000Y-97784000D01*
X167402000Y-97784000D01*
G37*
G36*
X148352000Y-97784000D02*
G01*
X147050000Y-97784000D01*
X147050000Y-96782000D01*
X148352000Y-96782000D01*
X148352000Y-97784000D01*
X148352000Y-97784000D01*
G37*
G36*
X129302000Y-97784000D02*
G01*
X128000000Y-97784000D01*
X128000000Y-96782000D01*
X129302000Y-96782000D01*
X129302000Y-97784000D01*
X129302000Y-97784000D01*
G37*
G36*
X143217474Y-93029684D02*
G01*
X143435474Y-93119983D01*
X143589623Y-93183833D01*
X143924548Y-93407623D01*
X144209377Y-93692452D01*
X144433167Y-94027377D01*
X144465562Y-94105586D01*
X144587316Y-94399526D01*
X144665900Y-94794594D01*
X144665900Y-95197406D01*
X144587316Y-95592474D01*
X144536451Y-95715272D01*
X144433167Y-95964623D01*
X144209377Y-96299548D01*
X143924548Y-96584377D01*
X143589623Y-96808167D01*
X143435474Y-96872017D01*
X143217474Y-96962316D01*
X142822406Y-97040900D01*
X142419594Y-97040900D01*
X142024526Y-96962316D01*
X141806526Y-96872017D01*
X141652377Y-96808167D01*
X141317452Y-96584377D01*
X141032623Y-96299548D01*
X140808833Y-95964623D01*
X140705549Y-95715272D01*
X140654684Y-95592474D01*
X140576100Y-95197406D01*
X140576100Y-94794594D01*
X140654684Y-94399526D01*
X140776438Y-94105586D01*
X140808833Y-94027377D01*
X141032623Y-93692452D01*
X141317452Y-93407623D01*
X141652377Y-93183833D01*
X141806526Y-93119983D01*
X142024526Y-93029684D01*
X142419594Y-92951100D01*
X142822406Y-92951100D01*
X143217474Y-93029684D01*
X143217474Y-93029684D01*
G37*
G36*
X124167474Y-93029684D02*
G01*
X124385474Y-93119983D01*
X124539623Y-93183833D01*
X124874548Y-93407623D01*
X125159377Y-93692452D01*
X125383167Y-94027377D01*
X125415562Y-94105586D01*
X125537316Y-94399526D01*
X125615900Y-94794594D01*
X125615900Y-95197406D01*
X125537316Y-95592474D01*
X125486451Y-95715272D01*
X125383167Y-95964623D01*
X125159377Y-96299548D01*
X124874548Y-96584377D01*
X124539623Y-96808167D01*
X124385474Y-96872017D01*
X124167474Y-96962316D01*
X123772406Y-97040900D01*
X123369594Y-97040900D01*
X122974526Y-96962316D01*
X122756526Y-96872017D01*
X122602377Y-96808167D01*
X122267452Y-96584377D01*
X121982623Y-96299548D01*
X121758833Y-95964623D01*
X121655549Y-95715272D01*
X121604684Y-95592474D01*
X121526100Y-95197406D01*
X121526100Y-94794594D01*
X121604684Y-94399526D01*
X121726438Y-94105586D01*
X121758833Y-94027377D01*
X121982623Y-93692452D01*
X122267452Y-93407623D01*
X122602377Y-93183833D01*
X122756526Y-93119983D01*
X122974526Y-93029684D01*
X123369594Y-92951100D01*
X123772406Y-92951100D01*
X124167474Y-93029684D01*
X124167474Y-93029684D01*
G37*
G36*
X162267474Y-93029684D02*
G01*
X162485474Y-93119983D01*
X162639623Y-93183833D01*
X162974548Y-93407623D01*
X163259377Y-93692452D01*
X163483167Y-94027377D01*
X163515562Y-94105586D01*
X163637316Y-94399526D01*
X163715900Y-94794594D01*
X163715900Y-95197406D01*
X163637316Y-95592474D01*
X163586451Y-95715272D01*
X163483167Y-95964623D01*
X163259377Y-96299548D01*
X162974548Y-96584377D01*
X162639623Y-96808167D01*
X162485474Y-96872017D01*
X162267474Y-96962316D01*
X161872406Y-97040900D01*
X161469594Y-97040900D01*
X161074526Y-96962316D01*
X160856526Y-96872017D01*
X160702377Y-96808167D01*
X160367452Y-96584377D01*
X160082623Y-96299548D01*
X159858833Y-95964623D01*
X159755549Y-95715272D01*
X159704684Y-95592474D01*
X159626100Y-95197406D01*
X159626100Y-94794594D01*
X159704684Y-94399526D01*
X159826438Y-94105586D01*
X159858833Y-94027377D01*
X160082623Y-93692452D01*
X160367452Y-93407623D01*
X160702377Y-93183833D01*
X160856526Y-93119983D01*
X161074526Y-93029684D01*
X161469594Y-92951100D01*
X161872406Y-92951100D01*
X162267474Y-93029684D01*
X162267474Y-93029684D01*
G37*
G36*
X128921104Y-94105585D02*
G01*
X129089626Y-94175389D01*
X129241291Y-94276728D01*
X129370272Y-94405709D01*
X129471611Y-94557374D01*
X129541415Y-94725896D01*
X129577000Y-94904797D01*
X129577000Y-95087203D01*
X129541415Y-95266104D01*
X129471611Y-95434626D01*
X129370272Y-95586291D01*
X129241291Y-95715272D01*
X129089626Y-95816611D01*
X128921104Y-95886415D01*
X128742203Y-95922000D01*
X128559797Y-95922000D01*
X128380896Y-95886415D01*
X128212374Y-95816611D01*
X128060709Y-95715272D01*
X127931728Y-95586291D01*
X127830389Y-95434626D01*
X127760585Y-95266104D01*
X127725000Y-95087203D01*
X127725000Y-94904797D01*
X127760585Y-94725896D01*
X127830389Y-94557374D01*
X127931728Y-94405709D01*
X128060709Y-94276728D01*
X128212374Y-94175389D01*
X128380896Y-94105585D01*
X128559797Y-94070000D01*
X128742203Y-94070000D01*
X128921104Y-94105585D01*
X128921104Y-94105585D01*
G37*
G36*
X167021104Y-94105585D02*
G01*
X167189626Y-94175389D01*
X167341291Y-94276728D01*
X167470272Y-94405709D01*
X167571611Y-94557374D01*
X167641415Y-94725896D01*
X167677000Y-94904797D01*
X167677000Y-95087203D01*
X167641415Y-95266104D01*
X167571611Y-95434626D01*
X167470272Y-95586291D01*
X167341291Y-95715272D01*
X167189626Y-95816611D01*
X167021104Y-95886415D01*
X166842203Y-95922000D01*
X166659797Y-95922000D01*
X166480896Y-95886415D01*
X166312374Y-95816611D01*
X166160709Y-95715272D01*
X166031728Y-95586291D01*
X165930389Y-95434626D01*
X165860585Y-95266104D01*
X165825000Y-95087203D01*
X165825000Y-94904797D01*
X165860585Y-94725896D01*
X165930389Y-94557374D01*
X166031728Y-94405709D01*
X166160709Y-94276728D01*
X166312374Y-94175389D01*
X166480896Y-94105585D01*
X166659797Y-94070000D01*
X166842203Y-94070000D01*
X167021104Y-94105585D01*
X167021104Y-94105585D01*
G37*
G36*
X156861104Y-94105585D02*
G01*
X157029626Y-94175389D01*
X157181291Y-94276728D01*
X157310272Y-94405709D01*
X157411611Y-94557374D01*
X157481415Y-94725896D01*
X157517000Y-94904797D01*
X157517000Y-95087203D01*
X157481415Y-95266104D01*
X157411611Y-95434626D01*
X157310272Y-95586291D01*
X157181291Y-95715272D01*
X157029626Y-95816611D01*
X156861104Y-95886415D01*
X156682203Y-95922000D01*
X156499797Y-95922000D01*
X156320896Y-95886415D01*
X156152374Y-95816611D01*
X156000709Y-95715272D01*
X155871728Y-95586291D01*
X155770389Y-95434626D01*
X155700585Y-95266104D01*
X155665000Y-95087203D01*
X155665000Y-94904797D01*
X155700585Y-94725896D01*
X155770389Y-94557374D01*
X155871728Y-94405709D01*
X156000709Y-94276728D01*
X156152374Y-94175389D01*
X156320896Y-94105585D01*
X156499797Y-94070000D01*
X156682203Y-94070000D01*
X156861104Y-94105585D01*
X156861104Y-94105585D01*
G37*
G36*
X147971104Y-94105585D02*
G01*
X148139626Y-94175389D01*
X148291291Y-94276728D01*
X148420272Y-94405709D01*
X148521611Y-94557374D01*
X148591415Y-94725896D01*
X148627000Y-94904797D01*
X148627000Y-95087203D01*
X148591415Y-95266104D01*
X148521611Y-95434626D01*
X148420272Y-95586291D01*
X148291291Y-95715272D01*
X148139626Y-95816611D01*
X147971104Y-95886415D01*
X147792203Y-95922000D01*
X147609797Y-95922000D01*
X147430896Y-95886415D01*
X147262374Y-95816611D01*
X147110709Y-95715272D01*
X146981728Y-95586291D01*
X146880389Y-95434626D01*
X146810585Y-95266104D01*
X146775000Y-95087203D01*
X146775000Y-94904797D01*
X146810585Y-94725896D01*
X146880389Y-94557374D01*
X146981728Y-94405709D01*
X147110709Y-94276728D01*
X147262374Y-94175389D01*
X147430896Y-94105585D01*
X147609797Y-94070000D01*
X147792203Y-94070000D01*
X147971104Y-94105585D01*
X147971104Y-94105585D01*
G37*
G36*
X137811104Y-94105585D02*
G01*
X137979626Y-94175389D01*
X138131291Y-94276728D01*
X138260272Y-94405709D01*
X138361611Y-94557374D01*
X138431415Y-94725896D01*
X138467000Y-94904797D01*
X138467000Y-95087203D01*
X138431415Y-95266104D01*
X138361611Y-95434626D01*
X138260272Y-95586291D01*
X138131291Y-95715272D01*
X137979626Y-95816611D01*
X137811104Y-95886415D01*
X137632203Y-95922000D01*
X137449797Y-95922000D01*
X137270896Y-95886415D01*
X137102374Y-95816611D01*
X136950709Y-95715272D01*
X136821728Y-95586291D01*
X136720389Y-95434626D01*
X136650585Y-95266104D01*
X136615000Y-95087203D01*
X136615000Y-94904797D01*
X136650585Y-94725896D01*
X136720389Y-94557374D01*
X136821728Y-94405709D01*
X136950709Y-94276728D01*
X137102374Y-94175389D01*
X137270896Y-94105585D01*
X137449797Y-94070000D01*
X137632203Y-94070000D01*
X137811104Y-94105585D01*
X137811104Y-94105585D01*
G37*
G36*
X118761104Y-94105585D02*
G01*
X118929626Y-94175389D01*
X119081291Y-94276728D01*
X119210272Y-94405709D01*
X119311611Y-94557374D01*
X119381415Y-94725896D01*
X119417000Y-94904797D01*
X119417000Y-95087203D01*
X119381415Y-95266104D01*
X119311611Y-95434626D01*
X119210272Y-95586291D01*
X119081291Y-95715272D01*
X118929626Y-95816611D01*
X118761104Y-95886415D01*
X118582203Y-95922000D01*
X118399797Y-95922000D01*
X118220896Y-95886415D01*
X118052374Y-95816611D01*
X117900709Y-95715272D01*
X117771728Y-95586291D01*
X117670389Y-95434626D01*
X117600585Y-95266104D01*
X117565000Y-95087203D01*
X117565000Y-94904797D01*
X117600585Y-94725896D01*
X117670389Y-94557374D01*
X117771728Y-94405709D01*
X117900709Y-94276728D01*
X118052374Y-94175389D01*
X118220896Y-94105585D01*
X118399797Y-94070000D01*
X118582203Y-94070000D01*
X118761104Y-94105585D01*
X118761104Y-94105585D01*
G37*
G36*
X120063585Y-90934802D02*
G01*
X120213410Y-90964604D01*
X120495674Y-91081521D01*
X120749705Y-91251259D01*
X120965741Y-91467295D01*
X121135479Y-91721326D01*
X121252396Y-92003590D01*
X121312000Y-92303240D01*
X121312000Y-92608760D01*
X121252396Y-92908410D01*
X121135479Y-93190674D01*
X120965741Y-93444705D01*
X120749705Y-93660741D01*
X120495674Y-93830479D01*
X120213410Y-93947396D01*
X120063585Y-93977198D01*
X119913761Y-94007000D01*
X119608239Y-94007000D01*
X119458415Y-93977198D01*
X119308590Y-93947396D01*
X119026326Y-93830479D01*
X118772295Y-93660741D01*
X118556259Y-93444705D01*
X118386521Y-93190674D01*
X118269604Y-92908410D01*
X118210000Y-92608760D01*
X118210000Y-92303240D01*
X118269604Y-92003590D01*
X118386521Y-91721326D01*
X118556259Y-91467295D01*
X118772295Y-91251259D01*
X119026326Y-91081521D01*
X119308590Y-90964604D01*
X119458415Y-90934802D01*
X119608239Y-90905000D01*
X119913761Y-90905000D01*
X120063585Y-90934802D01*
X120063585Y-90934802D01*
G37*
G36*
X139113585Y-90934802D02*
G01*
X139263410Y-90964604D01*
X139545674Y-91081521D01*
X139799705Y-91251259D01*
X140015741Y-91467295D01*
X140185479Y-91721326D01*
X140302396Y-92003590D01*
X140362000Y-92303240D01*
X140362000Y-92608760D01*
X140302396Y-92908410D01*
X140185479Y-93190674D01*
X140015741Y-93444705D01*
X139799705Y-93660741D01*
X139545674Y-93830479D01*
X139263410Y-93947396D01*
X139113585Y-93977198D01*
X138963761Y-94007000D01*
X138658239Y-94007000D01*
X138508415Y-93977198D01*
X138358590Y-93947396D01*
X138076326Y-93830479D01*
X137822295Y-93660741D01*
X137606259Y-93444705D01*
X137436521Y-93190674D01*
X137319604Y-92908410D01*
X137260000Y-92608760D01*
X137260000Y-92303240D01*
X137319604Y-92003590D01*
X137436521Y-91721326D01*
X137606259Y-91467295D01*
X137822295Y-91251259D01*
X138076326Y-91081521D01*
X138358590Y-90964604D01*
X138508415Y-90934802D01*
X138658239Y-90905000D01*
X138963761Y-90905000D01*
X139113585Y-90934802D01*
X139113585Y-90934802D01*
G37*
G36*
X158163585Y-90934802D02*
G01*
X158313410Y-90964604D01*
X158595674Y-91081521D01*
X158849705Y-91251259D01*
X159065741Y-91467295D01*
X159235479Y-91721326D01*
X159352396Y-92003590D01*
X159412000Y-92303240D01*
X159412000Y-92608760D01*
X159352396Y-92908410D01*
X159235479Y-93190674D01*
X159065741Y-93444705D01*
X158849705Y-93660741D01*
X158595674Y-93830479D01*
X158313410Y-93947396D01*
X158163585Y-93977198D01*
X158013761Y-94007000D01*
X157708239Y-94007000D01*
X157558415Y-93977198D01*
X157408590Y-93947396D01*
X157126326Y-93830479D01*
X156872295Y-93660741D01*
X156656259Y-93444705D01*
X156486521Y-93190674D01*
X156369604Y-92908410D01*
X156310000Y-92608760D01*
X156310000Y-92303240D01*
X156369604Y-92003590D01*
X156486521Y-91721326D01*
X156656259Y-91467295D01*
X156872295Y-91251259D01*
X157126326Y-91081521D01*
X157408590Y-90964604D01*
X157558415Y-90934802D01*
X157708239Y-90905000D01*
X158013761Y-90905000D01*
X158163585Y-90934802D01*
X158163585Y-90934802D01*
G37*
G36*
X136862000Y-93757000D02*
G01*
X134210000Y-93757000D01*
X134210000Y-91155000D01*
X136862000Y-91155000D01*
X136862000Y-93757000D01*
X136862000Y-93757000D01*
G37*
G36*
X155912000Y-93757000D02*
G01*
X153260000Y-93757000D01*
X153260000Y-91155000D01*
X155912000Y-91155000D01*
X155912000Y-93757000D01*
X155912000Y-93757000D01*
G37*
G36*
X117812000Y-93757000D02*
G01*
X115160000Y-93757000D01*
X115160000Y-91155000D01*
X117812000Y-91155000D01*
X117812000Y-93757000D01*
X117812000Y-93757000D01*
G37*
G36*
X186452000Y-91559000D02*
G01*
X185150000Y-91559000D01*
X185150000Y-90557000D01*
X186452000Y-90557000D01*
X186452000Y-91559000D01*
X186452000Y-91559000D01*
G37*
G36*
X164513585Y-88394802D02*
G01*
X164663410Y-88424604D01*
X164945674Y-88541521D01*
X165199705Y-88711259D01*
X165415741Y-88927295D01*
X165585479Y-89181326D01*
X165702396Y-89463590D01*
X165762000Y-89763240D01*
X165762000Y-90068760D01*
X165702396Y-90368410D01*
X165585479Y-90650674D01*
X165415741Y-90904705D01*
X165199705Y-91120741D01*
X164945674Y-91290479D01*
X164663410Y-91407396D01*
X164513585Y-91437198D01*
X164363761Y-91467000D01*
X164058239Y-91467000D01*
X163908415Y-91437198D01*
X163758590Y-91407396D01*
X163476326Y-91290479D01*
X163222295Y-91120741D01*
X163006259Y-90904705D01*
X162836521Y-90650674D01*
X162719604Y-90368410D01*
X162660000Y-90068760D01*
X162660000Y-89763240D01*
X162719604Y-89463590D01*
X162836521Y-89181326D01*
X163006259Y-88927295D01*
X163222295Y-88711259D01*
X163476326Y-88541521D01*
X163758590Y-88424604D01*
X163908415Y-88394802D01*
X164058239Y-88365000D01*
X164363761Y-88365000D01*
X164513585Y-88394802D01*
X164513585Y-88394802D01*
G37*
G36*
X145463585Y-88394802D02*
G01*
X145613410Y-88424604D01*
X145895674Y-88541521D01*
X146149705Y-88711259D01*
X146365741Y-88927295D01*
X146535479Y-89181326D01*
X146652396Y-89463590D01*
X146712000Y-89763240D01*
X146712000Y-90068760D01*
X146652396Y-90368410D01*
X146535479Y-90650674D01*
X146365741Y-90904705D01*
X146149705Y-91120741D01*
X145895674Y-91290479D01*
X145613410Y-91407396D01*
X145463585Y-91437198D01*
X145313761Y-91467000D01*
X145008239Y-91467000D01*
X144858415Y-91437198D01*
X144708590Y-91407396D01*
X144426326Y-91290479D01*
X144172295Y-91120741D01*
X143956259Y-90904705D01*
X143786521Y-90650674D01*
X143669604Y-90368410D01*
X143610000Y-90068760D01*
X143610000Y-89763240D01*
X143669604Y-89463590D01*
X143786521Y-89181326D01*
X143956259Y-88927295D01*
X144172295Y-88711259D01*
X144426326Y-88541521D01*
X144708590Y-88424604D01*
X144858415Y-88394802D01*
X145008239Y-88365000D01*
X145313761Y-88365000D01*
X145463585Y-88394802D01*
X145463585Y-88394802D01*
G37*
G36*
X126413585Y-88394802D02*
G01*
X126563410Y-88424604D01*
X126845674Y-88541521D01*
X127099705Y-88711259D01*
X127315741Y-88927295D01*
X127485479Y-89181326D01*
X127602396Y-89463590D01*
X127662000Y-89763240D01*
X127662000Y-90068760D01*
X127602396Y-90368410D01*
X127485479Y-90650674D01*
X127315741Y-90904705D01*
X127099705Y-91120741D01*
X126845674Y-91290479D01*
X126563410Y-91407396D01*
X126413585Y-91437198D01*
X126263761Y-91467000D01*
X125958239Y-91467000D01*
X125808415Y-91437198D01*
X125658590Y-91407396D01*
X125376326Y-91290479D01*
X125122295Y-91120741D01*
X124906259Y-90904705D01*
X124736521Y-90650674D01*
X124619604Y-90368410D01*
X124560000Y-90068760D01*
X124560000Y-89763240D01*
X124619604Y-89463590D01*
X124736521Y-89181326D01*
X124906259Y-88927295D01*
X125122295Y-88711259D01*
X125376326Y-88541521D01*
X125658590Y-88424604D01*
X125808415Y-88394802D01*
X125958239Y-88365000D01*
X126263761Y-88365000D01*
X126413585Y-88394802D01*
X126413585Y-88394802D01*
G37*
G36*
X130739000Y-91217000D02*
G01*
X128087000Y-91217000D01*
X128087000Y-88615000D01*
X130739000Y-88615000D01*
X130739000Y-91217000D01*
X130739000Y-91217000D01*
G37*
G36*
X149789000Y-91217000D02*
G01*
X147137000Y-91217000D01*
X147137000Y-88615000D01*
X149789000Y-88615000D01*
X149789000Y-91217000D01*
X149789000Y-91217000D01*
G37*
G36*
X168839000Y-91217000D02*
G01*
X166187000Y-91217000D01*
X166187000Y-88615000D01*
X168839000Y-88615000D01*
X168839000Y-91217000D01*
X168839000Y-91217000D01*
G37*
G36*
X186452000Y-88259000D02*
G01*
X185150000Y-88259000D01*
X185150000Y-87257000D01*
X186452000Y-87257000D01*
X186452000Y-88259000D01*
X186452000Y-88259000D01*
G37*
G36*
X181317474Y-83504684D02*
G01*
X181535474Y-83594983D01*
X181689623Y-83658833D01*
X182024548Y-83882623D01*
X182309377Y-84167452D01*
X182533167Y-84502377D01*
X182565562Y-84580586D01*
X182687316Y-84874526D01*
X182765900Y-85269594D01*
X182765900Y-85672406D01*
X182687316Y-86067474D01*
X182636451Y-86190272D01*
X182533167Y-86439623D01*
X182309377Y-86774548D01*
X182024548Y-87059377D01*
X181689623Y-87283167D01*
X181535474Y-87347017D01*
X181317474Y-87437316D01*
X180922406Y-87515900D01*
X180519594Y-87515900D01*
X180124526Y-87437316D01*
X179906526Y-87347017D01*
X179752377Y-87283167D01*
X179417452Y-87059377D01*
X179132623Y-86774548D01*
X178908833Y-86439623D01*
X178805549Y-86190272D01*
X178754684Y-86067474D01*
X178676100Y-85672406D01*
X178676100Y-85269594D01*
X178754684Y-84874526D01*
X178876438Y-84580586D01*
X178908833Y-84502377D01*
X179132623Y-84167452D01*
X179417452Y-83882623D01*
X179752377Y-83658833D01*
X179906526Y-83594983D01*
X180124526Y-83504684D01*
X180519594Y-83426100D01*
X180922406Y-83426100D01*
X181317474Y-83504684D01*
X181317474Y-83504684D01*
G37*
G36*
X186071104Y-84580585D02*
G01*
X186239626Y-84650389D01*
X186391291Y-84751728D01*
X186520272Y-84880709D01*
X186621611Y-85032374D01*
X186691415Y-85200896D01*
X186727000Y-85379797D01*
X186727000Y-85562203D01*
X186691415Y-85741104D01*
X186621611Y-85909626D01*
X186520272Y-86061291D01*
X186391291Y-86190272D01*
X186239626Y-86291611D01*
X186071104Y-86361415D01*
X185892203Y-86397000D01*
X185709797Y-86397000D01*
X185530896Y-86361415D01*
X185362374Y-86291611D01*
X185210709Y-86190272D01*
X185081728Y-86061291D01*
X184980389Y-85909626D01*
X184910585Y-85741104D01*
X184875000Y-85562203D01*
X184875000Y-85379797D01*
X184910585Y-85200896D01*
X184980389Y-85032374D01*
X185081728Y-84880709D01*
X185210709Y-84751728D01*
X185362374Y-84650389D01*
X185530896Y-84580585D01*
X185709797Y-84545000D01*
X185892203Y-84545000D01*
X186071104Y-84580585D01*
X186071104Y-84580585D01*
G37*
G36*
X175911104Y-84580585D02*
G01*
X176079626Y-84650389D01*
X176231291Y-84751728D01*
X176360272Y-84880709D01*
X176461611Y-85032374D01*
X176531415Y-85200896D01*
X176567000Y-85379797D01*
X176567000Y-85562203D01*
X176531415Y-85741104D01*
X176461611Y-85909626D01*
X176360272Y-86061291D01*
X176231291Y-86190272D01*
X176079626Y-86291611D01*
X175911104Y-86361415D01*
X175732203Y-86397000D01*
X175549797Y-86397000D01*
X175370896Y-86361415D01*
X175202374Y-86291611D01*
X175050709Y-86190272D01*
X174921728Y-86061291D01*
X174820389Y-85909626D01*
X174750585Y-85741104D01*
X174715000Y-85562203D01*
X174715000Y-85379797D01*
X174750585Y-85200896D01*
X174820389Y-85032374D01*
X174921728Y-84880709D01*
X175050709Y-84751728D01*
X175202374Y-84650389D01*
X175370896Y-84580585D01*
X175549797Y-84545000D01*
X175732203Y-84545000D01*
X175911104Y-84580585D01*
X175911104Y-84580585D01*
G37*
G36*
X177213585Y-81409802D02*
G01*
X177363410Y-81439604D01*
X177645674Y-81556521D01*
X177899705Y-81726259D01*
X178115741Y-81942295D01*
X178285479Y-82196326D01*
X178402396Y-82478590D01*
X178462000Y-82778240D01*
X178462000Y-83083760D01*
X178402396Y-83383410D01*
X178285479Y-83665674D01*
X178115741Y-83919705D01*
X177899705Y-84135741D01*
X177645674Y-84305479D01*
X177363410Y-84422396D01*
X177213585Y-84452198D01*
X177063761Y-84482000D01*
X176758239Y-84482000D01*
X176608415Y-84452198D01*
X176458590Y-84422396D01*
X176176326Y-84305479D01*
X175922295Y-84135741D01*
X175706259Y-83919705D01*
X175536521Y-83665674D01*
X175419604Y-83383410D01*
X175360000Y-83083760D01*
X175360000Y-82778240D01*
X175419604Y-82478590D01*
X175536521Y-82196326D01*
X175706259Y-81942295D01*
X175922295Y-81726259D01*
X176176326Y-81556521D01*
X176458590Y-81439604D01*
X176608415Y-81409802D01*
X176758239Y-81380000D01*
X177063761Y-81380000D01*
X177213585Y-81409802D01*
X177213585Y-81409802D01*
G37*
G36*
X174962000Y-84232000D02*
G01*
X172310000Y-84232000D01*
X172310000Y-81630000D01*
X174962000Y-81630000D01*
X174962000Y-84232000D01*
X174962000Y-84232000D01*
G37*
G36*
X129302000Y-82034000D02*
G01*
X128000000Y-82034000D01*
X128000000Y-81032000D01*
X129302000Y-81032000D01*
X129302000Y-82034000D01*
X129302000Y-82034000D01*
G37*
G36*
X167402000Y-82034000D02*
G01*
X166100000Y-82034000D01*
X166100000Y-81032000D01*
X167402000Y-81032000D01*
X167402000Y-82034000D01*
X167402000Y-82034000D01*
G37*
G36*
X148352000Y-82034000D02*
G01*
X147050000Y-82034000D01*
X147050000Y-81032000D01*
X148352000Y-81032000D01*
X148352000Y-82034000D01*
X148352000Y-82034000D01*
G37*
G36*
X183563585Y-78869802D02*
G01*
X183713410Y-78899604D01*
X183995674Y-79016521D01*
X184249705Y-79186259D01*
X184465741Y-79402295D01*
X184635479Y-79656326D01*
X184752396Y-79938590D01*
X184812000Y-80238240D01*
X184812000Y-80543760D01*
X184752396Y-80843410D01*
X184635479Y-81125674D01*
X184465741Y-81379705D01*
X184249705Y-81595741D01*
X183995674Y-81765479D01*
X183713410Y-81882396D01*
X183563585Y-81912198D01*
X183413761Y-81942000D01*
X183108239Y-81942000D01*
X182958415Y-81912198D01*
X182808590Y-81882396D01*
X182526326Y-81765479D01*
X182272295Y-81595741D01*
X182056259Y-81379705D01*
X181886521Y-81125674D01*
X181769604Y-80843410D01*
X181710000Y-80543760D01*
X181710000Y-80238240D01*
X181769604Y-79938590D01*
X181886521Y-79656326D01*
X182056259Y-79402295D01*
X182272295Y-79186259D01*
X182526326Y-79016521D01*
X182808590Y-78899604D01*
X182958415Y-78869802D01*
X183108239Y-78840000D01*
X183413761Y-78840000D01*
X183563585Y-78869802D01*
X183563585Y-78869802D01*
G37*
G36*
X187889000Y-81692000D02*
G01*
X185237000Y-81692000D01*
X185237000Y-79090000D01*
X187889000Y-79090000D01*
X187889000Y-81692000D01*
X187889000Y-81692000D01*
G37*
G36*
X129302000Y-78734000D02*
G01*
X128000000Y-78734000D01*
X128000000Y-77732000D01*
X129302000Y-77732000D01*
X129302000Y-78734000D01*
X129302000Y-78734000D01*
G37*
G36*
X167402000Y-78734000D02*
G01*
X166100000Y-78734000D01*
X166100000Y-77732000D01*
X167402000Y-77732000D01*
X167402000Y-78734000D01*
X167402000Y-78734000D01*
G37*
G36*
X148352000Y-78734000D02*
G01*
X147050000Y-78734000D01*
X147050000Y-77732000D01*
X148352000Y-77732000D01*
X148352000Y-78734000D01*
X148352000Y-78734000D01*
G37*
G36*
X143217474Y-73979684D02*
G01*
X143435474Y-74069983D01*
X143589623Y-74133833D01*
X143924548Y-74357623D01*
X144209377Y-74642452D01*
X144433167Y-74977377D01*
X144492813Y-75121377D01*
X144587316Y-75349526D01*
X144665900Y-75744594D01*
X144665900Y-76147406D01*
X144587316Y-76542474D01*
X144536451Y-76665272D01*
X144433167Y-76914623D01*
X144209377Y-77249548D01*
X143924548Y-77534377D01*
X143589623Y-77758167D01*
X143435474Y-77822017D01*
X143217474Y-77912316D01*
X142822406Y-77990900D01*
X142419594Y-77990900D01*
X142024526Y-77912316D01*
X141806526Y-77822017D01*
X141652377Y-77758167D01*
X141317452Y-77534377D01*
X141032623Y-77249548D01*
X140808833Y-76914623D01*
X140705549Y-76665272D01*
X140654684Y-76542474D01*
X140576100Y-76147406D01*
X140576100Y-75744594D01*
X140654684Y-75349526D01*
X140749187Y-75121377D01*
X140808833Y-74977377D01*
X141032623Y-74642452D01*
X141317452Y-74357623D01*
X141652377Y-74133833D01*
X141806526Y-74069983D01*
X142024526Y-73979684D01*
X142419594Y-73901100D01*
X142822406Y-73901100D01*
X143217474Y-73979684D01*
X143217474Y-73979684D01*
G37*
G36*
X124167474Y-73979684D02*
G01*
X124385474Y-74069983D01*
X124539623Y-74133833D01*
X124874548Y-74357623D01*
X125159377Y-74642452D01*
X125383167Y-74977377D01*
X125442813Y-75121377D01*
X125537316Y-75349526D01*
X125615900Y-75744594D01*
X125615900Y-76147406D01*
X125537316Y-76542474D01*
X125486451Y-76665272D01*
X125383167Y-76914623D01*
X125159377Y-77249548D01*
X124874548Y-77534377D01*
X124539623Y-77758167D01*
X124385474Y-77822017D01*
X124167474Y-77912316D01*
X123772406Y-77990900D01*
X123369594Y-77990900D01*
X122974526Y-77912316D01*
X122756526Y-77822017D01*
X122602377Y-77758167D01*
X122267452Y-77534377D01*
X121982623Y-77249548D01*
X121758833Y-76914623D01*
X121655549Y-76665272D01*
X121604684Y-76542474D01*
X121526100Y-76147406D01*
X121526100Y-75744594D01*
X121604684Y-75349526D01*
X121699187Y-75121377D01*
X121758833Y-74977377D01*
X121982623Y-74642452D01*
X122267452Y-74357623D01*
X122602377Y-74133833D01*
X122756526Y-74069983D01*
X122974526Y-73979684D01*
X123369594Y-73901100D01*
X123772406Y-73901100D01*
X124167474Y-73979684D01*
X124167474Y-73979684D01*
G37*
G36*
X162267474Y-73979684D02*
G01*
X162485474Y-74069983D01*
X162639623Y-74133833D01*
X162974548Y-74357623D01*
X163259377Y-74642452D01*
X163483167Y-74977377D01*
X163542813Y-75121377D01*
X163637316Y-75349526D01*
X163715900Y-75744594D01*
X163715900Y-76147406D01*
X163637316Y-76542474D01*
X163586451Y-76665272D01*
X163483167Y-76914623D01*
X163259377Y-77249548D01*
X162974548Y-77534377D01*
X162639623Y-77758167D01*
X162485474Y-77822017D01*
X162267474Y-77912316D01*
X161872406Y-77990900D01*
X161469594Y-77990900D01*
X161074526Y-77912316D01*
X160856526Y-77822017D01*
X160702377Y-77758167D01*
X160367452Y-77534377D01*
X160082623Y-77249548D01*
X159858833Y-76914623D01*
X159755549Y-76665272D01*
X159704684Y-76542474D01*
X159626100Y-76147406D01*
X159626100Y-75744594D01*
X159704684Y-75349526D01*
X159799187Y-75121377D01*
X159858833Y-74977377D01*
X160082623Y-74642452D01*
X160367452Y-74357623D01*
X160702377Y-74133833D01*
X160856526Y-74069983D01*
X161074526Y-73979684D01*
X161469594Y-73901100D01*
X161872406Y-73901100D01*
X162267474Y-73979684D01*
X162267474Y-73979684D01*
G37*
G36*
X167021104Y-75055585D02*
G01*
X167189626Y-75125389D01*
X167341291Y-75226728D01*
X167470272Y-75355709D01*
X167571611Y-75507374D01*
X167641415Y-75675896D01*
X167677000Y-75854797D01*
X167677000Y-76037203D01*
X167641415Y-76216104D01*
X167571611Y-76384626D01*
X167470272Y-76536291D01*
X167341291Y-76665272D01*
X167189626Y-76766611D01*
X167021104Y-76836415D01*
X166842203Y-76872000D01*
X166659797Y-76872000D01*
X166480896Y-76836415D01*
X166312374Y-76766611D01*
X166160709Y-76665272D01*
X166031728Y-76536291D01*
X165930389Y-76384626D01*
X165860585Y-76216104D01*
X165825000Y-76037203D01*
X165825000Y-75854797D01*
X165860585Y-75675896D01*
X165930389Y-75507374D01*
X166031728Y-75355709D01*
X166160709Y-75226728D01*
X166312374Y-75125389D01*
X166480896Y-75055585D01*
X166659797Y-75020000D01*
X166842203Y-75020000D01*
X167021104Y-75055585D01*
X167021104Y-75055585D01*
G37*
G36*
X156861104Y-75055585D02*
G01*
X157029626Y-75125389D01*
X157181291Y-75226728D01*
X157310272Y-75355709D01*
X157411611Y-75507374D01*
X157481415Y-75675896D01*
X157517000Y-75854797D01*
X157517000Y-76037203D01*
X157481415Y-76216104D01*
X157411611Y-76384626D01*
X157310272Y-76536291D01*
X157181291Y-76665272D01*
X157029626Y-76766611D01*
X156861104Y-76836415D01*
X156682203Y-76872000D01*
X156499797Y-76872000D01*
X156320896Y-76836415D01*
X156152374Y-76766611D01*
X156000709Y-76665272D01*
X155871728Y-76536291D01*
X155770389Y-76384626D01*
X155700585Y-76216104D01*
X155665000Y-76037203D01*
X155665000Y-75854797D01*
X155700585Y-75675896D01*
X155770389Y-75507374D01*
X155871728Y-75355709D01*
X156000709Y-75226728D01*
X156152374Y-75125389D01*
X156320896Y-75055585D01*
X156499797Y-75020000D01*
X156682203Y-75020000D01*
X156861104Y-75055585D01*
X156861104Y-75055585D01*
G37*
G36*
X147971104Y-75055585D02*
G01*
X148139626Y-75125389D01*
X148291291Y-75226728D01*
X148420272Y-75355709D01*
X148521611Y-75507374D01*
X148591415Y-75675896D01*
X148627000Y-75854797D01*
X148627000Y-76037203D01*
X148591415Y-76216104D01*
X148521611Y-76384626D01*
X148420272Y-76536291D01*
X148291291Y-76665272D01*
X148139626Y-76766611D01*
X147971104Y-76836415D01*
X147792203Y-76872000D01*
X147609797Y-76872000D01*
X147430896Y-76836415D01*
X147262374Y-76766611D01*
X147110709Y-76665272D01*
X146981728Y-76536291D01*
X146880389Y-76384626D01*
X146810585Y-76216104D01*
X146775000Y-76037203D01*
X146775000Y-75854797D01*
X146810585Y-75675896D01*
X146880389Y-75507374D01*
X146981728Y-75355709D01*
X147110709Y-75226728D01*
X147262374Y-75125389D01*
X147430896Y-75055585D01*
X147609797Y-75020000D01*
X147792203Y-75020000D01*
X147971104Y-75055585D01*
X147971104Y-75055585D01*
G37*
G36*
X137811104Y-75055585D02*
G01*
X137979626Y-75125389D01*
X138131291Y-75226728D01*
X138260272Y-75355709D01*
X138361611Y-75507374D01*
X138431415Y-75675896D01*
X138467000Y-75854797D01*
X138467000Y-76037203D01*
X138431415Y-76216104D01*
X138361611Y-76384626D01*
X138260272Y-76536291D01*
X138131291Y-76665272D01*
X137979626Y-76766611D01*
X137811104Y-76836415D01*
X137632203Y-76872000D01*
X137449797Y-76872000D01*
X137270896Y-76836415D01*
X137102374Y-76766611D01*
X136950709Y-76665272D01*
X136821728Y-76536291D01*
X136720389Y-76384626D01*
X136650585Y-76216104D01*
X136615000Y-76037203D01*
X136615000Y-75854797D01*
X136650585Y-75675896D01*
X136720389Y-75507374D01*
X136821728Y-75355709D01*
X136950709Y-75226728D01*
X137102374Y-75125389D01*
X137270896Y-75055585D01*
X137449797Y-75020000D01*
X137632203Y-75020000D01*
X137811104Y-75055585D01*
X137811104Y-75055585D01*
G37*
G36*
X128921104Y-75055585D02*
G01*
X129089626Y-75125389D01*
X129241291Y-75226728D01*
X129370272Y-75355709D01*
X129471611Y-75507374D01*
X129541415Y-75675896D01*
X129577000Y-75854797D01*
X129577000Y-76037203D01*
X129541415Y-76216104D01*
X129471611Y-76384626D01*
X129370272Y-76536291D01*
X129241291Y-76665272D01*
X129089626Y-76766611D01*
X128921104Y-76836415D01*
X128742203Y-76872000D01*
X128559797Y-76872000D01*
X128380896Y-76836415D01*
X128212374Y-76766611D01*
X128060709Y-76665272D01*
X127931728Y-76536291D01*
X127830389Y-76384626D01*
X127760585Y-76216104D01*
X127725000Y-76037203D01*
X127725000Y-75854797D01*
X127760585Y-75675896D01*
X127830389Y-75507374D01*
X127931728Y-75355709D01*
X128060709Y-75226728D01*
X128212374Y-75125389D01*
X128380896Y-75055585D01*
X128559797Y-75020000D01*
X128742203Y-75020000D01*
X128921104Y-75055585D01*
X128921104Y-75055585D01*
G37*
G36*
X118761104Y-75055585D02*
G01*
X118929626Y-75125389D01*
X119081291Y-75226728D01*
X119210272Y-75355709D01*
X119311611Y-75507374D01*
X119381415Y-75675896D01*
X119417000Y-75854797D01*
X119417000Y-76037203D01*
X119381415Y-76216104D01*
X119311611Y-76384626D01*
X119210272Y-76536291D01*
X119081291Y-76665272D01*
X118929626Y-76766611D01*
X118761104Y-76836415D01*
X118582203Y-76872000D01*
X118399797Y-76872000D01*
X118220896Y-76836415D01*
X118052374Y-76766611D01*
X117900709Y-76665272D01*
X117771728Y-76536291D01*
X117670389Y-76384626D01*
X117600585Y-76216104D01*
X117565000Y-76037203D01*
X117565000Y-75854797D01*
X117600585Y-75675896D01*
X117670389Y-75507374D01*
X117771728Y-75355709D01*
X117900709Y-75226728D01*
X118052374Y-75125389D01*
X118220896Y-75055585D01*
X118399797Y-75020000D01*
X118582203Y-75020000D01*
X118761104Y-75055585D01*
X118761104Y-75055585D01*
G37*
G36*
X189572474Y-71566684D02*
G01*
X189790474Y-71656983D01*
X189944623Y-71720833D01*
X190279548Y-71944623D01*
X190564377Y-72229452D01*
X190788167Y-72564377D01*
X190832467Y-72671328D01*
X190942316Y-72936526D01*
X191020900Y-73331594D01*
X191020900Y-73734406D01*
X190942316Y-74129474D01*
X190880363Y-74279041D01*
X190788167Y-74501623D01*
X190564377Y-74836548D01*
X190279548Y-75121377D01*
X189944623Y-75345167D01*
X189790474Y-75409017D01*
X189572474Y-75499316D01*
X189177406Y-75577900D01*
X188774594Y-75577900D01*
X188379526Y-75499316D01*
X188161526Y-75409017D01*
X188007377Y-75345167D01*
X187672452Y-75121377D01*
X187387623Y-74836548D01*
X187163833Y-74501623D01*
X187071637Y-74279041D01*
X187009684Y-74129474D01*
X186931100Y-73734406D01*
X186931100Y-73331594D01*
X187009684Y-72936526D01*
X187119533Y-72671328D01*
X187163833Y-72564377D01*
X187387623Y-72229452D01*
X187672452Y-71944623D01*
X188007377Y-71720833D01*
X188161526Y-71656983D01*
X188379526Y-71566684D01*
X188774594Y-71488100D01*
X189177406Y-71488100D01*
X189572474Y-71566684D01*
X189572474Y-71566684D01*
G37*
G36*
X174043267Y-71988263D02*
G01*
X174195411Y-72018526D01*
X174314137Y-72067704D01*
X174482041Y-72137252D01*
X174482042Y-72137253D01*
X174740004Y-72309617D01*
X174959383Y-72528996D01*
X174983024Y-72564378D01*
X175131748Y-72786959D01*
X175193700Y-72936525D01*
X175250474Y-73073589D01*
X175311000Y-73377876D01*
X175311000Y-73688124D01*
X175253006Y-73979684D01*
X175250474Y-73992410D01*
X175131748Y-74279041D01*
X175131747Y-74279042D01*
X174959383Y-74537004D01*
X174740004Y-74756383D01*
X174620028Y-74836548D01*
X174482041Y-74928748D01*
X174364637Y-74977378D01*
X174195411Y-75047474D01*
X174043267Y-75077737D01*
X173891125Y-75108000D01*
X173580875Y-75108000D01*
X173428733Y-75077737D01*
X173276589Y-75047474D01*
X173107363Y-74977378D01*
X172989959Y-74928748D01*
X172851972Y-74836548D01*
X172731996Y-74756383D01*
X172512617Y-74537004D01*
X172340253Y-74279042D01*
X172340252Y-74279041D01*
X172221526Y-73992410D01*
X172218995Y-73979684D01*
X172161000Y-73688124D01*
X172161000Y-73377876D01*
X172221526Y-73073589D01*
X172278300Y-72936525D01*
X172340252Y-72786959D01*
X172488976Y-72564378D01*
X172512617Y-72528996D01*
X172731996Y-72309617D01*
X172989958Y-72137253D01*
X172989959Y-72137252D01*
X173157863Y-72067704D01*
X173276589Y-72018526D01*
X173428733Y-71988263D01*
X173580875Y-71958000D01*
X173891125Y-71958000D01*
X174043267Y-71988263D01*
X174043267Y-71988263D01*
G37*
G36*
X139113585Y-71884802D02*
G01*
X139263410Y-71914604D01*
X139545674Y-72031521D01*
X139799705Y-72201259D01*
X140015741Y-72417295D01*
X140185479Y-72671326D01*
X140302396Y-72953590D01*
X140362000Y-73253240D01*
X140362000Y-73558760D01*
X140302396Y-73858410D01*
X140185479Y-74140674D01*
X140015741Y-74394705D01*
X139799705Y-74610741D01*
X139545674Y-74780479D01*
X139263410Y-74897396D01*
X139113585Y-74927198D01*
X138963761Y-74957000D01*
X138658239Y-74957000D01*
X138508415Y-74927198D01*
X138358590Y-74897396D01*
X138076326Y-74780479D01*
X137822295Y-74610741D01*
X137606259Y-74394705D01*
X137436521Y-74140674D01*
X137319604Y-73858410D01*
X137260000Y-73558760D01*
X137260000Y-73253240D01*
X137319604Y-72953590D01*
X137436521Y-72671326D01*
X137606259Y-72417295D01*
X137822295Y-72201259D01*
X138076326Y-72031521D01*
X138358590Y-71914604D01*
X138508415Y-71884802D01*
X138658239Y-71855000D01*
X138963761Y-71855000D01*
X139113585Y-71884802D01*
X139113585Y-71884802D01*
G37*
G36*
X158163585Y-71884802D02*
G01*
X158313410Y-71914604D01*
X158595674Y-72031521D01*
X158849705Y-72201259D01*
X159065741Y-72417295D01*
X159235479Y-72671326D01*
X159352396Y-72953590D01*
X159412000Y-73253240D01*
X159412000Y-73558760D01*
X159352396Y-73858410D01*
X159235479Y-74140674D01*
X159065741Y-74394705D01*
X158849705Y-74610741D01*
X158595674Y-74780479D01*
X158313410Y-74897396D01*
X158163585Y-74927198D01*
X158013761Y-74957000D01*
X157708239Y-74957000D01*
X157558415Y-74927198D01*
X157408590Y-74897396D01*
X157126326Y-74780479D01*
X156872295Y-74610741D01*
X156656259Y-74394705D01*
X156486521Y-74140674D01*
X156369604Y-73858410D01*
X156310000Y-73558760D01*
X156310000Y-73253240D01*
X156369604Y-72953590D01*
X156486521Y-72671326D01*
X156656259Y-72417295D01*
X156872295Y-72201259D01*
X157126326Y-72031521D01*
X157408590Y-71914604D01*
X157558415Y-71884802D01*
X157708239Y-71855000D01*
X158013761Y-71855000D01*
X158163585Y-71884802D01*
X158163585Y-71884802D01*
G37*
G36*
X120063585Y-71884802D02*
G01*
X120213410Y-71914604D01*
X120495674Y-72031521D01*
X120749705Y-72201259D01*
X120965741Y-72417295D01*
X121135479Y-72671326D01*
X121252396Y-72953590D01*
X121312000Y-73253240D01*
X121312000Y-73558760D01*
X121252396Y-73858410D01*
X121135479Y-74140674D01*
X120965741Y-74394705D01*
X120749705Y-74610741D01*
X120495674Y-74780479D01*
X120213410Y-74897396D01*
X120063585Y-74927198D01*
X119913761Y-74957000D01*
X119608239Y-74957000D01*
X119458415Y-74927198D01*
X119308590Y-74897396D01*
X119026326Y-74780479D01*
X118772295Y-74610741D01*
X118556259Y-74394705D01*
X118386521Y-74140674D01*
X118269604Y-73858410D01*
X118210000Y-73558760D01*
X118210000Y-73253240D01*
X118269604Y-72953590D01*
X118386521Y-72671326D01*
X118556259Y-72417295D01*
X118772295Y-72201259D01*
X119026326Y-72031521D01*
X119308590Y-71914604D01*
X119458415Y-71884802D01*
X119608239Y-71855000D01*
X119913761Y-71855000D01*
X120063585Y-71884802D01*
X120063585Y-71884802D01*
G37*
G36*
X155912000Y-74707000D02*
G01*
X153260000Y-74707000D01*
X153260000Y-72105000D01*
X155912000Y-72105000D01*
X155912000Y-74707000D01*
X155912000Y-74707000D01*
G37*
G36*
X136862000Y-74707000D02*
G01*
X134210000Y-74707000D01*
X134210000Y-72105000D01*
X136862000Y-72105000D01*
X136862000Y-74707000D01*
X136862000Y-74707000D01*
G37*
G36*
X117812000Y-74707000D02*
G01*
X115160000Y-74707000D01*
X115160000Y-72105000D01*
X117812000Y-72105000D01*
X117812000Y-74707000D01*
X117812000Y-74707000D01*
G37*
G36*
X145463585Y-69344802D02*
G01*
X145613410Y-69374604D01*
X145895674Y-69491521D01*
X146149705Y-69661259D01*
X146365741Y-69877295D01*
X146535479Y-70131326D01*
X146652396Y-70413590D01*
X146712000Y-70713240D01*
X146712000Y-71018760D01*
X146652396Y-71318410D01*
X146535479Y-71600674D01*
X146365741Y-71854705D01*
X146149705Y-72070741D01*
X145895674Y-72240479D01*
X145613410Y-72357396D01*
X145463585Y-72387198D01*
X145313761Y-72417000D01*
X145008239Y-72417000D01*
X144858415Y-72387198D01*
X144708590Y-72357396D01*
X144426326Y-72240479D01*
X144172295Y-72070741D01*
X143956259Y-71854705D01*
X143786521Y-71600674D01*
X143669604Y-71318410D01*
X143610000Y-71018760D01*
X143610000Y-70713240D01*
X143669604Y-70413590D01*
X143786521Y-70131326D01*
X143956259Y-69877295D01*
X144172295Y-69661259D01*
X144426326Y-69491521D01*
X144708590Y-69374604D01*
X144858415Y-69344802D01*
X145008239Y-69315000D01*
X145313761Y-69315000D01*
X145463585Y-69344802D01*
X145463585Y-69344802D01*
G37*
G36*
X164513585Y-69344802D02*
G01*
X164663410Y-69374604D01*
X164945674Y-69491521D01*
X165199705Y-69661259D01*
X165415741Y-69877295D01*
X165585479Y-70131326D01*
X165702396Y-70413590D01*
X165762000Y-70713240D01*
X165762000Y-71018760D01*
X165702396Y-71318410D01*
X165585479Y-71600674D01*
X165415741Y-71854705D01*
X165199705Y-72070741D01*
X164945674Y-72240479D01*
X164663410Y-72357396D01*
X164513585Y-72387198D01*
X164363761Y-72417000D01*
X164058239Y-72417000D01*
X163908415Y-72387198D01*
X163758590Y-72357396D01*
X163476326Y-72240479D01*
X163222295Y-72070741D01*
X163006259Y-71854705D01*
X162836521Y-71600674D01*
X162719604Y-71318410D01*
X162660000Y-71018760D01*
X162660000Y-70713240D01*
X162719604Y-70413590D01*
X162836521Y-70131326D01*
X163006259Y-69877295D01*
X163222295Y-69661259D01*
X163476326Y-69491521D01*
X163758590Y-69374604D01*
X163908415Y-69344802D01*
X164058239Y-69315000D01*
X164363761Y-69315000D01*
X164513585Y-69344802D01*
X164513585Y-69344802D01*
G37*
G36*
X126413585Y-69344802D02*
G01*
X126563410Y-69374604D01*
X126845674Y-69491521D01*
X127099705Y-69661259D01*
X127315741Y-69877295D01*
X127485479Y-70131326D01*
X127602396Y-70413590D01*
X127662000Y-70713240D01*
X127662000Y-71018760D01*
X127602396Y-71318410D01*
X127485479Y-71600674D01*
X127315741Y-71854705D01*
X127099705Y-72070741D01*
X126845674Y-72240479D01*
X126563410Y-72357396D01*
X126413585Y-72387198D01*
X126263761Y-72417000D01*
X125958239Y-72417000D01*
X125808415Y-72387198D01*
X125658590Y-72357396D01*
X125376326Y-72240479D01*
X125122295Y-72070741D01*
X124906259Y-71854705D01*
X124736521Y-71600674D01*
X124619604Y-71318410D01*
X124560000Y-71018760D01*
X124560000Y-70713240D01*
X124619604Y-70413590D01*
X124736521Y-70131326D01*
X124906259Y-69877295D01*
X125122295Y-69661259D01*
X125376326Y-69491521D01*
X125658590Y-69374604D01*
X125808415Y-69344802D01*
X125958239Y-69315000D01*
X126263761Y-69315000D01*
X126413585Y-69344802D01*
X126413585Y-69344802D01*
G37*
G36*
X168839000Y-72167000D02*
G01*
X166187000Y-72167000D01*
X166187000Y-69565000D01*
X168839000Y-69565000D01*
X168839000Y-72167000D01*
X168839000Y-72167000D01*
G37*
G36*
X130739000Y-72167000D02*
G01*
X128087000Y-72167000D01*
X128087000Y-69565000D01*
X130739000Y-69565000D01*
X130739000Y-72167000D01*
X130739000Y-72167000D01*
G37*
G36*
X149789000Y-72167000D02*
G01*
X147137000Y-72167000D01*
X147137000Y-69565000D01*
X149789000Y-69565000D01*
X149789000Y-72167000D01*
X149789000Y-72167000D01*
G37*
G36*
X186452000Y-62984000D02*
G01*
X185150000Y-62984000D01*
X185150000Y-61982000D01*
X186452000Y-61982000D01*
X186452000Y-62984000D01*
X186452000Y-62984000D01*
G37*
G36*
X167402000Y-62984000D02*
G01*
X166100000Y-62984000D01*
X166100000Y-61982000D01*
X167402000Y-61982000D01*
X167402000Y-62984000D01*
X167402000Y-62984000D01*
G37*
G36*
X148352000Y-62984000D02*
G01*
X147050000Y-62984000D01*
X147050000Y-61982000D01*
X148352000Y-61982000D01*
X148352000Y-62984000D01*
X148352000Y-62984000D01*
G37*
G36*
X129302000Y-62984000D02*
G01*
X128000000Y-62984000D01*
X128000000Y-61982000D01*
X129302000Y-61982000D01*
X129302000Y-62984000D01*
X129302000Y-62984000D01*
G37*
G36*
X148352000Y-59684000D02*
G01*
X147050000Y-59684000D01*
X147050000Y-58682000D01*
X148352000Y-58682000D01*
X148352000Y-59684000D01*
X148352000Y-59684000D01*
G37*
G36*
X167402000Y-59684000D02*
G01*
X166100000Y-59684000D01*
X166100000Y-58682000D01*
X167402000Y-58682000D01*
X167402000Y-59684000D01*
X167402000Y-59684000D01*
G37*
G36*
X186452000Y-59684000D02*
G01*
X185150000Y-59684000D01*
X185150000Y-58682000D01*
X186452000Y-58682000D01*
X186452000Y-59684000D01*
X186452000Y-59684000D01*
G37*
G36*
X129302000Y-59684000D02*
G01*
X128000000Y-59684000D01*
X128000000Y-58682000D01*
X129302000Y-58682000D01*
X129302000Y-59684000D01*
X129302000Y-59684000D01*
G37*
G36*
X181317474Y-54929684D02*
G01*
X181535474Y-55019983D01*
X181689623Y-55083833D01*
X182024548Y-55307623D01*
X182309377Y-55592452D01*
X182533167Y-55927377D01*
X182565562Y-56005586D01*
X182687316Y-56299526D01*
X182765900Y-56694594D01*
X182765900Y-57097406D01*
X182687316Y-57492474D01*
X182636451Y-57615272D01*
X182533167Y-57864623D01*
X182309377Y-58199548D01*
X182024548Y-58484377D01*
X181689623Y-58708167D01*
X181535474Y-58772017D01*
X181317474Y-58862316D01*
X180922406Y-58940900D01*
X180519594Y-58940900D01*
X180124526Y-58862316D01*
X179906526Y-58772017D01*
X179752377Y-58708167D01*
X179417452Y-58484377D01*
X179132623Y-58199548D01*
X178908833Y-57864623D01*
X178805549Y-57615272D01*
X178754684Y-57492474D01*
X178676100Y-57097406D01*
X178676100Y-56694594D01*
X178754684Y-56299526D01*
X178876438Y-56005586D01*
X178908833Y-55927377D01*
X179132623Y-55592452D01*
X179417452Y-55307623D01*
X179752377Y-55083833D01*
X179906526Y-55019983D01*
X180124526Y-54929684D01*
X180519594Y-54851100D01*
X180922406Y-54851100D01*
X181317474Y-54929684D01*
X181317474Y-54929684D01*
G37*
G36*
X162267474Y-54929684D02*
G01*
X162485474Y-55019983D01*
X162639623Y-55083833D01*
X162974548Y-55307623D01*
X163259377Y-55592452D01*
X163483167Y-55927377D01*
X163515562Y-56005586D01*
X163637316Y-56299526D01*
X163715900Y-56694594D01*
X163715900Y-57097406D01*
X163637316Y-57492474D01*
X163586451Y-57615272D01*
X163483167Y-57864623D01*
X163259377Y-58199548D01*
X162974548Y-58484377D01*
X162639623Y-58708167D01*
X162485474Y-58772017D01*
X162267474Y-58862316D01*
X161872406Y-58940900D01*
X161469594Y-58940900D01*
X161074526Y-58862316D01*
X160856526Y-58772017D01*
X160702377Y-58708167D01*
X160367452Y-58484377D01*
X160082623Y-58199548D01*
X159858833Y-57864623D01*
X159755549Y-57615272D01*
X159704684Y-57492474D01*
X159626100Y-57097406D01*
X159626100Y-56694594D01*
X159704684Y-56299526D01*
X159826438Y-56005586D01*
X159858833Y-55927377D01*
X160082623Y-55592452D01*
X160367452Y-55307623D01*
X160702377Y-55083833D01*
X160856526Y-55019983D01*
X161074526Y-54929684D01*
X161469594Y-54851100D01*
X161872406Y-54851100D01*
X162267474Y-54929684D01*
X162267474Y-54929684D01*
G37*
G36*
X143217474Y-54929684D02*
G01*
X143435474Y-55019983D01*
X143589623Y-55083833D01*
X143924548Y-55307623D01*
X144209377Y-55592452D01*
X144433167Y-55927377D01*
X144465562Y-56005586D01*
X144587316Y-56299526D01*
X144665900Y-56694594D01*
X144665900Y-57097406D01*
X144587316Y-57492474D01*
X144536451Y-57615272D01*
X144433167Y-57864623D01*
X144209377Y-58199548D01*
X143924548Y-58484377D01*
X143589623Y-58708167D01*
X143435474Y-58772017D01*
X143217474Y-58862316D01*
X142822406Y-58940900D01*
X142419594Y-58940900D01*
X142024526Y-58862316D01*
X141806526Y-58772017D01*
X141652377Y-58708167D01*
X141317452Y-58484377D01*
X141032623Y-58199548D01*
X140808833Y-57864623D01*
X140705549Y-57615272D01*
X140654684Y-57492474D01*
X140576100Y-57097406D01*
X140576100Y-56694594D01*
X140654684Y-56299526D01*
X140776438Y-56005586D01*
X140808833Y-55927377D01*
X141032623Y-55592452D01*
X141317452Y-55307623D01*
X141652377Y-55083833D01*
X141806526Y-55019983D01*
X142024526Y-54929684D01*
X142419594Y-54851100D01*
X142822406Y-54851100D01*
X143217474Y-54929684D01*
X143217474Y-54929684D01*
G37*
G36*
X124167474Y-54929684D02*
G01*
X124385474Y-55019983D01*
X124539623Y-55083833D01*
X124874548Y-55307623D01*
X125159377Y-55592452D01*
X125383167Y-55927377D01*
X125415562Y-56005586D01*
X125537316Y-56299526D01*
X125615900Y-56694594D01*
X125615900Y-57097406D01*
X125537316Y-57492474D01*
X125486451Y-57615272D01*
X125383167Y-57864623D01*
X125159377Y-58199548D01*
X124874548Y-58484377D01*
X124539623Y-58708167D01*
X124385474Y-58772017D01*
X124167474Y-58862316D01*
X123772406Y-58940900D01*
X123369594Y-58940900D01*
X122974526Y-58862316D01*
X122756526Y-58772017D01*
X122602377Y-58708167D01*
X122267452Y-58484377D01*
X121982623Y-58199548D01*
X121758833Y-57864623D01*
X121655549Y-57615272D01*
X121604684Y-57492474D01*
X121526100Y-57097406D01*
X121526100Y-56694594D01*
X121604684Y-56299526D01*
X121726438Y-56005586D01*
X121758833Y-55927377D01*
X121982623Y-55592452D01*
X122267452Y-55307623D01*
X122602377Y-55083833D01*
X122756526Y-55019983D01*
X122974526Y-54929684D01*
X123369594Y-54851100D01*
X123772406Y-54851100D01*
X124167474Y-54929684D01*
X124167474Y-54929684D01*
G37*
G36*
X186071104Y-56005585D02*
G01*
X186239626Y-56075389D01*
X186391291Y-56176728D01*
X186520272Y-56305709D01*
X186621611Y-56457374D01*
X186691415Y-56625896D01*
X186727000Y-56804797D01*
X186727000Y-56987203D01*
X186691415Y-57166104D01*
X186621611Y-57334626D01*
X186520272Y-57486291D01*
X186391291Y-57615272D01*
X186239626Y-57716611D01*
X186071104Y-57786415D01*
X185892203Y-57822000D01*
X185709797Y-57822000D01*
X185530896Y-57786415D01*
X185362374Y-57716611D01*
X185210709Y-57615272D01*
X185081728Y-57486291D01*
X184980389Y-57334626D01*
X184910585Y-57166104D01*
X184875000Y-56987203D01*
X184875000Y-56804797D01*
X184910585Y-56625896D01*
X184980389Y-56457374D01*
X185081728Y-56305709D01*
X185210709Y-56176728D01*
X185362374Y-56075389D01*
X185530896Y-56005585D01*
X185709797Y-55970000D01*
X185892203Y-55970000D01*
X186071104Y-56005585D01*
X186071104Y-56005585D01*
G37*
G36*
X175911104Y-56005585D02*
G01*
X176079626Y-56075389D01*
X176231291Y-56176728D01*
X176360272Y-56305709D01*
X176461611Y-56457374D01*
X176531415Y-56625896D01*
X176567000Y-56804797D01*
X176567000Y-56987203D01*
X176531415Y-57166104D01*
X176461611Y-57334626D01*
X176360272Y-57486291D01*
X176231291Y-57615272D01*
X176079626Y-57716611D01*
X175911104Y-57786415D01*
X175732203Y-57822000D01*
X175549797Y-57822000D01*
X175370896Y-57786415D01*
X175202374Y-57716611D01*
X175050709Y-57615272D01*
X174921728Y-57486291D01*
X174820389Y-57334626D01*
X174750585Y-57166104D01*
X174715000Y-56987203D01*
X174715000Y-56804797D01*
X174750585Y-56625896D01*
X174820389Y-56457374D01*
X174921728Y-56305709D01*
X175050709Y-56176728D01*
X175202374Y-56075389D01*
X175370896Y-56005585D01*
X175549797Y-55970000D01*
X175732203Y-55970000D01*
X175911104Y-56005585D01*
X175911104Y-56005585D01*
G37*
G36*
X147971104Y-56005585D02*
G01*
X148139626Y-56075389D01*
X148291291Y-56176728D01*
X148420272Y-56305709D01*
X148521611Y-56457374D01*
X148591415Y-56625896D01*
X148627000Y-56804797D01*
X148627000Y-56987203D01*
X148591415Y-57166104D01*
X148521611Y-57334626D01*
X148420272Y-57486291D01*
X148291291Y-57615272D01*
X148139626Y-57716611D01*
X147971104Y-57786415D01*
X147792203Y-57822000D01*
X147609797Y-57822000D01*
X147430896Y-57786415D01*
X147262374Y-57716611D01*
X147110709Y-57615272D01*
X146981728Y-57486291D01*
X146880389Y-57334626D01*
X146810585Y-57166104D01*
X146775000Y-56987203D01*
X146775000Y-56804797D01*
X146810585Y-56625896D01*
X146880389Y-56457374D01*
X146981728Y-56305709D01*
X147110709Y-56176728D01*
X147262374Y-56075389D01*
X147430896Y-56005585D01*
X147609797Y-55970000D01*
X147792203Y-55970000D01*
X147971104Y-56005585D01*
X147971104Y-56005585D01*
G37*
G36*
X128921104Y-56005585D02*
G01*
X129089626Y-56075389D01*
X129241291Y-56176728D01*
X129370272Y-56305709D01*
X129471611Y-56457374D01*
X129541415Y-56625896D01*
X129577000Y-56804797D01*
X129577000Y-56987203D01*
X129541415Y-57166104D01*
X129471611Y-57334626D01*
X129370272Y-57486291D01*
X129241291Y-57615272D01*
X129089626Y-57716611D01*
X128921104Y-57786415D01*
X128742203Y-57822000D01*
X128559797Y-57822000D01*
X128380896Y-57786415D01*
X128212374Y-57716611D01*
X128060709Y-57615272D01*
X127931728Y-57486291D01*
X127830389Y-57334626D01*
X127760585Y-57166104D01*
X127725000Y-56987203D01*
X127725000Y-56804797D01*
X127760585Y-56625896D01*
X127830389Y-56457374D01*
X127931728Y-56305709D01*
X128060709Y-56176728D01*
X128212374Y-56075389D01*
X128380896Y-56005585D01*
X128559797Y-55970000D01*
X128742203Y-55970000D01*
X128921104Y-56005585D01*
X128921104Y-56005585D01*
G37*
G36*
X118761104Y-56005585D02*
G01*
X118929626Y-56075389D01*
X119081291Y-56176728D01*
X119210272Y-56305709D01*
X119311611Y-56457374D01*
X119381415Y-56625896D01*
X119417000Y-56804797D01*
X119417000Y-56987203D01*
X119381415Y-57166104D01*
X119311611Y-57334626D01*
X119210272Y-57486291D01*
X119081291Y-57615272D01*
X118929626Y-57716611D01*
X118761104Y-57786415D01*
X118582203Y-57822000D01*
X118399797Y-57822000D01*
X118220896Y-57786415D01*
X118052374Y-57716611D01*
X117900709Y-57615272D01*
X117771728Y-57486291D01*
X117670389Y-57334626D01*
X117600585Y-57166104D01*
X117565000Y-56987203D01*
X117565000Y-56804797D01*
X117600585Y-56625896D01*
X117670389Y-56457374D01*
X117771728Y-56305709D01*
X117900709Y-56176728D01*
X118052374Y-56075389D01*
X118220896Y-56005585D01*
X118399797Y-55970000D01*
X118582203Y-55970000D01*
X118761104Y-56005585D01*
X118761104Y-56005585D01*
G37*
G36*
X167021104Y-56005585D02*
G01*
X167189626Y-56075389D01*
X167341291Y-56176728D01*
X167470272Y-56305709D01*
X167571611Y-56457374D01*
X167641415Y-56625896D01*
X167677000Y-56804797D01*
X167677000Y-56987203D01*
X167641415Y-57166104D01*
X167571611Y-57334626D01*
X167470272Y-57486291D01*
X167341291Y-57615272D01*
X167189626Y-57716611D01*
X167021104Y-57786415D01*
X166842203Y-57822000D01*
X166659797Y-57822000D01*
X166480896Y-57786415D01*
X166312374Y-57716611D01*
X166160709Y-57615272D01*
X166031728Y-57486291D01*
X165930389Y-57334626D01*
X165860585Y-57166104D01*
X165825000Y-56987203D01*
X165825000Y-56804797D01*
X165860585Y-56625896D01*
X165930389Y-56457374D01*
X166031728Y-56305709D01*
X166160709Y-56176728D01*
X166312374Y-56075389D01*
X166480896Y-56005585D01*
X166659797Y-55970000D01*
X166842203Y-55970000D01*
X167021104Y-56005585D01*
X167021104Y-56005585D01*
G37*
G36*
X156861104Y-56005585D02*
G01*
X157029626Y-56075389D01*
X157181291Y-56176728D01*
X157310272Y-56305709D01*
X157411611Y-56457374D01*
X157481415Y-56625896D01*
X157517000Y-56804797D01*
X157517000Y-56987203D01*
X157481415Y-57166104D01*
X157411611Y-57334626D01*
X157310272Y-57486291D01*
X157181291Y-57615272D01*
X157029626Y-57716611D01*
X156861104Y-57786415D01*
X156682203Y-57822000D01*
X156499797Y-57822000D01*
X156320896Y-57786415D01*
X156152374Y-57716611D01*
X156000709Y-57615272D01*
X155871728Y-57486291D01*
X155770389Y-57334626D01*
X155700585Y-57166104D01*
X155665000Y-56987203D01*
X155665000Y-56804797D01*
X155700585Y-56625896D01*
X155770389Y-56457374D01*
X155871728Y-56305709D01*
X156000709Y-56176728D01*
X156152374Y-56075389D01*
X156320896Y-56005585D01*
X156499797Y-55970000D01*
X156682203Y-55970000D01*
X156861104Y-56005585D01*
X156861104Y-56005585D01*
G37*
G36*
X137811104Y-56005585D02*
G01*
X137979626Y-56075389D01*
X138131291Y-56176728D01*
X138260272Y-56305709D01*
X138361611Y-56457374D01*
X138431415Y-56625896D01*
X138467000Y-56804797D01*
X138467000Y-56987203D01*
X138431415Y-57166104D01*
X138361611Y-57334626D01*
X138260272Y-57486291D01*
X138131291Y-57615272D01*
X137979626Y-57716611D01*
X137811104Y-57786415D01*
X137632203Y-57822000D01*
X137449797Y-57822000D01*
X137270896Y-57786415D01*
X137102374Y-57716611D01*
X136950709Y-57615272D01*
X136821728Y-57486291D01*
X136720389Y-57334626D01*
X136650585Y-57166104D01*
X136615000Y-56987203D01*
X136615000Y-56804797D01*
X136650585Y-56625896D01*
X136720389Y-56457374D01*
X136821728Y-56305709D01*
X136950709Y-56176728D01*
X137102374Y-56075389D01*
X137270896Y-56005585D01*
X137449797Y-55970000D01*
X137632203Y-55970000D01*
X137811104Y-56005585D01*
X137811104Y-56005585D01*
G37*
G36*
X177213585Y-52834802D02*
G01*
X177363410Y-52864604D01*
X177645674Y-52981521D01*
X177899705Y-53151259D01*
X178115741Y-53367295D01*
X178285479Y-53621326D01*
X178402396Y-53903590D01*
X178462000Y-54203240D01*
X178462000Y-54508760D01*
X178402396Y-54808410D01*
X178285479Y-55090674D01*
X178115741Y-55344705D01*
X177899705Y-55560741D01*
X177645674Y-55730479D01*
X177363410Y-55847396D01*
X177213585Y-55877198D01*
X177063761Y-55907000D01*
X176758239Y-55907000D01*
X176608415Y-55877198D01*
X176458590Y-55847396D01*
X176176326Y-55730479D01*
X175922295Y-55560741D01*
X175706259Y-55344705D01*
X175536521Y-55090674D01*
X175419604Y-54808410D01*
X175360000Y-54508760D01*
X175360000Y-54203240D01*
X175419604Y-53903590D01*
X175536521Y-53621326D01*
X175706259Y-53367295D01*
X175922295Y-53151259D01*
X176176326Y-52981521D01*
X176458590Y-52864604D01*
X176608415Y-52834802D01*
X176758239Y-52805000D01*
X177063761Y-52805000D01*
X177213585Y-52834802D01*
X177213585Y-52834802D01*
G37*
G36*
X139113585Y-52834802D02*
G01*
X139263410Y-52864604D01*
X139545674Y-52981521D01*
X139799705Y-53151259D01*
X140015741Y-53367295D01*
X140185479Y-53621326D01*
X140302396Y-53903590D01*
X140362000Y-54203240D01*
X140362000Y-54508760D01*
X140302396Y-54808410D01*
X140185479Y-55090674D01*
X140015741Y-55344705D01*
X139799705Y-55560741D01*
X139545674Y-55730479D01*
X139263410Y-55847396D01*
X139113585Y-55877198D01*
X138963761Y-55907000D01*
X138658239Y-55907000D01*
X138508415Y-55877198D01*
X138358590Y-55847396D01*
X138076326Y-55730479D01*
X137822295Y-55560741D01*
X137606259Y-55344705D01*
X137436521Y-55090674D01*
X137319604Y-54808410D01*
X137260000Y-54508760D01*
X137260000Y-54203240D01*
X137319604Y-53903590D01*
X137436521Y-53621326D01*
X137606259Y-53367295D01*
X137822295Y-53151259D01*
X138076326Y-52981521D01*
X138358590Y-52864604D01*
X138508415Y-52834802D01*
X138658239Y-52805000D01*
X138963761Y-52805000D01*
X139113585Y-52834802D01*
X139113585Y-52834802D01*
G37*
G36*
X158163585Y-52834802D02*
G01*
X158313410Y-52864604D01*
X158595674Y-52981521D01*
X158849705Y-53151259D01*
X159065741Y-53367295D01*
X159235479Y-53621326D01*
X159352396Y-53903590D01*
X159412000Y-54203240D01*
X159412000Y-54508760D01*
X159352396Y-54808410D01*
X159235479Y-55090674D01*
X159065741Y-55344705D01*
X158849705Y-55560741D01*
X158595674Y-55730479D01*
X158313410Y-55847396D01*
X158163585Y-55877198D01*
X158013761Y-55907000D01*
X157708239Y-55907000D01*
X157558415Y-55877198D01*
X157408590Y-55847396D01*
X157126326Y-55730479D01*
X156872295Y-55560741D01*
X156656259Y-55344705D01*
X156486521Y-55090674D01*
X156369604Y-54808410D01*
X156310000Y-54508760D01*
X156310000Y-54203240D01*
X156369604Y-53903590D01*
X156486521Y-53621326D01*
X156656259Y-53367295D01*
X156872295Y-53151259D01*
X157126326Y-52981521D01*
X157408590Y-52864604D01*
X157558415Y-52834802D01*
X157708239Y-52805000D01*
X158013761Y-52805000D01*
X158163585Y-52834802D01*
X158163585Y-52834802D01*
G37*
G36*
X120063585Y-52834802D02*
G01*
X120213410Y-52864604D01*
X120495674Y-52981521D01*
X120749705Y-53151259D01*
X120965741Y-53367295D01*
X121135479Y-53621326D01*
X121252396Y-53903590D01*
X121312000Y-54203240D01*
X121312000Y-54508760D01*
X121252396Y-54808410D01*
X121135479Y-55090674D01*
X120965741Y-55344705D01*
X120749705Y-55560741D01*
X120495674Y-55730479D01*
X120213410Y-55847396D01*
X120063585Y-55877198D01*
X119913761Y-55907000D01*
X119608239Y-55907000D01*
X119458415Y-55877198D01*
X119308590Y-55847396D01*
X119026326Y-55730479D01*
X118772295Y-55560741D01*
X118556259Y-55344705D01*
X118386521Y-55090674D01*
X118269604Y-54808410D01*
X118210000Y-54508760D01*
X118210000Y-54203240D01*
X118269604Y-53903590D01*
X118386521Y-53621326D01*
X118556259Y-53367295D01*
X118772295Y-53151259D01*
X119026326Y-52981521D01*
X119308590Y-52864604D01*
X119458415Y-52834802D01*
X119608239Y-52805000D01*
X119913761Y-52805000D01*
X120063585Y-52834802D01*
X120063585Y-52834802D01*
G37*
G36*
X155912000Y-55657000D02*
G01*
X153260000Y-55657000D01*
X153260000Y-53055000D01*
X155912000Y-53055000D01*
X155912000Y-55657000D01*
X155912000Y-55657000D01*
G37*
G36*
X117812000Y-55657000D02*
G01*
X115160000Y-55657000D01*
X115160000Y-53055000D01*
X117812000Y-53055000D01*
X117812000Y-55657000D01*
X117812000Y-55657000D01*
G37*
G36*
X136862000Y-55657000D02*
G01*
X134210000Y-55657000D01*
X134210000Y-53055000D01*
X136862000Y-53055000D01*
X136862000Y-55657000D01*
X136862000Y-55657000D01*
G37*
G36*
X174962000Y-55657000D02*
G01*
X172310000Y-55657000D01*
X172310000Y-53055000D01*
X174962000Y-53055000D01*
X174962000Y-55657000D01*
X174962000Y-55657000D01*
G37*
G36*
X164513585Y-50294802D02*
G01*
X164663410Y-50324604D01*
X164945674Y-50441521D01*
X165199705Y-50611259D01*
X165415741Y-50827295D01*
X165585479Y-51081326D01*
X165702396Y-51363590D01*
X165762000Y-51663240D01*
X165762000Y-51968760D01*
X165702396Y-52268410D01*
X165585479Y-52550674D01*
X165415741Y-52804705D01*
X165199705Y-53020741D01*
X164945674Y-53190479D01*
X164663410Y-53307396D01*
X164513585Y-53337198D01*
X164363761Y-53367000D01*
X164058239Y-53367000D01*
X163908415Y-53337198D01*
X163758590Y-53307396D01*
X163476326Y-53190479D01*
X163222295Y-53020741D01*
X163006259Y-52804705D01*
X162836521Y-52550674D01*
X162719604Y-52268410D01*
X162660000Y-51968760D01*
X162660000Y-51663240D01*
X162719604Y-51363590D01*
X162836521Y-51081326D01*
X163006259Y-50827295D01*
X163222295Y-50611259D01*
X163476326Y-50441521D01*
X163758590Y-50324604D01*
X163908415Y-50294802D01*
X164058239Y-50265000D01*
X164363761Y-50265000D01*
X164513585Y-50294802D01*
X164513585Y-50294802D01*
G37*
G36*
X145463585Y-50294802D02*
G01*
X145613410Y-50324604D01*
X145895674Y-50441521D01*
X146149705Y-50611259D01*
X146365741Y-50827295D01*
X146535479Y-51081326D01*
X146652396Y-51363590D01*
X146712000Y-51663240D01*
X146712000Y-51968760D01*
X146652396Y-52268410D01*
X146535479Y-52550674D01*
X146365741Y-52804705D01*
X146149705Y-53020741D01*
X145895674Y-53190479D01*
X145613410Y-53307396D01*
X145463585Y-53337198D01*
X145313761Y-53367000D01*
X145008239Y-53367000D01*
X144858415Y-53337198D01*
X144708590Y-53307396D01*
X144426326Y-53190479D01*
X144172295Y-53020741D01*
X143956259Y-52804705D01*
X143786521Y-52550674D01*
X143669604Y-52268410D01*
X143610000Y-51968760D01*
X143610000Y-51663240D01*
X143669604Y-51363590D01*
X143786521Y-51081326D01*
X143956259Y-50827295D01*
X144172295Y-50611259D01*
X144426326Y-50441521D01*
X144708590Y-50324604D01*
X144858415Y-50294802D01*
X145008239Y-50265000D01*
X145313761Y-50265000D01*
X145463585Y-50294802D01*
X145463585Y-50294802D01*
G37*
G36*
X126413585Y-50294802D02*
G01*
X126563410Y-50324604D01*
X126845674Y-50441521D01*
X127099705Y-50611259D01*
X127315741Y-50827295D01*
X127485479Y-51081326D01*
X127602396Y-51363590D01*
X127662000Y-51663240D01*
X127662000Y-51968760D01*
X127602396Y-52268410D01*
X127485479Y-52550674D01*
X127315741Y-52804705D01*
X127099705Y-53020741D01*
X126845674Y-53190479D01*
X126563410Y-53307396D01*
X126413585Y-53337198D01*
X126263761Y-53367000D01*
X125958239Y-53367000D01*
X125808415Y-53337198D01*
X125658590Y-53307396D01*
X125376326Y-53190479D01*
X125122295Y-53020741D01*
X124906259Y-52804705D01*
X124736521Y-52550674D01*
X124619604Y-52268410D01*
X124560000Y-51968760D01*
X124560000Y-51663240D01*
X124619604Y-51363590D01*
X124736521Y-51081326D01*
X124906259Y-50827295D01*
X125122295Y-50611259D01*
X125376326Y-50441521D01*
X125658590Y-50324604D01*
X125808415Y-50294802D01*
X125958239Y-50265000D01*
X126263761Y-50265000D01*
X126413585Y-50294802D01*
X126413585Y-50294802D01*
G37*
G36*
X183563585Y-50294802D02*
G01*
X183713410Y-50324604D01*
X183995674Y-50441521D01*
X184249705Y-50611259D01*
X184465741Y-50827295D01*
X184635479Y-51081326D01*
X184752396Y-51363590D01*
X184812000Y-51663240D01*
X184812000Y-51968760D01*
X184752396Y-52268410D01*
X184635479Y-52550674D01*
X184465741Y-52804705D01*
X184249705Y-53020741D01*
X183995674Y-53190479D01*
X183713410Y-53307396D01*
X183563585Y-53337198D01*
X183413761Y-53367000D01*
X183108239Y-53367000D01*
X182958415Y-53337198D01*
X182808590Y-53307396D01*
X182526326Y-53190479D01*
X182272295Y-53020741D01*
X182056259Y-52804705D01*
X181886521Y-52550674D01*
X181769604Y-52268410D01*
X181710000Y-51968760D01*
X181710000Y-51663240D01*
X181769604Y-51363590D01*
X181886521Y-51081326D01*
X182056259Y-50827295D01*
X182272295Y-50611259D01*
X182526326Y-50441521D01*
X182808590Y-50324604D01*
X182958415Y-50294802D01*
X183108239Y-50265000D01*
X183413761Y-50265000D01*
X183563585Y-50294802D01*
X183563585Y-50294802D01*
G37*
G36*
X168839000Y-53117000D02*
G01*
X166187000Y-53117000D01*
X166187000Y-50515000D01*
X168839000Y-50515000D01*
X168839000Y-53117000D01*
X168839000Y-53117000D01*
G37*
G36*
X187889000Y-53117000D02*
G01*
X185237000Y-53117000D01*
X185237000Y-50515000D01*
X187889000Y-50515000D01*
X187889000Y-53117000D01*
X187889000Y-53117000D01*
G37*
G36*
X130739000Y-53117000D02*
G01*
X128087000Y-53117000D01*
X128087000Y-50515000D01*
X130739000Y-50515000D01*
X130739000Y-53117000D01*
X130739000Y-53117000D01*
G37*
G36*
X149789000Y-53117000D02*
G01*
X147137000Y-53117000D01*
X147137000Y-50515000D01*
X149789000Y-50515000D01*
X149789000Y-53117000D01*
X149789000Y-53117000D01*
G37*
G36*
X135421468Y-48021565D02*
G01*
X135460138Y-48033296D01*
X135495777Y-48052346D01*
X135527017Y-48077983D01*
X135552654Y-48109223D01*
X135571704Y-48144862D01*
X135583435Y-48183532D01*
X135588000Y-48229888D01*
X135588000Y-49306112D01*
X135583435Y-49352468D01*
X135571704Y-49391138D01*
X135552654Y-49426777D01*
X135527017Y-49458017D01*
X135495777Y-49483654D01*
X135460138Y-49502704D01*
X135421468Y-49514435D01*
X135375112Y-49519000D01*
X134723888Y-49519000D01*
X134677532Y-49514435D01*
X134638862Y-49502704D01*
X134603223Y-49483654D01*
X134571983Y-49458017D01*
X134546346Y-49426777D01*
X134527296Y-49391138D01*
X134515565Y-49352468D01*
X134511000Y-49306112D01*
X134511000Y-48229888D01*
X134515565Y-48183532D01*
X134527296Y-48144862D01*
X134546346Y-48109223D01*
X134571983Y-48077983D01*
X134603223Y-48052346D01*
X134638862Y-48033296D01*
X134677532Y-48021565D01*
X134723888Y-48017000D01*
X135375112Y-48017000D01*
X135421468Y-48021565D01*
X135421468Y-48021565D01*
G37*
G36*
X133546468Y-48021565D02*
G01*
X133585138Y-48033296D01*
X133620777Y-48052346D01*
X133652017Y-48077983D01*
X133677654Y-48109223D01*
X133696704Y-48144862D01*
X133708435Y-48183532D01*
X133713000Y-48229888D01*
X133713000Y-49306112D01*
X133708435Y-49352468D01*
X133696704Y-49391138D01*
X133677654Y-49426777D01*
X133652017Y-49458017D01*
X133620777Y-49483654D01*
X133585138Y-49502704D01*
X133546468Y-49514435D01*
X133500112Y-49519000D01*
X132848888Y-49519000D01*
X132802532Y-49514435D01*
X132763862Y-49502704D01*
X132728223Y-49483654D01*
X132696983Y-49458017D01*
X132671346Y-49426777D01*
X132652296Y-49391138D01*
X132640565Y-49352468D01*
X132636000Y-49306112D01*
X132636000Y-48229888D01*
X132640565Y-48183532D01*
X132652296Y-48144862D01*
X132671346Y-48109223D01*
X132696983Y-48077983D01*
X132728223Y-48052346D01*
X132763862Y-48033296D01*
X132802532Y-48021565D01*
X132848888Y-48017000D01*
X133500112Y-48017000D01*
X133546468Y-48021565D01*
X133546468Y-48021565D01*
G37*
G36*
X151714468Y-47950065D02*
G01*
X151753138Y-47961796D01*
X151788777Y-47980846D01*
X151820017Y-48006483D01*
X151845654Y-48037723D01*
X151864704Y-48073362D01*
X151876435Y-48112032D01*
X151881000Y-48158388D01*
X151881000Y-48809612D01*
X151876435Y-48855968D01*
X151864704Y-48894638D01*
X151845654Y-48930277D01*
X151820017Y-48961517D01*
X151788777Y-48987154D01*
X151753138Y-49006204D01*
X151714468Y-49017935D01*
X151668112Y-49022500D01*
X150591888Y-49022500D01*
X150545532Y-49017935D01*
X150506862Y-49006204D01*
X150471223Y-48987154D01*
X150439983Y-48961517D01*
X150414346Y-48930277D01*
X150395296Y-48894638D01*
X150383565Y-48855968D01*
X150379000Y-48809612D01*
X150379000Y-48158388D01*
X150383565Y-48112032D01*
X150395296Y-48073362D01*
X150414346Y-48037723D01*
X150439983Y-48006483D01*
X150471223Y-47980846D01*
X150506862Y-47961796D01*
X150545532Y-47950065D01*
X150591888Y-47945500D01*
X151668112Y-47945500D01*
X151714468Y-47950065D01*
X151714468Y-47950065D01*
G37*
G36*
X153746468Y-47950065D02*
G01*
X153785138Y-47961796D01*
X153820777Y-47980846D01*
X153852017Y-48006483D01*
X153877654Y-48037723D01*
X153896704Y-48073362D01*
X153908435Y-48112032D01*
X153913000Y-48158388D01*
X153913000Y-48809612D01*
X153908435Y-48855968D01*
X153896704Y-48894638D01*
X153877654Y-48930277D01*
X153852017Y-48961517D01*
X153820777Y-48987154D01*
X153785138Y-49006204D01*
X153746468Y-49017935D01*
X153700112Y-49022500D01*
X152623888Y-49022500D01*
X152577532Y-49017935D01*
X152538862Y-49006204D01*
X152503223Y-48987154D01*
X152471983Y-48961517D01*
X152446346Y-48930277D01*
X152427296Y-48894638D01*
X152415565Y-48855968D01*
X152411000Y-48809612D01*
X152411000Y-48158388D01*
X152415565Y-48112032D01*
X152427296Y-48073362D01*
X152446346Y-48037723D01*
X152471983Y-48006483D01*
X152503223Y-47980846D01*
X152538862Y-47961796D01*
X152577532Y-47950065D01*
X152623888Y-47945500D01*
X153700112Y-47945500D01*
X153746468Y-47950065D01*
X153746468Y-47950065D01*
G37*
G36*
X140016591Y-47865085D02*
G01*
X140050569Y-47875393D01*
X140081890Y-47892134D01*
X140109339Y-47914661D01*
X140131866Y-47942110D01*
X140148607Y-47973431D01*
X140158915Y-48007409D01*
X140163000Y-48048890D01*
X140163000Y-48725110D01*
X140158915Y-48766591D01*
X140148607Y-48800569D01*
X140131866Y-48831890D01*
X140109339Y-48859339D01*
X140081890Y-48881866D01*
X140050569Y-48898607D01*
X140016591Y-48908915D01*
X139975110Y-48913000D01*
X139373890Y-48913000D01*
X139332409Y-48908915D01*
X139298431Y-48898607D01*
X139267110Y-48881866D01*
X139239661Y-48859339D01*
X139217134Y-48831890D01*
X139200393Y-48800569D01*
X139190085Y-48766591D01*
X139186000Y-48725110D01*
X139186000Y-48048890D01*
X139190085Y-48007409D01*
X139200393Y-47973431D01*
X139217134Y-47942110D01*
X139239661Y-47914661D01*
X139267110Y-47892134D01*
X139298431Y-47875393D01*
X139332409Y-47865085D01*
X139373890Y-47861000D01*
X139975110Y-47861000D01*
X140016591Y-47865085D01*
X140016591Y-47865085D01*
G37*
G36*
X141591591Y-47865085D02*
G01*
X141625569Y-47875393D01*
X141656890Y-47892134D01*
X141684339Y-47914661D01*
X141706866Y-47942110D01*
X141723607Y-47973431D01*
X141733915Y-48007409D01*
X141738000Y-48048890D01*
X141738000Y-48725110D01*
X141733915Y-48766591D01*
X141723607Y-48800569D01*
X141706866Y-48831890D01*
X141684339Y-48859339D01*
X141656890Y-48881866D01*
X141625569Y-48898607D01*
X141591591Y-48908915D01*
X141550110Y-48913000D01*
X140948890Y-48913000D01*
X140907409Y-48908915D01*
X140873431Y-48898607D01*
X140842110Y-48881866D01*
X140814661Y-48859339D01*
X140792134Y-48831890D01*
X140775393Y-48800569D01*
X140765085Y-48766591D01*
X140761000Y-48725110D01*
X140761000Y-48048890D01*
X140765085Y-48007409D01*
X140775393Y-47973431D01*
X140792134Y-47942110D01*
X140814661Y-47914661D01*
X140842110Y-47892134D01*
X140873431Y-47875393D01*
X140907409Y-47865085D01*
X140948890Y-47861000D01*
X141550110Y-47861000D01*
X141591591Y-47865085D01*
X141591591Y-47865085D01*
G37*
G36*
X131628355Y-41398083D02*
G01*
X131633029Y-41399501D01*
X131637330Y-41401800D01*
X131643702Y-41407029D01*
X131664076Y-41420643D01*
X131686715Y-41430020D01*
X131710749Y-41434800D01*
X131735253Y-41434800D01*
X131759286Y-41430019D01*
X131781925Y-41420642D01*
X131802298Y-41407029D01*
X131808670Y-41401800D01*
X131812971Y-41399501D01*
X131817645Y-41398083D01*
X131828641Y-41397000D01*
X132117359Y-41397000D01*
X132128355Y-41398083D01*
X132133029Y-41399501D01*
X132137330Y-41401800D01*
X132143702Y-41407029D01*
X132164076Y-41420643D01*
X132186715Y-41430020D01*
X132210749Y-41434800D01*
X132235253Y-41434800D01*
X132259286Y-41430019D01*
X132281925Y-41420642D01*
X132302298Y-41407029D01*
X132308670Y-41401800D01*
X132312971Y-41399501D01*
X132317645Y-41398083D01*
X132328641Y-41397000D01*
X132617359Y-41397000D01*
X132628355Y-41398083D01*
X132633029Y-41399501D01*
X132637330Y-41401800D01*
X132643702Y-41407029D01*
X132664076Y-41420643D01*
X132686715Y-41430020D01*
X132710749Y-41434800D01*
X132735253Y-41434800D01*
X132759286Y-41430019D01*
X132781925Y-41420642D01*
X132802298Y-41407029D01*
X132808670Y-41401800D01*
X132812971Y-41399501D01*
X132817645Y-41398083D01*
X132828641Y-41397000D01*
X133117359Y-41397000D01*
X133128355Y-41398083D01*
X133133029Y-41399501D01*
X133137330Y-41401800D01*
X133143702Y-41407029D01*
X133164076Y-41420643D01*
X133186715Y-41430020D01*
X133210749Y-41434800D01*
X133235253Y-41434800D01*
X133259286Y-41430019D01*
X133281925Y-41420642D01*
X133302298Y-41407029D01*
X133308670Y-41401800D01*
X133312971Y-41399501D01*
X133317645Y-41398083D01*
X133328641Y-41397000D01*
X133617359Y-41397000D01*
X133628355Y-41398083D01*
X133633029Y-41399501D01*
X133637330Y-41401800D01*
X133643702Y-41407029D01*
X133664076Y-41420643D01*
X133686715Y-41430020D01*
X133710749Y-41434800D01*
X133735253Y-41434800D01*
X133759286Y-41430019D01*
X133781925Y-41420642D01*
X133802298Y-41407029D01*
X133808670Y-41401800D01*
X133812971Y-41399501D01*
X133817645Y-41398083D01*
X133828641Y-41397000D01*
X134117359Y-41397000D01*
X134128355Y-41398083D01*
X134133029Y-41399501D01*
X134137330Y-41401800D01*
X134143702Y-41407029D01*
X134164076Y-41420643D01*
X134186715Y-41430020D01*
X134210749Y-41434800D01*
X134235253Y-41434800D01*
X134259286Y-41430019D01*
X134281925Y-41420642D01*
X134302298Y-41407029D01*
X134308670Y-41401800D01*
X134312971Y-41399501D01*
X134317645Y-41398083D01*
X134328641Y-41397000D01*
X134617359Y-41397000D01*
X134628355Y-41398083D01*
X134633029Y-41399501D01*
X134637330Y-41401800D01*
X134643702Y-41407029D01*
X134664076Y-41420643D01*
X134686715Y-41430020D01*
X134710749Y-41434800D01*
X134735253Y-41434800D01*
X134759286Y-41430019D01*
X134781925Y-41420642D01*
X134802298Y-41407029D01*
X134808670Y-41401800D01*
X134812971Y-41399501D01*
X134817645Y-41398083D01*
X134828641Y-41397000D01*
X135117359Y-41397000D01*
X135128355Y-41398083D01*
X135133029Y-41399501D01*
X135137331Y-41401800D01*
X135141104Y-41404896D01*
X135144200Y-41408669D01*
X135146499Y-41412971D01*
X135147917Y-41417645D01*
X135149000Y-41428641D01*
X135149000Y-42272001D01*
X135151402Y-42296387D01*
X135158515Y-42319836D01*
X135170066Y-42341447D01*
X135185611Y-42360389D01*
X135204553Y-42375934D01*
X135226164Y-42387485D01*
X135249613Y-42394598D01*
X135273999Y-42397000D01*
X136117359Y-42397000D01*
X136128355Y-42398083D01*
X136133029Y-42399501D01*
X136137331Y-42401800D01*
X136141104Y-42404896D01*
X136144200Y-42408669D01*
X136146499Y-42412971D01*
X136147917Y-42417645D01*
X136149000Y-42428641D01*
X136149000Y-42717359D01*
X136147917Y-42728355D01*
X136146499Y-42733029D01*
X136144200Y-42737330D01*
X136138971Y-42743702D01*
X136125357Y-42764076D01*
X136115980Y-42786715D01*
X136111200Y-42810749D01*
X136111200Y-42835253D01*
X136115981Y-42859286D01*
X136125358Y-42881925D01*
X136138971Y-42902298D01*
X136144200Y-42908670D01*
X136146499Y-42912971D01*
X136147917Y-42917645D01*
X136149000Y-42928641D01*
X136149000Y-43217359D01*
X136147917Y-43228355D01*
X136146499Y-43233029D01*
X136144200Y-43237330D01*
X136138971Y-43243702D01*
X136125357Y-43264076D01*
X136115980Y-43286715D01*
X136111200Y-43310749D01*
X136111200Y-43335253D01*
X136115981Y-43359286D01*
X136125358Y-43381925D01*
X136138971Y-43402298D01*
X136144200Y-43408670D01*
X136146499Y-43412971D01*
X136147917Y-43417645D01*
X136149000Y-43428641D01*
X136149000Y-43717359D01*
X136147917Y-43728355D01*
X136146499Y-43733029D01*
X136144200Y-43737330D01*
X136138971Y-43743702D01*
X136125357Y-43764076D01*
X136115980Y-43786715D01*
X136111200Y-43810749D01*
X136111200Y-43835253D01*
X136115981Y-43859286D01*
X136125358Y-43881925D01*
X136138971Y-43902298D01*
X136144200Y-43908670D01*
X136146499Y-43912971D01*
X136147917Y-43917645D01*
X136149000Y-43928641D01*
X136149000Y-44217359D01*
X136147917Y-44228355D01*
X136146499Y-44233029D01*
X136144200Y-44237330D01*
X136138971Y-44243702D01*
X136125357Y-44264076D01*
X136115980Y-44286715D01*
X136111200Y-44310749D01*
X136111200Y-44335253D01*
X136115981Y-44359286D01*
X136125358Y-44381925D01*
X136138971Y-44402298D01*
X136144200Y-44408670D01*
X136146499Y-44412971D01*
X136147917Y-44417645D01*
X136149000Y-44428641D01*
X136149000Y-44717359D01*
X136147917Y-44728355D01*
X136146499Y-44733029D01*
X136144200Y-44737330D01*
X136138971Y-44743702D01*
X136125357Y-44764076D01*
X136115980Y-44786715D01*
X136111200Y-44810749D01*
X136111200Y-44835253D01*
X136115981Y-44859286D01*
X136125358Y-44881925D01*
X136138971Y-44902298D01*
X136144200Y-44908670D01*
X136146499Y-44912971D01*
X136147917Y-44917645D01*
X136149000Y-44928641D01*
X136149000Y-45217359D01*
X136147917Y-45228355D01*
X136146499Y-45233029D01*
X136144200Y-45237330D01*
X136138971Y-45243702D01*
X136125357Y-45264076D01*
X136115980Y-45286715D01*
X136111200Y-45310749D01*
X136111200Y-45335253D01*
X136115981Y-45359286D01*
X136125358Y-45381925D01*
X136138971Y-45402298D01*
X136144200Y-45408670D01*
X136146499Y-45412971D01*
X136147917Y-45417645D01*
X136149000Y-45428641D01*
X136149000Y-45717359D01*
X136147917Y-45728355D01*
X136146499Y-45733029D01*
X136144200Y-45737330D01*
X136138971Y-45743702D01*
X136125357Y-45764076D01*
X136115980Y-45786715D01*
X136111200Y-45810749D01*
X136111200Y-45835253D01*
X136115981Y-45859286D01*
X136125358Y-45881925D01*
X136138971Y-45902298D01*
X136144200Y-45908670D01*
X136146499Y-45912971D01*
X136147917Y-45917645D01*
X136149000Y-45928641D01*
X136149000Y-46217359D01*
X136147917Y-46228355D01*
X136146499Y-46233029D01*
X136144200Y-46237331D01*
X136141104Y-46241104D01*
X136137331Y-46244200D01*
X136133029Y-46246499D01*
X136128355Y-46247917D01*
X136117359Y-46249000D01*
X135273999Y-46249000D01*
X135249613Y-46251402D01*
X135226164Y-46258515D01*
X135204553Y-46270066D01*
X135185611Y-46285611D01*
X135170066Y-46304553D01*
X135158515Y-46326164D01*
X135151402Y-46349613D01*
X135149000Y-46373999D01*
X135149000Y-47217359D01*
X135147917Y-47228355D01*
X135146499Y-47233029D01*
X135144200Y-47237331D01*
X135141104Y-47241104D01*
X135137331Y-47244200D01*
X135133029Y-47246499D01*
X135128355Y-47247917D01*
X135117359Y-47249000D01*
X134828641Y-47249000D01*
X134817645Y-47247917D01*
X134812971Y-47246499D01*
X134808670Y-47244200D01*
X134802298Y-47238971D01*
X134781924Y-47225357D01*
X134759285Y-47215980D01*
X134735251Y-47211200D01*
X134710747Y-47211200D01*
X134686714Y-47215981D01*
X134664075Y-47225358D01*
X134643702Y-47238971D01*
X134637330Y-47244200D01*
X134633029Y-47246499D01*
X134628355Y-47247917D01*
X134617359Y-47249000D01*
X134328641Y-47249000D01*
X134317645Y-47247917D01*
X134312971Y-47246499D01*
X134308670Y-47244200D01*
X134302298Y-47238971D01*
X134281924Y-47225357D01*
X134259285Y-47215980D01*
X134235251Y-47211200D01*
X134210747Y-47211200D01*
X134186714Y-47215981D01*
X134164075Y-47225358D01*
X134143702Y-47238971D01*
X134137330Y-47244200D01*
X134133029Y-47246499D01*
X134128355Y-47247917D01*
X134117359Y-47249000D01*
X133828641Y-47249000D01*
X133817645Y-47247917D01*
X133812971Y-47246499D01*
X133808670Y-47244200D01*
X133802298Y-47238971D01*
X133781924Y-47225357D01*
X133759285Y-47215980D01*
X133735251Y-47211200D01*
X133710747Y-47211200D01*
X133686714Y-47215981D01*
X133664075Y-47225358D01*
X133643702Y-47238971D01*
X133637330Y-47244200D01*
X133633029Y-47246499D01*
X133628355Y-47247917D01*
X133617359Y-47249000D01*
X133328641Y-47249000D01*
X133317645Y-47247917D01*
X133312971Y-47246499D01*
X133308670Y-47244200D01*
X133302298Y-47238971D01*
X133281924Y-47225357D01*
X133259285Y-47215980D01*
X133235251Y-47211200D01*
X133210747Y-47211200D01*
X133186714Y-47215981D01*
X133164075Y-47225358D01*
X133143702Y-47238971D01*
X133137330Y-47244200D01*
X133133029Y-47246499D01*
X133128355Y-47247917D01*
X133117359Y-47249000D01*
X132828641Y-47249000D01*
X132817645Y-47247917D01*
X132812971Y-47246499D01*
X132808670Y-47244200D01*
X132802298Y-47238971D01*
X132781924Y-47225357D01*
X132759285Y-47215980D01*
X132735251Y-47211200D01*
X132710747Y-47211200D01*
X132686714Y-47215981D01*
X132664075Y-47225358D01*
X132643702Y-47238971D01*
X132637330Y-47244200D01*
X132633029Y-47246499D01*
X132628355Y-47247917D01*
X132617359Y-47249000D01*
X132328641Y-47249000D01*
X132317645Y-47247917D01*
X132312971Y-47246499D01*
X132308670Y-47244200D01*
X132302298Y-47238971D01*
X132281924Y-47225357D01*
X132259285Y-47215980D01*
X132235251Y-47211200D01*
X132210747Y-47211200D01*
X132186714Y-47215981D01*
X132164075Y-47225358D01*
X132143702Y-47238971D01*
X132137330Y-47244200D01*
X132133029Y-47246499D01*
X132128355Y-47247917D01*
X132117359Y-47249000D01*
X131828641Y-47249000D01*
X131817645Y-47247917D01*
X131812971Y-47246499D01*
X131808670Y-47244200D01*
X131802298Y-47238971D01*
X131781924Y-47225357D01*
X131759285Y-47215980D01*
X131735251Y-47211200D01*
X131710747Y-47211200D01*
X131686714Y-47215981D01*
X131664075Y-47225358D01*
X131643702Y-47238971D01*
X131637330Y-47244200D01*
X131633029Y-47246499D01*
X131628355Y-47247917D01*
X131617359Y-47249000D01*
X131328641Y-47249000D01*
X131317645Y-47247917D01*
X131312971Y-47246499D01*
X131308669Y-47244200D01*
X131304896Y-47241104D01*
X131301800Y-47237331D01*
X131299501Y-47233029D01*
X131298083Y-47228355D01*
X131297000Y-47217359D01*
X131297000Y-46373999D01*
X131294598Y-46349613D01*
X131287485Y-46326164D01*
X131275934Y-46304553D01*
X131260389Y-46285611D01*
X131241447Y-46270066D01*
X131219836Y-46258515D01*
X131196387Y-46251402D01*
X131172001Y-46249000D01*
X130328641Y-46249000D01*
X130317645Y-46247917D01*
X130312971Y-46246499D01*
X130308669Y-46244200D01*
X130304896Y-46241104D01*
X130301800Y-46237331D01*
X130299501Y-46233029D01*
X130298083Y-46228355D01*
X130297000Y-46217359D01*
X130297000Y-45928641D01*
X130298083Y-45917645D01*
X130299501Y-45912971D01*
X130301800Y-45908670D01*
X130307029Y-45902298D01*
X130320643Y-45881924D01*
X130330020Y-45859285D01*
X130334800Y-45835251D01*
X130334800Y-45810747D01*
X130330019Y-45786714D01*
X130320642Y-45764075D01*
X130307029Y-45743702D01*
X130301800Y-45737330D01*
X130299501Y-45733029D01*
X130298083Y-45728355D01*
X130297000Y-45717359D01*
X130297000Y-45428641D01*
X130298083Y-45417645D01*
X130299501Y-45412971D01*
X130301800Y-45408670D01*
X130307029Y-45402298D01*
X130320643Y-45381924D01*
X130330020Y-45359285D01*
X130334800Y-45335251D01*
X130334800Y-45310747D01*
X130330019Y-45286714D01*
X130320642Y-45264075D01*
X130307029Y-45243702D01*
X130301800Y-45237330D01*
X130299501Y-45233029D01*
X130298083Y-45228355D01*
X130297000Y-45217359D01*
X130297000Y-44928641D01*
X130298083Y-44917645D01*
X130299501Y-44912971D01*
X130301800Y-44908670D01*
X130307029Y-44902298D01*
X130320643Y-44881924D01*
X130330020Y-44859285D01*
X130334800Y-44835251D01*
X130334800Y-44810747D01*
X130330019Y-44786714D01*
X130320642Y-44764075D01*
X130307029Y-44743702D01*
X130301800Y-44737330D01*
X130299501Y-44733029D01*
X130298083Y-44728355D01*
X130297000Y-44717359D01*
X130297000Y-44428641D01*
X130298083Y-44417645D01*
X130299501Y-44412971D01*
X130301800Y-44408670D01*
X130307029Y-44402298D01*
X130320643Y-44381924D01*
X130330020Y-44359285D01*
X130334800Y-44335251D01*
X130334800Y-44310747D01*
X130330019Y-44286714D01*
X130320642Y-44264075D01*
X130307029Y-44243702D01*
X130301800Y-44237330D01*
X130299501Y-44233029D01*
X130298083Y-44228355D01*
X130297000Y-44217359D01*
X130297000Y-43928641D01*
X130298083Y-43917645D01*
X130299501Y-43912971D01*
X130301800Y-43908670D01*
X130307029Y-43902298D01*
X130320643Y-43881924D01*
X130330020Y-43859285D01*
X130334800Y-43835251D01*
X130334800Y-43810747D01*
X130330019Y-43786714D01*
X130320642Y-43764075D01*
X130307029Y-43743702D01*
X130301800Y-43737330D01*
X130299501Y-43733029D01*
X130298083Y-43728355D01*
X130297000Y-43717359D01*
X130297000Y-43428641D01*
X130298083Y-43417645D01*
X130299501Y-43412971D01*
X130301800Y-43408670D01*
X130307029Y-43402298D01*
X130320643Y-43381924D01*
X130330020Y-43359285D01*
X130334800Y-43335251D01*
X130334800Y-43310747D01*
X130330019Y-43286714D01*
X130320642Y-43264075D01*
X130307029Y-43243702D01*
X130301800Y-43237330D01*
X130299501Y-43233029D01*
X130298083Y-43228355D01*
X130297000Y-43217359D01*
X130297000Y-42928641D01*
X130298083Y-42917645D01*
X130299501Y-42912971D01*
X130301800Y-42908670D01*
X130307029Y-42902298D01*
X130320643Y-42881924D01*
X130330020Y-42859285D01*
X130334800Y-42835251D01*
X130334800Y-42810749D01*
X131236200Y-42810749D01*
X131236200Y-42835253D01*
X131240981Y-42859286D01*
X131250358Y-42881925D01*
X131263971Y-42902298D01*
X131269200Y-42908670D01*
X131271499Y-42912971D01*
X131272917Y-42917645D01*
X131274000Y-42928641D01*
X131274000Y-43217359D01*
X131272917Y-43228355D01*
X131271499Y-43233029D01*
X131269200Y-43237330D01*
X131263971Y-43243702D01*
X131250357Y-43264076D01*
X131240980Y-43286715D01*
X131236200Y-43310749D01*
X131236200Y-43335253D01*
X131240981Y-43359286D01*
X131250358Y-43381925D01*
X131263971Y-43402298D01*
X131269200Y-43408670D01*
X131271499Y-43412971D01*
X131272917Y-43417645D01*
X131274000Y-43428641D01*
X131274000Y-43717359D01*
X131272917Y-43728355D01*
X131271499Y-43733029D01*
X131269200Y-43737330D01*
X131263971Y-43743702D01*
X131250357Y-43764076D01*
X131240980Y-43786715D01*
X131236200Y-43810749D01*
X131236200Y-43835253D01*
X131240981Y-43859286D01*
X131250358Y-43881925D01*
X131263971Y-43902298D01*
X131269200Y-43908670D01*
X131271499Y-43912971D01*
X131272917Y-43917645D01*
X131274000Y-43928641D01*
X131274000Y-44217359D01*
X131272917Y-44228355D01*
X131271499Y-44233029D01*
X131269200Y-44237330D01*
X131263971Y-44243702D01*
X131250357Y-44264076D01*
X131240980Y-44286715D01*
X131236200Y-44310749D01*
X131236200Y-44335253D01*
X131240981Y-44359286D01*
X131250358Y-44381925D01*
X131263971Y-44402298D01*
X131269200Y-44408670D01*
X131271499Y-44412971D01*
X131272917Y-44417645D01*
X131274000Y-44428641D01*
X131274000Y-44717359D01*
X131272917Y-44728355D01*
X131271499Y-44733029D01*
X131269200Y-44737330D01*
X131263971Y-44743702D01*
X131250357Y-44764076D01*
X131240980Y-44786715D01*
X131236200Y-44810749D01*
X131236200Y-44835253D01*
X131240981Y-44859286D01*
X131250358Y-44881925D01*
X131263971Y-44902298D01*
X131269200Y-44908670D01*
X131271499Y-44912971D01*
X131272917Y-44917645D01*
X131274000Y-44928641D01*
X131274000Y-45217359D01*
X131272917Y-45228355D01*
X131271499Y-45233029D01*
X131269200Y-45237330D01*
X131263971Y-45243702D01*
X131250357Y-45264076D01*
X131240980Y-45286715D01*
X131236200Y-45310749D01*
X131236200Y-45335253D01*
X131240981Y-45359286D01*
X131250358Y-45381925D01*
X131263971Y-45402298D01*
X131269200Y-45408670D01*
X131271499Y-45412971D01*
X131272917Y-45417645D01*
X131274000Y-45428641D01*
X131274000Y-45717359D01*
X131272917Y-45728355D01*
X131271499Y-45733029D01*
X131269200Y-45737330D01*
X131263971Y-45743702D01*
X131250357Y-45764076D01*
X131240980Y-45786715D01*
X131236200Y-45810749D01*
X131236200Y-45835253D01*
X131240981Y-45859286D01*
X131250358Y-45881925D01*
X131263971Y-45902298D01*
X131269200Y-45908670D01*
X131271499Y-45912971D01*
X131272917Y-45917645D01*
X131274000Y-45928641D01*
X131274000Y-46147001D01*
X131276402Y-46171387D01*
X131283515Y-46194836D01*
X131295066Y-46216447D01*
X131310611Y-46235389D01*
X131329553Y-46250934D01*
X131351164Y-46262485D01*
X131374613Y-46269598D01*
X131398999Y-46272000D01*
X131617359Y-46272000D01*
X131628355Y-46273083D01*
X131633029Y-46274501D01*
X131637330Y-46276800D01*
X131643702Y-46282029D01*
X131664076Y-46295643D01*
X131686715Y-46305020D01*
X131710749Y-46309800D01*
X131735253Y-46309800D01*
X131759286Y-46305019D01*
X131781925Y-46295642D01*
X131802298Y-46282029D01*
X131808670Y-46276800D01*
X131812971Y-46274501D01*
X131817645Y-46273083D01*
X131828641Y-46272000D01*
X132117359Y-46272000D01*
X132128355Y-46273083D01*
X132133029Y-46274501D01*
X132137330Y-46276800D01*
X132143702Y-46282029D01*
X132164076Y-46295643D01*
X132186715Y-46305020D01*
X132210749Y-46309800D01*
X132235253Y-46309800D01*
X132259286Y-46305019D01*
X132281925Y-46295642D01*
X132302298Y-46282029D01*
X132308670Y-46276800D01*
X132312971Y-46274501D01*
X132317645Y-46273083D01*
X132328641Y-46272000D01*
X132617359Y-46272000D01*
X132628355Y-46273083D01*
X132633029Y-46274501D01*
X132637330Y-46276800D01*
X132643702Y-46282029D01*
X132664076Y-46295643D01*
X132686715Y-46305020D01*
X132710749Y-46309800D01*
X132735253Y-46309800D01*
X132759286Y-46305019D01*
X132781925Y-46295642D01*
X132802298Y-46282029D01*
X132808670Y-46276800D01*
X132812971Y-46274501D01*
X132817645Y-46273083D01*
X132828641Y-46272000D01*
X133117359Y-46272000D01*
X133128355Y-46273083D01*
X133133029Y-46274501D01*
X133137330Y-46276800D01*
X133143702Y-46282029D01*
X133164076Y-46295643D01*
X133186715Y-46305020D01*
X133210749Y-46309800D01*
X133235253Y-46309800D01*
X133259286Y-46305019D01*
X133281925Y-46295642D01*
X133302298Y-46282029D01*
X133308670Y-46276800D01*
X133312971Y-46274501D01*
X133317645Y-46273083D01*
X133328641Y-46272000D01*
X133617359Y-46272000D01*
X133628355Y-46273083D01*
X133633029Y-46274501D01*
X133637330Y-46276800D01*
X133643702Y-46282029D01*
X133664076Y-46295643D01*
X133686715Y-46305020D01*
X133710749Y-46309800D01*
X133735253Y-46309800D01*
X133759286Y-46305019D01*
X133781925Y-46295642D01*
X133802298Y-46282029D01*
X133808670Y-46276800D01*
X133812971Y-46274501D01*
X133817645Y-46273083D01*
X133828641Y-46272000D01*
X134117359Y-46272000D01*
X134128355Y-46273083D01*
X134133029Y-46274501D01*
X134137330Y-46276800D01*
X134143702Y-46282029D01*
X134164076Y-46295643D01*
X134186715Y-46305020D01*
X134210749Y-46309800D01*
X134235253Y-46309800D01*
X134259286Y-46305019D01*
X134281925Y-46295642D01*
X134302298Y-46282029D01*
X134308670Y-46276800D01*
X134312971Y-46274501D01*
X134317645Y-46273083D01*
X134328641Y-46272000D01*
X134617359Y-46272000D01*
X134628355Y-46273083D01*
X134633029Y-46274501D01*
X134637330Y-46276800D01*
X134643702Y-46282029D01*
X134664076Y-46295643D01*
X134686715Y-46305020D01*
X134710749Y-46309800D01*
X134735253Y-46309800D01*
X134759286Y-46305019D01*
X134781925Y-46295642D01*
X134802298Y-46282029D01*
X134808670Y-46276800D01*
X134812971Y-46274501D01*
X134817645Y-46273083D01*
X134828641Y-46272000D01*
X135047001Y-46272000D01*
X135071387Y-46269598D01*
X135094836Y-46262485D01*
X135116447Y-46250934D01*
X135135389Y-46235389D01*
X135150934Y-46216447D01*
X135162485Y-46194836D01*
X135169598Y-46171387D01*
X135172000Y-46147001D01*
X135172000Y-45928641D01*
X135173083Y-45917645D01*
X135174501Y-45912971D01*
X135176800Y-45908670D01*
X135182029Y-45902298D01*
X135195643Y-45881924D01*
X135205020Y-45859285D01*
X135209800Y-45835251D01*
X135209800Y-45810747D01*
X135205019Y-45786714D01*
X135195642Y-45764075D01*
X135182029Y-45743702D01*
X135176800Y-45737330D01*
X135174501Y-45733029D01*
X135173083Y-45728355D01*
X135172000Y-45717359D01*
X135172000Y-45428641D01*
X135173083Y-45417645D01*
X135174501Y-45412971D01*
X135176800Y-45408670D01*
X135182029Y-45402298D01*
X135195643Y-45381924D01*
X135205020Y-45359285D01*
X135209800Y-45335251D01*
X135209800Y-45310747D01*
X135205019Y-45286714D01*
X135195642Y-45264075D01*
X135182029Y-45243702D01*
X135176800Y-45237330D01*
X135174501Y-45233029D01*
X135173083Y-45228355D01*
X135172000Y-45217359D01*
X135172000Y-44928641D01*
X135173083Y-44917645D01*
X135174501Y-44912971D01*
X135176800Y-44908670D01*
X135182029Y-44902298D01*
X135195643Y-44881924D01*
X135205020Y-44859285D01*
X135209800Y-44835251D01*
X135209800Y-44810747D01*
X135205019Y-44786714D01*
X135195642Y-44764075D01*
X135182029Y-44743702D01*
X135176800Y-44737330D01*
X135174501Y-44733029D01*
X135173083Y-44728355D01*
X135172000Y-44717359D01*
X135172000Y-44428641D01*
X135173083Y-44417645D01*
X135174501Y-44412971D01*
X135176800Y-44408670D01*
X135182029Y-44402298D01*
X135195643Y-44381924D01*
X135205020Y-44359285D01*
X135209800Y-44335251D01*
X135209800Y-44310747D01*
X135205019Y-44286714D01*
X135195642Y-44264075D01*
X135182029Y-44243702D01*
X135176800Y-44237330D01*
X135174501Y-44233029D01*
X135173083Y-44228355D01*
X135172000Y-44217359D01*
X135172000Y-43928641D01*
X135173083Y-43917645D01*
X135174501Y-43912971D01*
X135176800Y-43908670D01*
X135182029Y-43902298D01*
X135195643Y-43881924D01*
X135205020Y-43859285D01*
X135209800Y-43835251D01*
X135209800Y-43810747D01*
X135205019Y-43786714D01*
X135195642Y-43764075D01*
X135182029Y-43743702D01*
X135176800Y-43737330D01*
X135174501Y-43733029D01*
X135173083Y-43728355D01*
X135172000Y-43717359D01*
X135172000Y-43428641D01*
X135173083Y-43417645D01*
X135174501Y-43412971D01*
X135176800Y-43408670D01*
X135182029Y-43402298D01*
X135195643Y-43381924D01*
X135205020Y-43359285D01*
X135209800Y-43335251D01*
X135209800Y-43310747D01*
X135205019Y-43286714D01*
X135195642Y-43264075D01*
X135182029Y-43243702D01*
X135176800Y-43237330D01*
X135174501Y-43233029D01*
X135173083Y-43228355D01*
X135172000Y-43217359D01*
X135172000Y-42928641D01*
X135173083Y-42917645D01*
X135174501Y-42912971D01*
X135176800Y-42908670D01*
X135182029Y-42902298D01*
X135195643Y-42881924D01*
X135205020Y-42859285D01*
X135209800Y-42835251D01*
X135209800Y-42810747D01*
X135205019Y-42786714D01*
X135195642Y-42764075D01*
X135182029Y-42743702D01*
X135176800Y-42737330D01*
X135174501Y-42733029D01*
X135173083Y-42728355D01*
X135172000Y-42717359D01*
X135172000Y-42498999D01*
X135169598Y-42474613D01*
X135162485Y-42451164D01*
X135150934Y-42429553D01*
X135135389Y-42410611D01*
X135116447Y-42395066D01*
X135094836Y-42383515D01*
X135071387Y-42376402D01*
X135047001Y-42374000D01*
X134828641Y-42374000D01*
X134817645Y-42372917D01*
X134812971Y-42371499D01*
X134808670Y-42369200D01*
X134802298Y-42363971D01*
X134781924Y-42350357D01*
X134759285Y-42340980D01*
X134735251Y-42336200D01*
X134710747Y-42336200D01*
X134686714Y-42340981D01*
X134664075Y-42350358D01*
X134643702Y-42363971D01*
X134637330Y-42369200D01*
X134633029Y-42371499D01*
X134628355Y-42372917D01*
X134617359Y-42374000D01*
X134328641Y-42374000D01*
X134317645Y-42372917D01*
X134312971Y-42371499D01*
X134308670Y-42369200D01*
X134302298Y-42363971D01*
X134281924Y-42350357D01*
X134259285Y-42340980D01*
X134235251Y-42336200D01*
X134210747Y-42336200D01*
X134186714Y-42340981D01*
X134164075Y-42350358D01*
X134143702Y-42363971D01*
X134137330Y-42369200D01*
X134133029Y-42371499D01*
X134128355Y-42372917D01*
X134117359Y-42374000D01*
X133828641Y-42374000D01*
X133817645Y-42372917D01*
X133812971Y-42371499D01*
X133808670Y-42369200D01*
X133802298Y-42363971D01*
X133781924Y-42350357D01*
X133759285Y-42340980D01*
X133735251Y-42336200D01*
X133710747Y-42336200D01*
X133686714Y-42340981D01*
X133664075Y-42350358D01*
X133643702Y-42363971D01*
X133637330Y-42369200D01*
X133633029Y-42371499D01*
X133628355Y-42372917D01*
X133617359Y-42374000D01*
X133328641Y-42374000D01*
X133317645Y-42372917D01*
X133312971Y-42371499D01*
X133308670Y-42369200D01*
X133302298Y-42363971D01*
X133281924Y-42350357D01*
X133259285Y-42340980D01*
X133235251Y-42336200D01*
X133210747Y-42336200D01*
X133186714Y-42340981D01*
X133164075Y-42350358D01*
X133143702Y-42363971D01*
X133137330Y-42369200D01*
X133133029Y-42371499D01*
X133128355Y-42372917D01*
X133117359Y-42374000D01*
X132828641Y-42374000D01*
X132817645Y-42372917D01*
X132812971Y-42371499D01*
X132808670Y-42369200D01*
X132802298Y-42363971D01*
X132781924Y-42350357D01*
X132759285Y-42340980D01*
X132735251Y-42336200D01*
X132710747Y-42336200D01*
X132686714Y-42340981D01*
X132664075Y-42350358D01*
X132643702Y-42363971D01*
X132637330Y-42369200D01*
X132633029Y-42371499D01*
X132628355Y-42372917D01*
X132617359Y-42374000D01*
X132328641Y-42374000D01*
X132317645Y-42372917D01*
X132312971Y-42371499D01*
X132308670Y-42369200D01*
X132302298Y-42363971D01*
X132281924Y-42350357D01*
X132259285Y-42340980D01*
X132235251Y-42336200D01*
X132210747Y-42336200D01*
X132186714Y-42340981D01*
X132164075Y-42350358D01*
X132143702Y-42363971D01*
X132137330Y-42369200D01*
X132133029Y-42371499D01*
X132128355Y-42372917D01*
X132117359Y-42374000D01*
X131828641Y-42374000D01*
X131817645Y-42372917D01*
X131812971Y-42371499D01*
X131808670Y-42369200D01*
X131802298Y-42363971D01*
X131781924Y-42350357D01*
X131759285Y-42340980D01*
X131735251Y-42336200D01*
X131710747Y-42336200D01*
X131686714Y-42340981D01*
X131664075Y-42350358D01*
X131643702Y-42363971D01*
X131637330Y-42369200D01*
X131633029Y-42371499D01*
X131628355Y-42372917D01*
X131617359Y-42374000D01*
X131398999Y-42374000D01*
X131374613Y-42376402D01*
X131351164Y-42383515D01*
X131329553Y-42395066D01*
X131310611Y-42410611D01*
X131295066Y-42429553D01*
X131283515Y-42451164D01*
X131276402Y-42474613D01*
X131274000Y-42498999D01*
X131274000Y-42717359D01*
X131272917Y-42728355D01*
X131271499Y-42733029D01*
X131269200Y-42737330D01*
X131263971Y-42743702D01*
X131250357Y-42764076D01*
X131240980Y-42786715D01*
X131236200Y-42810749D01*
X130334800Y-42810749D01*
X130334800Y-42810747D01*
X130330019Y-42786714D01*
X130320642Y-42764075D01*
X130307029Y-42743702D01*
X130301800Y-42737330D01*
X130299501Y-42733029D01*
X130298083Y-42728355D01*
X130297000Y-42717359D01*
X130297000Y-42428641D01*
X130298083Y-42417645D01*
X130299501Y-42412971D01*
X130301800Y-42408669D01*
X130304896Y-42404896D01*
X130308669Y-42401800D01*
X130312971Y-42399501D01*
X130317645Y-42398083D01*
X130328641Y-42397000D01*
X131172001Y-42397000D01*
X131196387Y-42394598D01*
X131219836Y-42387485D01*
X131241447Y-42375934D01*
X131260389Y-42360389D01*
X131275934Y-42341447D01*
X131287485Y-42319836D01*
X131294598Y-42296387D01*
X131297000Y-42272001D01*
X131297000Y-41428641D01*
X131298083Y-41417645D01*
X131299501Y-41412971D01*
X131301800Y-41408669D01*
X131304896Y-41404896D01*
X131308669Y-41401800D01*
X131312971Y-41399501D01*
X131317645Y-41398083D01*
X131328641Y-41397000D01*
X131617359Y-41397000D01*
X131628355Y-41398083D01*
X131628355Y-41398083D01*
G37*
G36*
X134700417Y-42725540D02*
G01*
X134729081Y-42734235D01*
X134755495Y-42748354D01*
X134778646Y-42767354D01*
X134797646Y-42790505D01*
X134811765Y-42816919D01*
X134820460Y-42845583D01*
X134824000Y-42881527D01*
X134824000Y-45764473D01*
X134820460Y-45800417D01*
X134811765Y-45829081D01*
X134797646Y-45855495D01*
X134778646Y-45878646D01*
X134755495Y-45897646D01*
X134729081Y-45911765D01*
X134700417Y-45920460D01*
X134664473Y-45924000D01*
X131781527Y-45924000D01*
X131745583Y-45920460D01*
X131716919Y-45911765D01*
X131690505Y-45897646D01*
X131667354Y-45878646D01*
X131648354Y-45855495D01*
X131634235Y-45829081D01*
X131625540Y-45800417D01*
X131622000Y-45764473D01*
X131622000Y-42881527D01*
X131625540Y-42845583D01*
X131634235Y-42816919D01*
X131648354Y-42790505D01*
X131667354Y-42767354D01*
X131690505Y-42748354D01*
X131716919Y-42734235D01*
X131745583Y-42725540D01*
X131781527Y-42722000D01*
X134664473Y-42722000D01*
X134700417Y-42725540D01*
X134700417Y-42725540D01*
G37*
G36*
X151714468Y-46075065D02*
G01*
X151753138Y-46086796D01*
X151788777Y-46105846D01*
X151820017Y-46131483D01*
X151845654Y-46162723D01*
X151864704Y-46198362D01*
X151876435Y-46237032D01*
X151881000Y-46283388D01*
X151881000Y-46934612D01*
X151876435Y-46980968D01*
X151864704Y-47019638D01*
X151845654Y-47055277D01*
X151820017Y-47086517D01*
X151788777Y-47112154D01*
X151753138Y-47131204D01*
X151714468Y-47142935D01*
X151668112Y-47147500D01*
X150591888Y-47147500D01*
X150545532Y-47142935D01*
X150506862Y-47131204D01*
X150471223Y-47112154D01*
X150439983Y-47086517D01*
X150414346Y-47055277D01*
X150395296Y-47019638D01*
X150383565Y-46980968D01*
X150379000Y-46934612D01*
X150379000Y-46283388D01*
X150383565Y-46237032D01*
X150395296Y-46198362D01*
X150414346Y-46162723D01*
X150439983Y-46131483D01*
X150471223Y-46105846D01*
X150506862Y-46086796D01*
X150545532Y-46075065D01*
X150591888Y-46070500D01*
X151668112Y-46070500D01*
X151714468Y-46075065D01*
X151714468Y-46075065D01*
G37*
G36*
X153746468Y-46075065D02*
G01*
X153785138Y-46086796D01*
X153820777Y-46105846D01*
X153852017Y-46131483D01*
X153877654Y-46162723D01*
X153896704Y-46198362D01*
X153908435Y-46237032D01*
X153913000Y-46283388D01*
X153913000Y-46934612D01*
X153908435Y-46980968D01*
X153896704Y-47019638D01*
X153877654Y-47055277D01*
X153852017Y-47086517D01*
X153820777Y-47112154D01*
X153785138Y-47131204D01*
X153746468Y-47142935D01*
X153700112Y-47147500D01*
X152623888Y-47147500D01*
X152577532Y-47142935D01*
X152538862Y-47131204D01*
X152503223Y-47112154D01*
X152471983Y-47086517D01*
X152446346Y-47055277D01*
X152427296Y-47019638D01*
X152415565Y-46980968D01*
X152411000Y-46934612D01*
X152411000Y-46283388D01*
X152415565Y-46237032D01*
X152427296Y-46198362D01*
X152446346Y-46162723D01*
X152471983Y-46131483D01*
X152503223Y-46105846D01*
X152538862Y-46086796D01*
X152577532Y-46075065D01*
X152623888Y-46070500D01*
X153700112Y-46070500D01*
X153746468Y-46075065D01*
X153746468Y-46075065D01*
G37*
G36*
X119909000Y-46723000D02*
G01*
X118707000Y-46723000D01*
X118707000Y-44821000D01*
X119909000Y-44821000D01*
X119909000Y-46723000D01*
X119909000Y-46723000D01*
G37*
G36*
X123609000Y-46723000D02*
G01*
X122407000Y-46723000D01*
X122407000Y-44821000D01*
X123609000Y-44821000D01*
X123609000Y-46723000D01*
X123609000Y-46723000D01*
G37*
G36*
X140390000Y-46174000D02*
G01*
X139088000Y-46174000D01*
X139088000Y-44672000D01*
X140390000Y-44672000D01*
X140390000Y-46174000D01*
X140390000Y-46174000D01*
G37*
G36*
X142090000Y-46174000D02*
G01*
X140788000Y-46174000D01*
X140788000Y-44672000D01*
X142090000Y-44672000D01*
X142090000Y-46174000D01*
X142090000Y-46174000D01*
G37*
G36*
X164781591Y-44944085D02*
G01*
X164815569Y-44954393D01*
X164846890Y-44971134D01*
X164874339Y-44993661D01*
X164896866Y-45021110D01*
X164913607Y-45052431D01*
X164923915Y-45086409D01*
X164928000Y-45127890D01*
X164928000Y-45804110D01*
X164923915Y-45845591D01*
X164913607Y-45879569D01*
X164896866Y-45910890D01*
X164874339Y-45938339D01*
X164846890Y-45960866D01*
X164815569Y-45977607D01*
X164781591Y-45987915D01*
X164740110Y-45992000D01*
X164138890Y-45992000D01*
X164097409Y-45987915D01*
X164063431Y-45977607D01*
X164032110Y-45960866D01*
X164004661Y-45938339D01*
X163982134Y-45910890D01*
X163965393Y-45879569D01*
X163955085Y-45845591D01*
X163951000Y-45804110D01*
X163951000Y-45127890D01*
X163955085Y-45086409D01*
X163965393Y-45052431D01*
X163982134Y-45021110D01*
X164004661Y-44993661D01*
X164032110Y-44971134D01*
X164063431Y-44954393D01*
X164097409Y-44944085D01*
X164138890Y-44940000D01*
X164740110Y-44940000D01*
X164781591Y-44944085D01*
X164781591Y-44944085D01*
G37*
G36*
X166356591Y-44944085D02*
G01*
X166390569Y-44954393D01*
X166421890Y-44971134D01*
X166449339Y-44993661D01*
X166471866Y-45021110D01*
X166488607Y-45052431D01*
X166498915Y-45086409D01*
X166503000Y-45127890D01*
X166503000Y-45804110D01*
X166498915Y-45845591D01*
X166488607Y-45879569D01*
X166471866Y-45910890D01*
X166449339Y-45938339D01*
X166421890Y-45960866D01*
X166390569Y-45977607D01*
X166356591Y-45987915D01*
X166315110Y-45992000D01*
X165713890Y-45992000D01*
X165672409Y-45987915D01*
X165638431Y-45977607D01*
X165607110Y-45960866D01*
X165579661Y-45938339D01*
X165557134Y-45910890D01*
X165540393Y-45879569D01*
X165530085Y-45845591D01*
X165526000Y-45804110D01*
X165526000Y-45127890D01*
X165530085Y-45086409D01*
X165540393Y-45052431D01*
X165557134Y-45021110D01*
X165579661Y-44993661D01*
X165607110Y-44971134D01*
X165638431Y-44954393D01*
X165672409Y-44944085D01*
X165713890Y-44940000D01*
X166315110Y-44940000D01*
X166356591Y-44944085D01*
X166356591Y-44944085D01*
G37*
G36*
X156286468Y-44853565D02*
G01*
X156325138Y-44865296D01*
X156360777Y-44884346D01*
X156392017Y-44909983D01*
X156417654Y-44941223D01*
X156436704Y-44976862D01*
X156448435Y-45015532D01*
X156453000Y-45061888D01*
X156453000Y-45713112D01*
X156448435Y-45759468D01*
X156436704Y-45798138D01*
X156417654Y-45833777D01*
X156392017Y-45865017D01*
X156360777Y-45890654D01*
X156325138Y-45909704D01*
X156286468Y-45921435D01*
X156240112Y-45926000D01*
X155163888Y-45926000D01*
X155117532Y-45921435D01*
X155078862Y-45909704D01*
X155043223Y-45890654D01*
X155011983Y-45865017D01*
X154986346Y-45833777D01*
X154967296Y-45798138D01*
X154955565Y-45759468D01*
X154951000Y-45713112D01*
X154951000Y-45061888D01*
X154955565Y-45015532D01*
X154967296Y-44976862D01*
X154986346Y-44941223D01*
X155011983Y-44909983D01*
X155043223Y-44884346D01*
X155078862Y-44865296D01*
X155117532Y-44853565D01*
X155163888Y-44849000D01*
X156240112Y-44849000D01*
X156286468Y-44853565D01*
X156286468Y-44853565D01*
G37*
G36*
X160534604Y-44543347D02*
G01*
X160571144Y-44554432D01*
X160604821Y-44572433D01*
X160634341Y-44596659D01*
X160658567Y-44626179D01*
X160676568Y-44659856D01*
X160687653Y-44696396D01*
X160692000Y-44740538D01*
X160692000Y-45689462D01*
X160687653Y-45733604D01*
X160676568Y-45770144D01*
X160658567Y-45803821D01*
X160634341Y-45833341D01*
X160604821Y-45857567D01*
X160571144Y-45875568D01*
X160534604Y-45886653D01*
X160490462Y-45891000D01*
X159041538Y-45891000D01*
X158997396Y-45886653D01*
X158960856Y-45875568D01*
X158927179Y-45857567D01*
X158897659Y-45833341D01*
X158873433Y-45803821D01*
X158855432Y-45770144D01*
X158844347Y-45733604D01*
X158840000Y-45689462D01*
X158840000Y-44740538D01*
X158844347Y-44696396D01*
X158855432Y-44659856D01*
X158873433Y-44626179D01*
X158897659Y-44596659D01*
X158927179Y-44572433D01*
X158960856Y-44554432D01*
X158997396Y-44543347D01*
X159041538Y-44539000D01*
X160490462Y-44539000D01*
X160534604Y-44543347D01*
X160534604Y-44543347D01*
G37*
G36*
X149174468Y-44678065D02*
G01*
X149213138Y-44689796D01*
X149248777Y-44708846D01*
X149280017Y-44734483D01*
X149305654Y-44765723D01*
X149324704Y-44801362D01*
X149336435Y-44840032D01*
X149341000Y-44886388D01*
X149341000Y-45537612D01*
X149336435Y-45583968D01*
X149324704Y-45622638D01*
X149305654Y-45658277D01*
X149280017Y-45689517D01*
X149248777Y-45715154D01*
X149213138Y-45734204D01*
X149174468Y-45745935D01*
X149128112Y-45750500D01*
X148051888Y-45750500D01*
X148005532Y-45745935D01*
X147966862Y-45734204D01*
X147931223Y-45715154D01*
X147899983Y-45689517D01*
X147874346Y-45658277D01*
X147855296Y-45622638D01*
X147843565Y-45583968D01*
X147839000Y-45537612D01*
X147839000Y-44886388D01*
X147843565Y-44840032D01*
X147855296Y-44801362D01*
X147874346Y-44765723D01*
X147899983Y-44734483D01*
X147931223Y-44708846D01*
X147966862Y-44689796D01*
X148005532Y-44678065D01*
X148051888Y-44673500D01*
X149128112Y-44673500D01*
X149174468Y-44678065D01*
X149174468Y-44678065D01*
G37*
G36*
X153547000Y-45370000D02*
G01*
X152745000Y-45370000D01*
X152745000Y-44668000D01*
X153547000Y-44668000D01*
X153547000Y-45370000D01*
X153547000Y-45370000D01*
G37*
G36*
X151547000Y-45370000D02*
G01*
X150745000Y-45370000D01*
X150745000Y-44668000D01*
X151547000Y-44668000D01*
X151547000Y-45370000D01*
X151547000Y-45370000D01*
G37*
G36*
X156286468Y-42978565D02*
G01*
X156325138Y-42990296D01*
X156360777Y-43009346D01*
X156392017Y-43034983D01*
X156417654Y-43066223D01*
X156436704Y-43101862D01*
X156448435Y-43140532D01*
X156453000Y-43186888D01*
X156453000Y-43838112D01*
X156448435Y-43884468D01*
X156436704Y-43923138D01*
X156417654Y-43958777D01*
X156392017Y-43990017D01*
X156360777Y-44015654D01*
X156325138Y-44034704D01*
X156286468Y-44046435D01*
X156240112Y-44051000D01*
X155163888Y-44051000D01*
X155117532Y-44046435D01*
X155078862Y-44034704D01*
X155043223Y-44015654D01*
X155011983Y-43990017D01*
X154986346Y-43958777D01*
X154967296Y-43923138D01*
X154955565Y-43884468D01*
X154951000Y-43838112D01*
X154951000Y-43186888D01*
X154955565Y-43140532D01*
X154967296Y-43101862D01*
X154986346Y-43066223D01*
X155011983Y-43034983D01*
X155043223Y-43009346D01*
X155078862Y-42990296D01*
X155117532Y-42978565D01*
X155163888Y-42974000D01*
X156240112Y-42974000D01*
X156286468Y-42978565D01*
X156286468Y-42978565D01*
G37*
G36*
X142090000Y-43974000D02*
G01*
X140788000Y-43974000D01*
X140788000Y-42472000D01*
X142090000Y-42472000D01*
X142090000Y-43974000D01*
X142090000Y-43974000D01*
G37*
G36*
X140390000Y-43974000D02*
G01*
X139088000Y-43974000D01*
X139088000Y-42472000D01*
X140390000Y-42472000D01*
X140390000Y-43974000D01*
X140390000Y-43974000D01*
G37*
G36*
X149174468Y-42803065D02*
G01*
X149213138Y-42814796D01*
X149248777Y-42833846D01*
X149280017Y-42859483D01*
X149305654Y-42890723D01*
X149324704Y-42926362D01*
X149336435Y-42965032D01*
X149341000Y-43011388D01*
X149341000Y-43662612D01*
X149336435Y-43708968D01*
X149324704Y-43747638D01*
X149305654Y-43783277D01*
X149280017Y-43814517D01*
X149248777Y-43840154D01*
X149213138Y-43859204D01*
X149174468Y-43870935D01*
X149128112Y-43875500D01*
X148051888Y-43875500D01*
X148005532Y-43870935D01*
X147966862Y-43859204D01*
X147931223Y-43840154D01*
X147899983Y-43814517D01*
X147874346Y-43783277D01*
X147855296Y-43747638D01*
X147843565Y-43708968D01*
X147839000Y-43662612D01*
X147839000Y-43011388D01*
X147843565Y-42965032D01*
X147855296Y-42926362D01*
X147874346Y-42890723D01*
X147899983Y-42859483D01*
X147931223Y-42833846D01*
X147966862Y-42814796D01*
X148005532Y-42803065D01*
X148051888Y-42798500D01*
X149128112Y-42798500D01*
X149174468Y-42803065D01*
X149174468Y-42803065D01*
G37*
G36*
X153547000Y-43870000D02*
G01*
X152745000Y-43870000D01*
X152745000Y-42768000D01*
X153547000Y-42768000D01*
X153547000Y-43870000D01*
X153547000Y-43870000D01*
G37*
G36*
X151547000Y-43470000D02*
G01*
X150745000Y-43470000D01*
X150745000Y-42768000D01*
X151547000Y-42768000D01*
X151547000Y-43470000D01*
X151547000Y-43470000D01*
G37*
G36*
X160534604Y-41743347D02*
G01*
X160571144Y-41754432D01*
X160604821Y-41772433D01*
X160634341Y-41796659D01*
X160658567Y-41826179D01*
X160676568Y-41859856D01*
X160687653Y-41896396D01*
X160692000Y-41940538D01*
X160692000Y-42889462D01*
X160687653Y-42933604D01*
X160676568Y-42970144D01*
X160658567Y-43003821D01*
X160634341Y-43033341D01*
X160604821Y-43057567D01*
X160571144Y-43075568D01*
X160534604Y-43086653D01*
X160490462Y-43091000D01*
X159041538Y-43091000D01*
X158997396Y-43086653D01*
X158960856Y-43075568D01*
X158927179Y-43057567D01*
X158897659Y-43033341D01*
X158873433Y-43003821D01*
X158855432Y-42970144D01*
X158844347Y-42933604D01*
X158840000Y-42889462D01*
X158840000Y-41940538D01*
X158844347Y-41896396D01*
X158855432Y-41859856D01*
X158873433Y-41826179D01*
X158897659Y-41796659D01*
X158927179Y-41772433D01*
X158960856Y-41754432D01*
X158997396Y-41743347D01*
X159041538Y-41739000D01*
X160490462Y-41739000D01*
X160534604Y-41743347D01*
X160534604Y-41743347D01*
G37*
G36*
X115206331Y-39543211D02*
G01*
X115534092Y-39678974D01*
X115829070Y-39876072D01*
X116079928Y-40126930D01*
X116277026Y-40421908D01*
X116412789Y-40749669D01*
X116482000Y-41097616D01*
X116482000Y-41452384D01*
X116412789Y-41800331D01*
X116277026Y-42128092D01*
X116079928Y-42423070D01*
X115829070Y-42673928D01*
X115534092Y-42871026D01*
X115206331Y-43006789D01*
X114858384Y-43076000D01*
X114503616Y-43076000D01*
X114155669Y-43006789D01*
X113827908Y-42871026D01*
X113532930Y-42673928D01*
X113282072Y-42423070D01*
X113084974Y-42128092D01*
X112949211Y-41800331D01*
X112880000Y-41452384D01*
X112880000Y-41097616D01*
X112949211Y-40749669D01*
X113084974Y-40421908D01*
X113282072Y-40126930D01*
X113532930Y-39876072D01*
X113827908Y-39678974D01*
X114155669Y-39543211D01*
X114503616Y-39474000D01*
X114858384Y-39474000D01*
X115206331Y-39543211D01*
X115206331Y-39543211D01*
G37*
G36*
X190009331Y-39543211D02*
G01*
X190337092Y-39678974D01*
X190632070Y-39876072D01*
X190882928Y-40126930D01*
X191080026Y-40421908D01*
X191215789Y-40749669D01*
X191285000Y-41097616D01*
X191285000Y-41452384D01*
X191215789Y-41800331D01*
X191080026Y-42128092D01*
X190882928Y-42423070D01*
X190632070Y-42673928D01*
X190337092Y-42871026D01*
X190009331Y-43006789D01*
X189661384Y-43076000D01*
X189306616Y-43076000D01*
X188958669Y-43006789D01*
X188630908Y-42871026D01*
X188335930Y-42673928D01*
X188085072Y-42423070D01*
X187887974Y-42128092D01*
X187752211Y-41800331D01*
X187683000Y-41452384D01*
X187683000Y-41097616D01*
X187752211Y-40749669D01*
X187887974Y-40421908D01*
X188085072Y-40126930D01*
X188335930Y-39876072D01*
X188630908Y-39678974D01*
X188958669Y-39543211D01*
X189306616Y-39474000D01*
X189661384Y-39474000D01*
X190009331Y-39543211D01*
X190009331Y-39543211D01*
G37*
G36*
X164781591Y-42023085D02*
G01*
X164815569Y-42033393D01*
X164846890Y-42050134D01*
X164874339Y-42072661D01*
X164896866Y-42100110D01*
X164913607Y-42131431D01*
X164923915Y-42165409D01*
X164928000Y-42206890D01*
X164928000Y-42883110D01*
X164923915Y-42924591D01*
X164913607Y-42958569D01*
X164896866Y-42989890D01*
X164874339Y-43017339D01*
X164846890Y-43039866D01*
X164815569Y-43056607D01*
X164781591Y-43066915D01*
X164740110Y-43071000D01*
X164138890Y-43071000D01*
X164097409Y-43066915D01*
X164063431Y-43056607D01*
X164032110Y-43039866D01*
X164004661Y-43017339D01*
X163982134Y-42989890D01*
X163965393Y-42958569D01*
X163955085Y-42924591D01*
X163951000Y-42883110D01*
X163951000Y-42206890D01*
X163955085Y-42165409D01*
X163965393Y-42131431D01*
X163982134Y-42100110D01*
X164004661Y-42072661D01*
X164032110Y-42050134D01*
X164063431Y-42033393D01*
X164097409Y-42023085D01*
X164138890Y-42019000D01*
X164740110Y-42019000D01*
X164781591Y-42023085D01*
X164781591Y-42023085D01*
G37*
G36*
X166356591Y-42023085D02*
G01*
X166390569Y-42033393D01*
X166421890Y-42050134D01*
X166449339Y-42072661D01*
X166471866Y-42100110D01*
X166488607Y-42131431D01*
X166498915Y-42165409D01*
X166503000Y-42206890D01*
X166503000Y-42883110D01*
X166498915Y-42924591D01*
X166488607Y-42958569D01*
X166471866Y-42989890D01*
X166449339Y-43017339D01*
X166421890Y-43039866D01*
X166390569Y-43056607D01*
X166356591Y-43066915D01*
X166315110Y-43071000D01*
X165713890Y-43071000D01*
X165672409Y-43066915D01*
X165638431Y-43056607D01*
X165607110Y-43039866D01*
X165579661Y-43017339D01*
X165557134Y-42989890D01*
X165540393Y-42958569D01*
X165530085Y-42924591D01*
X165526000Y-42883110D01*
X165526000Y-42206890D01*
X165530085Y-42165409D01*
X165540393Y-42131431D01*
X165557134Y-42100110D01*
X165579661Y-42072661D01*
X165607110Y-42050134D01*
X165638431Y-42033393D01*
X165672409Y-42023085D01*
X165713890Y-42019000D01*
X166315110Y-42019000D01*
X166356591Y-42023085D01*
X166356591Y-42023085D01*
G37*
G36*
X155722000Y-41872000D02*
G01*
X148570000Y-41872000D01*
X148570000Y-40320000D01*
X155722000Y-40320000D01*
X155722000Y-41872000D01*
X155722000Y-41872000D01*
G37*
G36*
X128473468Y-40614065D02*
G01*
X128512138Y-40625796D01*
X128547777Y-40644846D01*
X128579017Y-40670483D01*
X128604654Y-40701723D01*
X128623704Y-40737362D01*
X128635435Y-40776032D01*
X128640000Y-40822388D01*
X128640000Y-41473612D01*
X128635435Y-41519968D01*
X128623704Y-41558638D01*
X128604654Y-41594277D01*
X128579017Y-41625517D01*
X128547777Y-41651154D01*
X128512138Y-41670204D01*
X128473468Y-41681935D01*
X128427112Y-41686500D01*
X127350888Y-41686500D01*
X127304532Y-41681935D01*
X127265862Y-41670204D01*
X127230223Y-41651154D01*
X127198983Y-41625517D01*
X127173346Y-41594277D01*
X127154296Y-41558638D01*
X127142565Y-41519968D01*
X127138000Y-41473612D01*
X127138000Y-40822388D01*
X127142565Y-40776032D01*
X127154296Y-40737362D01*
X127173346Y-40701723D01*
X127198983Y-40670483D01*
X127230223Y-40644846D01*
X127265862Y-40625796D01*
X127304532Y-40614065D01*
X127350888Y-40609500D01*
X128427112Y-40609500D01*
X128473468Y-40614065D01*
X128473468Y-40614065D01*
G37*
G36*
X141718591Y-40245085D02*
G01*
X141752569Y-40255393D01*
X141783890Y-40272134D01*
X141811339Y-40294661D01*
X141833866Y-40322110D01*
X141850607Y-40353431D01*
X141860915Y-40387409D01*
X141865000Y-40428890D01*
X141865000Y-41105110D01*
X141860915Y-41146591D01*
X141850607Y-41180569D01*
X141833866Y-41211890D01*
X141811339Y-41239339D01*
X141783890Y-41261866D01*
X141752569Y-41278607D01*
X141718591Y-41288915D01*
X141677110Y-41293000D01*
X141075890Y-41293000D01*
X141034409Y-41288915D01*
X141000431Y-41278607D01*
X140969110Y-41261866D01*
X140941661Y-41239339D01*
X140919134Y-41211890D01*
X140902393Y-41180569D01*
X140892085Y-41146591D01*
X140888000Y-41105110D01*
X140888000Y-40428890D01*
X140892085Y-40387409D01*
X140902393Y-40353431D01*
X140919134Y-40322110D01*
X140941661Y-40294661D01*
X140969110Y-40272134D01*
X141000431Y-40255393D01*
X141034409Y-40245085D01*
X141075890Y-40241000D01*
X141677110Y-40241000D01*
X141718591Y-40245085D01*
X141718591Y-40245085D01*
G37*
G36*
X140143591Y-40245085D02*
G01*
X140177569Y-40255393D01*
X140208890Y-40272134D01*
X140236339Y-40294661D01*
X140258866Y-40322110D01*
X140275607Y-40353431D01*
X140285915Y-40387409D01*
X140290000Y-40428890D01*
X140290000Y-41105110D01*
X140285915Y-41146591D01*
X140275607Y-41180569D01*
X140258866Y-41211890D01*
X140236339Y-41239339D01*
X140208890Y-41261866D01*
X140177569Y-41278607D01*
X140143591Y-41288915D01*
X140102110Y-41293000D01*
X139500890Y-41293000D01*
X139459409Y-41288915D01*
X139425431Y-41278607D01*
X139394110Y-41261866D01*
X139366661Y-41239339D01*
X139344134Y-41211890D01*
X139327393Y-41180569D01*
X139317085Y-41146591D01*
X139313000Y-41105110D01*
X139313000Y-40428890D01*
X139317085Y-40387409D01*
X139327393Y-40353431D01*
X139344134Y-40322110D01*
X139366661Y-40294661D01*
X139394110Y-40272134D01*
X139425431Y-40255393D01*
X139459409Y-40245085D01*
X139500890Y-40241000D01*
X140102110Y-40241000D01*
X140143591Y-40245085D01*
X140143591Y-40245085D01*
G37*
G36*
X123609000Y-40523000D02*
G01*
X122407000Y-40523000D01*
X122407000Y-38621000D01*
X123609000Y-38621000D01*
X123609000Y-40523000D01*
X123609000Y-40523000D01*
G37*
G36*
X119909000Y-40523000D02*
G01*
X118707000Y-40523000D01*
X118707000Y-38621000D01*
X119909000Y-38621000D01*
X119909000Y-40523000D01*
X119909000Y-40523000D01*
G37*
G36*
X166356591Y-39102085D02*
G01*
X166390569Y-39112393D01*
X166421890Y-39129134D01*
X166449339Y-39151661D01*
X166471866Y-39179110D01*
X166488607Y-39210431D01*
X166498915Y-39244409D01*
X166503000Y-39285890D01*
X166503000Y-39962110D01*
X166498915Y-40003591D01*
X166488607Y-40037569D01*
X166471866Y-40068890D01*
X166449339Y-40096339D01*
X166421890Y-40118866D01*
X166390569Y-40135607D01*
X166356591Y-40145915D01*
X166315110Y-40150000D01*
X165713890Y-40150000D01*
X165672409Y-40145915D01*
X165638431Y-40135607D01*
X165607110Y-40118866D01*
X165579661Y-40096339D01*
X165557134Y-40068890D01*
X165540393Y-40037569D01*
X165530085Y-40003591D01*
X165526000Y-39962110D01*
X165526000Y-39285890D01*
X165530085Y-39244409D01*
X165540393Y-39210431D01*
X165557134Y-39179110D01*
X165579661Y-39151661D01*
X165607110Y-39129134D01*
X165638431Y-39112393D01*
X165672409Y-39102085D01*
X165713890Y-39098000D01*
X166315110Y-39098000D01*
X166356591Y-39102085D01*
X166356591Y-39102085D01*
G37*
G36*
X164781591Y-39102085D02*
G01*
X164815569Y-39112393D01*
X164846890Y-39129134D01*
X164874339Y-39151661D01*
X164896866Y-39179110D01*
X164913607Y-39210431D01*
X164923915Y-39244409D01*
X164928000Y-39285890D01*
X164928000Y-39962110D01*
X164923915Y-40003591D01*
X164913607Y-40037569D01*
X164896866Y-40068890D01*
X164874339Y-40096339D01*
X164846890Y-40118866D01*
X164815569Y-40135607D01*
X164781591Y-40145915D01*
X164740110Y-40150000D01*
X164138890Y-40150000D01*
X164097409Y-40145915D01*
X164063431Y-40135607D01*
X164032110Y-40118866D01*
X164004661Y-40096339D01*
X163982134Y-40068890D01*
X163965393Y-40037569D01*
X163955085Y-40003591D01*
X163951000Y-39962110D01*
X163951000Y-39285890D01*
X163955085Y-39244409D01*
X163965393Y-39210431D01*
X163982134Y-39179110D01*
X164004661Y-39151661D01*
X164032110Y-39129134D01*
X164063431Y-39112393D01*
X164097409Y-39102085D01*
X164138890Y-39098000D01*
X164740110Y-39098000D01*
X164781591Y-39102085D01*
X164781591Y-39102085D01*
G37*
G36*
X155145672Y-39289449D02*
G01*
X155145674Y-39289450D01*
X155145675Y-39289450D01*
X155214103Y-39317793D01*
X155275686Y-39358942D01*
X155328058Y-39411314D01*
X155369207Y-39472897D01*
X155394287Y-39533448D01*
X155397551Y-39541328D01*
X155412000Y-39613966D01*
X155412000Y-39688034D01*
X155411244Y-39691837D01*
X155397550Y-39760675D01*
X155369207Y-39829103D01*
X155328058Y-39890686D01*
X155275686Y-39943058D01*
X155214103Y-39984207D01*
X155145675Y-40012550D01*
X155145674Y-40012550D01*
X155145672Y-40012551D01*
X155073034Y-40027000D01*
X154998966Y-40027000D01*
X154926328Y-40012551D01*
X154926326Y-40012550D01*
X154926325Y-40012550D01*
X154857897Y-39984207D01*
X154796314Y-39943058D01*
X154743942Y-39890686D01*
X154702793Y-39829103D01*
X154674450Y-39760675D01*
X154660757Y-39691837D01*
X154660000Y-39688034D01*
X154660000Y-39613966D01*
X154674449Y-39541328D01*
X154677713Y-39533448D01*
X154702793Y-39472897D01*
X154743942Y-39411314D01*
X154796314Y-39358942D01*
X154857897Y-39317793D01*
X154926325Y-39289450D01*
X154926326Y-39289450D01*
X154926328Y-39289449D01*
X154998966Y-39275000D01*
X155073034Y-39275000D01*
X155145672Y-39289449D01*
X155145672Y-39289449D01*
G37*
G36*
X149365672Y-39289449D02*
G01*
X149365674Y-39289450D01*
X149365675Y-39289450D01*
X149434103Y-39317793D01*
X149495686Y-39358942D01*
X149548058Y-39411314D01*
X149589207Y-39472897D01*
X149614287Y-39533448D01*
X149617551Y-39541328D01*
X149632000Y-39613966D01*
X149632000Y-39688034D01*
X149631244Y-39691837D01*
X149617550Y-39760675D01*
X149589207Y-39829103D01*
X149548058Y-39890686D01*
X149495686Y-39943058D01*
X149434103Y-39984207D01*
X149365675Y-40012550D01*
X149365674Y-40012550D01*
X149365672Y-40012551D01*
X149293034Y-40027000D01*
X149218966Y-40027000D01*
X149146328Y-40012551D01*
X149146326Y-40012550D01*
X149146325Y-40012550D01*
X149077897Y-39984207D01*
X149016314Y-39943058D01*
X148963942Y-39890686D01*
X148922793Y-39829103D01*
X148894450Y-39760675D01*
X148880757Y-39691837D01*
X148880000Y-39688034D01*
X148880000Y-39613966D01*
X148894449Y-39541328D01*
X148897713Y-39533448D01*
X148922793Y-39472897D01*
X148963942Y-39411314D01*
X149016314Y-39358942D01*
X149077897Y-39317793D01*
X149146325Y-39289450D01*
X149146326Y-39289450D01*
X149146328Y-39289449D01*
X149218966Y-39275000D01*
X149293034Y-39275000D01*
X149365672Y-39289449D01*
X149365672Y-39289449D01*
G37*
G36*
X128473468Y-38739065D02*
G01*
X128512138Y-38750796D01*
X128547777Y-38769846D01*
X128579017Y-38795483D01*
X128604654Y-38826723D01*
X128623704Y-38862362D01*
X128635435Y-38901032D01*
X128640000Y-38947388D01*
X128640000Y-39598612D01*
X128635435Y-39644968D01*
X128623704Y-39683638D01*
X128604654Y-39719277D01*
X128579017Y-39750517D01*
X128547777Y-39776154D01*
X128512138Y-39795204D01*
X128473468Y-39806935D01*
X128427112Y-39811500D01*
X127350888Y-39811500D01*
X127304532Y-39806935D01*
X127265862Y-39795204D01*
X127230223Y-39776154D01*
X127198983Y-39750517D01*
X127173346Y-39719277D01*
X127154296Y-39683638D01*
X127142565Y-39644968D01*
X127138000Y-39598612D01*
X127138000Y-38947388D01*
X127142565Y-38901032D01*
X127154296Y-38862362D01*
X127173346Y-38826723D01*
X127198983Y-38795483D01*
X127230223Y-38769846D01*
X127265862Y-38750796D01*
X127304532Y-38739065D01*
X127350888Y-38734500D01*
X128427112Y-38734500D01*
X128473468Y-38739065D01*
X128473468Y-38739065D01*
G37*
G36*
X132066591Y-38594085D02*
G01*
X132100569Y-38604393D01*
X132131890Y-38621134D01*
X132159339Y-38643661D01*
X132181866Y-38671110D01*
X132198607Y-38702431D01*
X132208915Y-38736409D01*
X132213000Y-38777890D01*
X132213000Y-39454110D01*
X132208915Y-39495591D01*
X132198607Y-39529569D01*
X132181866Y-39560890D01*
X132159339Y-39588339D01*
X132131890Y-39610866D01*
X132100569Y-39627607D01*
X132066591Y-39637915D01*
X132025110Y-39642000D01*
X131423890Y-39642000D01*
X131382409Y-39637915D01*
X131348431Y-39627607D01*
X131317110Y-39610866D01*
X131289661Y-39588339D01*
X131267134Y-39560890D01*
X131250393Y-39529569D01*
X131240085Y-39495591D01*
X131236000Y-39454110D01*
X131236000Y-38777890D01*
X131240085Y-38736409D01*
X131250393Y-38702431D01*
X131267134Y-38671110D01*
X131289661Y-38643661D01*
X131317110Y-38621134D01*
X131348431Y-38604393D01*
X131382409Y-38594085D01*
X131423890Y-38590000D01*
X132025110Y-38590000D01*
X132066591Y-38594085D01*
X132066591Y-38594085D01*
G37*
G36*
X130491591Y-38594085D02*
G01*
X130525569Y-38604393D01*
X130556890Y-38621134D01*
X130584339Y-38643661D01*
X130606866Y-38671110D01*
X130623607Y-38702431D01*
X130633915Y-38736409D01*
X130638000Y-38777890D01*
X130638000Y-39454110D01*
X130633915Y-39495591D01*
X130623607Y-39529569D01*
X130606866Y-39560890D01*
X130584339Y-39588339D01*
X130556890Y-39610866D01*
X130525569Y-39627607D01*
X130491591Y-39637915D01*
X130450110Y-39642000D01*
X129848890Y-39642000D01*
X129807409Y-39637915D01*
X129773431Y-39627607D01*
X129742110Y-39610866D01*
X129714661Y-39588339D01*
X129692134Y-39560890D01*
X129675393Y-39529569D01*
X129665085Y-39495591D01*
X129661000Y-39454110D01*
X129661000Y-38777890D01*
X129665085Y-38736409D01*
X129675393Y-38702431D01*
X129692134Y-38671110D01*
X129714661Y-38643661D01*
X129742110Y-38621134D01*
X129773431Y-38604393D01*
X129807409Y-38594085D01*
X129848890Y-38590000D01*
X130450110Y-38590000D01*
X130491591Y-38594085D01*
X130491591Y-38594085D01*
G37*
M02*
