G04 #@! TF.GenerationSoftware,KiCad,Pcbnew,(5.1.4)-1*
G04 #@! TF.CreationDate,2022-02-13T22:58:11-05:00*
G04 #@! TF.ProjectId,INT-1,494e542d-312e-46b6-9963-61645f706362,rev?*
G04 #@! TF.SameCoordinates,Original*
G04 #@! TF.FileFunction,Copper,L2,Bot*
G04 #@! TF.FilePolarity,Positive*
%FSLAX46Y46*%
G04 Gerber Fmt 4.6, Leading zero omitted, Abs format (unit mm)*
G04 Created by KiCad (PCBNEW (5.1.4)-1) date 2022-02-13 22:58:11*
%MOMM*%
%LPD*%
G04 APERTURE LIST*
%ADD10C,3.500000*%
%ADD11R,2.550000X2.500000*%
%ADD12R,1.200000X1.400000*%
%ADD13R,0.600000X1.450000*%
%ADD14R,0.300000X1.450000*%
%ADD15O,1.000000X2.100000*%
%ADD16O,1.000000X1.600000*%
%ADD17R,0.700000X1.000000*%
%ADD18R,0.700000X0.600000*%
%ADD19C,0.100000*%
%ADD20C,0.250000*%
%ADD21C,3.100000*%
%ADD22R,1.100000X1.800000*%
%ADD23C,0.975000*%
%ADD24C,1.250000*%
%ADD25R,1.200000X0.900000*%
%ADD26C,0.875000*%
%ADD27C,0.800000*%
%ADD28C,0.381000*%
%ADD29C,0.250000*%
%ADD30C,0.200000*%
%ADD31C,0.254000*%
G04 APERTURE END LIST*
D10*
X114681000Y-142875000D03*
X189484000Y-142875000D03*
X189484000Y-41275000D03*
X114681000Y-41275000D03*
D11*
X129413000Y-51816000D03*
X116486000Y-54356000D03*
X148463000Y-51816000D03*
X135536000Y-54356000D03*
X186563000Y-51816000D03*
X173636000Y-54356000D03*
D12*
X139739000Y-43223000D03*
X139739000Y-45423000D03*
X141439000Y-45423000D03*
X141439000Y-43223000D03*
D13*
X155371000Y-41096000D03*
X148921000Y-41096000D03*
X154596000Y-41096000D03*
X149696000Y-41096000D03*
D14*
X150396000Y-41096000D03*
X153896000Y-41096000D03*
X150896000Y-41096000D03*
X153396000Y-41096000D03*
X151396000Y-41096000D03*
X152896000Y-41096000D03*
X152396000Y-41096000D03*
X151896000Y-41096000D03*
D15*
X147826000Y-40181000D03*
X156466000Y-40181000D03*
D16*
X147826000Y-36001000D03*
X156466000Y-36001000D03*
D17*
X153146000Y-43319000D03*
D18*
X151146000Y-43119000D03*
X153146000Y-45019000D03*
X151146000Y-45019000D03*
D19*
G36*
X135041626Y-41448301D02*
G01*
X135047693Y-41449201D01*
X135053643Y-41450691D01*
X135059418Y-41452758D01*
X135064962Y-41455380D01*
X135070223Y-41458533D01*
X135075150Y-41462187D01*
X135079694Y-41466306D01*
X135083813Y-41470850D01*
X135087467Y-41475777D01*
X135090620Y-41481038D01*
X135093242Y-41486582D01*
X135095309Y-41492357D01*
X135096799Y-41498307D01*
X135097699Y-41504374D01*
X135098000Y-41510500D01*
X135098000Y-42260500D01*
X135097699Y-42266626D01*
X135096799Y-42272693D01*
X135095309Y-42278643D01*
X135093242Y-42284418D01*
X135090620Y-42289962D01*
X135087467Y-42295223D01*
X135083813Y-42300150D01*
X135079694Y-42304694D01*
X135075150Y-42308813D01*
X135070223Y-42312467D01*
X135064962Y-42315620D01*
X135059418Y-42318242D01*
X135053643Y-42320309D01*
X135047693Y-42321799D01*
X135041626Y-42322699D01*
X135035500Y-42323000D01*
X134910500Y-42323000D01*
X134904374Y-42322699D01*
X134898307Y-42321799D01*
X134892357Y-42320309D01*
X134886582Y-42318242D01*
X134881038Y-42315620D01*
X134875777Y-42312467D01*
X134870850Y-42308813D01*
X134866306Y-42304694D01*
X134862187Y-42300150D01*
X134858533Y-42295223D01*
X134855380Y-42289962D01*
X134852758Y-42284418D01*
X134850691Y-42278643D01*
X134849201Y-42272693D01*
X134848301Y-42266626D01*
X134848000Y-42260500D01*
X134848000Y-41510500D01*
X134848301Y-41504374D01*
X134849201Y-41498307D01*
X134850691Y-41492357D01*
X134852758Y-41486582D01*
X134855380Y-41481038D01*
X134858533Y-41475777D01*
X134862187Y-41470850D01*
X134866306Y-41466306D01*
X134870850Y-41462187D01*
X134875777Y-41458533D01*
X134881038Y-41455380D01*
X134886582Y-41452758D01*
X134892357Y-41450691D01*
X134898307Y-41449201D01*
X134904374Y-41448301D01*
X134910500Y-41448000D01*
X135035500Y-41448000D01*
X135041626Y-41448301D01*
X135041626Y-41448301D01*
G37*
D20*
X134973000Y-41885500D03*
D19*
G36*
X134541626Y-41448301D02*
G01*
X134547693Y-41449201D01*
X134553643Y-41450691D01*
X134559418Y-41452758D01*
X134564962Y-41455380D01*
X134570223Y-41458533D01*
X134575150Y-41462187D01*
X134579694Y-41466306D01*
X134583813Y-41470850D01*
X134587467Y-41475777D01*
X134590620Y-41481038D01*
X134593242Y-41486582D01*
X134595309Y-41492357D01*
X134596799Y-41498307D01*
X134597699Y-41504374D01*
X134598000Y-41510500D01*
X134598000Y-42260500D01*
X134597699Y-42266626D01*
X134596799Y-42272693D01*
X134595309Y-42278643D01*
X134593242Y-42284418D01*
X134590620Y-42289962D01*
X134587467Y-42295223D01*
X134583813Y-42300150D01*
X134579694Y-42304694D01*
X134575150Y-42308813D01*
X134570223Y-42312467D01*
X134564962Y-42315620D01*
X134559418Y-42318242D01*
X134553643Y-42320309D01*
X134547693Y-42321799D01*
X134541626Y-42322699D01*
X134535500Y-42323000D01*
X134410500Y-42323000D01*
X134404374Y-42322699D01*
X134398307Y-42321799D01*
X134392357Y-42320309D01*
X134386582Y-42318242D01*
X134381038Y-42315620D01*
X134375777Y-42312467D01*
X134370850Y-42308813D01*
X134366306Y-42304694D01*
X134362187Y-42300150D01*
X134358533Y-42295223D01*
X134355380Y-42289962D01*
X134352758Y-42284418D01*
X134350691Y-42278643D01*
X134349201Y-42272693D01*
X134348301Y-42266626D01*
X134348000Y-42260500D01*
X134348000Y-41510500D01*
X134348301Y-41504374D01*
X134349201Y-41498307D01*
X134350691Y-41492357D01*
X134352758Y-41486582D01*
X134355380Y-41481038D01*
X134358533Y-41475777D01*
X134362187Y-41470850D01*
X134366306Y-41466306D01*
X134370850Y-41462187D01*
X134375777Y-41458533D01*
X134381038Y-41455380D01*
X134386582Y-41452758D01*
X134392357Y-41450691D01*
X134398307Y-41449201D01*
X134404374Y-41448301D01*
X134410500Y-41448000D01*
X134535500Y-41448000D01*
X134541626Y-41448301D01*
X134541626Y-41448301D01*
G37*
D20*
X134473000Y-41885500D03*
D19*
G36*
X134041626Y-41448301D02*
G01*
X134047693Y-41449201D01*
X134053643Y-41450691D01*
X134059418Y-41452758D01*
X134064962Y-41455380D01*
X134070223Y-41458533D01*
X134075150Y-41462187D01*
X134079694Y-41466306D01*
X134083813Y-41470850D01*
X134087467Y-41475777D01*
X134090620Y-41481038D01*
X134093242Y-41486582D01*
X134095309Y-41492357D01*
X134096799Y-41498307D01*
X134097699Y-41504374D01*
X134098000Y-41510500D01*
X134098000Y-42260500D01*
X134097699Y-42266626D01*
X134096799Y-42272693D01*
X134095309Y-42278643D01*
X134093242Y-42284418D01*
X134090620Y-42289962D01*
X134087467Y-42295223D01*
X134083813Y-42300150D01*
X134079694Y-42304694D01*
X134075150Y-42308813D01*
X134070223Y-42312467D01*
X134064962Y-42315620D01*
X134059418Y-42318242D01*
X134053643Y-42320309D01*
X134047693Y-42321799D01*
X134041626Y-42322699D01*
X134035500Y-42323000D01*
X133910500Y-42323000D01*
X133904374Y-42322699D01*
X133898307Y-42321799D01*
X133892357Y-42320309D01*
X133886582Y-42318242D01*
X133881038Y-42315620D01*
X133875777Y-42312467D01*
X133870850Y-42308813D01*
X133866306Y-42304694D01*
X133862187Y-42300150D01*
X133858533Y-42295223D01*
X133855380Y-42289962D01*
X133852758Y-42284418D01*
X133850691Y-42278643D01*
X133849201Y-42272693D01*
X133848301Y-42266626D01*
X133848000Y-42260500D01*
X133848000Y-41510500D01*
X133848301Y-41504374D01*
X133849201Y-41498307D01*
X133850691Y-41492357D01*
X133852758Y-41486582D01*
X133855380Y-41481038D01*
X133858533Y-41475777D01*
X133862187Y-41470850D01*
X133866306Y-41466306D01*
X133870850Y-41462187D01*
X133875777Y-41458533D01*
X133881038Y-41455380D01*
X133886582Y-41452758D01*
X133892357Y-41450691D01*
X133898307Y-41449201D01*
X133904374Y-41448301D01*
X133910500Y-41448000D01*
X134035500Y-41448000D01*
X134041626Y-41448301D01*
X134041626Y-41448301D01*
G37*
D20*
X133973000Y-41885500D03*
D19*
G36*
X133541626Y-41448301D02*
G01*
X133547693Y-41449201D01*
X133553643Y-41450691D01*
X133559418Y-41452758D01*
X133564962Y-41455380D01*
X133570223Y-41458533D01*
X133575150Y-41462187D01*
X133579694Y-41466306D01*
X133583813Y-41470850D01*
X133587467Y-41475777D01*
X133590620Y-41481038D01*
X133593242Y-41486582D01*
X133595309Y-41492357D01*
X133596799Y-41498307D01*
X133597699Y-41504374D01*
X133598000Y-41510500D01*
X133598000Y-42260500D01*
X133597699Y-42266626D01*
X133596799Y-42272693D01*
X133595309Y-42278643D01*
X133593242Y-42284418D01*
X133590620Y-42289962D01*
X133587467Y-42295223D01*
X133583813Y-42300150D01*
X133579694Y-42304694D01*
X133575150Y-42308813D01*
X133570223Y-42312467D01*
X133564962Y-42315620D01*
X133559418Y-42318242D01*
X133553643Y-42320309D01*
X133547693Y-42321799D01*
X133541626Y-42322699D01*
X133535500Y-42323000D01*
X133410500Y-42323000D01*
X133404374Y-42322699D01*
X133398307Y-42321799D01*
X133392357Y-42320309D01*
X133386582Y-42318242D01*
X133381038Y-42315620D01*
X133375777Y-42312467D01*
X133370850Y-42308813D01*
X133366306Y-42304694D01*
X133362187Y-42300150D01*
X133358533Y-42295223D01*
X133355380Y-42289962D01*
X133352758Y-42284418D01*
X133350691Y-42278643D01*
X133349201Y-42272693D01*
X133348301Y-42266626D01*
X133348000Y-42260500D01*
X133348000Y-41510500D01*
X133348301Y-41504374D01*
X133349201Y-41498307D01*
X133350691Y-41492357D01*
X133352758Y-41486582D01*
X133355380Y-41481038D01*
X133358533Y-41475777D01*
X133362187Y-41470850D01*
X133366306Y-41466306D01*
X133370850Y-41462187D01*
X133375777Y-41458533D01*
X133381038Y-41455380D01*
X133386582Y-41452758D01*
X133392357Y-41450691D01*
X133398307Y-41449201D01*
X133404374Y-41448301D01*
X133410500Y-41448000D01*
X133535500Y-41448000D01*
X133541626Y-41448301D01*
X133541626Y-41448301D01*
G37*
D20*
X133473000Y-41885500D03*
D19*
G36*
X133041626Y-41448301D02*
G01*
X133047693Y-41449201D01*
X133053643Y-41450691D01*
X133059418Y-41452758D01*
X133064962Y-41455380D01*
X133070223Y-41458533D01*
X133075150Y-41462187D01*
X133079694Y-41466306D01*
X133083813Y-41470850D01*
X133087467Y-41475777D01*
X133090620Y-41481038D01*
X133093242Y-41486582D01*
X133095309Y-41492357D01*
X133096799Y-41498307D01*
X133097699Y-41504374D01*
X133098000Y-41510500D01*
X133098000Y-42260500D01*
X133097699Y-42266626D01*
X133096799Y-42272693D01*
X133095309Y-42278643D01*
X133093242Y-42284418D01*
X133090620Y-42289962D01*
X133087467Y-42295223D01*
X133083813Y-42300150D01*
X133079694Y-42304694D01*
X133075150Y-42308813D01*
X133070223Y-42312467D01*
X133064962Y-42315620D01*
X133059418Y-42318242D01*
X133053643Y-42320309D01*
X133047693Y-42321799D01*
X133041626Y-42322699D01*
X133035500Y-42323000D01*
X132910500Y-42323000D01*
X132904374Y-42322699D01*
X132898307Y-42321799D01*
X132892357Y-42320309D01*
X132886582Y-42318242D01*
X132881038Y-42315620D01*
X132875777Y-42312467D01*
X132870850Y-42308813D01*
X132866306Y-42304694D01*
X132862187Y-42300150D01*
X132858533Y-42295223D01*
X132855380Y-42289962D01*
X132852758Y-42284418D01*
X132850691Y-42278643D01*
X132849201Y-42272693D01*
X132848301Y-42266626D01*
X132848000Y-42260500D01*
X132848000Y-41510500D01*
X132848301Y-41504374D01*
X132849201Y-41498307D01*
X132850691Y-41492357D01*
X132852758Y-41486582D01*
X132855380Y-41481038D01*
X132858533Y-41475777D01*
X132862187Y-41470850D01*
X132866306Y-41466306D01*
X132870850Y-41462187D01*
X132875777Y-41458533D01*
X132881038Y-41455380D01*
X132886582Y-41452758D01*
X132892357Y-41450691D01*
X132898307Y-41449201D01*
X132904374Y-41448301D01*
X132910500Y-41448000D01*
X133035500Y-41448000D01*
X133041626Y-41448301D01*
X133041626Y-41448301D01*
G37*
D20*
X132973000Y-41885500D03*
D19*
G36*
X132541626Y-41448301D02*
G01*
X132547693Y-41449201D01*
X132553643Y-41450691D01*
X132559418Y-41452758D01*
X132564962Y-41455380D01*
X132570223Y-41458533D01*
X132575150Y-41462187D01*
X132579694Y-41466306D01*
X132583813Y-41470850D01*
X132587467Y-41475777D01*
X132590620Y-41481038D01*
X132593242Y-41486582D01*
X132595309Y-41492357D01*
X132596799Y-41498307D01*
X132597699Y-41504374D01*
X132598000Y-41510500D01*
X132598000Y-42260500D01*
X132597699Y-42266626D01*
X132596799Y-42272693D01*
X132595309Y-42278643D01*
X132593242Y-42284418D01*
X132590620Y-42289962D01*
X132587467Y-42295223D01*
X132583813Y-42300150D01*
X132579694Y-42304694D01*
X132575150Y-42308813D01*
X132570223Y-42312467D01*
X132564962Y-42315620D01*
X132559418Y-42318242D01*
X132553643Y-42320309D01*
X132547693Y-42321799D01*
X132541626Y-42322699D01*
X132535500Y-42323000D01*
X132410500Y-42323000D01*
X132404374Y-42322699D01*
X132398307Y-42321799D01*
X132392357Y-42320309D01*
X132386582Y-42318242D01*
X132381038Y-42315620D01*
X132375777Y-42312467D01*
X132370850Y-42308813D01*
X132366306Y-42304694D01*
X132362187Y-42300150D01*
X132358533Y-42295223D01*
X132355380Y-42289962D01*
X132352758Y-42284418D01*
X132350691Y-42278643D01*
X132349201Y-42272693D01*
X132348301Y-42266626D01*
X132348000Y-42260500D01*
X132348000Y-41510500D01*
X132348301Y-41504374D01*
X132349201Y-41498307D01*
X132350691Y-41492357D01*
X132352758Y-41486582D01*
X132355380Y-41481038D01*
X132358533Y-41475777D01*
X132362187Y-41470850D01*
X132366306Y-41466306D01*
X132370850Y-41462187D01*
X132375777Y-41458533D01*
X132381038Y-41455380D01*
X132386582Y-41452758D01*
X132392357Y-41450691D01*
X132398307Y-41449201D01*
X132404374Y-41448301D01*
X132410500Y-41448000D01*
X132535500Y-41448000D01*
X132541626Y-41448301D01*
X132541626Y-41448301D01*
G37*
D20*
X132473000Y-41885500D03*
D19*
G36*
X132041626Y-41448301D02*
G01*
X132047693Y-41449201D01*
X132053643Y-41450691D01*
X132059418Y-41452758D01*
X132064962Y-41455380D01*
X132070223Y-41458533D01*
X132075150Y-41462187D01*
X132079694Y-41466306D01*
X132083813Y-41470850D01*
X132087467Y-41475777D01*
X132090620Y-41481038D01*
X132093242Y-41486582D01*
X132095309Y-41492357D01*
X132096799Y-41498307D01*
X132097699Y-41504374D01*
X132098000Y-41510500D01*
X132098000Y-42260500D01*
X132097699Y-42266626D01*
X132096799Y-42272693D01*
X132095309Y-42278643D01*
X132093242Y-42284418D01*
X132090620Y-42289962D01*
X132087467Y-42295223D01*
X132083813Y-42300150D01*
X132079694Y-42304694D01*
X132075150Y-42308813D01*
X132070223Y-42312467D01*
X132064962Y-42315620D01*
X132059418Y-42318242D01*
X132053643Y-42320309D01*
X132047693Y-42321799D01*
X132041626Y-42322699D01*
X132035500Y-42323000D01*
X131910500Y-42323000D01*
X131904374Y-42322699D01*
X131898307Y-42321799D01*
X131892357Y-42320309D01*
X131886582Y-42318242D01*
X131881038Y-42315620D01*
X131875777Y-42312467D01*
X131870850Y-42308813D01*
X131866306Y-42304694D01*
X131862187Y-42300150D01*
X131858533Y-42295223D01*
X131855380Y-42289962D01*
X131852758Y-42284418D01*
X131850691Y-42278643D01*
X131849201Y-42272693D01*
X131848301Y-42266626D01*
X131848000Y-42260500D01*
X131848000Y-41510500D01*
X131848301Y-41504374D01*
X131849201Y-41498307D01*
X131850691Y-41492357D01*
X131852758Y-41486582D01*
X131855380Y-41481038D01*
X131858533Y-41475777D01*
X131862187Y-41470850D01*
X131866306Y-41466306D01*
X131870850Y-41462187D01*
X131875777Y-41458533D01*
X131881038Y-41455380D01*
X131886582Y-41452758D01*
X131892357Y-41450691D01*
X131898307Y-41449201D01*
X131904374Y-41448301D01*
X131910500Y-41448000D01*
X132035500Y-41448000D01*
X132041626Y-41448301D01*
X132041626Y-41448301D01*
G37*
D20*
X131973000Y-41885500D03*
D19*
G36*
X131541626Y-41448301D02*
G01*
X131547693Y-41449201D01*
X131553643Y-41450691D01*
X131559418Y-41452758D01*
X131564962Y-41455380D01*
X131570223Y-41458533D01*
X131575150Y-41462187D01*
X131579694Y-41466306D01*
X131583813Y-41470850D01*
X131587467Y-41475777D01*
X131590620Y-41481038D01*
X131593242Y-41486582D01*
X131595309Y-41492357D01*
X131596799Y-41498307D01*
X131597699Y-41504374D01*
X131598000Y-41510500D01*
X131598000Y-42260500D01*
X131597699Y-42266626D01*
X131596799Y-42272693D01*
X131595309Y-42278643D01*
X131593242Y-42284418D01*
X131590620Y-42289962D01*
X131587467Y-42295223D01*
X131583813Y-42300150D01*
X131579694Y-42304694D01*
X131575150Y-42308813D01*
X131570223Y-42312467D01*
X131564962Y-42315620D01*
X131559418Y-42318242D01*
X131553643Y-42320309D01*
X131547693Y-42321799D01*
X131541626Y-42322699D01*
X131535500Y-42323000D01*
X131410500Y-42323000D01*
X131404374Y-42322699D01*
X131398307Y-42321799D01*
X131392357Y-42320309D01*
X131386582Y-42318242D01*
X131381038Y-42315620D01*
X131375777Y-42312467D01*
X131370850Y-42308813D01*
X131366306Y-42304694D01*
X131362187Y-42300150D01*
X131358533Y-42295223D01*
X131355380Y-42289962D01*
X131352758Y-42284418D01*
X131350691Y-42278643D01*
X131349201Y-42272693D01*
X131348301Y-42266626D01*
X131348000Y-42260500D01*
X131348000Y-41510500D01*
X131348301Y-41504374D01*
X131349201Y-41498307D01*
X131350691Y-41492357D01*
X131352758Y-41486582D01*
X131355380Y-41481038D01*
X131358533Y-41475777D01*
X131362187Y-41470850D01*
X131366306Y-41466306D01*
X131370850Y-41462187D01*
X131375777Y-41458533D01*
X131381038Y-41455380D01*
X131386582Y-41452758D01*
X131392357Y-41450691D01*
X131398307Y-41449201D01*
X131404374Y-41448301D01*
X131410500Y-41448000D01*
X131535500Y-41448000D01*
X131541626Y-41448301D01*
X131541626Y-41448301D01*
G37*
D20*
X131473000Y-41885500D03*
D19*
G36*
X131166626Y-42448301D02*
G01*
X131172693Y-42449201D01*
X131178643Y-42450691D01*
X131184418Y-42452758D01*
X131189962Y-42455380D01*
X131195223Y-42458533D01*
X131200150Y-42462187D01*
X131204694Y-42466306D01*
X131208813Y-42470850D01*
X131212467Y-42475777D01*
X131215620Y-42481038D01*
X131218242Y-42486582D01*
X131220309Y-42492357D01*
X131221799Y-42498307D01*
X131222699Y-42504374D01*
X131223000Y-42510500D01*
X131223000Y-42635500D01*
X131222699Y-42641626D01*
X131221799Y-42647693D01*
X131220309Y-42653643D01*
X131218242Y-42659418D01*
X131215620Y-42664962D01*
X131212467Y-42670223D01*
X131208813Y-42675150D01*
X131204694Y-42679694D01*
X131200150Y-42683813D01*
X131195223Y-42687467D01*
X131189962Y-42690620D01*
X131184418Y-42693242D01*
X131178643Y-42695309D01*
X131172693Y-42696799D01*
X131166626Y-42697699D01*
X131160500Y-42698000D01*
X130410500Y-42698000D01*
X130404374Y-42697699D01*
X130398307Y-42696799D01*
X130392357Y-42695309D01*
X130386582Y-42693242D01*
X130381038Y-42690620D01*
X130375777Y-42687467D01*
X130370850Y-42683813D01*
X130366306Y-42679694D01*
X130362187Y-42675150D01*
X130358533Y-42670223D01*
X130355380Y-42664962D01*
X130352758Y-42659418D01*
X130350691Y-42653643D01*
X130349201Y-42647693D01*
X130348301Y-42641626D01*
X130348000Y-42635500D01*
X130348000Y-42510500D01*
X130348301Y-42504374D01*
X130349201Y-42498307D01*
X130350691Y-42492357D01*
X130352758Y-42486582D01*
X130355380Y-42481038D01*
X130358533Y-42475777D01*
X130362187Y-42470850D01*
X130366306Y-42466306D01*
X130370850Y-42462187D01*
X130375777Y-42458533D01*
X130381038Y-42455380D01*
X130386582Y-42452758D01*
X130392357Y-42450691D01*
X130398307Y-42449201D01*
X130404374Y-42448301D01*
X130410500Y-42448000D01*
X131160500Y-42448000D01*
X131166626Y-42448301D01*
X131166626Y-42448301D01*
G37*
D20*
X130785500Y-42573000D03*
D19*
G36*
X131166626Y-42948301D02*
G01*
X131172693Y-42949201D01*
X131178643Y-42950691D01*
X131184418Y-42952758D01*
X131189962Y-42955380D01*
X131195223Y-42958533D01*
X131200150Y-42962187D01*
X131204694Y-42966306D01*
X131208813Y-42970850D01*
X131212467Y-42975777D01*
X131215620Y-42981038D01*
X131218242Y-42986582D01*
X131220309Y-42992357D01*
X131221799Y-42998307D01*
X131222699Y-43004374D01*
X131223000Y-43010500D01*
X131223000Y-43135500D01*
X131222699Y-43141626D01*
X131221799Y-43147693D01*
X131220309Y-43153643D01*
X131218242Y-43159418D01*
X131215620Y-43164962D01*
X131212467Y-43170223D01*
X131208813Y-43175150D01*
X131204694Y-43179694D01*
X131200150Y-43183813D01*
X131195223Y-43187467D01*
X131189962Y-43190620D01*
X131184418Y-43193242D01*
X131178643Y-43195309D01*
X131172693Y-43196799D01*
X131166626Y-43197699D01*
X131160500Y-43198000D01*
X130410500Y-43198000D01*
X130404374Y-43197699D01*
X130398307Y-43196799D01*
X130392357Y-43195309D01*
X130386582Y-43193242D01*
X130381038Y-43190620D01*
X130375777Y-43187467D01*
X130370850Y-43183813D01*
X130366306Y-43179694D01*
X130362187Y-43175150D01*
X130358533Y-43170223D01*
X130355380Y-43164962D01*
X130352758Y-43159418D01*
X130350691Y-43153643D01*
X130349201Y-43147693D01*
X130348301Y-43141626D01*
X130348000Y-43135500D01*
X130348000Y-43010500D01*
X130348301Y-43004374D01*
X130349201Y-42998307D01*
X130350691Y-42992357D01*
X130352758Y-42986582D01*
X130355380Y-42981038D01*
X130358533Y-42975777D01*
X130362187Y-42970850D01*
X130366306Y-42966306D01*
X130370850Y-42962187D01*
X130375777Y-42958533D01*
X130381038Y-42955380D01*
X130386582Y-42952758D01*
X130392357Y-42950691D01*
X130398307Y-42949201D01*
X130404374Y-42948301D01*
X130410500Y-42948000D01*
X131160500Y-42948000D01*
X131166626Y-42948301D01*
X131166626Y-42948301D01*
G37*
D20*
X130785500Y-43073000D03*
D19*
G36*
X131166626Y-43448301D02*
G01*
X131172693Y-43449201D01*
X131178643Y-43450691D01*
X131184418Y-43452758D01*
X131189962Y-43455380D01*
X131195223Y-43458533D01*
X131200150Y-43462187D01*
X131204694Y-43466306D01*
X131208813Y-43470850D01*
X131212467Y-43475777D01*
X131215620Y-43481038D01*
X131218242Y-43486582D01*
X131220309Y-43492357D01*
X131221799Y-43498307D01*
X131222699Y-43504374D01*
X131223000Y-43510500D01*
X131223000Y-43635500D01*
X131222699Y-43641626D01*
X131221799Y-43647693D01*
X131220309Y-43653643D01*
X131218242Y-43659418D01*
X131215620Y-43664962D01*
X131212467Y-43670223D01*
X131208813Y-43675150D01*
X131204694Y-43679694D01*
X131200150Y-43683813D01*
X131195223Y-43687467D01*
X131189962Y-43690620D01*
X131184418Y-43693242D01*
X131178643Y-43695309D01*
X131172693Y-43696799D01*
X131166626Y-43697699D01*
X131160500Y-43698000D01*
X130410500Y-43698000D01*
X130404374Y-43697699D01*
X130398307Y-43696799D01*
X130392357Y-43695309D01*
X130386582Y-43693242D01*
X130381038Y-43690620D01*
X130375777Y-43687467D01*
X130370850Y-43683813D01*
X130366306Y-43679694D01*
X130362187Y-43675150D01*
X130358533Y-43670223D01*
X130355380Y-43664962D01*
X130352758Y-43659418D01*
X130350691Y-43653643D01*
X130349201Y-43647693D01*
X130348301Y-43641626D01*
X130348000Y-43635500D01*
X130348000Y-43510500D01*
X130348301Y-43504374D01*
X130349201Y-43498307D01*
X130350691Y-43492357D01*
X130352758Y-43486582D01*
X130355380Y-43481038D01*
X130358533Y-43475777D01*
X130362187Y-43470850D01*
X130366306Y-43466306D01*
X130370850Y-43462187D01*
X130375777Y-43458533D01*
X130381038Y-43455380D01*
X130386582Y-43452758D01*
X130392357Y-43450691D01*
X130398307Y-43449201D01*
X130404374Y-43448301D01*
X130410500Y-43448000D01*
X131160500Y-43448000D01*
X131166626Y-43448301D01*
X131166626Y-43448301D01*
G37*
D20*
X130785500Y-43573000D03*
D19*
G36*
X131166626Y-43948301D02*
G01*
X131172693Y-43949201D01*
X131178643Y-43950691D01*
X131184418Y-43952758D01*
X131189962Y-43955380D01*
X131195223Y-43958533D01*
X131200150Y-43962187D01*
X131204694Y-43966306D01*
X131208813Y-43970850D01*
X131212467Y-43975777D01*
X131215620Y-43981038D01*
X131218242Y-43986582D01*
X131220309Y-43992357D01*
X131221799Y-43998307D01*
X131222699Y-44004374D01*
X131223000Y-44010500D01*
X131223000Y-44135500D01*
X131222699Y-44141626D01*
X131221799Y-44147693D01*
X131220309Y-44153643D01*
X131218242Y-44159418D01*
X131215620Y-44164962D01*
X131212467Y-44170223D01*
X131208813Y-44175150D01*
X131204694Y-44179694D01*
X131200150Y-44183813D01*
X131195223Y-44187467D01*
X131189962Y-44190620D01*
X131184418Y-44193242D01*
X131178643Y-44195309D01*
X131172693Y-44196799D01*
X131166626Y-44197699D01*
X131160500Y-44198000D01*
X130410500Y-44198000D01*
X130404374Y-44197699D01*
X130398307Y-44196799D01*
X130392357Y-44195309D01*
X130386582Y-44193242D01*
X130381038Y-44190620D01*
X130375777Y-44187467D01*
X130370850Y-44183813D01*
X130366306Y-44179694D01*
X130362187Y-44175150D01*
X130358533Y-44170223D01*
X130355380Y-44164962D01*
X130352758Y-44159418D01*
X130350691Y-44153643D01*
X130349201Y-44147693D01*
X130348301Y-44141626D01*
X130348000Y-44135500D01*
X130348000Y-44010500D01*
X130348301Y-44004374D01*
X130349201Y-43998307D01*
X130350691Y-43992357D01*
X130352758Y-43986582D01*
X130355380Y-43981038D01*
X130358533Y-43975777D01*
X130362187Y-43970850D01*
X130366306Y-43966306D01*
X130370850Y-43962187D01*
X130375777Y-43958533D01*
X130381038Y-43955380D01*
X130386582Y-43952758D01*
X130392357Y-43950691D01*
X130398307Y-43949201D01*
X130404374Y-43948301D01*
X130410500Y-43948000D01*
X131160500Y-43948000D01*
X131166626Y-43948301D01*
X131166626Y-43948301D01*
G37*
D20*
X130785500Y-44073000D03*
D19*
G36*
X131166626Y-44448301D02*
G01*
X131172693Y-44449201D01*
X131178643Y-44450691D01*
X131184418Y-44452758D01*
X131189962Y-44455380D01*
X131195223Y-44458533D01*
X131200150Y-44462187D01*
X131204694Y-44466306D01*
X131208813Y-44470850D01*
X131212467Y-44475777D01*
X131215620Y-44481038D01*
X131218242Y-44486582D01*
X131220309Y-44492357D01*
X131221799Y-44498307D01*
X131222699Y-44504374D01*
X131223000Y-44510500D01*
X131223000Y-44635500D01*
X131222699Y-44641626D01*
X131221799Y-44647693D01*
X131220309Y-44653643D01*
X131218242Y-44659418D01*
X131215620Y-44664962D01*
X131212467Y-44670223D01*
X131208813Y-44675150D01*
X131204694Y-44679694D01*
X131200150Y-44683813D01*
X131195223Y-44687467D01*
X131189962Y-44690620D01*
X131184418Y-44693242D01*
X131178643Y-44695309D01*
X131172693Y-44696799D01*
X131166626Y-44697699D01*
X131160500Y-44698000D01*
X130410500Y-44698000D01*
X130404374Y-44697699D01*
X130398307Y-44696799D01*
X130392357Y-44695309D01*
X130386582Y-44693242D01*
X130381038Y-44690620D01*
X130375777Y-44687467D01*
X130370850Y-44683813D01*
X130366306Y-44679694D01*
X130362187Y-44675150D01*
X130358533Y-44670223D01*
X130355380Y-44664962D01*
X130352758Y-44659418D01*
X130350691Y-44653643D01*
X130349201Y-44647693D01*
X130348301Y-44641626D01*
X130348000Y-44635500D01*
X130348000Y-44510500D01*
X130348301Y-44504374D01*
X130349201Y-44498307D01*
X130350691Y-44492357D01*
X130352758Y-44486582D01*
X130355380Y-44481038D01*
X130358533Y-44475777D01*
X130362187Y-44470850D01*
X130366306Y-44466306D01*
X130370850Y-44462187D01*
X130375777Y-44458533D01*
X130381038Y-44455380D01*
X130386582Y-44452758D01*
X130392357Y-44450691D01*
X130398307Y-44449201D01*
X130404374Y-44448301D01*
X130410500Y-44448000D01*
X131160500Y-44448000D01*
X131166626Y-44448301D01*
X131166626Y-44448301D01*
G37*
D20*
X130785500Y-44573000D03*
D19*
G36*
X131166626Y-44948301D02*
G01*
X131172693Y-44949201D01*
X131178643Y-44950691D01*
X131184418Y-44952758D01*
X131189962Y-44955380D01*
X131195223Y-44958533D01*
X131200150Y-44962187D01*
X131204694Y-44966306D01*
X131208813Y-44970850D01*
X131212467Y-44975777D01*
X131215620Y-44981038D01*
X131218242Y-44986582D01*
X131220309Y-44992357D01*
X131221799Y-44998307D01*
X131222699Y-45004374D01*
X131223000Y-45010500D01*
X131223000Y-45135500D01*
X131222699Y-45141626D01*
X131221799Y-45147693D01*
X131220309Y-45153643D01*
X131218242Y-45159418D01*
X131215620Y-45164962D01*
X131212467Y-45170223D01*
X131208813Y-45175150D01*
X131204694Y-45179694D01*
X131200150Y-45183813D01*
X131195223Y-45187467D01*
X131189962Y-45190620D01*
X131184418Y-45193242D01*
X131178643Y-45195309D01*
X131172693Y-45196799D01*
X131166626Y-45197699D01*
X131160500Y-45198000D01*
X130410500Y-45198000D01*
X130404374Y-45197699D01*
X130398307Y-45196799D01*
X130392357Y-45195309D01*
X130386582Y-45193242D01*
X130381038Y-45190620D01*
X130375777Y-45187467D01*
X130370850Y-45183813D01*
X130366306Y-45179694D01*
X130362187Y-45175150D01*
X130358533Y-45170223D01*
X130355380Y-45164962D01*
X130352758Y-45159418D01*
X130350691Y-45153643D01*
X130349201Y-45147693D01*
X130348301Y-45141626D01*
X130348000Y-45135500D01*
X130348000Y-45010500D01*
X130348301Y-45004374D01*
X130349201Y-44998307D01*
X130350691Y-44992357D01*
X130352758Y-44986582D01*
X130355380Y-44981038D01*
X130358533Y-44975777D01*
X130362187Y-44970850D01*
X130366306Y-44966306D01*
X130370850Y-44962187D01*
X130375777Y-44958533D01*
X130381038Y-44955380D01*
X130386582Y-44952758D01*
X130392357Y-44950691D01*
X130398307Y-44949201D01*
X130404374Y-44948301D01*
X130410500Y-44948000D01*
X131160500Y-44948000D01*
X131166626Y-44948301D01*
X131166626Y-44948301D01*
G37*
D20*
X130785500Y-45073000D03*
D19*
G36*
X131166626Y-45448301D02*
G01*
X131172693Y-45449201D01*
X131178643Y-45450691D01*
X131184418Y-45452758D01*
X131189962Y-45455380D01*
X131195223Y-45458533D01*
X131200150Y-45462187D01*
X131204694Y-45466306D01*
X131208813Y-45470850D01*
X131212467Y-45475777D01*
X131215620Y-45481038D01*
X131218242Y-45486582D01*
X131220309Y-45492357D01*
X131221799Y-45498307D01*
X131222699Y-45504374D01*
X131223000Y-45510500D01*
X131223000Y-45635500D01*
X131222699Y-45641626D01*
X131221799Y-45647693D01*
X131220309Y-45653643D01*
X131218242Y-45659418D01*
X131215620Y-45664962D01*
X131212467Y-45670223D01*
X131208813Y-45675150D01*
X131204694Y-45679694D01*
X131200150Y-45683813D01*
X131195223Y-45687467D01*
X131189962Y-45690620D01*
X131184418Y-45693242D01*
X131178643Y-45695309D01*
X131172693Y-45696799D01*
X131166626Y-45697699D01*
X131160500Y-45698000D01*
X130410500Y-45698000D01*
X130404374Y-45697699D01*
X130398307Y-45696799D01*
X130392357Y-45695309D01*
X130386582Y-45693242D01*
X130381038Y-45690620D01*
X130375777Y-45687467D01*
X130370850Y-45683813D01*
X130366306Y-45679694D01*
X130362187Y-45675150D01*
X130358533Y-45670223D01*
X130355380Y-45664962D01*
X130352758Y-45659418D01*
X130350691Y-45653643D01*
X130349201Y-45647693D01*
X130348301Y-45641626D01*
X130348000Y-45635500D01*
X130348000Y-45510500D01*
X130348301Y-45504374D01*
X130349201Y-45498307D01*
X130350691Y-45492357D01*
X130352758Y-45486582D01*
X130355380Y-45481038D01*
X130358533Y-45475777D01*
X130362187Y-45470850D01*
X130366306Y-45466306D01*
X130370850Y-45462187D01*
X130375777Y-45458533D01*
X130381038Y-45455380D01*
X130386582Y-45452758D01*
X130392357Y-45450691D01*
X130398307Y-45449201D01*
X130404374Y-45448301D01*
X130410500Y-45448000D01*
X131160500Y-45448000D01*
X131166626Y-45448301D01*
X131166626Y-45448301D01*
G37*
D20*
X130785500Y-45573000D03*
D19*
G36*
X131166626Y-45948301D02*
G01*
X131172693Y-45949201D01*
X131178643Y-45950691D01*
X131184418Y-45952758D01*
X131189962Y-45955380D01*
X131195223Y-45958533D01*
X131200150Y-45962187D01*
X131204694Y-45966306D01*
X131208813Y-45970850D01*
X131212467Y-45975777D01*
X131215620Y-45981038D01*
X131218242Y-45986582D01*
X131220309Y-45992357D01*
X131221799Y-45998307D01*
X131222699Y-46004374D01*
X131223000Y-46010500D01*
X131223000Y-46135500D01*
X131222699Y-46141626D01*
X131221799Y-46147693D01*
X131220309Y-46153643D01*
X131218242Y-46159418D01*
X131215620Y-46164962D01*
X131212467Y-46170223D01*
X131208813Y-46175150D01*
X131204694Y-46179694D01*
X131200150Y-46183813D01*
X131195223Y-46187467D01*
X131189962Y-46190620D01*
X131184418Y-46193242D01*
X131178643Y-46195309D01*
X131172693Y-46196799D01*
X131166626Y-46197699D01*
X131160500Y-46198000D01*
X130410500Y-46198000D01*
X130404374Y-46197699D01*
X130398307Y-46196799D01*
X130392357Y-46195309D01*
X130386582Y-46193242D01*
X130381038Y-46190620D01*
X130375777Y-46187467D01*
X130370850Y-46183813D01*
X130366306Y-46179694D01*
X130362187Y-46175150D01*
X130358533Y-46170223D01*
X130355380Y-46164962D01*
X130352758Y-46159418D01*
X130350691Y-46153643D01*
X130349201Y-46147693D01*
X130348301Y-46141626D01*
X130348000Y-46135500D01*
X130348000Y-46010500D01*
X130348301Y-46004374D01*
X130349201Y-45998307D01*
X130350691Y-45992357D01*
X130352758Y-45986582D01*
X130355380Y-45981038D01*
X130358533Y-45975777D01*
X130362187Y-45970850D01*
X130366306Y-45966306D01*
X130370850Y-45962187D01*
X130375777Y-45958533D01*
X130381038Y-45955380D01*
X130386582Y-45952758D01*
X130392357Y-45950691D01*
X130398307Y-45949201D01*
X130404374Y-45948301D01*
X130410500Y-45948000D01*
X131160500Y-45948000D01*
X131166626Y-45948301D01*
X131166626Y-45948301D01*
G37*
D20*
X130785500Y-46073000D03*
D19*
G36*
X131541626Y-46323301D02*
G01*
X131547693Y-46324201D01*
X131553643Y-46325691D01*
X131559418Y-46327758D01*
X131564962Y-46330380D01*
X131570223Y-46333533D01*
X131575150Y-46337187D01*
X131579694Y-46341306D01*
X131583813Y-46345850D01*
X131587467Y-46350777D01*
X131590620Y-46356038D01*
X131593242Y-46361582D01*
X131595309Y-46367357D01*
X131596799Y-46373307D01*
X131597699Y-46379374D01*
X131598000Y-46385500D01*
X131598000Y-47135500D01*
X131597699Y-47141626D01*
X131596799Y-47147693D01*
X131595309Y-47153643D01*
X131593242Y-47159418D01*
X131590620Y-47164962D01*
X131587467Y-47170223D01*
X131583813Y-47175150D01*
X131579694Y-47179694D01*
X131575150Y-47183813D01*
X131570223Y-47187467D01*
X131564962Y-47190620D01*
X131559418Y-47193242D01*
X131553643Y-47195309D01*
X131547693Y-47196799D01*
X131541626Y-47197699D01*
X131535500Y-47198000D01*
X131410500Y-47198000D01*
X131404374Y-47197699D01*
X131398307Y-47196799D01*
X131392357Y-47195309D01*
X131386582Y-47193242D01*
X131381038Y-47190620D01*
X131375777Y-47187467D01*
X131370850Y-47183813D01*
X131366306Y-47179694D01*
X131362187Y-47175150D01*
X131358533Y-47170223D01*
X131355380Y-47164962D01*
X131352758Y-47159418D01*
X131350691Y-47153643D01*
X131349201Y-47147693D01*
X131348301Y-47141626D01*
X131348000Y-47135500D01*
X131348000Y-46385500D01*
X131348301Y-46379374D01*
X131349201Y-46373307D01*
X131350691Y-46367357D01*
X131352758Y-46361582D01*
X131355380Y-46356038D01*
X131358533Y-46350777D01*
X131362187Y-46345850D01*
X131366306Y-46341306D01*
X131370850Y-46337187D01*
X131375777Y-46333533D01*
X131381038Y-46330380D01*
X131386582Y-46327758D01*
X131392357Y-46325691D01*
X131398307Y-46324201D01*
X131404374Y-46323301D01*
X131410500Y-46323000D01*
X131535500Y-46323000D01*
X131541626Y-46323301D01*
X131541626Y-46323301D01*
G37*
D20*
X131473000Y-46760500D03*
D19*
G36*
X132041626Y-46323301D02*
G01*
X132047693Y-46324201D01*
X132053643Y-46325691D01*
X132059418Y-46327758D01*
X132064962Y-46330380D01*
X132070223Y-46333533D01*
X132075150Y-46337187D01*
X132079694Y-46341306D01*
X132083813Y-46345850D01*
X132087467Y-46350777D01*
X132090620Y-46356038D01*
X132093242Y-46361582D01*
X132095309Y-46367357D01*
X132096799Y-46373307D01*
X132097699Y-46379374D01*
X132098000Y-46385500D01*
X132098000Y-47135500D01*
X132097699Y-47141626D01*
X132096799Y-47147693D01*
X132095309Y-47153643D01*
X132093242Y-47159418D01*
X132090620Y-47164962D01*
X132087467Y-47170223D01*
X132083813Y-47175150D01*
X132079694Y-47179694D01*
X132075150Y-47183813D01*
X132070223Y-47187467D01*
X132064962Y-47190620D01*
X132059418Y-47193242D01*
X132053643Y-47195309D01*
X132047693Y-47196799D01*
X132041626Y-47197699D01*
X132035500Y-47198000D01*
X131910500Y-47198000D01*
X131904374Y-47197699D01*
X131898307Y-47196799D01*
X131892357Y-47195309D01*
X131886582Y-47193242D01*
X131881038Y-47190620D01*
X131875777Y-47187467D01*
X131870850Y-47183813D01*
X131866306Y-47179694D01*
X131862187Y-47175150D01*
X131858533Y-47170223D01*
X131855380Y-47164962D01*
X131852758Y-47159418D01*
X131850691Y-47153643D01*
X131849201Y-47147693D01*
X131848301Y-47141626D01*
X131848000Y-47135500D01*
X131848000Y-46385500D01*
X131848301Y-46379374D01*
X131849201Y-46373307D01*
X131850691Y-46367357D01*
X131852758Y-46361582D01*
X131855380Y-46356038D01*
X131858533Y-46350777D01*
X131862187Y-46345850D01*
X131866306Y-46341306D01*
X131870850Y-46337187D01*
X131875777Y-46333533D01*
X131881038Y-46330380D01*
X131886582Y-46327758D01*
X131892357Y-46325691D01*
X131898307Y-46324201D01*
X131904374Y-46323301D01*
X131910500Y-46323000D01*
X132035500Y-46323000D01*
X132041626Y-46323301D01*
X132041626Y-46323301D01*
G37*
D20*
X131973000Y-46760500D03*
D19*
G36*
X132541626Y-46323301D02*
G01*
X132547693Y-46324201D01*
X132553643Y-46325691D01*
X132559418Y-46327758D01*
X132564962Y-46330380D01*
X132570223Y-46333533D01*
X132575150Y-46337187D01*
X132579694Y-46341306D01*
X132583813Y-46345850D01*
X132587467Y-46350777D01*
X132590620Y-46356038D01*
X132593242Y-46361582D01*
X132595309Y-46367357D01*
X132596799Y-46373307D01*
X132597699Y-46379374D01*
X132598000Y-46385500D01*
X132598000Y-47135500D01*
X132597699Y-47141626D01*
X132596799Y-47147693D01*
X132595309Y-47153643D01*
X132593242Y-47159418D01*
X132590620Y-47164962D01*
X132587467Y-47170223D01*
X132583813Y-47175150D01*
X132579694Y-47179694D01*
X132575150Y-47183813D01*
X132570223Y-47187467D01*
X132564962Y-47190620D01*
X132559418Y-47193242D01*
X132553643Y-47195309D01*
X132547693Y-47196799D01*
X132541626Y-47197699D01*
X132535500Y-47198000D01*
X132410500Y-47198000D01*
X132404374Y-47197699D01*
X132398307Y-47196799D01*
X132392357Y-47195309D01*
X132386582Y-47193242D01*
X132381038Y-47190620D01*
X132375777Y-47187467D01*
X132370850Y-47183813D01*
X132366306Y-47179694D01*
X132362187Y-47175150D01*
X132358533Y-47170223D01*
X132355380Y-47164962D01*
X132352758Y-47159418D01*
X132350691Y-47153643D01*
X132349201Y-47147693D01*
X132348301Y-47141626D01*
X132348000Y-47135500D01*
X132348000Y-46385500D01*
X132348301Y-46379374D01*
X132349201Y-46373307D01*
X132350691Y-46367357D01*
X132352758Y-46361582D01*
X132355380Y-46356038D01*
X132358533Y-46350777D01*
X132362187Y-46345850D01*
X132366306Y-46341306D01*
X132370850Y-46337187D01*
X132375777Y-46333533D01*
X132381038Y-46330380D01*
X132386582Y-46327758D01*
X132392357Y-46325691D01*
X132398307Y-46324201D01*
X132404374Y-46323301D01*
X132410500Y-46323000D01*
X132535500Y-46323000D01*
X132541626Y-46323301D01*
X132541626Y-46323301D01*
G37*
D20*
X132473000Y-46760500D03*
D19*
G36*
X133041626Y-46323301D02*
G01*
X133047693Y-46324201D01*
X133053643Y-46325691D01*
X133059418Y-46327758D01*
X133064962Y-46330380D01*
X133070223Y-46333533D01*
X133075150Y-46337187D01*
X133079694Y-46341306D01*
X133083813Y-46345850D01*
X133087467Y-46350777D01*
X133090620Y-46356038D01*
X133093242Y-46361582D01*
X133095309Y-46367357D01*
X133096799Y-46373307D01*
X133097699Y-46379374D01*
X133098000Y-46385500D01*
X133098000Y-47135500D01*
X133097699Y-47141626D01*
X133096799Y-47147693D01*
X133095309Y-47153643D01*
X133093242Y-47159418D01*
X133090620Y-47164962D01*
X133087467Y-47170223D01*
X133083813Y-47175150D01*
X133079694Y-47179694D01*
X133075150Y-47183813D01*
X133070223Y-47187467D01*
X133064962Y-47190620D01*
X133059418Y-47193242D01*
X133053643Y-47195309D01*
X133047693Y-47196799D01*
X133041626Y-47197699D01*
X133035500Y-47198000D01*
X132910500Y-47198000D01*
X132904374Y-47197699D01*
X132898307Y-47196799D01*
X132892357Y-47195309D01*
X132886582Y-47193242D01*
X132881038Y-47190620D01*
X132875777Y-47187467D01*
X132870850Y-47183813D01*
X132866306Y-47179694D01*
X132862187Y-47175150D01*
X132858533Y-47170223D01*
X132855380Y-47164962D01*
X132852758Y-47159418D01*
X132850691Y-47153643D01*
X132849201Y-47147693D01*
X132848301Y-47141626D01*
X132848000Y-47135500D01*
X132848000Y-46385500D01*
X132848301Y-46379374D01*
X132849201Y-46373307D01*
X132850691Y-46367357D01*
X132852758Y-46361582D01*
X132855380Y-46356038D01*
X132858533Y-46350777D01*
X132862187Y-46345850D01*
X132866306Y-46341306D01*
X132870850Y-46337187D01*
X132875777Y-46333533D01*
X132881038Y-46330380D01*
X132886582Y-46327758D01*
X132892357Y-46325691D01*
X132898307Y-46324201D01*
X132904374Y-46323301D01*
X132910500Y-46323000D01*
X133035500Y-46323000D01*
X133041626Y-46323301D01*
X133041626Y-46323301D01*
G37*
D20*
X132973000Y-46760500D03*
D19*
G36*
X133541626Y-46323301D02*
G01*
X133547693Y-46324201D01*
X133553643Y-46325691D01*
X133559418Y-46327758D01*
X133564962Y-46330380D01*
X133570223Y-46333533D01*
X133575150Y-46337187D01*
X133579694Y-46341306D01*
X133583813Y-46345850D01*
X133587467Y-46350777D01*
X133590620Y-46356038D01*
X133593242Y-46361582D01*
X133595309Y-46367357D01*
X133596799Y-46373307D01*
X133597699Y-46379374D01*
X133598000Y-46385500D01*
X133598000Y-47135500D01*
X133597699Y-47141626D01*
X133596799Y-47147693D01*
X133595309Y-47153643D01*
X133593242Y-47159418D01*
X133590620Y-47164962D01*
X133587467Y-47170223D01*
X133583813Y-47175150D01*
X133579694Y-47179694D01*
X133575150Y-47183813D01*
X133570223Y-47187467D01*
X133564962Y-47190620D01*
X133559418Y-47193242D01*
X133553643Y-47195309D01*
X133547693Y-47196799D01*
X133541626Y-47197699D01*
X133535500Y-47198000D01*
X133410500Y-47198000D01*
X133404374Y-47197699D01*
X133398307Y-47196799D01*
X133392357Y-47195309D01*
X133386582Y-47193242D01*
X133381038Y-47190620D01*
X133375777Y-47187467D01*
X133370850Y-47183813D01*
X133366306Y-47179694D01*
X133362187Y-47175150D01*
X133358533Y-47170223D01*
X133355380Y-47164962D01*
X133352758Y-47159418D01*
X133350691Y-47153643D01*
X133349201Y-47147693D01*
X133348301Y-47141626D01*
X133348000Y-47135500D01*
X133348000Y-46385500D01*
X133348301Y-46379374D01*
X133349201Y-46373307D01*
X133350691Y-46367357D01*
X133352758Y-46361582D01*
X133355380Y-46356038D01*
X133358533Y-46350777D01*
X133362187Y-46345850D01*
X133366306Y-46341306D01*
X133370850Y-46337187D01*
X133375777Y-46333533D01*
X133381038Y-46330380D01*
X133386582Y-46327758D01*
X133392357Y-46325691D01*
X133398307Y-46324201D01*
X133404374Y-46323301D01*
X133410500Y-46323000D01*
X133535500Y-46323000D01*
X133541626Y-46323301D01*
X133541626Y-46323301D01*
G37*
D20*
X133473000Y-46760500D03*
D19*
G36*
X134041626Y-46323301D02*
G01*
X134047693Y-46324201D01*
X134053643Y-46325691D01*
X134059418Y-46327758D01*
X134064962Y-46330380D01*
X134070223Y-46333533D01*
X134075150Y-46337187D01*
X134079694Y-46341306D01*
X134083813Y-46345850D01*
X134087467Y-46350777D01*
X134090620Y-46356038D01*
X134093242Y-46361582D01*
X134095309Y-46367357D01*
X134096799Y-46373307D01*
X134097699Y-46379374D01*
X134098000Y-46385500D01*
X134098000Y-47135500D01*
X134097699Y-47141626D01*
X134096799Y-47147693D01*
X134095309Y-47153643D01*
X134093242Y-47159418D01*
X134090620Y-47164962D01*
X134087467Y-47170223D01*
X134083813Y-47175150D01*
X134079694Y-47179694D01*
X134075150Y-47183813D01*
X134070223Y-47187467D01*
X134064962Y-47190620D01*
X134059418Y-47193242D01*
X134053643Y-47195309D01*
X134047693Y-47196799D01*
X134041626Y-47197699D01*
X134035500Y-47198000D01*
X133910500Y-47198000D01*
X133904374Y-47197699D01*
X133898307Y-47196799D01*
X133892357Y-47195309D01*
X133886582Y-47193242D01*
X133881038Y-47190620D01*
X133875777Y-47187467D01*
X133870850Y-47183813D01*
X133866306Y-47179694D01*
X133862187Y-47175150D01*
X133858533Y-47170223D01*
X133855380Y-47164962D01*
X133852758Y-47159418D01*
X133850691Y-47153643D01*
X133849201Y-47147693D01*
X133848301Y-47141626D01*
X133848000Y-47135500D01*
X133848000Y-46385500D01*
X133848301Y-46379374D01*
X133849201Y-46373307D01*
X133850691Y-46367357D01*
X133852758Y-46361582D01*
X133855380Y-46356038D01*
X133858533Y-46350777D01*
X133862187Y-46345850D01*
X133866306Y-46341306D01*
X133870850Y-46337187D01*
X133875777Y-46333533D01*
X133881038Y-46330380D01*
X133886582Y-46327758D01*
X133892357Y-46325691D01*
X133898307Y-46324201D01*
X133904374Y-46323301D01*
X133910500Y-46323000D01*
X134035500Y-46323000D01*
X134041626Y-46323301D01*
X134041626Y-46323301D01*
G37*
D20*
X133973000Y-46760500D03*
D19*
G36*
X134541626Y-46323301D02*
G01*
X134547693Y-46324201D01*
X134553643Y-46325691D01*
X134559418Y-46327758D01*
X134564962Y-46330380D01*
X134570223Y-46333533D01*
X134575150Y-46337187D01*
X134579694Y-46341306D01*
X134583813Y-46345850D01*
X134587467Y-46350777D01*
X134590620Y-46356038D01*
X134593242Y-46361582D01*
X134595309Y-46367357D01*
X134596799Y-46373307D01*
X134597699Y-46379374D01*
X134598000Y-46385500D01*
X134598000Y-47135500D01*
X134597699Y-47141626D01*
X134596799Y-47147693D01*
X134595309Y-47153643D01*
X134593242Y-47159418D01*
X134590620Y-47164962D01*
X134587467Y-47170223D01*
X134583813Y-47175150D01*
X134579694Y-47179694D01*
X134575150Y-47183813D01*
X134570223Y-47187467D01*
X134564962Y-47190620D01*
X134559418Y-47193242D01*
X134553643Y-47195309D01*
X134547693Y-47196799D01*
X134541626Y-47197699D01*
X134535500Y-47198000D01*
X134410500Y-47198000D01*
X134404374Y-47197699D01*
X134398307Y-47196799D01*
X134392357Y-47195309D01*
X134386582Y-47193242D01*
X134381038Y-47190620D01*
X134375777Y-47187467D01*
X134370850Y-47183813D01*
X134366306Y-47179694D01*
X134362187Y-47175150D01*
X134358533Y-47170223D01*
X134355380Y-47164962D01*
X134352758Y-47159418D01*
X134350691Y-47153643D01*
X134349201Y-47147693D01*
X134348301Y-47141626D01*
X134348000Y-47135500D01*
X134348000Y-46385500D01*
X134348301Y-46379374D01*
X134349201Y-46373307D01*
X134350691Y-46367357D01*
X134352758Y-46361582D01*
X134355380Y-46356038D01*
X134358533Y-46350777D01*
X134362187Y-46345850D01*
X134366306Y-46341306D01*
X134370850Y-46337187D01*
X134375777Y-46333533D01*
X134381038Y-46330380D01*
X134386582Y-46327758D01*
X134392357Y-46325691D01*
X134398307Y-46324201D01*
X134404374Y-46323301D01*
X134410500Y-46323000D01*
X134535500Y-46323000D01*
X134541626Y-46323301D01*
X134541626Y-46323301D01*
G37*
D20*
X134473000Y-46760500D03*
D19*
G36*
X135041626Y-46323301D02*
G01*
X135047693Y-46324201D01*
X135053643Y-46325691D01*
X135059418Y-46327758D01*
X135064962Y-46330380D01*
X135070223Y-46333533D01*
X135075150Y-46337187D01*
X135079694Y-46341306D01*
X135083813Y-46345850D01*
X135087467Y-46350777D01*
X135090620Y-46356038D01*
X135093242Y-46361582D01*
X135095309Y-46367357D01*
X135096799Y-46373307D01*
X135097699Y-46379374D01*
X135098000Y-46385500D01*
X135098000Y-47135500D01*
X135097699Y-47141626D01*
X135096799Y-47147693D01*
X135095309Y-47153643D01*
X135093242Y-47159418D01*
X135090620Y-47164962D01*
X135087467Y-47170223D01*
X135083813Y-47175150D01*
X135079694Y-47179694D01*
X135075150Y-47183813D01*
X135070223Y-47187467D01*
X135064962Y-47190620D01*
X135059418Y-47193242D01*
X135053643Y-47195309D01*
X135047693Y-47196799D01*
X135041626Y-47197699D01*
X135035500Y-47198000D01*
X134910500Y-47198000D01*
X134904374Y-47197699D01*
X134898307Y-47196799D01*
X134892357Y-47195309D01*
X134886582Y-47193242D01*
X134881038Y-47190620D01*
X134875777Y-47187467D01*
X134870850Y-47183813D01*
X134866306Y-47179694D01*
X134862187Y-47175150D01*
X134858533Y-47170223D01*
X134855380Y-47164962D01*
X134852758Y-47159418D01*
X134850691Y-47153643D01*
X134849201Y-47147693D01*
X134848301Y-47141626D01*
X134848000Y-47135500D01*
X134848000Y-46385500D01*
X134848301Y-46379374D01*
X134849201Y-46373307D01*
X134850691Y-46367357D01*
X134852758Y-46361582D01*
X134855380Y-46356038D01*
X134858533Y-46350777D01*
X134862187Y-46345850D01*
X134866306Y-46341306D01*
X134870850Y-46337187D01*
X134875777Y-46333533D01*
X134881038Y-46330380D01*
X134886582Y-46327758D01*
X134892357Y-46325691D01*
X134898307Y-46324201D01*
X134904374Y-46323301D01*
X134910500Y-46323000D01*
X135035500Y-46323000D01*
X135041626Y-46323301D01*
X135041626Y-46323301D01*
G37*
D20*
X134973000Y-46760500D03*
D19*
G36*
X136041626Y-45948301D02*
G01*
X136047693Y-45949201D01*
X136053643Y-45950691D01*
X136059418Y-45952758D01*
X136064962Y-45955380D01*
X136070223Y-45958533D01*
X136075150Y-45962187D01*
X136079694Y-45966306D01*
X136083813Y-45970850D01*
X136087467Y-45975777D01*
X136090620Y-45981038D01*
X136093242Y-45986582D01*
X136095309Y-45992357D01*
X136096799Y-45998307D01*
X136097699Y-46004374D01*
X136098000Y-46010500D01*
X136098000Y-46135500D01*
X136097699Y-46141626D01*
X136096799Y-46147693D01*
X136095309Y-46153643D01*
X136093242Y-46159418D01*
X136090620Y-46164962D01*
X136087467Y-46170223D01*
X136083813Y-46175150D01*
X136079694Y-46179694D01*
X136075150Y-46183813D01*
X136070223Y-46187467D01*
X136064962Y-46190620D01*
X136059418Y-46193242D01*
X136053643Y-46195309D01*
X136047693Y-46196799D01*
X136041626Y-46197699D01*
X136035500Y-46198000D01*
X135285500Y-46198000D01*
X135279374Y-46197699D01*
X135273307Y-46196799D01*
X135267357Y-46195309D01*
X135261582Y-46193242D01*
X135256038Y-46190620D01*
X135250777Y-46187467D01*
X135245850Y-46183813D01*
X135241306Y-46179694D01*
X135237187Y-46175150D01*
X135233533Y-46170223D01*
X135230380Y-46164962D01*
X135227758Y-46159418D01*
X135225691Y-46153643D01*
X135224201Y-46147693D01*
X135223301Y-46141626D01*
X135223000Y-46135500D01*
X135223000Y-46010500D01*
X135223301Y-46004374D01*
X135224201Y-45998307D01*
X135225691Y-45992357D01*
X135227758Y-45986582D01*
X135230380Y-45981038D01*
X135233533Y-45975777D01*
X135237187Y-45970850D01*
X135241306Y-45966306D01*
X135245850Y-45962187D01*
X135250777Y-45958533D01*
X135256038Y-45955380D01*
X135261582Y-45952758D01*
X135267357Y-45950691D01*
X135273307Y-45949201D01*
X135279374Y-45948301D01*
X135285500Y-45948000D01*
X136035500Y-45948000D01*
X136041626Y-45948301D01*
X136041626Y-45948301D01*
G37*
D20*
X135660500Y-46073000D03*
D19*
G36*
X136041626Y-45448301D02*
G01*
X136047693Y-45449201D01*
X136053643Y-45450691D01*
X136059418Y-45452758D01*
X136064962Y-45455380D01*
X136070223Y-45458533D01*
X136075150Y-45462187D01*
X136079694Y-45466306D01*
X136083813Y-45470850D01*
X136087467Y-45475777D01*
X136090620Y-45481038D01*
X136093242Y-45486582D01*
X136095309Y-45492357D01*
X136096799Y-45498307D01*
X136097699Y-45504374D01*
X136098000Y-45510500D01*
X136098000Y-45635500D01*
X136097699Y-45641626D01*
X136096799Y-45647693D01*
X136095309Y-45653643D01*
X136093242Y-45659418D01*
X136090620Y-45664962D01*
X136087467Y-45670223D01*
X136083813Y-45675150D01*
X136079694Y-45679694D01*
X136075150Y-45683813D01*
X136070223Y-45687467D01*
X136064962Y-45690620D01*
X136059418Y-45693242D01*
X136053643Y-45695309D01*
X136047693Y-45696799D01*
X136041626Y-45697699D01*
X136035500Y-45698000D01*
X135285500Y-45698000D01*
X135279374Y-45697699D01*
X135273307Y-45696799D01*
X135267357Y-45695309D01*
X135261582Y-45693242D01*
X135256038Y-45690620D01*
X135250777Y-45687467D01*
X135245850Y-45683813D01*
X135241306Y-45679694D01*
X135237187Y-45675150D01*
X135233533Y-45670223D01*
X135230380Y-45664962D01*
X135227758Y-45659418D01*
X135225691Y-45653643D01*
X135224201Y-45647693D01*
X135223301Y-45641626D01*
X135223000Y-45635500D01*
X135223000Y-45510500D01*
X135223301Y-45504374D01*
X135224201Y-45498307D01*
X135225691Y-45492357D01*
X135227758Y-45486582D01*
X135230380Y-45481038D01*
X135233533Y-45475777D01*
X135237187Y-45470850D01*
X135241306Y-45466306D01*
X135245850Y-45462187D01*
X135250777Y-45458533D01*
X135256038Y-45455380D01*
X135261582Y-45452758D01*
X135267357Y-45450691D01*
X135273307Y-45449201D01*
X135279374Y-45448301D01*
X135285500Y-45448000D01*
X136035500Y-45448000D01*
X136041626Y-45448301D01*
X136041626Y-45448301D01*
G37*
D20*
X135660500Y-45573000D03*
D19*
G36*
X136041626Y-44948301D02*
G01*
X136047693Y-44949201D01*
X136053643Y-44950691D01*
X136059418Y-44952758D01*
X136064962Y-44955380D01*
X136070223Y-44958533D01*
X136075150Y-44962187D01*
X136079694Y-44966306D01*
X136083813Y-44970850D01*
X136087467Y-44975777D01*
X136090620Y-44981038D01*
X136093242Y-44986582D01*
X136095309Y-44992357D01*
X136096799Y-44998307D01*
X136097699Y-45004374D01*
X136098000Y-45010500D01*
X136098000Y-45135500D01*
X136097699Y-45141626D01*
X136096799Y-45147693D01*
X136095309Y-45153643D01*
X136093242Y-45159418D01*
X136090620Y-45164962D01*
X136087467Y-45170223D01*
X136083813Y-45175150D01*
X136079694Y-45179694D01*
X136075150Y-45183813D01*
X136070223Y-45187467D01*
X136064962Y-45190620D01*
X136059418Y-45193242D01*
X136053643Y-45195309D01*
X136047693Y-45196799D01*
X136041626Y-45197699D01*
X136035500Y-45198000D01*
X135285500Y-45198000D01*
X135279374Y-45197699D01*
X135273307Y-45196799D01*
X135267357Y-45195309D01*
X135261582Y-45193242D01*
X135256038Y-45190620D01*
X135250777Y-45187467D01*
X135245850Y-45183813D01*
X135241306Y-45179694D01*
X135237187Y-45175150D01*
X135233533Y-45170223D01*
X135230380Y-45164962D01*
X135227758Y-45159418D01*
X135225691Y-45153643D01*
X135224201Y-45147693D01*
X135223301Y-45141626D01*
X135223000Y-45135500D01*
X135223000Y-45010500D01*
X135223301Y-45004374D01*
X135224201Y-44998307D01*
X135225691Y-44992357D01*
X135227758Y-44986582D01*
X135230380Y-44981038D01*
X135233533Y-44975777D01*
X135237187Y-44970850D01*
X135241306Y-44966306D01*
X135245850Y-44962187D01*
X135250777Y-44958533D01*
X135256038Y-44955380D01*
X135261582Y-44952758D01*
X135267357Y-44950691D01*
X135273307Y-44949201D01*
X135279374Y-44948301D01*
X135285500Y-44948000D01*
X136035500Y-44948000D01*
X136041626Y-44948301D01*
X136041626Y-44948301D01*
G37*
D20*
X135660500Y-45073000D03*
D19*
G36*
X136041626Y-44448301D02*
G01*
X136047693Y-44449201D01*
X136053643Y-44450691D01*
X136059418Y-44452758D01*
X136064962Y-44455380D01*
X136070223Y-44458533D01*
X136075150Y-44462187D01*
X136079694Y-44466306D01*
X136083813Y-44470850D01*
X136087467Y-44475777D01*
X136090620Y-44481038D01*
X136093242Y-44486582D01*
X136095309Y-44492357D01*
X136096799Y-44498307D01*
X136097699Y-44504374D01*
X136098000Y-44510500D01*
X136098000Y-44635500D01*
X136097699Y-44641626D01*
X136096799Y-44647693D01*
X136095309Y-44653643D01*
X136093242Y-44659418D01*
X136090620Y-44664962D01*
X136087467Y-44670223D01*
X136083813Y-44675150D01*
X136079694Y-44679694D01*
X136075150Y-44683813D01*
X136070223Y-44687467D01*
X136064962Y-44690620D01*
X136059418Y-44693242D01*
X136053643Y-44695309D01*
X136047693Y-44696799D01*
X136041626Y-44697699D01*
X136035500Y-44698000D01*
X135285500Y-44698000D01*
X135279374Y-44697699D01*
X135273307Y-44696799D01*
X135267357Y-44695309D01*
X135261582Y-44693242D01*
X135256038Y-44690620D01*
X135250777Y-44687467D01*
X135245850Y-44683813D01*
X135241306Y-44679694D01*
X135237187Y-44675150D01*
X135233533Y-44670223D01*
X135230380Y-44664962D01*
X135227758Y-44659418D01*
X135225691Y-44653643D01*
X135224201Y-44647693D01*
X135223301Y-44641626D01*
X135223000Y-44635500D01*
X135223000Y-44510500D01*
X135223301Y-44504374D01*
X135224201Y-44498307D01*
X135225691Y-44492357D01*
X135227758Y-44486582D01*
X135230380Y-44481038D01*
X135233533Y-44475777D01*
X135237187Y-44470850D01*
X135241306Y-44466306D01*
X135245850Y-44462187D01*
X135250777Y-44458533D01*
X135256038Y-44455380D01*
X135261582Y-44452758D01*
X135267357Y-44450691D01*
X135273307Y-44449201D01*
X135279374Y-44448301D01*
X135285500Y-44448000D01*
X136035500Y-44448000D01*
X136041626Y-44448301D01*
X136041626Y-44448301D01*
G37*
D20*
X135660500Y-44573000D03*
D19*
G36*
X136041626Y-43948301D02*
G01*
X136047693Y-43949201D01*
X136053643Y-43950691D01*
X136059418Y-43952758D01*
X136064962Y-43955380D01*
X136070223Y-43958533D01*
X136075150Y-43962187D01*
X136079694Y-43966306D01*
X136083813Y-43970850D01*
X136087467Y-43975777D01*
X136090620Y-43981038D01*
X136093242Y-43986582D01*
X136095309Y-43992357D01*
X136096799Y-43998307D01*
X136097699Y-44004374D01*
X136098000Y-44010500D01*
X136098000Y-44135500D01*
X136097699Y-44141626D01*
X136096799Y-44147693D01*
X136095309Y-44153643D01*
X136093242Y-44159418D01*
X136090620Y-44164962D01*
X136087467Y-44170223D01*
X136083813Y-44175150D01*
X136079694Y-44179694D01*
X136075150Y-44183813D01*
X136070223Y-44187467D01*
X136064962Y-44190620D01*
X136059418Y-44193242D01*
X136053643Y-44195309D01*
X136047693Y-44196799D01*
X136041626Y-44197699D01*
X136035500Y-44198000D01*
X135285500Y-44198000D01*
X135279374Y-44197699D01*
X135273307Y-44196799D01*
X135267357Y-44195309D01*
X135261582Y-44193242D01*
X135256038Y-44190620D01*
X135250777Y-44187467D01*
X135245850Y-44183813D01*
X135241306Y-44179694D01*
X135237187Y-44175150D01*
X135233533Y-44170223D01*
X135230380Y-44164962D01*
X135227758Y-44159418D01*
X135225691Y-44153643D01*
X135224201Y-44147693D01*
X135223301Y-44141626D01*
X135223000Y-44135500D01*
X135223000Y-44010500D01*
X135223301Y-44004374D01*
X135224201Y-43998307D01*
X135225691Y-43992357D01*
X135227758Y-43986582D01*
X135230380Y-43981038D01*
X135233533Y-43975777D01*
X135237187Y-43970850D01*
X135241306Y-43966306D01*
X135245850Y-43962187D01*
X135250777Y-43958533D01*
X135256038Y-43955380D01*
X135261582Y-43952758D01*
X135267357Y-43950691D01*
X135273307Y-43949201D01*
X135279374Y-43948301D01*
X135285500Y-43948000D01*
X136035500Y-43948000D01*
X136041626Y-43948301D01*
X136041626Y-43948301D01*
G37*
D20*
X135660500Y-44073000D03*
D19*
G36*
X136041626Y-43448301D02*
G01*
X136047693Y-43449201D01*
X136053643Y-43450691D01*
X136059418Y-43452758D01*
X136064962Y-43455380D01*
X136070223Y-43458533D01*
X136075150Y-43462187D01*
X136079694Y-43466306D01*
X136083813Y-43470850D01*
X136087467Y-43475777D01*
X136090620Y-43481038D01*
X136093242Y-43486582D01*
X136095309Y-43492357D01*
X136096799Y-43498307D01*
X136097699Y-43504374D01*
X136098000Y-43510500D01*
X136098000Y-43635500D01*
X136097699Y-43641626D01*
X136096799Y-43647693D01*
X136095309Y-43653643D01*
X136093242Y-43659418D01*
X136090620Y-43664962D01*
X136087467Y-43670223D01*
X136083813Y-43675150D01*
X136079694Y-43679694D01*
X136075150Y-43683813D01*
X136070223Y-43687467D01*
X136064962Y-43690620D01*
X136059418Y-43693242D01*
X136053643Y-43695309D01*
X136047693Y-43696799D01*
X136041626Y-43697699D01*
X136035500Y-43698000D01*
X135285500Y-43698000D01*
X135279374Y-43697699D01*
X135273307Y-43696799D01*
X135267357Y-43695309D01*
X135261582Y-43693242D01*
X135256038Y-43690620D01*
X135250777Y-43687467D01*
X135245850Y-43683813D01*
X135241306Y-43679694D01*
X135237187Y-43675150D01*
X135233533Y-43670223D01*
X135230380Y-43664962D01*
X135227758Y-43659418D01*
X135225691Y-43653643D01*
X135224201Y-43647693D01*
X135223301Y-43641626D01*
X135223000Y-43635500D01*
X135223000Y-43510500D01*
X135223301Y-43504374D01*
X135224201Y-43498307D01*
X135225691Y-43492357D01*
X135227758Y-43486582D01*
X135230380Y-43481038D01*
X135233533Y-43475777D01*
X135237187Y-43470850D01*
X135241306Y-43466306D01*
X135245850Y-43462187D01*
X135250777Y-43458533D01*
X135256038Y-43455380D01*
X135261582Y-43452758D01*
X135267357Y-43450691D01*
X135273307Y-43449201D01*
X135279374Y-43448301D01*
X135285500Y-43448000D01*
X136035500Y-43448000D01*
X136041626Y-43448301D01*
X136041626Y-43448301D01*
G37*
D20*
X135660500Y-43573000D03*
D19*
G36*
X136041626Y-42948301D02*
G01*
X136047693Y-42949201D01*
X136053643Y-42950691D01*
X136059418Y-42952758D01*
X136064962Y-42955380D01*
X136070223Y-42958533D01*
X136075150Y-42962187D01*
X136079694Y-42966306D01*
X136083813Y-42970850D01*
X136087467Y-42975777D01*
X136090620Y-42981038D01*
X136093242Y-42986582D01*
X136095309Y-42992357D01*
X136096799Y-42998307D01*
X136097699Y-43004374D01*
X136098000Y-43010500D01*
X136098000Y-43135500D01*
X136097699Y-43141626D01*
X136096799Y-43147693D01*
X136095309Y-43153643D01*
X136093242Y-43159418D01*
X136090620Y-43164962D01*
X136087467Y-43170223D01*
X136083813Y-43175150D01*
X136079694Y-43179694D01*
X136075150Y-43183813D01*
X136070223Y-43187467D01*
X136064962Y-43190620D01*
X136059418Y-43193242D01*
X136053643Y-43195309D01*
X136047693Y-43196799D01*
X136041626Y-43197699D01*
X136035500Y-43198000D01*
X135285500Y-43198000D01*
X135279374Y-43197699D01*
X135273307Y-43196799D01*
X135267357Y-43195309D01*
X135261582Y-43193242D01*
X135256038Y-43190620D01*
X135250777Y-43187467D01*
X135245850Y-43183813D01*
X135241306Y-43179694D01*
X135237187Y-43175150D01*
X135233533Y-43170223D01*
X135230380Y-43164962D01*
X135227758Y-43159418D01*
X135225691Y-43153643D01*
X135224201Y-43147693D01*
X135223301Y-43141626D01*
X135223000Y-43135500D01*
X135223000Y-43010500D01*
X135223301Y-43004374D01*
X135224201Y-42998307D01*
X135225691Y-42992357D01*
X135227758Y-42986582D01*
X135230380Y-42981038D01*
X135233533Y-42975777D01*
X135237187Y-42970850D01*
X135241306Y-42966306D01*
X135245850Y-42962187D01*
X135250777Y-42958533D01*
X135256038Y-42955380D01*
X135261582Y-42952758D01*
X135267357Y-42950691D01*
X135273307Y-42949201D01*
X135279374Y-42948301D01*
X135285500Y-42948000D01*
X136035500Y-42948000D01*
X136041626Y-42948301D01*
X136041626Y-42948301D01*
G37*
D20*
X135660500Y-43073000D03*
D19*
G36*
X136041626Y-42448301D02*
G01*
X136047693Y-42449201D01*
X136053643Y-42450691D01*
X136059418Y-42452758D01*
X136064962Y-42455380D01*
X136070223Y-42458533D01*
X136075150Y-42462187D01*
X136079694Y-42466306D01*
X136083813Y-42470850D01*
X136087467Y-42475777D01*
X136090620Y-42481038D01*
X136093242Y-42486582D01*
X136095309Y-42492357D01*
X136096799Y-42498307D01*
X136097699Y-42504374D01*
X136098000Y-42510500D01*
X136098000Y-42635500D01*
X136097699Y-42641626D01*
X136096799Y-42647693D01*
X136095309Y-42653643D01*
X136093242Y-42659418D01*
X136090620Y-42664962D01*
X136087467Y-42670223D01*
X136083813Y-42675150D01*
X136079694Y-42679694D01*
X136075150Y-42683813D01*
X136070223Y-42687467D01*
X136064962Y-42690620D01*
X136059418Y-42693242D01*
X136053643Y-42695309D01*
X136047693Y-42696799D01*
X136041626Y-42697699D01*
X136035500Y-42698000D01*
X135285500Y-42698000D01*
X135279374Y-42697699D01*
X135273307Y-42696799D01*
X135267357Y-42695309D01*
X135261582Y-42693242D01*
X135256038Y-42690620D01*
X135250777Y-42687467D01*
X135245850Y-42683813D01*
X135241306Y-42679694D01*
X135237187Y-42675150D01*
X135233533Y-42670223D01*
X135230380Y-42664962D01*
X135227758Y-42659418D01*
X135225691Y-42653643D01*
X135224201Y-42647693D01*
X135223301Y-42641626D01*
X135223000Y-42635500D01*
X135223000Y-42510500D01*
X135223301Y-42504374D01*
X135224201Y-42498307D01*
X135225691Y-42492357D01*
X135227758Y-42486582D01*
X135230380Y-42481038D01*
X135233533Y-42475777D01*
X135237187Y-42470850D01*
X135241306Y-42466306D01*
X135245850Y-42462187D01*
X135250777Y-42458533D01*
X135256038Y-42455380D01*
X135261582Y-42452758D01*
X135267357Y-42450691D01*
X135273307Y-42449201D01*
X135279374Y-42448301D01*
X135285500Y-42448000D01*
X136035500Y-42448000D01*
X136041626Y-42448301D01*
X136041626Y-42448301D01*
G37*
D20*
X135660500Y-42573000D03*
D19*
G36*
X134547505Y-42774204D02*
G01*
X134571773Y-42777804D01*
X134595572Y-42783765D01*
X134618671Y-42792030D01*
X134640850Y-42802520D01*
X134661893Y-42815132D01*
X134681599Y-42829747D01*
X134699777Y-42846223D01*
X134716253Y-42864401D01*
X134730868Y-42884107D01*
X134743480Y-42905150D01*
X134753970Y-42927329D01*
X134762235Y-42950428D01*
X134768196Y-42974227D01*
X134771796Y-42998495D01*
X134773000Y-43022999D01*
X134773000Y-45623001D01*
X134771796Y-45647505D01*
X134768196Y-45671773D01*
X134762235Y-45695572D01*
X134753970Y-45718671D01*
X134743480Y-45740850D01*
X134730868Y-45761893D01*
X134716253Y-45781599D01*
X134699777Y-45799777D01*
X134681599Y-45816253D01*
X134661893Y-45830868D01*
X134640850Y-45843480D01*
X134618671Y-45853970D01*
X134595572Y-45862235D01*
X134571773Y-45868196D01*
X134547505Y-45871796D01*
X134523001Y-45873000D01*
X131922999Y-45873000D01*
X131898495Y-45871796D01*
X131874227Y-45868196D01*
X131850428Y-45862235D01*
X131827329Y-45853970D01*
X131805150Y-45843480D01*
X131784107Y-45830868D01*
X131764401Y-45816253D01*
X131746223Y-45799777D01*
X131729747Y-45781599D01*
X131715132Y-45761893D01*
X131702520Y-45740850D01*
X131692030Y-45718671D01*
X131683765Y-45695572D01*
X131677804Y-45671773D01*
X131674204Y-45647505D01*
X131673000Y-45623001D01*
X131673000Y-43022999D01*
X131674204Y-42998495D01*
X131677804Y-42974227D01*
X131683765Y-42950428D01*
X131692030Y-42927329D01*
X131702520Y-42905150D01*
X131715132Y-42884107D01*
X131729747Y-42864401D01*
X131746223Y-42846223D01*
X131764401Y-42829747D01*
X131784107Y-42815132D01*
X131805150Y-42802520D01*
X131827329Y-42792030D01*
X131850428Y-42783765D01*
X131874227Y-42777804D01*
X131898495Y-42774204D01*
X131922999Y-42773000D01*
X134523001Y-42773000D01*
X134547505Y-42774204D01*
X134547505Y-42774204D01*
G37*
D21*
X133223000Y-44323000D03*
D22*
X123008000Y-39572000D03*
X119308000Y-45772000D03*
X119308000Y-39572000D03*
X123008000Y-45772000D03*
D19*
G36*
X156182142Y-43026174D02*
G01*
X156205803Y-43029684D01*
X156229007Y-43035496D01*
X156251529Y-43043554D01*
X156273153Y-43053782D01*
X156293670Y-43066079D01*
X156312883Y-43080329D01*
X156330607Y-43096393D01*
X156346671Y-43114117D01*
X156360921Y-43133330D01*
X156373218Y-43153847D01*
X156383446Y-43175471D01*
X156391504Y-43197993D01*
X156397316Y-43221197D01*
X156400826Y-43244858D01*
X156402000Y-43268750D01*
X156402000Y-43756250D01*
X156400826Y-43780142D01*
X156397316Y-43803803D01*
X156391504Y-43827007D01*
X156383446Y-43849529D01*
X156373218Y-43871153D01*
X156360921Y-43891670D01*
X156346671Y-43910883D01*
X156330607Y-43928607D01*
X156312883Y-43944671D01*
X156293670Y-43958921D01*
X156273153Y-43971218D01*
X156251529Y-43981446D01*
X156229007Y-43989504D01*
X156205803Y-43995316D01*
X156182142Y-43998826D01*
X156158250Y-44000000D01*
X155245750Y-44000000D01*
X155221858Y-43998826D01*
X155198197Y-43995316D01*
X155174993Y-43989504D01*
X155152471Y-43981446D01*
X155130847Y-43971218D01*
X155110330Y-43958921D01*
X155091117Y-43944671D01*
X155073393Y-43928607D01*
X155057329Y-43910883D01*
X155043079Y-43891670D01*
X155030782Y-43871153D01*
X155020554Y-43849529D01*
X155012496Y-43827007D01*
X155006684Y-43803803D01*
X155003174Y-43780142D01*
X155002000Y-43756250D01*
X155002000Y-43268750D01*
X155003174Y-43244858D01*
X155006684Y-43221197D01*
X155012496Y-43197993D01*
X155020554Y-43175471D01*
X155030782Y-43153847D01*
X155043079Y-43133330D01*
X155057329Y-43114117D01*
X155073393Y-43096393D01*
X155091117Y-43080329D01*
X155110330Y-43066079D01*
X155130847Y-43053782D01*
X155152471Y-43043554D01*
X155174993Y-43035496D01*
X155198197Y-43029684D01*
X155221858Y-43026174D01*
X155245750Y-43025000D01*
X156158250Y-43025000D01*
X156182142Y-43026174D01*
X156182142Y-43026174D01*
G37*
D23*
X155702000Y-43512500D03*
D19*
G36*
X156182142Y-44901174D02*
G01*
X156205803Y-44904684D01*
X156229007Y-44910496D01*
X156251529Y-44918554D01*
X156273153Y-44928782D01*
X156293670Y-44941079D01*
X156312883Y-44955329D01*
X156330607Y-44971393D01*
X156346671Y-44989117D01*
X156360921Y-45008330D01*
X156373218Y-45028847D01*
X156383446Y-45050471D01*
X156391504Y-45072993D01*
X156397316Y-45096197D01*
X156400826Y-45119858D01*
X156402000Y-45143750D01*
X156402000Y-45631250D01*
X156400826Y-45655142D01*
X156397316Y-45678803D01*
X156391504Y-45702007D01*
X156383446Y-45724529D01*
X156373218Y-45746153D01*
X156360921Y-45766670D01*
X156346671Y-45785883D01*
X156330607Y-45803607D01*
X156312883Y-45819671D01*
X156293670Y-45833921D01*
X156273153Y-45846218D01*
X156251529Y-45856446D01*
X156229007Y-45864504D01*
X156205803Y-45870316D01*
X156182142Y-45873826D01*
X156158250Y-45875000D01*
X155245750Y-45875000D01*
X155221858Y-45873826D01*
X155198197Y-45870316D01*
X155174993Y-45864504D01*
X155152471Y-45856446D01*
X155130847Y-45846218D01*
X155110330Y-45833921D01*
X155091117Y-45819671D01*
X155073393Y-45803607D01*
X155057329Y-45785883D01*
X155043079Y-45766670D01*
X155030782Y-45746153D01*
X155020554Y-45724529D01*
X155012496Y-45702007D01*
X155006684Y-45678803D01*
X155003174Y-45655142D01*
X155002000Y-45631250D01*
X155002000Y-45143750D01*
X155003174Y-45119858D01*
X155006684Y-45096197D01*
X155012496Y-45072993D01*
X155020554Y-45050471D01*
X155030782Y-45028847D01*
X155043079Y-45008330D01*
X155057329Y-44989117D01*
X155073393Y-44971393D01*
X155091117Y-44955329D01*
X155110330Y-44941079D01*
X155130847Y-44928782D01*
X155152471Y-44918554D01*
X155174993Y-44910496D01*
X155198197Y-44904684D01*
X155221858Y-44901174D01*
X155245750Y-44900000D01*
X156158250Y-44900000D01*
X156182142Y-44901174D01*
X156182142Y-44901174D01*
G37*
D23*
X155702000Y-45387500D03*
D19*
G36*
X149070142Y-42850674D02*
G01*
X149093803Y-42854184D01*
X149117007Y-42859996D01*
X149139529Y-42868054D01*
X149161153Y-42878282D01*
X149181670Y-42890579D01*
X149200883Y-42904829D01*
X149218607Y-42920893D01*
X149234671Y-42938617D01*
X149248921Y-42957830D01*
X149261218Y-42978347D01*
X149271446Y-42999971D01*
X149279504Y-43022493D01*
X149285316Y-43045697D01*
X149288826Y-43069358D01*
X149290000Y-43093250D01*
X149290000Y-43580750D01*
X149288826Y-43604642D01*
X149285316Y-43628303D01*
X149279504Y-43651507D01*
X149271446Y-43674029D01*
X149261218Y-43695653D01*
X149248921Y-43716170D01*
X149234671Y-43735383D01*
X149218607Y-43753107D01*
X149200883Y-43769171D01*
X149181670Y-43783421D01*
X149161153Y-43795718D01*
X149139529Y-43805946D01*
X149117007Y-43814004D01*
X149093803Y-43819816D01*
X149070142Y-43823326D01*
X149046250Y-43824500D01*
X148133750Y-43824500D01*
X148109858Y-43823326D01*
X148086197Y-43819816D01*
X148062993Y-43814004D01*
X148040471Y-43805946D01*
X148018847Y-43795718D01*
X147998330Y-43783421D01*
X147979117Y-43769171D01*
X147961393Y-43753107D01*
X147945329Y-43735383D01*
X147931079Y-43716170D01*
X147918782Y-43695653D01*
X147908554Y-43674029D01*
X147900496Y-43651507D01*
X147894684Y-43628303D01*
X147891174Y-43604642D01*
X147890000Y-43580750D01*
X147890000Y-43093250D01*
X147891174Y-43069358D01*
X147894684Y-43045697D01*
X147900496Y-43022493D01*
X147908554Y-42999971D01*
X147918782Y-42978347D01*
X147931079Y-42957830D01*
X147945329Y-42938617D01*
X147961393Y-42920893D01*
X147979117Y-42904829D01*
X147998330Y-42890579D01*
X148018847Y-42878282D01*
X148040471Y-42868054D01*
X148062993Y-42859996D01*
X148086197Y-42854184D01*
X148109858Y-42850674D01*
X148133750Y-42849500D01*
X149046250Y-42849500D01*
X149070142Y-42850674D01*
X149070142Y-42850674D01*
G37*
D23*
X148590000Y-43337000D03*
D19*
G36*
X149070142Y-44725674D02*
G01*
X149093803Y-44729184D01*
X149117007Y-44734996D01*
X149139529Y-44743054D01*
X149161153Y-44753282D01*
X149181670Y-44765579D01*
X149200883Y-44779829D01*
X149218607Y-44795893D01*
X149234671Y-44813617D01*
X149248921Y-44832830D01*
X149261218Y-44853347D01*
X149271446Y-44874971D01*
X149279504Y-44897493D01*
X149285316Y-44920697D01*
X149288826Y-44944358D01*
X149290000Y-44968250D01*
X149290000Y-45455750D01*
X149288826Y-45479642D01*
X149285316Y-45503303D01*
X149279504Y-45526507D01*
X149271446Y-45549029D01*
X149261218Y-45570653D01*
X149248921Y-45591170D01*
X149234671Y-45610383D01*
X149218607Y-45628107D01*
X149200883Y-45644171D01*
X149181670Y-45658421D01*
X149161153Y-45670718D01*
X149139529Y-45680946D01*
X149117007Y-45689004D01*
X149093803Y-45694816D01*
X149070142Y-45698326D01*
X149046250Y-45699500D01*
X148133750Y-45699500D01*
X148109858Y-45698326D01*
X148086197Y-45694816D01*
X148062993Y-45689004D01*
X148040471Y-45680946D01*
X148018847Y-45670718D01*
X147998330Y-45658421D01*
X147979117Y-45644171D01*
X147961393Y-45628107D01*
X147945329Y-45610383D01*
X147931079Y-45591170D01*
X147918782Y-45570653D01*
X147908554Y-45549029D01*
X147900496Y-45526507D01*
X147894684Y-45503303D01*
X147891174Y-45479642D01*
X147890000Y-45455750D01*
X147890000Y-44968250D01*
X147891174Y-44944358D01*
X147894684Y-44920697D01*
X147900496Y-44897493D01*
X147908554Y-44874971D01*
X147918782Y-44853347D01*
X147931079Y-44832830D01*
X147945329Y-44813617D01*
X147961393Y-44795893D01*
X147979117Y-44779829D01*
X147998330Y-44765579D01*
X148018847Y-44753282D01*
X148040471Y-44743054D01*
X148062993Y-44734996D01*
X148086197Y-44729184D01*
X148109858Y-44725674D01*
X148133750Y-44724500D01*
X149046250Y-44724500D01*
X149070142Y-44725674D01*
X149070142Y-44725674D01*
G37*
D23*
X148590000Y-45212000D03*
D19*
G36*
X153642142Y-46122674D02*
G01*
X153665803Y-46126184D01*
X153689007Y-46131996D01*
X153711529Y-46140054D01*
X153733153Y-46150282D01*
X153753670Y-46162579D01*
X153772883Y-46176829D01*
X153790607Y-46192893D01*
X153806671Y-46210617D01*
X153820921Y-46229830D01*
X153833218Y-46250347D01*
X153843446Y-46271971D01*
X153851504Y-46294493D01*
X153857316Y-46317697D01*
X153860826Y-46341358D01*
X153862000Y-46365250D01*
X153862000Y-46852750D01*
X153860826Y-46876642D01*
X153857316Y-46900303D01*
X153851504Y-46923507D01*
X153843446Y-46946029D01*
X153833218Y-46967653D01*
X153820921Y-46988170D01*
X153806671Y-47007383D01*
X153790607Y-47025107D01*
X153772883Y-47041171D01*
X153753670Y-47055421D01*
X153733153Y-47067718D01*
X153711529Y-47077946D01*
X153689007Y-47086004D01*
X153665803Y-47091816D01*
X153642142Y-47095326D01*
X153618250Y-47096500D01*
X152705750Y-47096500D01*
X152681858Y-47095326D01*
X152658197Y-47091816D01*
X152634993Y-47086004D01*
X152612471Y-47077946D01*
X152590847Y-47067718D01*
X152570330Y-47055421D01*
X152551117Y-47041171D01*
X152533393Y-47025107D01*
X152517329Y-47007383D01*
X152503079Y-46988170D01*
X152490782Y-46967653D01*
X152480554Y-46946029D01*
X152472496Y-46923507D01*
X152466684Y-46900303D01*
X152463174Y-46876642D01*
X152462000Y-46852750D01*
X152462000Y-46365250D01*
X152463174Y-46341358D01*
X152466684Y-46317697D01*
X152472496Y-46294493D01*
X152480554Y-46271971D01*
X152490782Y-46250347D01*
X152503079Y-46229830D01*
X152517329Y-46210617D01*
X152533393Y-46192893D01*
X152551117Y-46176829D01*
X152570330Y-46162579D01*
X152590847Y-46150282D01*
X152612471Y-46140054D01*
X152634993Y-46131996D01*
X152658197Y-46126184D01*
X152681858Y-46122674D01*
X152705750Y-46121500D01*
X153618250Y-46121500D01*
X153642142Y-46122674D01*
X153642142Y-46122674D01*
G37*
D23*
X153162000Y-46609000D03*
D19*
G36*
X153642142Y-47997674D02*
G01*
X153665803Y-48001184D01*
X153689007Y-48006996D01*
X153711529Y-48015054D01*
X153733153Y-48025282D01*
X153753670Y-48037579D01*
X153772883Y-48051829D01*
X153790607Y-48067893D01*
X153806671Y-48085617D01*
X153820921Y-48104830D01*
X153833218Y-48125347D01*
X153843446Y-48146971D01*
X153851504Y-48169493D01*
X153857316Y-48192697D01*
X153860826Y-48216358D01*
X153862000Y-48240250D01*
X153862000Y-48727750D01*
X153860826Y-48751642D01*
X153857316Y-48775303D01*
X153851504Y-48798507D01*
X153843446Y-48821029D01*
X153833218Y-48842653D01*
X153820921Y-48863170D01*
X153806671Y-48882383D01*
X153790607Y-48900107D01*
X153772883Y-48916171D01*
X153753670Y-48930421D01*
X153733153Y-48942718D01*
X153711529Y-48952946D01*
X153689007Y-48961004D01*
X153665803Y-48966816D01*
X153642142Y-48970326D01*
X153618250Y-48971500D01*
X152705750Y-48971500D01*
X152681858Y-48970326D01*
X152658197Y-48966816D01*
X152634993Y-48961004D01*
X152612471Y-48952946D01*
X152590847Y-48942718D01*
X152570330Y-48930421D01*
X152551117Y-48916171D01*
X152533393Y-48900107D01*
X152517329Y-48882383D01*
X152503079Y-48863170D01*
X152490782Y-48842653D01*
X152480554Y-48821029D01*
X152472496Y-48798507D01*
X152466684Y-48775303D01*
X152463174Y-48751642D01*
X152462000Y-48727750D01*
X152462000Y-48240250D01*
X152463174Y-48216358D01*
X152466684Y-48192697D01*
X152472496Y-48169493D01*
X152480554Y-48146971D01*
X152490782Y-48125347D01*
X152503079Y-48104830D01*
X152517329Y-48085617D01*
X152533393Y-48067893D01*
X152551117Y-48051829D01*
X152570330Y-48037579D01*
X152590847Y-48025282D01*
X152612471Y-48015054D01*
X152634993Y-48006996D01*
X152658197Y-48001184D01*
X152681858Y-47997674D01*
X152705750Y-47996500D01*
X153618250Y-47996500D01*
X153642142Y-47997674D01*
X153642142Y-47997674D01*
G37*
D23*
X153162000Y-48484000D03*
D19*
G36*
X151610142Y-46122674D02*
G01*
X151633803Y-46126184D01*
X151657007Y-46131996D01*
X151679529Y-46140054D01*
X151701153Y-46150282D01*
X151721670Y-46162579D01*
X151740883Y-46176829D01*
X151758607Y-46192893D01*
X151774671Y-46210617D01*
X151788921Y-46229830D01*
X151801218Y-46250347D01*
X151811446Y-46271971D01*
X151819504Y-46294493D01*
X151825316Y-46317697D01*
X151828826Y-46341358D01*
X151830000Y-46365250D01*
X151830000Y-46852750D01*
X151828826Y-46876642D01*
X151825316Y-46900303D01*
X151819504Y-46923507D01*
X151811446Y-46946029D01*
X151801218Y-46967653D01*
X151788921Y-46988170D01*
X151774671Y-47007383D01*
X151758607Y-47025107D01*
X151740883Y-47041171D01*
X151721670Y-47055421D01*
X151701153Y-47067718D01*
X151679529Y-47077946D01*
X151657007Y-47086004D01*
X151633803Y-47091816D01*
X151610142Y-47095326D01*
X151586250Y-47096500D01*
X150673750Y-47096500D01*
X150649858Y-47095326D01*
X150626197Y-47091816D01*
X150602993Y-47086004D01*
X150580471Y-47077946D01*
X150558847Y-47067718D01*
X150538330Y-47055421D01*
X150519117Y-47041171D01*
X150501393Y-47025107D01*
X150485329Y-47007383D01*
X150471079Y-46988170D01*
X150458782Y-46967653D01*
X150448554Y-46946029D01*
X150440496Y-46923507D01*
X150434684Y-46900303D01*
X150431174Y-46876642D01*
X150430000Y-46852750D01*
X150430000Y-46365250D01*
X150431174Y-46341358D01*
X150434684Y-46317697D01*
X150440496Y-46294493D01*
X150448554Y-46271971D01*
X150458782Y-46250347D01*
X150471079Y-46229830D01*
X150485329Y-46210617D01*
X150501393Y-46192893D01*
X150519117Y-46176829D01*
X150538330Y-46162579D01*
X150558847Y-46150282D01*
X150580471Y-46140054D01*
X150602993Y-46131996D01*
X150626197Y-46126184D01*
X150649858Y-46122674D01*
X150673750Y-46121500D01*
X151586250Y-46121500D01*
X151610142Y-46122674D01*
X151610142Y-46122674D01*
G37*
D23*
X151130000Y-46609000D03*
D19*
G36*
X151610142Y-47997674D02*
G01*
X151633803Y-48001184D01*
X151657007Y-48006996D01*
X151679529Y-48015054D01*
X151701153Y-48025282D01*
X151721670Y-48037579D01*
X151740883Y-48051829D01*
X151758607Y-48067893D01*
X151774671Y-48085617D01*
X151788921Y-48104830D01*
X151801218Y-48125347D01*
X151811446Y-48146971D01*
X151819504Y-48169493D01*
X151825316Y-48192697D01*
X151828826Y-48216358D01*
X151830000Y-48240250D01*
X151830000Y-48727750D01*
X151828826Y-48751642D01*
X151825316Y-48775303D01*
X151819504Y-48798507D01*
X151811446Y-48821029D01*
X151801218Y-48842653D01*
X151788921Y-48863170D01*
X151774671Y-48882383D01*
X151758607Y-48900107D01*
X151740883Y-48916171D01*
X151721670Y-48930421D01*
X151701153Y-48942718D01*
X151679529Y-48952946D01*
X151657007Y-48961004D01*
X151633803Y-48966816D01*
X151610142Y-48970326D01*
X151586250Y-48971500D01*
X150673750Y-48971500D01*
X150649858Y-48970326D01*
X150626197Y-48966816D01*
X150602993Y-48961004D01*
X150580471Y-48952946D01*
X150558847Y-48942718D01*
X150538330Y-48930421D01*
X150519117Y-48916171D01*
X150501393Y-48900107D01*
X150485329Y-48882383D01*
X150471079Y-48863170D01*
X150458782Y-48842653D01*
X150448554Y-48821029D01*
X150440496Y-48798507D01*
X150434684Y-48775303D01*
X150431174Y-48751642D01*
X150430000Y-48727750D01*
X150430000Y-48240250D01*
X150431174Y-48216358D01*
X150434684Y-48192697D01*
X150440496Y-48169493D01*
X150448554Y-48146971D01*
X150458782Y-48125347D01*
X150471079Y-48104830D01*
X150485329Y-48085617D01*
X150501393Y-48067893D01*
X150519117Y-48051829D01*
X150538330Y-48037579D01*
X150558847Y-48025282D01*
X150580471Y-48015054D01*
X150602993Y-48006996D01*
X150626197Y-48001184D01*
X150649858Y-47997674D01*
X150673750Y-47996500D01*
X151586250Y-47996500D01*
X151610142Y-47997674D01*
X151610142Y-47997674D01*
G37*
D23*
X151130000Y-48484000D03*
D19*
G36*
X133442142Y-48069174D02*
G01*
X133465803Y-48072684D01*
X133489007Y-48078496D01*
X133511529Y-48086554D01*
X133533153Y-48096782D01*
X133553670Y-48109079D01*
X133572883Y-48123329D01*
X133590607Y-48139393D01*
X133606671Y-48157117D01*
X133620921Y-48176330D01*
X133633218Y-48196847D01*
X133643446Y-48218471D01*
X133651504Y-48240993D01*
X133657316Y-48264197D01*
X133660826Y-48287858D01*
X133662000Y-48311750D01*
X133662000Y-49224250D01*
X133660826Y-49248142D01*
X133657316Y-49271803D01*
X133651504Y-49295007D01*
X133643446Y-49317529D01*
X133633218Y-49339153D01*
X133620921Y-49359670D01*
X133606671Y-49378883D01*
X133590607Y-49396607D01*
X133572883Y-49412671D01*
X133553670Y-49426921D01*
X133533153Y-49439218D01*
X133511529Y-49449446D01*
X133489007Y-49457504D01*
X133465803Y-49463316D01*
X133442142Y-49466826D01*
X133418250Y-49468000D01*
X132930750Y-49468000D01*
X132906858Y-49466826D01*
X132883197Y-49463316D01*
X132859993Y-49457504D01*
X132837471Y-49449446D01*
X132815847Y-49439218D01*
X132795330Y-49426921D01*
X132776117Y-49412671D01*
X132758393Y-49396607D01*
X132742329Y-49378883D01*
X132728079Y-49359670D01*
X132715782Y-49339153D01*
X132705554Y-49317529D01*
X132697496Y-49295007D01*
X132691684Y-49271803D01*
X132688174Y-49248142D01*
X132687000Y-49224250D01*
X132687000Y-48311750D01*
X132688174Y-48287858D01*
X132691684Y-48264197D01*
X132697496Y-48240993D01*
X132705554Y-48218471D01*
X132715782Y-48196847D01*
X132728079Y-48176330D01*
X132742329Y-48157117D01*
X132758393Y-48139393D01*
X132776117Y-48123329D01*
X132795330Y-48109079D01*
X132815847Y-48096782D01*
X132837471Y-48086554D01*
X132859993Y-48078496D01*
X132883197Y-48072684D01*
X132906858Y-48069174D01*
X132930750Y-48068000D01*
X133418250Y-48068000D01*
X133442142Y-48069174D01*
X133442142Y-48069174D01*
G37*
D23*
X133174500Y-48768000D03*
D19*
G36*
X135317142Y-48069174D02*
G01*
X135340803Y-48072684D01*
X135364007Y-48078496D01*
X135386529Y-48086554D01*
X135408153Y-48096782D01*
X135428670Y-48109079D01*
X135447883Y-48123329D01*
X135465607Y-48139393D01*
X135481671Y-48157117D01*
X135495921Y-48176330D01*
X135508218Y-48196847D01*
X135518446Y-48218471D01*
X135526504Y-48240993D01*
X135532316Y-48264197D01*
X135535826Y-48287858D01*
X135537000Y-48311750D01*
X135537000Y-49224250D01*
X135535826Y-49248142D01*
X135532316Y-49271803D01*
X135526504Y-49295007D01*
X135518446Y-49317529D01*
X135508218Y-49339153D01*
X135495921Y-49359670D01*
X135481671Y-49378883D01*
X135465607Y-49396607D01*
X135447883Y-49412671D01*
X135428670Y-49426921D01*
X135408153Y-49439218D01*
X135386529Y-49449446D01*
X135364007Y-49457504D01*
X135340803Y-49463316D01*
X135317142Y-49466826D01*
X135293250Y-49468000D01*
X134805750Y-49468000D01*
X134781858Y-49466826D01*
X134758197Y-49463316D01*
X134734993Y-49457504D01*
X134712471Y-49449446D01*
X134690847Y-49439218D01*
X134670330Y-49426921D01*
X134651117Y-49412671D01*
X134633393Y-49396607D01*
X134617329Y-49378883D01*
X134603079Y-49359670D01*
X134590782Y-49339153D01*
X134580554Y-49317529D01*
X134572496Y-49295007D01*
X134566684Y-49271803D01*
X134563174Y-49248142D01*
X134562000Y-49224250D01*
X134562000Y-48311750D01*
X134563174Y-48287858D01*
X134566684Y-48264197D01*
X134572496Y-48240993D01*
X134580554Y-48218471D01*
X134590782Y-48196847D01*
X134603079Y-48176330D01*
X134617329Y-48157117D01*
X134633393Y-48139393D01*
X134651117Y-48123329D01*
X134670330Y-48109079D01*
X134690847Y-48096782D01*
X134712471Y-48086554D01*
X134734993Y-48078496D01*
X134758197Y-48072684D01*
X134781858Y-48069174D01*
X134805750Y-48068000D01*
X135293250Y-48068000D01*
X135317142Y-48069174D01*
X135317142Y-48069174D01*
G37*
D23*
X135049500Y-48768000D03*
D19*
G36*
X128369142Y-40661674D02*
G01*
X128392803Y-40665184D01*
X128416007Y-40670996D01*
X128438529Y-40679054D01*
X128460153Y-40689282D01*
X128480670Y-40701579D01*
X128499883Y-40715829D01*
X128517607Y-40731893D01*
X128533671Y-40749617D01*
X128547921Y-40768830D01*
X128560218Y-40789347D01*
X128570446Y-40810971D01*
X128578504Y-40833493D01*
X128584316Y-40856697D01*
X128587826Y-40880358D01*
X128589000Y-40904250D01*
X128589000Y-41391750D01*
X128587826Y-41415642D01*
X128584316Y-41439303D01*
X128578504Y-41462507D01*
X128570446Y-41485029D01*
X128560218Y-41506653D01*
X128547921Y-41527170D01*
X128533671Y-41546383D01*
X128517607Y-41564107D01*
X128499883Y-41580171D01*
X128480670Y-41594421D01*
X128460153Y-41606718D01*
X128438529Y-41616946D01*
X128416007Y-41625004D01*
X128392803Y-41630816D01*
X128369142Y-41634326D01*
X128345250Y-41635500D01*
X127432750Y-41635500D01*
X127408858Y-41634326D01*
X127385197Y-41630816D01*
X127361993Y-41625004D01*
X127339471Y-41616946D01*
X127317847Y-41606718D01*
X127297330Y-41594421D01*
X127278117Y-41580171D01*
X127260393Y-41564107D01*
X127244329Y-41546383D01*
X127230079Y-41527170D01*
X127217782Y-41506653D01*
X127207554Y-41485029D01*
X127199496Y-41462507D01*
X127193684Y-41439303D01*
X127190174Y-41415642D01*
X127189000Y-41391750D01*
X127189000Y-40904250D01*
X127190174Y-40880358D01*
X127193684Y-40856697D01*
X127199496Y-40833493D01*
X127207554Y-40810971D01*
X127217782Y-40789347D01*
X127230079Y-40768830D01*
X127244329Y-40749617D01*
X127260393Y-40731893D01*
X127278117Y-40715829D01*
X127297330Y-40701579D01*
X127317847Y-40689282D01*
X127339471Y-40679054D01*
X127361993Y-40670996D01*
X127385197Y-40665184D01*
X127408858Y-40661674D01*
X127432750Y-40660500D01*
X128345250Y-40660500D01*
X128369142Y-40661674D01*
X128369142Y-40661674D01*
G37*
D23*
X127889000Y-41148000D03*
D19*
G36*
X128369142Y-38786674D02*
G01*
X128392803Y-38790184D01*
X128416007Y-38795996D01*
X128438529Y-38804054D01*
X128460153Y-38814282D01*
X128480670Y-38826579D01*
X128499883Y-38840829D01*
X128517607Y-38856893D01*
X128533671Y-38874617D01*
X128547921Y-38893830D01*
X128560218Y-38914347D01*
X128570446Y-38935971D01*
X128578504Y-38958493D01*
X128584316Y-38981697D01*
X128587826Y-39005358D01*
X128589000Y-39029250D01*
X128589000Y-39516750D01*
X128587826Y-39540642D01*
X128584316Y-39564303D01*
X128578504Y-39587507D01*
X128570446Y-39610029D01*
X128560218Y-39631653D01*
X128547921Y-39652170D01*
X128533671Y-39671383D01*
X128517607Y-39689107D01*
X128499883Y-39705171D01*
X128480670Y-39719421D01*
X128460153Y-39731718D01*
X128438529Y-39741946D01*
X128416007Y-39750004D01*
X128392803Y-39755816D01*
X128369142Y-39759326D01*
X128345250Y-39760500D01*
X127432750Y-39760500D01*
X127408858Y-39759326D01*
X127385197Y-39755816D01*
X127361993Y-39750004D01*
X127339471Y-39741946D01*
X127317847Y-39731718D01*
X127297330Y-39719421D01*
X127278117Y-39705171D01*
X127260393Y-39689107D01*
X127244329Y-39671383D01*
X127230079Y-39652170D01*
X127217782Y-39631653D01*
X127207554Y-39610029D01*
X127199496Y-39587507D01*
X127193684Y-39564303D01*
X127190174Y-39540642D01*
X127189000Y-39516750D01*
X127189000Y-39029250D01*
X127190174Y-39005358D01*
X127193684Y-38981697D01*
X127199496Y-38958493D01*
X127207554Y-38935971D01*
X127217782Y-38914347D01*
X127230079Y-38893830D01*
X127244329Y-38874617D01*
X127260393Y-38856893D01*
X127278117Y-38840829D01*
X127297330Y-38826579D01*
X127317847Y-38814282D01*
X127339471Y-38804054D01*
X127361993Y-38795996D01*
X127385197Y-38790184D01*
X127408858Y-38786674D01*
X127432750Y-38785500D01*
X128345250Y-38785500D01*
X128369142Y-38786674D01*
X128369142Y-38786674D01*
G37*
D23*
X127889000Y-39273000D03*
D11*
X186563000Y-118491000D03*
X173636000Y-121031000D03*
X186563000Y-80391000D03*
X173636000Y-82931000D03*
X167513000Y-51816000D03*
X154586000Y-54356000D03*
X167513000Y-70866000D03*
X154586000Y-73406000D03*
X148463000Y-70866000D03*
X135536000Y-73406000D03*
X129413000Y-70866000D03*
X116486000Y-73406000D03*
X167513000Y-89916000D03*
X154586000Y-92456000D03*
X148463000Y-89916000D03*
X135536000Y-92456000D03*
X129413000Y-89916000D03*
X116486000Y-92456000D03*
X167513000Y-108966000D03*
X154586000Y-111506000D03*
X148463000Y-108966000D03*
X135536000Y-111506000D03*
X129413000Y-108966000D03*
X116486000Y-111506000D03*
X167513000Y-128016000D03*
X154586000Y-130556000D03*
X138938000Y-128016000D03*
X126011000Y-130556000D03*
D19*
G36*
X160415504Y-41791204D02*
G01*
X160439773Y-41794804D01*
X160463571Y-41800765D01*
X160486671Y-41809030D01*
X160508849Y-41819520D01*
X160529893Y-41832133D01*
X160549598Y-41846747D01*
X160567777Y-41863223D01*
X160584253Y-41881402D01*
X160598867Y-41901107D01*
X160611480Y-41922151D01*
X160621970Y-41944329D01*
X160630235Y-41967429D01*
X160636196Y-41991227D01*
X160639796Y-42015496D01*
X160641000Y-42040000D01*
X160641000Y-42790000D01*
X160639796Y-42814504D01*
X160636196Y-42838773D01*
X160630235Y-42862571D01*
X160621970Y-42885671D01*
X160611480Y-42907849D01*
X160598867Y-42928893D01*
X160584253Y-42948598D01*
X160567777Y-42966777D01*
X160549598Y-42983253D01*
X160529893Y-42997867D01*
X160508849Y-43010480D01*
X160486671Y-43020970D01*
X160463571Y-43029235D01*
X160439773Y-43035196D01*
X160415504Y-43038796D01*
X160391000Y-43040000D01*
X159141000Y-43040000D01*
X159116496Y-43038796D01*
X159092227Y-43035196D01*
X159068429Y-43029235D01*
X159045329Y-43020970D01*
X159023151Y-43010480D01*
X159002107Y-42997867D01*
X158982402Y-42983253D01*
X158964223Y-42966777D01*
X158947747Y-42948598D01*
X158933133Y-42928893D01*
X158920520Y-42907849D01*
X158910030Y-42885671D01*
X158901765Y-42862571D01*
X158895804Y-42838773D01*
X158892204Y-42814504D01*
X158891000Y-42790000D01*
X158891000Y-42040000D01*
X158892204Y-42015496D01*
X158895804Y-41991227D01*
X158901765Y-41967429D01*
X158910030Y-41944329D01*
X158920520Y-41922151D01*
X158933133Y-41901107D01*
X158947747Y-41881402D01*
X158964223Y-41863223D01*
X158982402Y-41846747D01*
X159002107Y-41832133D01*
X159023151Y-41819520D01*
X159045329Y-41809030D01*
X159068429Y-41800765D01*
X159092227Y-41794804D01*
X159116496Y-41791204D01*
X159141000Y-41790000D01*
X160391000Y-41790000D01*
X160415504Y-41791204D01*
X160415504Y-41791204D01*
G37*
D24*
X159766000Y-42415000D03*
D19*
G36*
X160415504Y-44591204D02*
G01*
X160439773Y-44594804D01*
X160463571Y-44600765D01*
X160486671Y-44609030D01*
X160508849Y-44619520D01*
X160529893Y-44632133D01*
X160549598Y-44646747D01*
X160567777Y-44663223D01*
X160584253Y-44681402D01*
X160598867Y-44701107D01*
X160611480Y-44722151D01*
X160621970Y-44744329D01*
X160630235Y-44767429D01*
X160636196Y-44791227D01*
X160639796Y-44815496D01*
X160641000Y-44840000D01*
X160641000Y-45590000D01*
X160639796Y-45614504D01*
X160636196Y-45638773D01*
X160630235Y-45662571D01*
X160621970Y-45685671D01*
X160611480Y-45707849D01*
X160598867Y-45728893D01*
X160584253Y-45748598D01*
X160567777Y-45766777D01*
X160549598Y-45783253D01*
X160529893Y-45797867D01*
X160508849Y-45810480D01*
X160486671Y-45820970D01*
X160463571Y-45829235D01*
X160439773Y-45835196D01*
X160415504Y-45838796D01*
X160391000Y-45840000D01*
X159141000Y-45840000D01*
X159116496Y-45838796D01*
X159092227Y-45835196D01*
X159068429Y-45829235D01*
X159045329Y-45820970D01*
X159023151Y-45810480D01*
X159002107Y-45797867D01*
X158982402Y-45783253D01*
X158964223Y-45766777D01*
X158947747Y-45748598D01*
X158933133Y-45728893D01*
X158920520Y-45707849D01*
X158910030Y-45685671D01*
X158901765Y-45662571D01*
X158895804Y-45638773D01*
X158892204Y-45614504D01*
X158891000Y-45590000D01*
X158891000Y-44840000D01*
X158892204Y-44815496D01*
X158895804Y-44791227D01*
X158901765Y-44767429D01*
X158910030Y-44744329D01*
X158920520Y-44722151D01*
X158933133Y-44701107D01*
X158947747Y-44681402D01*
X158964223Y-44663223D01*
X158982402Y-44646747D01*
X159002107Y-44632133D01*
X159023151Y-44619520D01*
X159045329Y-44609030D01*
X159068429Y-44600765D01*
X159092227Y-44594804D01*
X159116496Y-44591204D01*
X159141000Y-44590000D01*
X160391000Y-44590000D01*
X160415504Y-44591204D01*
X160415504Y-44591204D01*
G37*
D24*
X159766000Y-45215000D03*
D25*
X185801000Y-125858000D03*
X185801000Y-129158000D03*
X166751000Y-135383000D03*
X166751000Y-138683000D03*
X138176000Y-135383000D03*
X138176000Y-138683000D03*
X166751000Y-116333000D03*
X166751000Y-119633000D03*
X147701000Y-116333000D03*
X147701000Y-119633000D03*
X128651000Y-116333000D03*
X128651000Y-119633000D03*
X185801000Y-87758000D03*
X185801000Y-91058000D03*
X166751000Y-97283000D03*
X166751000Y-100583000D03*
X147701000Y-97283000D03*
X147701000Y-100583000D03*
X128651000Y-97283000D03*
X128651000Y-100583000D03*
X166751000Y-78233000D03*
X166751000Y-81533000D03*
X147701000Y-78233000D03*
X147701000Y-81533000D03*
X128651000Y-78233000D03*
X128651000Y-81533000D03*
X185801000Y-59183000D03*
X185801000Y-62483000D03*
X166751000Y-59183000D03*
X166751000Y-62483000D03*
X147701000Y-59183000D03*
X147701000Y-62483000D03*
X128651000Y-59183000D03*
X128651000Y-62483000D03*
D19*
G36*
X166254691Y-39150053D02*
G01*
X166275926Y-39153203D01*
X166296750Y-39158419D01*
X166316962Y-39165651D01*
X166336368Y-39174830D01*
X166354781Y-39185866D01*
X166372024Y-39198654D01*
X166387930Y-39213070D01*
X166402346Y-39228976D01*
X166415134Y-39246219D01*
X166426170Y-39264632D01*
X166435349Y-39284038D01*
X166442581Y-39304250D01*
X166447797Y-39325074D01*
X166450947Y-39346309D01*
X166452000Y-39367750D01*
X166452000Y-39880250D01*
X166450947Y-39901691D01*
X166447797Y-39922926D01*
X166442581Y-39943750D01*
X166435349Y-39963962D01*
X166426170Y-39983368D01*
X166415134Y-40001781D01*
X166402346Y-40019024D01*
X166387930Y-40034930D01*
X166372024Y-40049346D01*
X166354781Y-40062134D01*
X166336368Y-40073170D01*
X166316962Y-40082349D01*
X166296750Y-40089581D01*
X166275926Y-40094797D01*
X166254691Y-40097947D01*
X166233250Y-40099000D01*
X165795750Y-40099000D01*
X165774309Y-40097947D01*
X165753074Y-40094797D01*
X165732250Y-40089581D01*
X165712038Y-40082349D01*
X165692632Y-40073170D01*
X165674219Y-40062134D01*
X165656976Y-40049346D01*
X165641070Y-40034930D01*
X165626654Y-40019024D01*
X165613866Y-40001781D01*
X165602830Y-39983368D01*
X165593651Y-39963962D01*
X165586419Y-39943750D01*
X165581203Y-39922926D01*
X165578053Y-39901691D01*
X165577000Y-39880250D01*
X165577000Y-39367750D01*
X165578053Y-39346309D01*
X165581203Y-39325074D01*
X165586419Y-39304250D01*
X165593651Y-39284038D01*
X165602830Y-39264632D01*
X165613866Y-39246219D01*
X165626654Y-39228976D01*
X165641070Y-39213070D01*
X165656976Y-39198654D01*
X165674219Y-39185866D01*
X165692632Y-39174830D01*
X165712038Y-39165651D01*
X165732250Y-39158419D01*
X165753074Y-39153203D01*
X165774309Y-39150053D01*
X165795750Y-39149000D01*
X166233250Y-39149000D01*
X166254691Y-39150053D01*
X166254691Y-39150053D01*
G37*
D26*
X166014500Y-39624000D03*
D19*
G36*
X164679691Y-39150053D02*
G01*
X164700926Y-39153203D01*
X164721750Y-39158419D01*
X164741962Y-39165651D01*
X164761368Y-39174830D01*
X164779781Y-39185866D01*
X164797024Y-39198654D01*
X164812930Y-39213070D01*
X164827346Y-39228976D01*
X164840134Y-39246219D01*
X164851170Y-39264632D01*
X164860349Y-39284038D01*
X164867581Y-39304250D01*
X164872797Y-39325074D01*
X164875947Y-39346309D01*
X164877000Y-39367750D01*
X164877000Y-39880250D01*
X164875947Y-39901691D01*
X164872797Y-39922926D01*
X164867581Y-39943750D01*
X164860349Y-39963962D01*
X164851170Y-39983368D01*
X164840134Y-40001781D01*
X164827346Y-40019024D01*
X164812930Y-40034930D01*
X164797024Y-40049346D01*
X164779781Y-40062134D01*
X164761368Y-40073170D01*
X164741962Y-40082349D01*
X164721750Y-40089581D01*
X164700926Y-40094797D01*
X164679691Y-40097947D01*
X164658250Y-40099000D01*
X164220750Y-40099000D01*
X164199309Y-40097947D01*
X164178074Y-40094797D01*
X164157250Y-40089581D01*
X164137038Y-40082349D01*
X164117632Y-40073170D01*
X164099219Y-40062134D01*
X164081976Y-40049346D01*
X164066070Y-40034930D01*
X164051654Y-40019024D01*
X164038866Y-40001781D01*
X164027830Y-39983368D01*
X164018651Y-39963962D01*
X164011419Y-39943750D01*
X164006203Y-39922926D01*
X164003053Y-39901691D01*
X164002000Y-39880250D01*
X164002000Y-39367750D01*
X164003053Y-39346309D01*
X164006203Y-39325074D01*
X164011419Y-39304250D01*
X164018651Y-39284038D01*
X164027830Y-39264632D01*
X164038866Y-39246219D01*
X164051654Y-39228976D01*
X164066070Y-39213070D01*
X164081976Y-39198654D01*
X164099219Y-39185866D01*
X164117632Y-39174830D01*
X164137038Y-39165651D01*
X164157250Y-39158419D01*
X164178074Y-39153203D01*
X164199309Y-39150053D01*
X164220750Y-39149000D01*
X164658250Y-39149000D01*
X164679691Y-39150053D01*
X164679691Y-39150053D01*
G37*
D26*
X164439500Y-39624000D03*
D19*
G36*
X166254691Y-42071053D02*
G01*
X166275926Y-42074203D01*
X166296750Y-42079419D01*
X166316962Y-42086651D01*
X166336368Y-42095830D01*
X166354781Y-42106866D01*
X166372024Y-42119654D01*
X166387930Y-42134070D01*
X166402346Y-42149976D01*
X166415134Y-42167219D01*
X166426170Y-42185632D01*
X166435349Y-42205038D01*
X166442581Y-42225250D01*
X166447797Y-42246074D01*
X166450947Y-42267309D01*
X166452000Y-42288750D01*
X166452000Y-42801250D01*
X166450947Y-42822691D01*
X166447797Y-42843926D01*
X166442581Y-42864750D01*
X166435349Y-42884962D01*
X166426170Y-42904368D01*
X166415134Y-42922781D01*
X166402346Y-42940024D01*
X166387930Y-42955930D01*
X166372024Y-42970346D01*
X166354781Y-42983134D01*
X166336368Y-42994170D01*
X166316962Y-43003349D01*
X166296750Y-43010581D01*
X166275926Y-43015797D01*
X166254691Y-43018947D01*
X166233250Y-43020000D01*
X165795750Y-43020000D01*
X165774309Y-43018947D01*
X165753074Y-43015797D01*
X165732250Y-43010581D01*
X165712038Y-43003349D01*
X165692632Y-42994170D01*
X165674219Y-42983134D01*
X165656976Y-42970346D01*
X165641070Y-42955930D01*
X165626654Y-42940024D01*
X165613866Y-42922781D01*
X165602830Y-42904368D01*
X165593651Y-42884962D01*
X165586419Y-42864750D01*
X165581203Y-42843926D01*
X165578053Y-42822691D01*
X165577000Y-42801250D01*
X165577000Y-42288750D01*
X165578053Y-42267309D01*
X165581203Y-42246074D01*
X165586419Y-42225250D01*
X165593651Y-42205038D01*
X165602830Y-42185632D01*
X165613866Y-42167219D01*
X165626654Y-42149976D01*
X165641070Y-42134070D01*
X165656976Y-42119654D01*
X165674219Y-42106866D01*
X165692632Y-42095830D01*
X165712038Y-42086651D01*
X165732250Y-42079419D01*
X165753074Y-42074203D01*
X165774309Y-42071053D01*
X165795750Y-42070000D01*
X166233250Y-42070000D01*
X166254691Y-42071053D01*
X166254691Y-42071053D01*
G37*
D26*
X166014500Y-42545000D03*
D19*
G36*
X164679691Y-42071053D02*
G01*
X164700926Y-42074203D01*
X164721750Y-42079419D01*
X164741962Y-42086651D01*
X164761368Y-42095830D01*
X164779781Y-42106866D01*
X164797024Y-42119654D01*
X164812930Y-42134070D01*
X164827346Y-42149976D01*
X164840134Y-42167219D01*
X164851170Y-42185632D01*
X164860349Y-42205038D01*
X164867581Y-42225250D01*
X164872797Y-42246074D01*
X164875947Y-42267309D01*
X164877000Y-42288750D01*
X164877000Y-42801250D01*
X164875947Y-42822691D01*
X164872797Y-42843926D01*
X164867581Y-42864750D01*
X164860349Y-42884962D01*
X164851170Y-42904368D01*
X164840134Y-42922781D01*
X164827346Y-42940024D01*
X164812930Y-42955930D01*
X164797024Y-42970346D01*
X164779781Y-42983134D01*
X164761368Y-42994170D01*
X164741962Y-43003349D01*
X164721750Y-43010581D01*
X164700926Y-43015797D01*
X164679691Y-43018947D01*
X164658250Y-43020000D01*
X164220750Y-43020000D01*
X164199309Y-43018947D01*
X164178074Y-43015797D01*
X164157250Y-43010581D01*
X164137038Y-43003349D01*
X164117632Y-42994170D01*
X164099219Y-42983134D01*
X164081976Y-42970346D01*
X164066070Y-42955930D01*
X164051654Y-42940024D01*
X164038866Y-42922781D01*
X164027830Y-42904368D01*
X164018651Y-42884962D01*
X164011419Y-42864750D01*
X164006203Y-42843926D01*
X164003053Y-42822691D01*
X164002000Y-42801250D01*
X164002000Y-42288750D01*
X164003053Y-42267309D01*
X164006203Y-42246074D01*
X164011419Y-42225250D01*
X164018651Y-42205038D01*
X164027830Y-42185632D01*
X164038866Y-42167219D01*
X164051654Y-42149976D01*
X164066070Y-42134070D01*
X164081976Y-42119654D01*
X164099219Y-42106866D01*
X164117632Y-42095830D01*
X164137038Y-42086651D01*
X164157250Y-42079419D01*
X164178074Y-42074203D01*
X164199309Y-42071053D01*
X164220750Y-42070000D01*
X164658250Y-42070000D01*
X164679691Y-42071053D01*
X164679691Y-42071053D01*
G37*
D26*
X164439500Y-42545000D03*
D19*
G36*
X166254691Y-44992053D02*
G01*
X166275926Y-44995203D01*
X166296750Y-45000419D01*
X166316962Y-45007651D01*
X166336368Y-45016830D01*
X166354781Y-45027866D01*
X166372024Y-45040654D01*
X166387930Y-45055070D01*
X166402346Y-45070976D01*
X166415134Y-45088219D01*
X166426170Y-45106632D01*
X166435349Y-45126038D01*
X166442581Y-45146250D01*
X166447797Y-45167074D01*
X166450947Y-45188309D01*
X166452000Y-45209750D01*
X166452000Y-45722250D01*
X166450947Y-45743691D01*
X166447797Y-45764926D01*
X166442581Y-45785750D01*
X166435349Y-45805962D01*
X166426170Y-45825368D01*
X166415134Y-45843781D01*
X166402346Y-45861024D01*
X166387930Y-45876930D01*
X166372024Y-45891346D01*
X166354781Y-45904134D01*
X166336368Y-45915170D01*
X166316962Y-45924349D01*
X166296750Y-45931581D01*
X166275926Y-45936797D01*
X166254691Y-45939947D01*
X166233250Y-45941000D01*
X165795750Y-45941000D01*
X165774309Y-45939947D01*
X165753074Y-45936797D01*
X165732250Y-45931581D01*
X165712038Y-45924349D01*
X165692632Y-45915170D01*
X165674219Y-45904134D01*
X165656976Y-45891346D01*
X165641070Y-45876930D01*
X165626654Y-45861024D01*
X165613866Y-45843781D01*
X165602830Y-45825368D01*
X165593651Y-45805962D01*
X165586419Y-45785750D01*
X165581203Y-45764926D01*
X165578053Y-45743691D01*
X165577000Y-45722250D01*
X165577000Y-45209750D01*
X165578053Y-45188309D01*
X165581203Y-45167074D01*
X165586419Y-45146250D01*
X165593651Y-45126038D01*
X165602830Y-45106632D01*
X165613866Y-45088219D01*
X165626654Y-45070976D01*
X165641070Y-45055070D01*
X165656976Y-45040654D01*
X165674219Y-45027866D01*
X165692632Y-45016830D01*
X165712038Y-45007651D01*
X165732250Y-45000419D01*
X165753074Y-44995203D01*
X165774309Y-44992053D01*
X165795750Y-44991000D01*
X166233250Y-44991000D01*
X166254691Y-44992053D01*
X166254691Y-44992053D01*
G37*
D26*
X166014500Y-45466000D03*
D19*
G36*
X164679691Y-44992053D02*
G01*
X164700926Y-44995203D01*
X164721750Y-45000419D01*
X164741962Y-45007651D01*
X164761368Y-45016830D01*
X164779781Y-45027866D01*
X164797024Y-45040654D01*
X164812930Y-45055070D01*
X164827346Y-45070976D01*
X164840134Y-45088219D01*
X164851170Y-45106632D01*
X164860349Y-45126038D01*
X164867581Y-45146250D01*
X164872797Y-45167074D01*
X164875947Y-45188309D01*
X164877000Y-45209750D01*
X164877000Y-45722250D01*
X164875947Y-45743691D01*
X164872797Y-45764926D01*
X164867581Y-45785750D01*
X164860349Y-45805962D01*
X164851170Y-45825368D01*
X164840134Y-45843781D01*
X164827346Y-45861024D01*
X164812930Y-45876930D01*
X164797024Y-45891346D01*
X164779781Y-45904134D01*
X164761368Y-45915170D01*
X164741962Y-45924349D01*
X164721750Y-45931581D01*
X164700926Y-45936797D01*
X164679691Y-45939947D01*
X164658250Y-45941000D01*
X164220750Y-45941000D01*
X164199309Y-45939947D01*
X164178074Y-45936797D01*
X164157250Y-45931581D01*
X164137038Y-45924349D01*
X164117632Y-45915170D01*
X164099219Y-45904134D01*
X164081976Y-45891346D01*
X164066070Y-45876930D01*
X164051654Y-45861024D01*
X164038866Y-45843781D01*
X164027830Y-45825368D01*
X164018651Y-45805962D01*
X164011419Y-45785750D01*
X164006203Y-45764926D01*
X164003053Y-45743691D01*
X164002000Y-45722250D01*
X164002000Y-45209750D01*
X164003053Y-45188309D01*
X164006203Y-45167074D01*
X164011419Y-45146250D01*
X164018651Y-45126038D01*
X164027830Y-45106632D01*
X164038866Y-45088219D01*
X164051654Y-45070976D01*
X164066070Y-45055070D01*
X164081976Y-45040654D01*
X164099219Y-45027866D01*
X164117632Y-45016830D01*
X164137038Y-45007651D01*
X164157250Y-45000419D01*
X164178074Y-44995203D01*
X164199309Y-44992053D01*
X164220750Y-44991000D01*
X164658250Y-44991000D01*
X164679691Y-44992053D01*
X164679691Y-44992053D01*
G37*
D26*
X164439500Y-45466000D03*
D19*
G36*
X131964691Y-38642053D02*
G01*
X131985926Y-38645203D01*
X132006750Y-38650419D01*
X132026962Y-38657651D01*
X132046368Y-38666830D01*
X132064781Y-38677866D01*
X132082024Y-38690654D01*
X132097930Y-38705070D01*
X132112346Y-38720976D01*
X132125134Y-38738219D01*
X132136170Y-38756632D01*
X132145349Y-38776038D01*
X132152581Y-38796250D01*
X132157797Y-38817074D01*
X132160947Y-38838309D01*
X132162000Y-38859750D01*
X132162000Y-39372250D01*
X132160947Y-39393691D01*
X132157797Y-39414926D01*
X132152581Y-39435750D01*
X132145349Y-39455962D01*
X132136170Y-39475368D01*
X132125134Y-39493781D01*
X132112346Y-39511024D01*
X132097930Y-39526930D01*
X132082024Y-39541346D01*
X132064781Y-39554134D01*
X132046368Y-39565170D01*
X132026962Y-39574349D01*
X132006750Y-39581581D01*
X131985926Y-39586797D01*
X131964691Y-39589947D01*
X131943250Y-39591000D01*
X131505750Y-39591000D01*
X131484309Y-39589947D01*
X131463074Y-39586797D01*
X131442250Y-39581581D01*
X131422038Y-39574349D01*
X131402632Y-39565170D01*
X131384219Y-39554134D01*
X131366976Y-39541346D01*
X131351070Y-39526930D01*
X131336654Y-39511024D01*
X131323866Y-39493781D01*
X131312830Y-39475368D01*
X131303651Y-39455962D01*
X131296419Y-39435750D01*
X131291203Y-39414926D01*
X131288053Y-39393691D01*
X131287000Y-39372250D01*
X131287000Y-38859750D01*
X131288053Y-38838309D01*
X131291203Y-38817074D01*
X131296419Y-38796250D01*
X131303651Y-38776038D01*
X131312830Y-38756632D01*
X131323866Y-38738219D01*
X131336654Y-38720976D01*
X131351070Y-38705070D01*
X131366976Y-38690654D01*
X131384219Y-38677866D01*
X131402632Y-38666830D01*
X131422038Y-38657651D01*
X131442250Y-38650419D01*
X131463074Y-38645203D01*
X131484309Y-38642053D01*
X131505750Y-38641000D01*
X131943250Y-38641000D01*
X131964691Y-38642053D01*
X131964691Y-38642053D01*
G37*
D26*
X131724500Y-39116000D03*
D19*
G36*
X130389691Y-38642053D02*
G01*
X130410926Y-38645203D01*
X130431750Y-38650419D01*
X130451962Y-38657651D01*
X130471368Y-38666830D01*
X130489781Y-38677866D01*
X130507024Y-38690654D01*
X130522930Y-38705070D01*
X130537346Y-38720976D01*
X130550134Y-38738219D01*
X130561170Y-38756632D01*
X130570349Y-38776038D01*
X130577581Y-38796250D01*
X130582797Y-38817074D01*
X130585947Y-38838309D01*
X130587000Y-38859750D01*
X130587000Y-39372250D01*
X130585947Y-39393691D01*
X130582797Y-39414926D01*
X130577581Y-39435750D01*
X130570349Y-39455962D01*
X130561170Y-39475368D01*
X130550134Y-39493781D01*
X130537346Y-39511024D01*
X130522930Y-39526930D01*
X130507024Y-39541346D01*
X130489781Y-39554134D01*
X130471368Y-39565170D01*
X130451962Y-39574349D01*
X130431750Y-39581581D01*
X130410926Y-39586797D01*
X130389691Y-39589947D01*
X130368250Y-39591000D01*
X129930750Y-39591000D01*
X129909309Y-39589947D01*
X129888074Y-39586797D01*
X129867250Y-39581581D01*
X129847038Y-39574349D01*
X129827632Y-39565170D01*
X129809219Y-39554134D01*
X129791976Y-39541346D01*
X129776070Y-39526930D01*
X129761654Y-39511024D01*
X129748866Y-39493781D01*
X129737830Y-39475368D01*
X129728651Y-39455962D01*
X129721419Y-39435750D01*
X129716203Y-39414926D01*
X129713053Y-39393691D01*
X129712000Y-39372250D01*
X129712000Y-38859750D01*
X129713053Y-38838309D01*
X129716203Y-38817074D01*
X129721419Y-38796250D01*
X129728651Y-38776038D01*
X129737830Y-38756632D01*
X129748866Y-38738219D01*
X129761654Y-38720976D01*
X129776070Y-38705070D01*
X129791976Y-38690654D01*
X129809219Y-38677866D01*
X129827632Y-38666830D01*
X129847038Y-38657651D01*
X129867250Y-38650419D01*
X129888074Y-38645203D01*
X129909309Y-38642053D01*
X129930750Y-38641000D01*
X130368250Y-38641000D01*
X130389691Y-38642053D01*
X130389691Y-38642053D01*
G37*
D26*
X130149500Y-39116000D03*
D19*
G36*
X141489691Y-47913053D02*
G01*
X141510926Y-47916203D01*
X141531750Y-47921419D01*
X141551962Y-47928651D01*
X141571368Y-47937830D01*
X141589781Y-47948866D01*
X141607024Y-47961654D01*
X141622930Y-47976070D01*
X141637346Y-47991976D01*
X141650134Y-48009219D01*
X141661170Y-48027632D01*
X141670349Y-48047038D01*
X141677581Y-48067250D01*
X141682797Y-48088074D01*
X141685947Y-48109309D01*
X141687000Y-48130750D01*
X141687000Y-48643250D01*
X141685947Y-48664691D01*
X141682797Y-48685926D01*
X141677581Y-48706750D01*
X141670349Y-48726962D01*
X141661170Y-48746368D01*
X141650134Y-48764781D01*
X141637346Y-48782024D01*
X141622930Y-48797930D01*
X141607024Y-48812346D01*
X141589781Y-48825134D01*
X141571368Y-48836170D01*
X141551962Y-48845349D01*
X141531750Y-48852581D01*
X141510926Y-48857797D01*
X141489691Y-48860947D01*
X141468250Y-48862000D01*
X141030750Y-48862000D01*
X141009309Y-48860947D01*
X140988074Y-48857797D01*
X140967250Y-48852581D01*
X140947038Y-48845349D01*
X140927632Y-48836170D01*
X140909219Y-48825134D01*
X140891976Y-48812346D01*
X140876070Y-48797930D01*
X140861654Y-48782024D01*
X140848866Y-48764781D01*
X140837830Y-48746368D01*
X140828651Y-48726962D01*
X140821419Y-48706750D01*
X140816203Y-48685926D01*
X140813053Y-48664691D01*
X140812000Y-48643250D01*
X140812000Y-48130750D01*
X140813053Y-48109309D01*
X140816203Y-48088074D01*
X140821419Y-48067250D01*
X140828651Y-48047038D01*
X140837830Y-48027632D01*
X140848866Y-48009219D01*
X140861654Y-47991976D01*
X140876070Y-47976070D01*
X140891976Y-47961654D01*
X140909219Y-47948866D01*
X140927632Y-47937830D01*
X140947038Y-47928651D01*
X140967250Y-47921419D01*
X140988074Y-47916203D01*
X141009309Y-47913053D01*
X141030750Y-47912000D01*
X141468250Y-47912000D01*
X141489691Y-47913053D01*
X141489691Y-47913053D01*
G37*
D26*
X141249500Y-48387000D03*
D19*
G36*
X139914691Y-47913053D02*
G01*
X139935926Y-47916203D01*
X139956750Y-47921419D01*
X139976962Y-47928651D01*
X139996368Y-47937830D01*
X140014781Y-47948866D01*
X140032024Y-47961654D01*
X140047930Y-47976070D01*
X140062346Y-47991976D01*
X140075134Y-48009219D01*
X140086170Y-48027632D01*
X140095349Y-48047038D01*
X140102581Y-48067250D01*
X140107797Y-48088074D01*
X140110947Y-48109309D01*
X140112000Y-48130750D01*
X140112000Y-48643250D01*
X140110947Y-48664691D01*
X140107797Y-48685926D01*
X140102581Y-48706750D01*
X140095349Y-48726962D01*
X140086170Y-48746368D01*
X140075134Y-48764781D01*
X140062346Y-48782024D01*
X140047930Y-48797930D01*
X140032024Y-48812346D01*
X140014781Y-48825134D01*
X139996368Y-48836170D01*
X139976962Y-48845349D01*
X139956750Y-48852581D01*
X139935926Y-48857797D01*
X139914691Y-48860947D01*
X139893250Y-48862000D01*
X139455750Y-48862000D01*
X139434309Y-48860947D01*
X139413074Y-48857797D01*
X139392250Y-48852581D01*
X139372038Y-48845349D01*
X139352632Y-48836170D01*
X139334219Y-48825134D01*
X139316976Y-48812346D01*
X139301070Y-48797930D01*
X139286654Y-48782024D01*
X139273866Y-48764781D01*
X139262830Y-48746368D01*
X139253651Y-48726962D01*
X139246419Y-48706750D01*
X139241203Y-48685926D01*
X139238053Y-48664691D01*
X139237000Y-48643250D01*
X139237000Y-48130750D01*
X139238053Y-48109309D01*
X139241203Y-48088074D01*
X139246419Y-48067250D01*
X139253651Y-48047038D01*
X139262830Y-48027632D01*
X139273866Y-48009219D01*
X139286654Y-47991976D01*
X139301070Y-47976070D01*
X139316976Y-47961654D01*
X139334219Y-47948866D01*
X139352632Y-47937830D01*
X139372038Y-47928651D01*
X139392250Y-47921419D01*
X139413074Y-47916203D01*
X139434309Y-47913053D01*
X139455750Y-47912000D01*
X139893250Y-47912000D01*
X139914691Y-47913053D01*
X139914691Y-47913053D01*
G37*
D26*
X139674500Y-48387000D03*
D19*
G36*
X140041691Y-40293053D02*
G01*
X140062926Y-40296203D01*
X140083750Y-40301419D01*
X140103962Y-40308651D01*
X140123368Y-40317830D01*
X140141781Y-40328866D01*
X140159024Y-40341654D01*
X140174930Y-40356070D01*
X140189346Y-40371976D01*
X140202134Y-40389219D01*
X140213170Y-40407632D01*
X140222349Y-40427038D01*
X140229581Y-40447250D01*
X140234797Y-40468074D01*
X140237947Y-40489309D01*
X140239000Y-40510750D01*
X140239000Y-41023250D01*
X140237947Y-41044691D01*
X140234797Y-41065926D01*
X140229581Y-41086750D01*
X140222349Y-41106962D01*
X140213170Y-41126368D01*
X140202134Y-41144781D01*
X140189346Y-41162024D01*
X140174930Y-41177930D01*
X140159024Y-41192346D01*
X140141781Y-41205134D01*
X140123368Y-41216170D01*
X140103962Y-41225349D01*
X140083750Y-41232581D01*
X140062926Y-41237797D01*
X140041691Y-41240947D01*
X140020250Y-41242000D01*
X139582750Y-41242000D01*
X139561309Y-41240947D01*
X139540074Y-41237797D01*
X139519250Y-41232581D01*
X139499038Y-41225349D01*
X139479632Y-41216170D01*
X139461219Y-41205134D01*
X139443976Y-41192346D01*
X139428070Y-41177930D01*
X139413654Y-41162024D01*
X139400866Y-41144781D01*
X139389830Y-41126368D01*
X139380651Y-41106962D01*
X139373419Y-41086750D01*
X139368203Y-41065926D01*
X139365053Y-41044691D01*
X139364000Y-41023250D01*
X139364000Y-40510750D01*
X139365053Y-40489309D01*
X139368203Y-40468074D01*
X139373419Y-40447250D01*
X139380651Y-40427038D01*
X139389830Y-40407632D01*
X139400866Y-40389219D01*
X139413654Y-40371976D01*
X139428070Y-40356070D01*
X139443976Y-40341654D01*
X139461219Y-40328866D01*
X139479632Y-40317830D01*
X139499038Y-40308651D01*
X139519250Y-40301419D01*
X139540074Y-40296203D01*
X139561309Y-40293053D01*
X139582750Y-40292000D01*
X140020250Y-40292000D01*
X140041691Y-40293053D01*
X140041691Y-40293053D01*
G37*
D26*
X139801500Y-40767000D03*
D19*
G36*
X141616691Y-40293053D02*
G01*
X141637926Y-40296203D01*
X141658750Y-40301419D01*
X141678962Y-40308651D01*
X141698368Y-40317830D01*
X141716781Y-40328866D01*
X141734024Y-40341654D01*
X141749930Y-40356070D01*
X141764346Y-40371976D01*
X141777134Y-40389219D01*
X141788170Y-40407632D01*
X141797349Y-40427038D01*
X141804581Y-40447250D01*
X141809797Y-40468074D01*
X141812947Y-40489309D01*
X141814000Y-40510750D01*
X141814000Y-41023250D01*
X141812947Y-41044691D01*
X141809797Y-41065926D01*
X141804581Y-41086750D01*
X141797349Y-41106962D01*
X141788170Y-41126368D01*
X141777134Y-41144781D01*
X141764346Y-41162024D01*
X141749930Y-41177930D01*
X141734024Y-41192346D01*
X141716781Y-41205134D01*
X141698368Y-41216170D01*
X141678962Y-41225349D01*
X141658750Y-41232581D01*
X141637926Y-41237797D01*
X141616691Y-41240947D01*
X141595250Y-41242000D01*
X141157750Y-41242000D01*
X141136309Y-41240947D01*
X141115074Y-41237797D01*
X141094250Y-41232581D01*
X141074038Y-41225349D01*
X141054632Y-41216170D01*
X141036219Y-41205134D01*
X141018976Y-41192346D01*
X141003070Y-41177930D01*
X140988654Y-41162024D01*
X140975866Y-41144781D01*
X140964830Y-41126368D01*
X140955651Y-41106962D01*
X140948419Y-41086750D01*
X140943203Y-41065926D01*
X140940053Y-41044691D01*
X140939000Y-41023250D01*
X140939000Y-40510750D01*
X140940053Y-40489309D01*
X140943203Y-40468074D01*
X140948419Y-40447250D01*
X140955651Y-40427038D01*
X140964830Y-40407632D01*
X140975866Y-40389219D01*
X140988654Y-40371976D01*
X141003070Y-40356070D01*
X141018976Y-40341654D01*
X141036219Y-40328866D01*
X141054632Y-40317830D01*
X141074038Y-40308651D01*
X141094250Y-40301419D01*
X141115074Y-40296203D01*
X141136309Y-40293053D01*
X141157750Y-40292000D01*
X141595250Y-40292000D01*
X141616691Y-40293053D01*
X141616691Y-40293053D01*
G37*
D26*
X141376500Y-40767000D03*
D27*
X125476000Y-43815000D03*
X134874000Y-51562000D03*
X136878430Y-45313265D03*
X136906000Y-41656000D03*
X129159000Y-40513000D03*
X159766000Y-46990000D03*
X149606000Y-42291000D03*
X154621000Y-42545000D03*
X150241000Y-43942000D03*
X125984000Y-128143000D03*
X116459000Y-56515000D03*
X116459000Y-71247000D03*
X116459000Y-90424000D03*
X116459000Y-109474000D03*
X152654000Y-54356000D03*
X152254001Y-73387001D03*
X152273000Y-92456000D03*
X152273000Y-111506000D03*
X152527000Y-130556000D03*
X133223000Y-54356000D03*
X133223000Y-73406000D03*
X133096000Y-92456000D03*
X133096000Y-111506000D03*
X171196000Y-54356000D03*
X171196000Y-82931000D03*
X171196000Y-121031000D03*
X151621000Y-51562000D03*
X134256000Y-39298006D03*
X152671000Y-51562000D03*
X133206000Y-39298006D03*
D28*
X141249500Y-45612500D02*
X141439000Y-45423000D01*
D29*
X135660500Y-43573000D02*
X136402590Y-43573000D01*
X136402590Y-43573000D02*
X138684000Y-45854410D01*
X140787888Y-48848612D02*
X141249500Y-48387000D01*
X140449490Y-49187010D02*
X140787888Y-48848612D01*
X139230516Y-49187010D02*
X140449490Y-49187010D01*
X138684000Y-48640494D02*
X139230516Y-49187010D01*
X138684000Y-45854410D02*
X138684000Y-48640494D01*
X133973000Y-43573000D02*
X135660500Y-43573000D01*
X133223000Y-44323000D02*
X133973000Y-43573000D01*
X132973000Y-42423000D02*
X132973000Y-41885500D01*
X133223000Y-42673000D02*
X132973000Y-42423000D01*
X133223000Y-44323000D02*
X133223000Y-42673000D01*
X139739000Y-40829500D02*
X139801500Y-40767000D01*
X139739000Y-43223000D02*
X139739000Y-40829500D01*
X141439000Y-48197500D02*
X141249500Y-48387000D01*
X141439000Y-45423000D02*
X141439000Y-48197500D01*
X141439000Y-45323000D02*
X141439000Y-45423000D01*
X142364001Y-44397999D02*
X141439000Y-45323000D01*
X141820484Y-39966990D02*
X142364001Y-40510507D01*
X139801500Y-40192000D02*
X140026510Y-39966990D01*
X142364001Y-40510507D02*
X142364001Y-44397999D01*
X140026510Y-39966990D02*
X141820484Y-39966990D01*
X139801500Y-40767000D02*
X139801500Y-40192000D01*
X136056010Y-49187010D02*
X139230516Y-49187010D01*
X135637000Y-48768000D02*
X136056010Y-49187010D01*
X135049500Y-48768000D02*
X135637000Y-48768000D01*
X132973000Y-40364500D02*
X131724500Y-39116000D01*
X132973000Y-41885500D02*
X132973000Y-40364500D01*
X157216000Y-40181000D02*
X156466000Y-40181000D01*
X158662000Y-38735000D02*
X157216000Y-40181000D01*
X165125500Y-38735000D02*
X158662000Y-38735000D01*
X166014500Y-39624000D02*
X165125500Y-38735000D01*
X166014500Y-44891000D02*
X166014500Y-42545000D01*
X166014500Y-45466000D02*
X166014500Y-44891000D01*
X166014500Y-41970000D02*
X166014500Y-39624000D01*
X166014500Y-42545000D02*
X166014500Y-41970000D01*
X155551000Y-41096000D02*
X156466000Y-40181000D01*
X155371000Y-41096000D02*
X155551000Y-41096000D01*
X148741000Y-41096000D02*
X147826000Y-40181000D01*
X148921000Y-41096000D02*
X148741000Y-41096000D01*
X147826000Y-41481000D02*
X147826000Y-40181000D01*
X147564990Y-41742010D02*
X147826000Y-41481000D01*
X147564990Y-44186990D02*
X147564990Y-41742010D01*
X148590000Y-45212000D02*
X147564990Y-44186990D01*
X155145763Y-44831263D02*
X155702000Y-45387500D01*
X154508263Y-44831263D02*
X155145763Y-44831263D01*
X153146000Y-43469000D02*
X154508263Y-44831263D01*
X153146000Y-43319000D02*
X153146000Y-43469000D01*
X124615000Y-43815000D02*
X125476000Y-43815000D01*
X123008000Y-45772000D02*
X123008000Y-45422000D01*
X123008000Y-45422000D02*
X124615000Y-43815000D01*
X134874000Y-48943500D02*
X135049500Y-48768000D01*
X134874000Y-51562000D02*
X134874000Y-48943500D01*
X147353981Y-44397999D02*
X147564990Y-44186990D01*
X142364001Y-44397999D02*
X147353981Y-44397999D01*
X155702000Y-45975000D02*
X157860000Y-48133000D01*
X155702000Y-45387500D02*
X155702000Y-45975000D01*
X163347500Y-48133000D02*
X166014500Y-45466000D01*
X157860000Y-48133000D02*
X163347500Y-48133000D01*
X136198000Y-42573000D02*
X135660500Y-42573000D01*
X136675410Y-42573000D02*
X136198000Y-42573000D01*
X138350411Y-44248001D02*
X136675410Y-42573000D01*
X140599001Y-44248001D02*
X138350411Y-44248001D01*
X141439000Y-43408002D02*
X140599001Y-44248001D01*
X141439000Y-43223000D02*
X141439000Y-43408002D01*
X141376500Y-43160500D02*
X141439000Y-43223000D01*
X141376500Y-40767000D02*
X141376500Y-43160500D01*
X139674500Y-45487500D02*
X139739000Y-45423000D01*
X139674500Y-48387000D02*
X139674500Y-45487500D01*
X136198000Y-43073000D02*
X135660500Y-43073000D01*
X136539000Y-43073000D02*
X136198000Y-43073000D01*
X138889000Y-45423000D02*
X136539000Y-43073000D01*
X139739000Y-45423000D02*
X138889000Y-45423000D01*
X130611112Y-39577612D02*
X130149500Y-39116000D01*
X130702612Y-39577612D02*
X130611112Y-39577612D01*
X132473000Y-41348000D02*
X130702612Y-39577612D01*
X132473000Y-41885500D02*
X132473000Y-41348000D01*
X164188500Y-45215000D02*
X164439500Y-45466000D01*
X159766000Y-45215000D02*
X164188500Y-45215000D01*
X164439500Y-45466000D02*
X164439500Y-42545000D01*
X164439500Y-42545000D02*
X164439500Y-39624000D01*
X134473000Y-41885500D02*
X134973000Y-41885500D01*
X136878430Y-44753430D02*
X136878430Y-45313265D01*
X135660500Y-44073000D02*
X136198000Y-44073000D01*
X136198000Y-44073000D02*
X136878430Y-44753430D01*
X135202500Y-41656000D02*
X134973000Y-41885500D01*
X136906000Y-41656000D02*
X135202500Y-41656000D01*
X127889000Y-39273000D02*
X127919000Y-39273000D01*
X127919000Y-39273000D02*
X129159000Y-40513000D01*
X159766000Y-45215000D02*
X159766000Y-46990000D01*
X129413000Y-53316000D02*
X129413000Y-51816000D01*
X127450999Y-55278001D02*
X129413000Y-53316000D01*
X127450999Y-57472001D02*
X127450999Y-55278001D01*
X128651000Y-58672002D02*
X127450999Y-57472001D01*
X128651000Y-59183000D02*
X128651000Y-58672002D01*
X167601000Y-62483000D02*
X185801000Y-62483000D01*
X166751000Y-62483000D02*
X167601000Y-62483000D01*
X148551000Y-62483000D02*
X166751000Y-62483000D01*
X147701000Y-62483000D02*
X148551000Y-62483000D01*
X128651000Y-62483000D02*
X147701000Y-62483000D01*
X131473000Y-47298000D02*
X131473000Y-46760500D01*
X131473000Y-58961000D02*
X131473000Y-47298000D01*
X128651000Y-61783000D02*
X131473000Y-58961000D01*
X128651000Y-62483000D02*
X128651000Y-61783000D01*
X148463000Y-53316000D02*
X148463000Y-51816000D01*
X146500999Y-55278001D02*
X148463000Y-53316000D01*
X146500999Y-57472001D02*
X146500999Y-55278001D01*
X147701000Y-58672002D02*
X146500999Y-57472001D01*
X147701000Y-59183000D02*
X147701000Y-58672002D01*
X167513000Y-53316000D02*
X167513000Y-51816000D01*
X165550999Y-55278001D02*
X167513000Y-53316000D01*
X165550999Y-58132999D02*
X165550999Y-55278001D01*
X166601000Y-59183000D02*
X165550999Y-58132999D01*
X166751000Y-59183000D02*
X166601000Y-59183000D01*
X186563000Y-53316000D02*
X186563000Y-51816000D01*
X184600999Y-55278001D02*
X186563000Y-53316000D01*
X184600999Y-58832999D02*
X184600999Y-55278001D01*
X184951000Y-59183000D02*
X184600999Y-58832999D01*
X185801000Y-59183000D02*
X184951000Y-59183000D01*
X129413000Y-72366000D02*
X129413000Y-70866000D01*
X127450999Y-74328001D02*
X129413000Y-72366000D01*
X127450999Y-77182999D02*
X127450999Y-74328001D01*
X128501000Y-78233000D02*
X127450999Y-77182999D01*
X128651000Y-78233000D02*
X128501000Y-78233000D01*
X129501000Y-81533000D02*
X147701000Y-81533000D01*
X128651000Y-81533000D02*
X129501000Y-81533000D01*
X147701000Y-81533000D02*
X166751000Y-81533000D01*
X124936405Y-49697055D02*
X128560460Y-46073000D01*
X118034943Y-49697055D02*
X124936405Y-49697055D01*
X128560460Y-46073000D02*
X130785500Y-46073000D01*
X127801000Y-81533000D02*
X127800000Y-81534000D01*
X128651000Y-81533000D02*
X127801000Y-81533000D01*
X127800000Y-81534000D02*
X116586000Y-81534000D01*
X116586000Y-81534000D02*
X114587060Y-79535060D01*
X114587060Y-79535060D02*
X114587060Y-53144938D01*
X114587060Y-53144938D02*
X118034943Y-49697055D01*
X148463000Y-72366000D02*
X148463000Y-70866000D01*
X146500999Y-74328001D02*
X148463000Y-72366000D01*
X146500999Y-77182999D02*
X146500999Y-74328001D01*
X147551000Y-78233000D02*
X146500999Y-77182999D01*
X147701000Y-78233000D02*
X147551000Y-78233000D01*
X167513000Y-72366000D02*
X167513000Y-70866000D01*
X165550999Y-74328001D02*
X167513000Y-72366000D01*
X165550999Y-77182999D02*
X165550999Y-74328001D01*
X166601000Y-78233000D02*
X165550999Y-77182999D01*
X166751000Y-78233000D02*
X166601000Y-78233000D01*
X129413000Y-91416000D02*
X129413000Y-89916000D01*
X127450999Y-93378001D02*
X129413000Y-91416000D01*
X127450999Y-96232999D02*
X127450999Y-93378001D01*
X128501000Y-97283000D02*
X127450999Y-96232999D01*
X128651000Y-97283000D02*
X128501000Y-97283000D01*
X176426000Y-91058000D02*
X185801000Y-91058000D01*
X166751000Y-100583000D02*
X166901000Y-100583000D01*
X166901000Y-100583000D02*
X176426000Y-91058000D01*
X148551000Y-100583000D02*
X166751000Y-100583000D01*
X147701000Y-100583000D02*
X148551000Y-100583000D01*
X128651000Y-100583000D02*
X147701000Y-100583000D01*
X127801000Y-100583000D02*
X127800000Y-100584000D01*
X128651000Y-100583000D02*
X127801000Y-100583000D01*
X128424050Y-45573000D02*
X130785500Y-45573000D01*
X124750004Y-49247046D02*
X128424050Y-45573000D01*
X127673000Y-100711000D02*
X117221000Y-100711000D01*
X127801000Y-100583000D02*
X127673000Y-100711000D01*
X114137050Y-97627050D02*
X114137051Y-52958537D01*
X114137051Y-52958537D02*
X117848541Y-49247047D01*
X117221000Y-100711000D02*
X114137050Y-97627050D01*
X117848541Y-49247047D02*
X124750004Y-49247046D01*
X148463000Y-91416000D02*
X148463000Y-89916000D01*
X146500999Y-93378001D02*
X148463000Y-91416000D01*
X146500999Y-95572001D02*
X146500999Y-93378001D01*
X147701000Y-96772002D02*
X146500999Y-95572001D01*
X147701000Y-97283000D02*
X147701000Y-96772002D01*
X167513000Y-91416000D02*
X167513000Y-89916000D01*
X165550999Y-93378001D02*
X167513000Y-91416000D01*
X165550999Y-96232999D02*
X165550999Y-93378001D01*
X166601000Y-97283000D02*
X165550999Y-96232999D01*
X166751000Y-97283000D02*
X166601000Y-97283000D01*
X186563000Y-81891000D02*
X186563000Y-80391000D01*
X184600999Y-83853001D02*
X186563000Y-81891000D01*
X184600999Y-86707999D02*
X184600999Y-83853001D01*
X185651000Y-87758000D02*
X184600999Y-86707999D01*
X185801000Y-87758000D02*
X185651000Y-87758000D01*
X129413000Y-110466000D02*
X129413000Y-108966000D01*
X127450999Y-112428001D02*
X129413000Y-110466000D01*
X127450999Y-115282999D02*
X127450999Y-112428001D01*
X128501000Y-116333000D02*
X127450999Y-115282999D01*
X128651000Y-116333000D02*
X128501000Y-116333000D01*
X129501000Y-119633000D02*
X147701000Y-119633000D01*
X128651000Y-119633000D02*
X129501000Y-119633000D01*
X147701000Y-119633000D02*
X166751000Y-119633000D01*
X127878410Y-43573000D02*
X130785500Y-43573000D01*
X124004400Y-47447010D02*
X127878410Y-43573000D01*
X127801000Y-119633000D02*
X127800000Y-119634000D01*
X128651000Y-119633000D02*
X127801000Y-119633000D01*
X127800000Y-119634000D02*
X116078000Y-119634000D01*
X117102937Y-47447011D02*
X124004400Y-47447010D01*
X116078000Y-119634000D02*
X112337010Y-115893010D01*
X112337010Y-115893010D02*
X112337010Y-52212938D01*
X112337010Y-52212938D02*
X117102937Y-47447011D01*
X148463000Y-110466000D02*
X148463000Y-108966000D01*
X146500999Y-112428001D02*
X148463000Y-110466000D01*
X146500999Y-115282999D02*
X146500999Y-112428001D01*
X147551000Y-116333000D02*
X146500999Y-115282999D01*
X147701000Y-116333000D02*
X147551000Y-116333000D01*
X167513000Y-110466000D02*
X167513000Y-108966000D01*
X165550999Y-112428001D02*
X167513000Y-110466000D01*
X165550999Y-115282999D02*
X165550999Y-112428001D01*
X166601000Y-116333000D02*
X165550999Y-115282999D01*
X166751000Y-116333000D02*
X166601000Y-116333000D01*
X138938000Y-129516000D02*
X138938000Y-128016000D01*
X136975999Y-131478001D02*
X138938000Y-129516000D01*
X136975999Y-134332999D02*
X136975999Y-131478001D01*
X138026000Y-135383000D02*
X136975999Y-134332999D01*
X138176000Y-135383000D02*
X138026000Y-135383000D01*
X139026000Y-138683000D02*
X166751000Y-138683000D01*
X138176000Y-138683000D02*
X139026000Y-138683000D01*
X176426000Y-129158000D02*
X185801000Y-129158000D01*
X166751000Y-138683000D02*
X166901000Y-138683000D01*
X166901000Y-138683000D02*
X176426000Y-129158000D01*
X185801000Y-129158000D02*
X185801000Y-129858000D01*
X137325000Y-138684000D02*
X137326000Y-138683000D01*
X115570000Y-138684000D02*
X137325000Y-138684000D01*
X130785500Y-43073000D02*
X127742000Y-43073000D01*
X123817999Y-46997001D02*
X116916537Y-46997001D01*
X137326000Y-138683000D02*
X138176000Y-138683000D01*
X116916537Y-46997001D02*
X111887000Y-52026538D01*
X127742000Y-43073000D02*
X123817999Y-46997001D01*
X111887000Y-52026538D02*
X111887000Y-135001000D01*
X111887000Y-135001000D02*
X115570000Y-138684000D01*
X167513000Y-129516000D02*
X167513000Y-128016000D01*
X165550999Y-131478001D02*
X167513000Y-129516000D01*
X165550999Y-135032999D02*
X165550999Y-131478001D01*
X165901000Y-135383000D02*
X165550999Y-135032999D01*
X166751000Y-135383000D02*
X165901000Y-135383000D01*
X186563000Y-119991000D02*
X186563000Y-118491000D01*
X184600999Y-121953001D02*
X186563000Y-119991000D01*
X184600999Y-124807999D02*
X184600999Y-121953001D01*
X185651000Y-125858000D02*
X184600999Y-124807999D01*
X185801000Y-125858000D02*
X185651000Y-125858000D01*
X149696000Y-41096000D02*
X149696000Y-42201000D01*
X149696000Y-42201000D02*
X149606000Y-42291000D01*
X154596000Y-41096000D02*
X154596000Y-42520000D01*
X154596000Y-42520000D02*
X154621000Y-42545000D01*
X154751000Y-42415000D02*
X154621000Y-42545000D01*
X159766000Y-42415000D02*
X154751000Y-42415000D01*
X151146000Y-43119000D02*
X151064000Y-43119000D01*
X151064000Y-43119000D02*
X150241000Y-43942000D01*
X126011000Y-130556000D02*
X126011000Y-128170000D01*
X126011000Y-128170000D02*
X125984000Y-128143000D01*
X116486000Y-54356000D02*
X116486000Y-56488000D01*
X116486000Y-56488000D02*
X116459000Y-56515000D01*
X116459000Y-73379000D02*
X116486000Y-73406000D01*
X116459000Y-71247000D02*
X116459000Y-73379000D01*
X116459000Y-92429000D02*
X116486000Y-92456000D01*
X116459000Y-90424000D02*
X116459000Y-92429000D01*
X116459000Y-111479000D02*
X116486000Y-111506000D01*
X116459000Y-109474000D02*
X116459000Y-111479000D01*
X128014820Y-44073000D02*
X130785500Y-44073000D01*
X112787020Y-105802020D02*
X112787020Y-53709980D01*
X116459000Y-109474000D02*
X112787020Y-105802020D01*
X112787020Y-53709980D02*
X112787022Y-53709978D01*
X112787022Y-53709978D02*
X112787024Y-52399334D01*
X124190801Y-47897019D02*
X128014820Y-44073000D01*
X112787024Y-52399334D02*
X117289339Y-47897019D01*
X117289339Y-47897019D02*
X124190801Y-47897019D01*
X154586000Y-54356000D02*
X152654000Y-54356000D01*
X154567001Y-73387001D02*
X154586000Y-73406000D01*
X152254001Y-73387001D02*
X154567001Y-73387001D01*
X152273000Y-92456000D02*
X154586000Y-92456000D01*
X152273000Y-111506000D02*
X154586000Y-111506000D01*
X152527000Y-130556000D02*
X154586000Y-130556000D01*
X124563603Y-48797037D02*
X128287640Y-45073000D01*
X117662141Y-48797037D02*
X124563603Y-48797037D01*
X152273000Y-109665998D02*
X149297991Y-106690989D01*
X128287640Y-45073000D02*
X130785500Y-45073000D01*
X113687042Y-52772136D02*
X117662141Y-48797037D01*
X152273000Y-111506000D02*
X152273000Y-109665998D01*
X149297991Y-106690989D02*
X114948809Y-106690989D01*
X114948809Y-106690989D02*
X113687040Y-105429220D01*
X113687040Y-105429220D02*
X113687040Y-54681368D01*
X113687040Y-54681368D02*
X113687042Y-52772136D01*
X135536000Y-54356000D02*
X133223000Y-54356000D01*
X133223000Y-73406000D02*
X135536000Y-73406000D01*
X133096000Y-92456000D02*
X135536000Y-92456000D01*
X133096000Y-111506000D02*
X135536000Y-111506000D01*
X128151230Y-44573000D02*
X130785500Y-44573000D01*
X124377202Y-48347028D02*
X128151230Y-44573000D01*
X113237033Y-52585735D02*
X117475739Y-48347029D01*
X133096000Y-109538998D02*
X130698001Y-107140999D01*
X133096000Y-111506000D02*
X133096000Y-109538998D01*
X114762409Y-107140999D02*
X113237030Y-105615620D01*
X117475739Y-48347029D02*
X124377202Y-48347028D01*
X113237030Y-105615620D02*
X113237030Y-54494968D01*
X130698001Y-107140999D02*
X114762409Y-107140999D01*
X113237030Y-54494968D02*
X113237033Y-52585735D01*
X173636000Y-54356000D02*
X171196000Y-54356000D01*
X171196000Y-82931000D02*
X173636000Y-82931000D01*
X171196000Y-121031000D02*
X173636000Y-121031000D01*
X131973000Y-46760500D02*
X131973000Y-56281000D01*
X171196000Y-54921685D02*
X171196000Y-54356000D01*
X171196000Y-56373002D02*
X171196000Y-54921685D01*
X165861003Y-61707999D02*
X171196000Y-56373002D01*
X137399999Y-61707999D02*
X165861003Y-61707999D01*
X131973000Y-56281000D02*
X137399999Y-61707999D01*
X129314000Y-42573000D02*
X130785500Y-42573000D01*
X127889000Y-41148000D02*
X129314000Y-42573000D01*
X119308000Y-39922000D02*
X119308000Y-39572000D01*
X120534000Y-41148000D02*
X119308000Y-39922000D01*
X127889000Y-41148000D02*
X120534000Y-41148000D01*
X132973000Y-48566500D02*
X132973000Y-46760500D01*
X133174500Y-48768000D02*
X132973000Y-48566500D01*
X151130000Y-45035000D02*
X151146000Y-45019000D01*
X151130000Y-46609000D02*
X151130000Y-45035000D01*
X152396000Y-42071000D02*
X151922000Y-42545000D01*
X152396000Y-41096000D02*
X152396000Y-42071000D01*
X151396000Y-42071000D02*
X151396000Y-41096000D01*
X151870000Y-42545000D02*
X151396000Y-42071000D01*
X151922000Y-42545000D02*
X151870000Y-42545000D01*
X151196000Y-45019000D02*
X151146000Y-45019000D01*
X151922000Y-44293000D02*
X151196000Y-45019000D01*
X151922000Y-42545000D02*
X151922000Y-44293000D01*
D30*
X133948000Y-41860500D02*
X133973000Y-41885500D01*
X151130000Y-48484000D02*
X151921000Y-49275000D01*
X151921000Y-51262000D02*
X151621000Y-51562000D01*
X151921000Y-49275000D02*
X151921000Y-51262000D01*
D29*
X133973000Y-41348000D02*
X133973000Y-41885500D01*
X133973000Y-40146691D02*
X133973000Y-41348000D01*
X134256000Y-39863691D02*
X133973000Y-40146691D01*
X134256000Y-39298006D02*
X134256000Y-39863691D01*
X152896000Y-40121000D02*
X152896000Y-41096000D01*
X152653000Y-39878000D02*
X152896000Y-40121000D01*
X152139000Y-39878000D02*
X152653000Y-39878000D01*
X151896000Y-40121000D02*
X152139000Y-39878000D01*
X151896000Y-41096000D02*
X151896000Y-40121000D01*
X153162000Y-45035000D02*
X153146000Y-45019000D01*
X153162000Y-46609000D02*
X153162000Y-45035000D01*
X152896000Y-42207410D02*
X152372010Y-42731400D01*
X152896000Y-41096000D02*
X152896000Y-42207410D01*
X153096000Y-45019000D02*
X153146000Y-45019000D01*
X152372010Y-44295010D02*
X153096000Y-45019000D01*
X152372010Y-42731400D02*
X152372010Y-44295010D01*
D30*
X133498000Y-41860500D02*
X133473000Y-41885500D01*
X153162000Y-48484000D02*
X152371000Y-49275000D01*
X152371000Y-51262000D02*
X152671000Y-51562000D01*
X152371000Y-49275000D02*
X152371000Y-51262000D01*
D29*
X133473000Y-41348000D02*
X133473000Y-41885500D01*
X133473000Y-40130691D02*
X133473000Y-41348000D01*
X133206000Y-39863691D02*
X133473000Y-40130691D01*
X133206000Y-39298006D02*
X133206000Y-39863691D01*
X150896000Y-42071000D02*
X150896000Y-41096000D01*
X149630000Y-43337000D02*
X150896000Y-42071000D01*
X148590000Y-43337000D02*
X149630000Y-43337000D01*
X153896000Y-41096000D02*
X153896000Y-43279000D01*
X154129500Y-43512500D02*
X155702000Y-43512500D01*
X153896000Y-43279000D02*
X154129500Y-43512500D01*
D31*
G36*
X155331000Y-35874000D02*
G01*
X156339000Y-35874000D01*
X156339000Y-35854000D01*
X156566000Y-35854000D01*
X156566000Y-37370419D01*
X156568767Y-37398516D01*
X156568735Y-37403137D01*
X156569635Y-37412309D01*
X156585180Y-37560210D01*
X156597203Y-37618780D01*
X156608416Y-37677563D01*
X156611079Y-37686385D01*
X156655055Y-37828452D01*
X156678240Y-37883607D01*
X156700645Y-37939062D01*
X156704972Y-37947199D01*
X156775705Y-38078017D01*
X156809151Y-38127603D01*
X156841911Y-38177665D01*
X156847735Y-38184806D01*
X156942532Y-38299394D01*
X156984947Y-38341514D01*
X157026829Y-38384283D01*
X157033930Y-38390157D01*
X157099000Y-38443226D01*
X157099000Y-38686850D01*
X156990976Y-38616724D01*
X156767874Y-38536881D01*
X156593000Y-38663046D01*
X156593000Y-40054000D01*
X156613000Y-40054000D01*
X156613000Y-40308000D01*
X156593000Y-40308000D01*
X156593000Y-40328000D01*
X156339000Y-40328000D01*
X156339000Y-40308000D01*
X156319000Y-40308000D01*
X156319000Y-40054000D01*
X156339000Y-40054000D01*
X156339000Y-38663046D01*
X156164126Y-38536881D01*
X155941024Y-38616724D01*
X155753236Y-38738631D01*
X155608884Y-38879206D01*
X155490731Y-38800259D01*
X155316022Y-38727892D01*
X155130552Y-38691000D01*
X154941448Y-38691000D01*
X154755978Y-38727892D01*
X154581269Y-38800259D01*
X154424036Y-38905319D01*
X154290319Y-39039036D01*
X154185259Y-39196269D01*
X154112892Y-39370978D01*
X154076000Y-39556448D01*
X154076000Y-39735883D01*
X154046000Y-39732928D01*
X153746000Y-39732928D01*
X153646000Y-39742777D01*
X153550566Y-39733378D01*
X153530974Y-39696724D01*
X153436001Y-39580999D01*
X153406998Y-39557197D01*
X153216804Y-39367003D01*
X153193001Y-39337999D01*
X153077276Y-39243026D01*
X152945247Y-39172454D01*
X152801986Y-39128997D01*
X152690333Y-39118000D01*
X152690322Y-39118000D01*
X152653000Y-39114324D01*
X152615678Y-39118000D01*
X152176323Y-39118000D01*
X152139000Y-39114324D01*
X152101677Y-39118000D01*
X152101667Y-39118000D01*
X151990014Y-39128997D01*
X151846753Y-39172454D01*
X151714724Y-39243026D01*
X151598999Y-39337999D01*
X151575196Y-39367003D01*
X151384998Y-39557201D01*
X151356000Y-39580999D01*
X151332202Y-39609997D01*
X151332201Y-39609998D01*
X151261026Y-39696724D01*
X151241434Y-39733378D01*
X151146000Y-39742777D01*
X151046000Y-39732928D01*
X150746000Y-39732928D01*
X150646000Y-39742777D01*
X150546000Y-39732928D01*
X150246000Y-39732928D01*
X150216000Y-39735883D01*
X150216000Y-39556448D01*
X150179108Y-39370978D01*
X150106741Y-39196269D01*
X150001681Y-39039036D01*
X149867964Y-38905319D01*
X149710731Y-38800259D01*
X149536022Y-38727892D01*
X149350552Y-38691000D01*
X149161448Y-38691000D01*
X148975978Y-38727892D01*
X148801269Y-38800259D01*
X148683116Y-38879206D01*
X148538764Y-38738631D01*
X148350976Y-38616724D01*
X148127874Y-38536881D01*
X147953000Y-38663046D01*
X147953000Y-40054000D01*
X147973000Y-40054000D01*
X147973000Y-40308000D01*
X147953000Y-40308000D01*
X147953000Y-40328000D01*
X147699000Y-40328000D01*
X147699000Y-40308000D01*
X147679000Y-40308000D01*
X147679000Y-40054000D01*
X147699000Y-40054000D01*
X147699000Y-38663046D01*
X147524126Y-38536881D01*
X147320000Y-38609933D01*
X147320000Y-38328826D01*
X147350283Y-38299171D01*
X147356157Y-38292070D01*
X147450149Y-38176823D01*
X147483229Y-38127033D01*
X147517048Y-38077643D01*
X147521431Y-38069536D01*
X147591249Y-37938228D01*
X147614034Y-37882946D01*
X147637610Y-37827941D01*
X147640335Y-37819138D01*
X147683318Y-37676769D01*
X147694934Y-37618107D01*
X147707375Y-37559576D01*
X147708338Y-37550411D01*
X147722850Y-37402404D01*
X147722850Y-37402402D01*
X147726000Y-37370419D01*
X147726000Y-36128000D01*
X147953000Y-36128000D01*
X147953000Y-37268954D01*
X148127874Y-37395119D01*
X148350976Y-37315276D01*
X148538764Y-37193369D01*
X148699161Y-37037169D01*
X148826003Y-36852678D01*
X148914415Y-36646987D01*
X148961000Y-36428000D01*
X148961000Y-36128000D01*
X155331000Y-36128000D01*
X155331000Y-36428000D01*
X155377585Y-36646987D01*
X155465997Y-36852678D01*
X155592839Y-37037169D01*
X155753236Y-37193369D01*
X155941024Y-37315276D01*
X156164126Y-37395119D01*
X156339000Y-37268954D01*
X156339000Y-36128000D01*
X155331000Y-36128000D01*
X148961000Y-36128000D01*
X147953000Y-36128000D01*
X147726000Y-36128000D01*
X147726000Y-35854000D01*
X147953000Y-35854000D01*
X147953000Y-35874000D01*
X148961000Y-35874000D01*
X148961000Y-35585000D01*
X155331000Y-35585000D01*
X155331000Y-35874000D01*
X155331000Y-35874000D01*
G37*
X155331000Y-35874000D02*
X156339000Y-35874000D01*
X156339000Y-35854000D01*
X156566000Y-35854000D01*
X156566000Y-37370419D01*
X156568767Y-37398516D01*
X156568735Y-37403137D01*
X156569635Y-37412309D01*
X156585180Y-37560210D01*
X156597203Y-37618780D01*
X156608416Y-37677563D01*
X156611079Y-37686385D01*
X156655055Y-37828452D01*
X156678240Y-37883607D01*
X156700645Y-37939062D01*
X156704972Y-37947199D01*
X156775705Y-38078017D01*
X156809151Y-38127603D01*
X156841911Y-38177665D01*
X156847735Y-38184806D01*
X156942532Y-38299394D01*
X156984947Y-38341514D01*
X157026829Y-38384283D01*
X157033930Y-38390157D01*
X157099000Y-38443226D01*
X157099000Y-38686850D01*
X156990976Y-38616724D01*
X156767874Y-38536881D01*
X156593000Y-38663046D01*
X156593000Y-40054000D01*
X156613000Y-40054000D01*
X156613000Y-40308000D01*
X156593000Y-40308000D01*
X156593000Y-40328000D01*
X156339000Y-40328000D01*
X156339000Y-40308000D01*
X156319000Y-40308000D01*
X156319000Y-40054000D01*
X156339000Y-40054000D01*
X156339000Y-38663046D01*
X156164126Y-38536881D01*
X155941024Y-38616724D01*
X155753236Y-38738631D01*
X155608884Y-38879206D01*
X155490731Y-38800259D01*
X155316022Y-38727892D01*
X155130552Y-38691000D01*
X154941448Y-38691000D01*
X154755978Y-38727892D01*
X154581269Y-38800259D01*
X154424036Y-38905319D01*
X154290319Y-39039036D01*
X154185259Y-39196269D01*
X154112892Y-39370978D01*
X154076000Y-39556448D01*
X154076000Y-39735883D01*
X154046000Y-39732928D01*
X153746000Y-39732928D01*
X153646000Y-39742777D01*
X153550566Y-39733378D01*
X153530974Y-39696724D01*
X153436001Y-39580999D01*
X153406998Y-39557197D01*
X153216804Y-39367003D01*
X153193001Y-39337999D01*
X153077276Y-39243026D01*
X152945247Y-39172454D01*
X152801986Y-39128997D01*
X152690333Y-39118000D01*
X152690322Y-39118000D01*
X152653000Y-39114324D01*
X152615678Y-39118000D01*
X152176323Y-39118000D01*
X152139000Y-39114324D01*
X152101677Y-39118000D01*
X152101667Y-39118000D01*
X151990014Y-39128997D01*
X151846753Y-39172454D01*
X151714724Y-39243026D01*
X151598999Y-39337999D01*
X151575196Y-39367003D01*
X151384998Y-39557201D01*
X151356000Y-39580999D01*
X151332202Y-39609997D01*
X151332201Y-39609998D01*
X151261026Y-39696724D01*
X151241434Y-39733378D01*
X151146000Y-39742777D01*
X151046000Y-39732928D01*
X150746000Y-39732928D01*
X150646000Y-39742777D01*
X150546000Y-39732928D01*
X150246000Y-39732928D01*
X150216000Y-39735883D01*
X150216000Y-39556448D01*
X150179108Y-39370978D01*
X150106741Y-39196269D01*
X150001681Y-39039036D01*
X149867964Y-38905319D01*
X149710731Y-38800259D01*
X149536022Y-38727892D01*
X149350552Y-38691000D01*
X149161448Y-38691000D01*
X148975978Y-38727892D01*
X148801269Y-38800259D01*
X148683116Y-38879206D01*
X148538764Y-38738631D01*
X148350976Y-38616724D01*
X148127874Y-38536881D01*
X147953000Y-38663046D01*
X147953000Y-40054000D01*
X147973000Y-40054000D01*
X147973000Y-40308000D01*
X147953000Y-40308000D01*
X147953000Y-40328000D01*
X147699000Y-40328000D01*
X147699000Y-40308000D01*
X147679000Y-40308000D01*
X147679000Y-40054000D01*
X147699000Y-40054000D01*
X147699000Y-38663046D01*
X147524126Y-38536881D01*
X147320000Y-38609933D01*
X147320000Y-38328826D01*
X147350283Y-38299171D01*
X147356157Y-38292070D01*
X147450149Y-38176823D01*
X147483229Y-38127033D01*
X147517048Y-38077643D01*
X147521431Y-38069536D01*
X147591249Y-37938228D01*
X147614034Y-37882946D01*
X147637610Y-37827941D01*
X147640335Y-37819138D01*
X147683318Y-37676769D01*
X147694934Y-37618107D01*
X147707375Y-37559576D01*
X147708338Y-37550411D01*
X147722850Y-37402404D01*
X147722850Y-37402402D01*
X147726000Y-37370419D01*
X147726000Y-36128000D01*
X147953000Y-36128000D01*
X147953000Y-37268954D01*
X148127874Y-37395119D01*
X148350976Y-37315276D01*
X148538764Y-37193369D01*
X148699161Y-37037169D01*
X148826003Y-36852678D01*
X148914415Y-36646987D01*
X148961000Y-36428000D01*
X148961000Y-36128000D01*
X155331000Y-36128000D01*
X155331000Y-36428000D01*
X155377585Y-36646987D01*
X155465997Y-36852678D01*
X155592839Y-37037169D01*
X155753236Y-37193369D01*
X155941024Y-37315276D01*
X156164126Y-37395119D01*
X156339000Y-37268954D01*
X156339000Y-36128000D01*
X155331000Y-36128000D01*
X148961000Y-36128000D01*
X147953000Y-36128000D01*
X147726000Y-36128000D01*
X147726000Y-35854000D01*
X147953000Y-35854000D01*
X147953000Y-35874000D01*
X148961000Y-35874000D01*
X148961000Y-35585000D01*
X155331000Y-35585000D01*
X155331000Y-35874000D01*
M02*
