G04 #@! TF.GenerationSoftware,KiCad,Pcbnew,(5.1.4)-1*
G04 #@! TF.CreationDate,2022-02-13T22:58:11-05:00*
G04 #@! TF.ProjectId,INT-1,494e542d-312e-46b6-9963-61645f706362,rev?*
G04 #@! TF.SameCoordinates,Original*
G04 #@! TF.FileFunction,Copper,L1,Top*
G04 #@! TF.FilePolarity,Positive*
%FSLAX46Y46*%
G04 Gerber Fmt 4.6, Leading zero omitted, Abs format (unit mm)*
G04 Created by KiCad (PCBNEW (5.1.4)-1) date 2022-02-13 22:58:11*
%MOMM*%
%LPD*%
G04 APERTURE LIST*
%ADD10C,3.500000*%
%ADD11O,1.000000X2.100000*%
%ADD12O,1.000000X1.600000*%
%ADD13C,0.800000*%
%ADD14C,0.250000*%
%ADD15C,0.200000*%
G04 APERTURE END LIST*
D10*
X114681000Y-142875000D03*
X189484000Y-142875000D03*
X189484000Y-41275000D03*
X114681000Y-41275000D03*
D11*
X147826000Y-40181000D03*
X156466000Y-40181000D03*
D12*
X147826000Y-36001000D03*
X156466000Y-36001000D03*
D13*
X125476000Y-43815000D03*
X134874000Y-51562000D03*
X136878430Y-45313265D03*
X136906000Y-41656000D03*
X129159000Y-40513000D03*
X159766000Y-46990000D03*
X149606000Y-42291000D03*
X154621000Y-42545000D03*
X150241000Y-43942000D03*
X125984000Y-128143000D03*
X116459000Y-56515000D03*
X116459000Y-71247000D03*
X116459000Y-90424000D03*
X116459000Y-109474000D03*
X152654000Y-54356000D03*
X152254001Y-73387001D03*
X152273000Y-92456000D03*
X152273000Y-111506000D03*
X152527000Y-130556000D03*
X133223000Y-54356000D03*
X133223000Y-73406000D03*
X133096000Y-92456000D03*
X133096000Y-111506000D03*
X171196000Y-54356000D03*
X171196000Y-82931000D03*
X171196000Y-121031000D03*
X151621000Y-51562000D03*
X134256000Y-39298006D03*
X152671000Y-51562000D03*
X133206000Y-39298006D03*
D14*
X125476000Y-43815000D02*
X127127000Y-43815000D01*
X127127000Y-43815000D02*
X134874000Y-51562000D01*
X136878430Y-45313265D02*
X136878430Y-41683570D01*
X136878430Y-41683570D02*
X136906000Y-41656000D01*
X136906000Y-41090315D02*
X136906000Y-41656000D01*
X136906000Y-40875004D02*
X136906000Y-41090315D01*
X134604001Y-38573005D02*
X136906000Y-40875004D01*
X131664680Y-38573005D02*
X134604001Y-38573005D01*
X129724685Y-40513000D02*
X131664680Y-38573005D01*
X129159000Y-40513000D02*
X129724685Y-40513000D01*
X136878430Y-45878950D02*
X137922000Y-46922520D01*
X136878430Y-45313265D02*
X136878430Y-45878950D01*
X137922000Y-46922520D02*
X137922000Y-49022000D01*
X159366001Y-47389999D02*
X159766000Y-46990000D01*
X156765001Y-49990999D02*
X159366001Y-47389999D01*
X138890999Y-49990999D02*
X156765001Y-49990999D01*
X137922000Y-49022000D02*
X138890999Y-49990999D01*
X149860000Y-42545000D02*
X149606000Y-42291000D01*
X154621000Y-42545000D02*
X149860000Y-42545000D01*
X150241000Y-42926000D02*
X149606000Y-42291000D01*
X150241000Y-43942000D02*
X150241000Y-42926000D01*
X116459000Y-56515000D02*
X116459000Y-71247000D01*
X116459000Y-71247000D02*
X116459000Y-90424000D01*
X116459000Y-90424000D02*
X116459000Y-109474000D01*
X116459000Y-118618000D02*
X125984000Y-128143000D01*
X116459000Y-109474000D02*
X116459000Y-118618000D01*
X152254001Y-54755999D02*
X152254001Y-73387001D01*
X152654000Y-54356000D02*
X152254001Y-54755999D01*
X152254001Y-73387001D02*
X152254001Y-92437001D01*
X152254001Y-92437001D02*
X152273000Y-92456000D01*
X152273000Y-92456000D02*
X152273000Y-111506000D01*
X152273000Y-112071685D02*
X152527000Y-112325685D01*
X152273000Y-111506000D02*
X152273000Y-112071685D01*
X152527000Y-112325685D02*
X152527000Y-130556000D01*
X133223000Y-54356000D02*
X133223000Y-73406000D01*
X133223000Y-73971685D02*
X133096000Y-74098685D01*
X133223000Y-73406000D02*
X133223000Y-73971685D01*
X133096000Y-74098685D02*
X133096000Y-92456000D01*
X133096000Y-92456000D02*
X133096000Y-111506000D01*
X171196000Y-54356000D02*
X171196000Y-54921685D01*
X171196000Y-54921685D02*
X171196000Y-82931000D01*
X171196000Y-82931000D02*
X171196000Y-121031000D01*
D15*
X133956000Y-39598006D02*
X134256000Y-39298006D01*
X133956000Y-46134800D02*
X133956000Y-39598006D01*
X150274800Y-53877000D02*
X141698200Y-53877000D01*
X151921000Y-52230800D02*
X150274800Y-53877000D01*
X151921000Y-51862000D02*
X151921000Y-52230800D01*
X151621000Y-51562000D02*
X151921000Y-51862000D01*
X141698200Y-53877000D02*
X133956000Y-46134800D01*
X133506000Y-46321200D02*
X133506000Y-39598006D01*
X141511800Y-54327000D02*
X133506000Y-46321200D01*
X133506000Y-39598006D02*
X133206000Y-39298006D01*
X152371000Y-51862000D02*
X152371000Y-52417200D01*
X152371000Y-52417200D02*
X150461200Y-54327000D01*
X152671000Y-51562000D02*
X152371000Y-51862000D01*
X150461200Y-54327000D02*
X141511800Y-54327000D01*
M02*
