M48
; DRILL file {KiCad (5.1.4)-1} date 02/13/22 22:58:13
; FORMAT={-:-/ absolute / inch / decimal}
; #@! TF.CreationDate,2022-02-13T22:58:13-05:00
; #@! TF.GenerationSoftware,Kicad,Pcbnew,(5.1.4)-1
; #@! TF.FileFunction,Plated,1,2,PTH
FMAT,2
INCH
T1C0.0157
T2C0.0236
T3C0.0866
%
G90
G05
T1
X4.585Y-2.225
X4.585Y-2.805
X4.585Y-3.56
X4.585Y-4.31
X4.94Y-1.725
X4.96Y-5.045
X5.085Y-1.595
X5.24Y-3.64
X5.24Y-4.39
X5.2443Y-1.5472
X5.245Y-2.14
X5.245Y-2.89
X5.2857Y-1.5472
X5.31Y-2.03
X5.3889Y-1.784
X5.39Y-1.64
X5.89Y-1.665
X5.915Y-1.73
X5.9693Y-2.03
X5.9943Y-2.8893
X5.995Y-3.64
X5.995Y-4.39
X6.005Y-5.14
X6.01Y-2.14
X6.0107Y-2.03
X6.0874Y-1.675
X6.29Y-1.85
X6.74Y-2.14
X6.74Y-3.265
X6.74Y-4.765
T3
X4.515Y-5.625
X7.46Y-5.625
X7.46Y-1.625
X4.515Y-1.625
T2
G00X5.8199Y-1.4056
M15
G01X5.8199Y-1.4292
M16
G05
G00X5.8199Y-1.5603
M15
G01X5.8199Y-1.6036
M16
G05
G00X6.1601Y-1.4056
M15
G01X6.1601Y-1.4292
M16
G05
G00X6.1601Y-1.5603
M15
G01X6.1601Y-1.6036
M16
G05
T0
M30
