G04 #@! TF.GenerationSoftware,KiCad,Pcbnew,(5.1.4)-1*
G04 #@! TF.CreationDate,2022-02-13T22:58:11-05:00*
G04 #@! TF.ProjectId,INT-1,494e542d-312e-46b6-9963-61645f706362,rev?*
G04 #@! TF.SameCoordinates,Original*
G04 #@! TF.FileFunction,Legend,Top*
G04 #@! TF.FilePolarity,Positive*
%FSLAX46Y46*%
G04 Gerber Fmt 4.6, Leading zero omitted, Abs format (unit mm)*
G04 Created by KiCad (PCBNEW (5.1.4)-1) date 2022-02-13 22:58:11*
%MOMM*%
%LPD*%
G04 APERTURE LIST*
%ADD10C,0.150000*%
%ADD11C,0.300000*%
G04 APERTURE END LIST*
D10*
X152179619Y-144851380D02*
X152179619Y-143851380D01*
X152655809Y-144851380D02*
X152655809Y-143851380D01*
X153227238Y-144851380D01*
X153227238Y-143851380D01*
X153560571Y-143851380D02*
X154132000Y-143851380D01*
X153846285Y-144851380D02*
X153846285Y-143851380D01*
X154465333Y-144470428D02*
X155227238Y-144470428D01*
X156227238Y-144851380D02*
X155655809Y-144851380D01*
X155941523Y-144851380D02*
X155941523Y-143851380D01*
X155846285Y-143994238D01*
X155751047Y-144089476D01*
X155655809Y-144137095D01*
X157417714Y-144851380D02*
X157417714Y-143851380D01*
X157989142Y-144851380D02*
X157560571Y-144279952D01*
X157989142Y-143851380D02*
X157417714Y-144422809D01*
X158798666Y-144803761D02*
X158703428Y-144851380D01*
X158512952Y-144851380D01*
X158417714Y-144803761D01*
X158370095Y-144708523D01*
X158370095Y-144327571D01*
X158417714Y-144232333D01*
X158512952Y-144184714D01*
X158703428Y-144184714D01*
X158798666Y-144232333D01*
X158846285Y-144327571D01*
X158846285Y-144422809D01*
X158370095Y-144518047D01*
X159179619Y-144184714D02*
X159417714Y-144851380D01*
X159655809Y-144184714D02*
X159417714Y-144851380D01*
X159322476Y-145089476D01*
X159274857Y-145137095D01*
X159179619Y-145184714D01*
X160036761Y-144184714D02*
X160036761Y-145184714D01*
X160036761Y-144232333D02*
X160132000Y-144184714D01*
X160322476Y-144184714D01*
X160417714Y-144232333D01*
X160465333Y-144279952D01*
X160512952Y-144375190D01*
X160512952Y-144660904D01*
X160465333Y-144756142D01*
X160417714Y-144803761D01*
X160322476Y-144851380D01*
X160132000Y-144851380D01*
X160036761Y-144803761D01*
X161370095Y-144851380D02*
X161370095Y-144327571D01*
X161322476Y-144232333D01*
X161227238Y-144184714D01*
X161036761Y-144184714D01*
X160941523Y-144232333D01*
X161370095Y-144803761D02*
X161274857Y-144851380D01*
X161036761Y-144851380D01*
X160941523Y-144803761D01*
X160893904Y-144708523D01*
X160893904Y-144613285D01*
X160941523Y-144518047D01*
X161036761Y-144470428D01*
X161274857Y-144470428D01*
X161370095Y-144422809D01*
X162274857Y-144851380D02*
X162274857Y-143851380D01*
X162274857Y-144803761D02*
X162179619Y-144851380D01*
X161989142Y-144851380D01*
X161893904Y-144803761D01*
X161846285Y-144756142D01*
X161798666Y-144660904D01*
X161798666Y-144375190D01*
X161846285Y-144279952D01*
X161893904Y-144232333D01*
X161989142Y-144184714D01*
X162179619Y-144184714D01*
X162274857Y-144232333D01*
X163512952Y-144851380D02*
X163512952Y-143851380D01*
X163893904Y-143851380D01*
X163989142Y-143899000D01*
X164036761Y-143946619D01*
X164084380Y-144041857D01*
X164084380Y-144184714D01*
X164036761Y-144279952D01*
X163989142Y-144327571D01*
X163893904Y-144375190D01*
X163512952Y-144375190D01*
X165084380Y-144756142D02*
X165036761Y-144803761D01*
X164893904Y-144851380D01*
X164798666Y-144851380D01*
X164655809Y-144803761D01*
X164560571Y-144708523D01*
X164512952Y-144613285D01*
X164465333Y-144422809D01*
X164465333Y-144279952D01*
X164512952Y-144089476D01*
X164560571Y-143994238D01*
X164655809Y-143899000D01*
X164798666Y-143851380D01*
X164893904Y-143851380D01*
X165036761Y-143899000D01*
X165084380Y-143946619D01*
X165846285Y-144327571D02*
X165989142Y-144375190D01*
X166036761Y-144422809D01*
X166084380Y-144518047D01*
X166084380Y-144660904D01*
X166036761Y-144756142D01*
X165989142Y-144803761D01*
X165893904Y-144851380D01*
X165512952Y-144851380D01*
X165512952Y-143851380D01*
X165846285Y-143851380D01*
X165941523Y-143899000D01*
X165989142Y-143946619D01*
X166036761Y-144041857D01*
X166036761Y-144137095D01*
X165989142Y-144232333D01*
X165941523Y-144279952D01*
X165846285Y-144327571D01*
X165512952Y-144327571D01*
X167846285Y-144851380D02*
X167512952Y-144375190D01*
X167274857Y-144851380D02*
X167274857Y-143851380D01*
X167655809Y-143851380D01*
X167751047Y-143899000D01*
X167798666Y-143946619D01*
X167846285Y-144041857D01*
X167846285Y-144184714D01*
X167798666Y-144279952D01*
X167751047Y-144327571D01*
X167655809Y-144375190D01*
X167274857Y-144375190D01*
X168655809Y-144803761D02*
X168560571Y-144851380D01*
X168370095Y-144851380D01*
X168274857Y-144803761D01*
X168227238Y-144708523D01*
X168227238Y-144327571D01*
X168274857Y-144232333D01*
X168370095Y-144184714D01*
X168560571Y-144184714D01*
X168655809Y-144232333D01*
X168703428Y-144327571D01*
X168703428Y-144422809D01*
X168227238Y-144518047D01*
X169036761Y-144184714D02*
X169274857Y-144851380D01*
X169512952Y-144184714D01*
X171179619Y-144851380D02*
X170608190Y-144851380D01*
X170893904Y-144851380D02*
X170893904Y-143851380D01*
X170798666Y-143994238D01*
X170703428Y-144089476D01*
X170608190Y-144137095D01*
X171608190Y-144756142D02*
X171655809Y-144803761D01*
X171608190Y-144851380D01*
X171560571Y-144803761D01*
X171608190Y-144756142D01*
X171608190Y-144851380D01*
X172274857Y-143851380D02*
X172370095Y-143851380D01*
X172465333Y-143899000D01*
X172512952Y-143946619D01*
X172560571Y-144041857D01*
X172608190Y-144232333D01*
X172608190Y-144470428D01*
X172560571Y-144660904D01*
X172512952Y-144756142D01*
X172465333Y-144803761D01*
X172370095Y-144851380D01*
X172274857Y-144851380D01*
X172179619Y-144803761D01*
X172132000Y-144756142D01*
X172084380Y-144660904D01*
X172036761Y-144470428D01*
X172036761Y-144232333D01*
X172084380Y-144041857D01*
X172132000Y-143946619D01*
X172179619Y-143899000D01*
X172274857Y-143851380D01*
X174322476Y-144851380D02*
X173751047Y-144851380D01*
X174036761Y-144851380D02*
X174036761Y-143851380D01*
X173941523Y-143994238D01*
X173846285Y-144089476D01*
X173751047Y-144137095D01*
X174703428Y-143946619D02*
X174751047Y-143899000D01*
X174846285Y-143851380D01*
X175084380Y-143851380D01*
X175179619Y-143899000D01*
X175227238Y-143946619D01*
X175274857Y-144041857D01*
X175274857Y-144137095D01*
X175227238Y-144279952D01*
X174655809Y-144851380D01*
X175274857Y-144851380D01*
X176417714Y-143803761D02*
X175560571Y-145089476D01*
X176703428Y-143946619D02*
X176751047Y-143899000D01*
X176846285Y-143851380D01*
X177084380Y-143851380D01*
X177179619Y-143899000D01*
X177227238Y-143946619D01*
X177274857Y-144041857D01*
X177274857Y-144137095D01*
X177227238Y-144279952D01*
X176655809Y-144851380D01*
X177274857Y-144851380D01*
X178417714Y-143803761D02*
X177560571Y-145089476D01*
X178703428Y-143946619D02*
X178751047Y-143899000D01*
X178846285Y-143851380D01*
X179084380Y-143851380D01*
X179179619Y-143899000D01*
X179227238Y-143946619D01*
X179274857Y-144041857D01*
X179274857Y-144137095D01*
X179227238Y-144279952D01*
X178655809Y-144851380D01*
X179274857Y-144851380D01*
X179893904Y-143851380D02*
X179989142Y-143851380D01*
X180084380Y-143899000D01*
X180132000Y-143946619D01*
X180179619Y-144041857D01*
X180227238Y-144232333D01*
X180227238Y-144470428D01*
X180179619Y-144660904D01*
X180132000Y-144756142D01*
X180084380Y-144803761D01*
X179989142Y-144851380D01*
X179893904Y-144851380D01*
X179798666Y-144803761D01*
X179751047Y-144756142D01*
X179703428Y-144660904D01*
X179655809Y-144470428D01*
X179655809Y-144232333D01*
X179703428Y-144041857D01*
X179751047Y-143946619D01*
X179798666Y-143899000D01*
X179893904Y-143851380D01*
X180608190Y-143946619D02*
X180655809Y-143899000D01*
X180751047Y-143851380D01*
X180989142Y-143851380D01*
X181084380Y-143899000D01*
X181132000Y-143946619D01*
X181179619Y-144041857D01*
X181179619Y-144137095D01*
X181132000Y-144279952D01*
X180560571Y-144851380D01*
X181179619Y-144851380D01*
X181560571Y-143946619D02*
X181608190Y-143899000D01*
X181703428Y-143851380D01*
X181941523Y-143851380D01*
X182036761Y-143899000D01*
X182084380Y-143946619D01*
X182132000Y-144041857D01*
X182132000Y-144137095D01*
X182084380Y-144279952D01*
X181512952Y-144851380D01*
X182132000Y-144851380D01*
D11*
X162466000Y-45215714D02*
X162466000Y-40715714D01*
X164846952Y-45215714D02*
X164846952Y-40715714D01*
X167704095Y-45215714D01*
X167704095Y-40715714D01*
X169370761Y-40715714D02*
X172227904Y-40715714D01*
X170799333Y-45215714D02*
X170799333Y-40715714D01*
X173894571Y-43501428D02*
X177704095Y-43501428D01*
X182704095Y-45215714D02*
X179846952Y-45215714D01*
X181275523Y-45215714D02*
X181275523Y-40715714D01*
X180799333Y-41358571D01*
X180323142Y-41787142D01*
X179846952Y-42001428D01*
M02*
